<mxfile host="app.diagrams.net" modified="2021-08-19T14:32:57.822Z" agent="5.0 (Windows NT 10.0; Win64; x64) AppleWebKit/537.36 (KHTML, like Gecko) Chrome/92.0.4515.131 Safari/537.36 Edg/92.0.902.73" etag="6akep9ucpsuIPyL4Dvpc" version="14.9.6" type="github">
  <diagram id="3lDHWEGmOk67DDB6y1x7" name="Page-1">
    <mxGraphModel dx="395" dy="1122" grid="1" gridSize="10" guides="1" tooltips="1" connect="1" arrows="1" fold="1" page="1" pageScale="1" pageWidth="827" pageHeight="1169" math="0" shadow="0">
      <root>
        <mxCell id="0" />
        <mxCell id="1" parent="0" />
        <mxCell id="NkLvIqLFpbnPFktaiqOG-1" style="edgeStyle=orthogonalEdgeStyle;rounded=0;orthogonalLoop=1;jettySize=auto;html=1;exitX=1;exitY=0.25;exitDx=0;exitDy=0;" edge="1" parent="1" source="NkLvIqLFpbnPFktaiqOG-2" target="NkLvIqLFpbnPFktaiqOG-16">
          <mxGeometry relative="1" as="geometry" />
        </mxCell>
        <mxCell id="NkLvIqLFpbnPFktaiqOG-2" value="" style="whiteSpace=wrap;html=1;rounded=0;fontSize=14;opacity=80;dashed=1;strokeColor=#007FFF;fillColor=#E6E6E6;" vertex="1" parent="1">
          <mxGeometry x="1055" y="80" width="90" height="180" as="geometry" />
        </mxCell>
        <mxCell id="NkLvIqLFpbnPFktaiqOG-3" value="" style="whiteSpace=wrap;html=1;rounded=0;fontSize=14;fillColor=#ffffff;opacity=80;dashed=1;strokeColor=#007FFF;" vertex="1" parent="1">
          <mxGeometry x="865" y="80" width="190" height="180" as="geometry" />
        </mxCell>
        <mxCell id="NkLvIqLFpbnPFktaiqOG-4" value="SaaS" style="text;html=1;resizable=0;autosize=1;align=center;verticalAlign=middle;points=[];fillColor=#dae8fc;rounded=0;fontSize=14;opacity=80;fontFamily=Lucida Console;" vertex="1" parent="1">
          <mxGeometry x="920" y="90" width="50" height="20" as="geometry" />
        </mxCell>
        <mxCell id="NkLvIqLFpbnPFktaiqOG-5" value="Integration" style="text;html=1;resizable=0;autosize=1;align=center;verticalAlign=middle;points=[];fillColor=none;strokeColor=none;rounded=0;fontFamily=Helvetica;fontSize=12;opacity=80;" vertex="1" parent="1">
          <mxGeometry x="1062.25" y="90" width="70" height="20" as="geometry" />
        </mxCell>
        <mxCell id="NkLvIqLFpbnPFktaiqOG-6" style="edgeStyle=orthogonalEdgeStyle;rounded=0;orthogonalLoop=1;jettySize=auto;html=1;exitX=0;exitY=0.75;exitDx=0;exitDy=0;entryX=1.001;entryY=0.524;entryDx=0;entryDy=0;entryPerimeter=0;" edge="1" parent="1" source="NkLvIqLFpbnPFktaiqOG-7" target="NkLvIqLFpbnPFktaiqOG-34">
          <mxGeometry relative="1" as="geometry" />
        </mxCell>
        <mxCell id="NkLvIqLFpbnPFktaiqOG-7" value="" style="whiteSpace=wrap;html=1;rounded=0;fontSize=14;opacity=80;dashed=1;strokeColor=#007FFF;fillColor=#E6E6E6;" vertex="1" parent="1">
          <mxGeometry x="1630" y="80" width="90" height="180" as="geometry" />
        </mxCell>
        <mxCell id="NkLvIqLFpbnPFktaiqOG-8" value="" style="whiteSpace=wrap;html=1;rounded=0;fontSize=14;fillColor=#ffffff;opacity=80;dashed=1;strokeColor=#007FFF;" vertex="1" parent="1">
          <mxGeometry x="1720" y="80" width="190" height="180" as="geometry" />
        </mxCell>
        <mxCell id="NkLvIqLFpbnPFktaiqOG-9" value="IaaS" style="text;html=1;resizable=0;autosize=1;align=center;verticalAlign=middle;points=[];fillColor=#dae8fc;rounded=0;fontSize=14;opacity=80;fontFamily=Lucida Console;" vertex="1" parent="1">
          <mxGeometry x="1775" y="90" width="50" height="20" as="geometry" />
        </mxCell>
        <mxCell id="NkLvIqLFpbnPFktaiqOG-10" value="Integration" style="text;html=1;resizable=0;autosize=1;align=center;verticalAlign=middle;points=[];fillColor=none;strokeColor=none;rounded=0;fontFamily=Helvetica;fontSize=12;opacity=80;" vertex="1" parent="1">
          <mxGeometry x="1637.25" y="90" width="70" height="20" as="geometry" />
        </mxCell>
        <mxCell id="NkLvIqLFpbnPFktaiqOG-11" value="" style="shape=image;verticalLabelPosition=bottom;labelBackgroundColor=#ffffff;verticalAlign=top;aspect=fixed;imageAspect=0;image=data:image/svg+xml,PHN2ZyB4bWxuczpkYz0iaHR0cDovL3B1cmwub3JnL2RjL2VsZW1lbnRzLzEuMS8iIHhtbG5zOmNjPSJodHRwOi8vY3JlYXRpdmVjb21tb25zLm9yZy9ucyMiIHhtbG5zOnJkZj0iaHR0cDovL3d3dy53My5vcmcvMTk5OS8wMi8yMi1yZGYtc3ludGF4LW5zIyIgeG1sbnM6c3ZnPSJodHRwOi8vd3d3LnczLm9yZy8yMDAwL3N2ZyIgeG1sbnM9Imh0dHA6Ly93d3cudzMub3JnLzIwMDAvc3ZnIiB4bWxuczpzb2RpcG9kaT0iaHR0cDovL3NvZGlwb2RpLnNvdXJjZWZvcmdlLm5ldC9EVEQvc29kaXBvZGktMC5kdGQiIHhtbG5zOmlua3NjYXBlPSJodHRwOi8vd3d3Lmlua3NjYXBlLm9yZy9uYW1lc3BhY2VzL2lua3NjYXBlIiB2ZXJzaW9uPSIxLjEiIGlkPSJzdmc2NjA5NiIgaW5rc2NhcGU6dmVyc2lvbj0iMC45Mi4zICgyNDA1NTQ2LCAyMDE4LTAzLTExKSIgc29kaXBvZGk6ZG9jbmFtZT0iYXp1cmVfdm1fc2NhbGVfc2V0LnN2ZyIgeD0iMHB4IiB5PSIwcHgiIHZpZXdCb3g9IjAgMCAzNy41IDM3LjUiIHhtbDpzcGFjZT0icHJlc2VydmUiIHdpZHRoPSIzNy41IiBoZWlnaHQ9IjM3LjUiPjxtZXRhZGF0YSBpZD0ibWV0YWRhdGEyMDk1NyI+PHJkZjpSREY+PGNjOldvcmsgcmRmOmFib3V0PSIiPjxkYzpmb3JtYXQ+aW1hZ2Uvc3ZnK3htbDwvZGM6Zm9ybWF0PjxkYzp0eXBlIHJkZjpyZXNvdXJjZT0iaHR0cDovL3B1cmwub3JnL2RjL2RjbWl0eXBlL1N0aWxsSW1hZ2UiLz48ZGM6dGl0bGUvPjwvY2M6V29yaz48L3JkZjpSREY+PC9tZXRhZGF0YT48ZGVmcyBpZD0iZGVmczIwOTU1Ii8+JiN4YTs8ZmlsdGVyIGlkPSJmaWx0ZXJfMiI+JiN4YTsJPGZlR2F1c3NpYW5CbHVyIGlkPSJmZUdhdXNzaWFuQmx1cjY1OTMzIiBzdGREZXZpYXRpb249IjIiLz4mI3hhOzwvZmlsdGVyPiYjeGE7PHNvZGlwb2RpOm5hbWVkdmlldyBib3JkZXJjb2xvcj0iIzY2NjY2NiIgYm9yZGVyb3BhY2l0eT0iMSIgZml0LW1hcmdpbi1ib3R0b209IjAiIGZpdC1tYXJnaW4tbGVmdD0iMCIgZml0LW1hcmdpbi1yaWdodD0iMCIgZml0LW1hcmdpbi10b3A9IjAiIGdyaWR0b2xlcmFuY2U9IjEwIiBndWlkZXRvbGVyYW5jZT0iMTAiIGlkPSJuYW1lZHZpZXc2NjA5OCIgaW5rc2NhcGU6Y3VycmVudC1sYXllcj0ic3ZnNjYwOTYiIGlua3NjYXBlOmN4PSItNS43MTM2Mjk5IiBpbmtzY2FwZTpjeT0iOC42NTU1MTUzIiBpbmtzY2FwZTpwYWdlb3BhY2l0eT0iMCIgaW5rc2NhcGU6cGFnZXNoYWRvdz0iMiIgaW5rc2NhcGU6d2luZG93LWhlaWdodD0iMTAxNyIgaW5rc2NhcGU6d2luZG93LW1heGltaXplZD0iMSIgaW5rc2NhcGU6d2luZG93LXdpZHRoPSIxOTIwIiBpbmtzY2FwZTp3aW5kb3cteD0iLTgiIGlua3NjYXBlOndpbmRvdy15PSItOCIgaW5rc2NhcGU6em9vbT0iMTAuNTcwMDIyIiBvYmplY3R0b2xlcmFuY2U9IjEwIiBwYWdlY29sb3I9IiNmZmZmZmYiIHNob3dncmlkPSJmYWxzZSI+JiN4YTsJPC9zb2RpcG9kaTpuYW1lZHZpZXc+JiN4YTsmI3hhOzxwYXRoIGlkPSJwYXRoNjU5NDYiIGlua3NjYXBlOmNvbm5lY3Rvci1jdXJ2YXR1cmU9IjAiIHN0eWxlPSJmaWxsOiNhMGExYTIiIGQ9Ik0gMjYuNzksMCBIIDEuNTUgQyAwLjY5LDAgMCwwLjc3IDAsMS42MiBWIDE5LjIgYyAwLDAuODUgMC42OSwxLjYxIDEuNTUsMS42MSBoIDI1LjI0IGMgMC44NiwwIDEuNzIsLTAuNzYgMS43MiwtMS42MSBWIDEuNjIgQyAyOC41MSwwLjc2IDI3LjY1LDAgMjYuNzksMCBaIi8+JiN4YTsmI3hhOzxwYXRoIGlkPSJwYXRoNjU5NTQiIGlua3NjYXBlOmNvbm5lY3Rvci1jdXJ2YXR1cmU9IjAiIHN0eWxlPSJmaWxsOiNmZmZmZmY7ZmlsbC1vcGFjaXR5OjAuMiIgZD0iTSAyNi44MSwwIEMgMjYuOCwwIDI2LjgsMCAyNi43OSwwIEggMS41NSBDIDAuNjksMCAwLDAuNzcgMCwxLjYyIFYgMTkuMiBjIDAsMC44NSAwLjY5LDEuNjEgMS41NSwxLjYxIGggMC42IHoiLz4mI3hhOyYjeGE7PHBhdGggaWQ9InBhdGg2NTk2MiIgaW5rc2NhcGU6Y29ubmVjdG9yLWN1cnZhdHVyZT0iMCIgc3R5bGU9ImZpbGw6IzU5YjRkOSIgZD0iTSAyNi4zNSwxOC42MiBIIDIuMTYgViAyLjE5IEwgMjYuMzUsMi4xNiBaIi8+JiN4YTsmI3hhOzxwYXRoIGlkPSJwYXRoNjU5NzAiIGlua3NjYXBlOmNvbm5lY3Rvci1jdXJ2YXR1cmU9IjAiIHN0eWxlPSJmaWxsOiNiOGQ0MzIiIGQ9Im0gMTQuNTUsMS4yIGMgMCwwLjIyIC0wLjE4LDAuNCAtMC40MSwwLjQgLTAuMjIsMCAtMC40LC0wLjE4IC0wLjQsLTAuNCAwLC0wLjIzIDAuMTgsLTAuNDEgMC40LC0wLjQxIDAuMjMsMCAwLjQxLDAuMTggMC40MSwwLjQxIHoiLz4mI3hhOyYjeGE7PHBhdGggaWQ9InBhdGg2NTk3OCIgaW5rc2NhcGU6Y29ubmVjdG9yLWN1cnZhdHVyZT0iMCIgc3R5bGU9ImZpbGw6I2ZmZmZmZiIgZD0iTSAxNC41Nyw5LjkxIEMgMTQuNTUsOS45MSAxNC41Miw5LjkgMTQuNSw5Ljg5IEwgOS40Nyw2Ljk5IEMgOS40Myw2Ljk3IDkuNCw2LjkyIDkuNCw2Ljg2IDkuNCw2LjgxIDkuNDMsNi43NiA5LjQ3LDYuNzMgbCA1LC0yLjg3IGMgMC4wNCwtMC4wMyAwLjEsLTAuMDMgMC4xNSwwIGwgNS4wMiwyLjg5IGMgMC4wNCwwLjAzIDAuMDcsMC4wOCAwLjA3LDAuMTMgMCwwLjA2IC0wLjAyLDAuMTEgLTAuMDcsMC4xMyBMIDE0LjY1LDkuODkgQyAxNC42Myw5LjkgMTQuNiw5LjkxIDE0LjU3LDkuOTEgWiIvPiYjeGE7JiN4YTs8cGF0aCBpZD0icGF0aDY1OTg2IiBpbmtzY2FwZTpjb25uZWN0b3ItY3VydmF0dXJlPSIwIiBzdHlsZT0iZmlsbDojYTBhMWEyIiBkPSJNIDMxLjI1LDUuNTkgSCA2LjAxIGMgLTAuODYsMCAtMS41NSwwLjc3IC0xLjU1LDEuNjIgdiAxNy41OCBjIDAsMC44NSAwLjY5LDEuNjEgMS41NSwxLjYxIGggMjUuMjQgYyAwLjg2LDAgMS43MiwtMC43NiAxLjcyLC0xLjYxIFYgNy4yMSBjIDAsLTAuODYgLTAuODYsLTEuNjIgLTEuNzIsLTEuNjIgeiIvPiYjeGE7JiN4YTs8cGF0aCBpZD0icGF0aDY1OTk0IiBpbmtzY2FwZTpjb25uZWN0b3ItY3VydmF0dXJlPSIwIiBzdHlsZT0iZmlsbDojZmZmZmZmO2ZpbGwtb3BhY2l0eTowLjIiIGQ9Im0gMzEuMjcsNS41OSBjIC0wLjAxLDAgLTAuMDEsMCAtMC4wMiwwIEggNi4wMSBjIC0wLjg2LDAgLTEuNTUsMC43NyAtMS41NSwxLjYyIHYgMTcuNTggYyAwLDAuODUgMC42OSwxLjYxIDEuNTUsMS42MSBoIDAuNiB6Ii8+JiN4YTsmI3hhOzxwYXRoIGlkPSJwYXRoNjYwMDIiIGlua3NjYXBlOmNvbm5lY3Rvci1jdXJ2YXR1cmU9IjAiIHN0eWxlPSJmaWxsOiM1OWI0ZDkiIGQ9Ik0gMzAuODEsMjQuMjEgSCA2LjYyIFYgNy43OCBMIDMwLjgxLDcuNzUgYyAwLDAgMCwxNi40NiAwLDE2LjQ2IHoiLz4mI3hhOyYjeGE7PHBhdGggaWQ9InBhdGg2NjAxMCIgaW5rc2NhcGU6Y29ubmVjdG9yLWN1cnZhdHVyZT0iMCIgc3R5bGU9ImZpbGw6I2I4ZDQzMiIgZD0ibSAxOS4wMSw2Ljc5IGMgMCwwLjIyIC0wLjE4LDAuNCAtMC40MSwwLjQgLTAuMjIsMCAtMC40LC0wLjE4IC0wLjQsLTAuNCAwLC0wLjIzIDAuMTgsLTAuNDEgMC40LC0wLjQxIDAuMjMsMCAwLjQxLDAuMTggMC40MSwwLjQxIHoiLz4mI3hhOyYjeGE7PHBhdGggaWQ9InBhdGg2NjAxOCIgaW5rc2NhcGU6Y29ubmVjdG9yLWN1cnZhdHVyZT0iMCIgc3R5bGU9ImZpbGw6I2ZmZmZmZiIgZD0ibSAxOS4wMywxNS41IGMgLTAuMDIsMCAtMC4wNSwtMC4wMSAtMC4wNywtMC4wMiBsIC01LjAzLC0yLjkgYyAtMC4wNCwtMC4wMiAtMC4wNywtMC4wNyAtMC4wNywtMC4xMyAwLC0wLjA1IDAuMDMsLTAuMSAwLjA3LC0wLjEzIGwgNSwtMi44NyBjIDAuMDQsLTAuMDMgMC4xLC0wLjAzIDAuMTUsMCBsIDUuMDIsMi44OSBjIDAuMDQsMC4wMyAwLjA3LDAuMDggMC4wNywwLjEzIDAsMC4wNiAtMC4wMiwwLjExIC0wLjA3LDAuMTMgbCAtNC45OSwyLjg4IGMgLTAuMDMsMC4wMSAtMC4wNSwwLjAyIC0wLjA4LDAuMDIgeiIvPiYjeGE7JiN4YTs8cGF0aCBpZD0icGF0aDY2MDI2IiBpbmtzY2FwZTpjb25uZWN0b3ItY3VydmF0dXJlPSIwIiBzdHlsZT0iZmlsbDojN2E3YTdhIiBkPSJNIDI3LjQ4LDMyLjAyIEggMjYuOCAyMC4wNyAxOS43MiBjIDAuOTMsMy4yOSAtMC4zMiwzLjc2IC01LjgsMy43NiB2IDEuNzIgaCA2Ljk3IDUuMDkgNi41OCB2IC0xLjcyIGMgLTUuNDgsMCAtNi4wMiwtMC40NyAtNS4wOCwtMy43NiB6Ii8+JiN4YTsmI3hhOzxwYXRoIGlkPSJwYXRoNjYwMzQiIGlua3NjYXBlOmNvbm5lY3Rvci1jdXJ2YXR1cmU9IjAiIHN0eWxlPSJmaWxsOiNhMGExYTIiIGQ9Ik0gMzUuNzgsMTEuMjIgSCAxMC41NCBjIC0wLjg2LDAgLTEuNTUsMC43NyAtMS41NSwxLjYyIHYgMTcuNTggYyAwLDAuODUgMC42OSwxLjYxIDEuNTUsMS42MSBoIDI1LjI0IGMgMC44NiwwIDEuNzIsLTAuNzYgMS43MiwtMS42MSBWIDEyLjg0IGMgMCwtMC44NSAtMC44NiwtMS42MiAtMS43MiwtMS42MiB6Ii8+JiN4YTsmI3hhOzxwYXRoIGlkPSJwYXRoNjYwNDIiIGlua3NjYXBlOmNvbm5lY3Rvci1jdXJ2YXR1cmU9IjAiIHN0eWxlPSJmaWxsOiNmZmZmZmY7ZmlsbC1vcGFjaXR5OjAuMiIgZD0ibSAzNS43OSwxMS4yMiBjIC0wLjAxLDAgLTAuMDEsMCAtMC4wMiwwIEggMTAuNTMgYyAtMC44NiwwIC0xLjU1LDAuNzcgLTEuNTUsMS42MiB2IDE3LjU4IGMgMCwwLjg1IDAuNjksMS42MSAxLjU1LDEuNjEgaCAwLjYgeiIvPiYjeGE7JiN4YTs8cGF0aCBpZD0icGF0aDY2MDUwIiBpbmtzY2FwZTpjb25uZWN0b3ItY3VydmF0dXJlPSIwIiBzdHlsZT0iZmlsbDojNTliNGQ5IiBkPSJNIDM1LjM0LDI5Ljg0IEggMTEuMTUgViAxMy40MSBsIDI0LjE5LC0wLjAzIHoiLz4mI3hhOyYjeGE7PHJlY3QgaWQ9InJlY3Q2NjA1OCIgeD0iMTMuOTE5OTk4IiB5PSIzNS43Nzk5OTkiIHN0eWxlPSJmaWxsOiNhMGExYTIiIHdpZHRoPSIxOC42Mzk5OTkiIGhlaWdodD0iMS43MiIvPiYjeGE7JiN4YTs8cGF0aCBpZD0icGF0aDY2MDY2IiBpbmtzY2FwZTpjb25uZWN0b3ItY3VydmF0dXJlPSIwIiBzdHlsZT0iZmlsbDojYjhkNDMyIiBkPSJtIDIzLjU0LDEyLjQxIGMgMCwwLjIyIC0wLjE4LDAuNCAtMC40MSwwLjQgLTAuMjIsMCAtMC40LC0wLjE4IC0wLjQsLTAuNCAwLC0wLjIzIDAuMTgsLTAuNDEgMC40LC0wLjQxIDAuMjMsMCAwLjQxLDAuMTggMC40MSwwLjQxIHoiLz4mI3hhOyYjeGE7PHBhdGggaWQ9InBhdGg2NjA3NCIgaW5rc2NhcGU6Y29ubmVjdG9yLWN1cnZhdHVyZT0iMCIgc3R5bGU9ImZpbGw6I2ZmZmZmZiIgZD0ibSAyMy41NSwyMS4xMiBjIC0wLjAyLDAgLTAuMDUsLTAuMDEgLTAuMDcsLTAuMDIgbCAtNS4wMywtMi45IGMgLTAuMDQsLTAuMDIgLTAuMDcsLTAuMDcgLTAuMDcsLTAuMTMgMCwtMC4wNSAwLjAzLC0wLjEgMC4wNywtMC4xMyBsIDUsLTIuODcgYyAwLjA0LC0wLjAzIDAuMSwtMC4wMyAwLjE1LDAgbCA1LjAyLDIuODkgYyAwLjA0LDAuMDMgMC4wNywwLjA4IDAuMDcsMC4xMyAwLDAuMDYgLTAuMDIsMC4xMSAtMC4wNywwLjEzIGwgLTQuOTksMi44OCBjIC0wLjAyLDAuMDEgLTAuMDUsMC4wMiAtMC4wOCwwLjAyIHoiLz4mI3hhOyYjeGE7PHBhdGggaWQ9InBhdGg2NjA4MiIgaW5rc2NhcGU6Y29ubmVjdG9yLWN1cnZhdHVyZT0iMCIgc3R5bGU9ImZpbGw6I2ZmZmZmZjtmaWxsLW9wYWNpdHk6MC43IiBkPSJtIDIyLjgzLDI4LjE2IGMgLTAuMDMsMCAtMC4wNSwtMC4wMSAtMC4wOCwtMC4wMiBsIC01LC0yLjg5IEMgMTcuNywyNS4yMyAxNy42NywyNS4xOCAxNy42NywyNS4xMiB2IC01Ljc5IGMgMCwtMC4wNSAwLjAzLC0wLjEgMC4wOCwtMC4xMyAwLjA0LC0wLjAzIDAuMSwtMC4wMyAwLjE1LDAgbCA1LjAxLDIuODkgYyAwLjA0LDAuMDMgMC4wNywwLjA3IDAuMDcsMC4xMyB2IDUuNzkgYyAwLDAuMDUgLTAuMDMsMC4xIC0wLjA3LDAuMTMgLTAuMDMsMC4wMSAtMC4wNSwwLjAyIC0wLjA4LDAuMDIgeiIvPiYjeGE7JiN4YTs8cGF0aCBpZD0icGF0aDY2MDkwIiBpbmtzY2FwZTpjb25uZWN0b3ItY3VydmF0dXJlPSIwIiBzdHlsZT0iZmlsbDojZmZmZmZmO2ZpbGwtb3BhY2l0eTowLjQiIGQ9Im0gMjQuMjUsMjguMTYgYyAtMC4wMywwIC0wLjA1LC0wLjAxIC0wLjA4LC0wLjAyIC0wLjA0LC0wLjAzIC0wLjA3LC0wLjA4IC0wLjA3LC0wLjEzIHYgLTUuNzYgYyAwLC0wLjA1IDAuMDMsLTAuMSAwLjA3LC0wLjEzIGwgNS4wMSwtMi44OCBjIDAuMDUsLTAuMDMgMC4xLC0wLjAzIDAuMTUsMCAwLjA1LDAuMDMgMC4wOCwwLjA4IDAuMDgsMC4xMyB2IDUuNzUgYyAwLDAuMDYgLTAuMDMsMC4xMSAtMC4wOCwwLjE0IGwgLTUsMi44OCBjIC0wLjAzLDAuMDEgLTAuMDUsMC4wMiAtMC4wOCwwLjAyIHoiLz4mI3hhOzwvc3ZnPg==;" vertex="1" parent="1">
          <mxGeometry x="1765.5" y="130" width="88" height="88" as="geometry" />
        </mxCell>
        <mxCell id="NkLvIqLFpbnPFktaiqOG-12" value="" style="shape=image;verticalLabelPosition=bottom;labelBackgroundColor=#ffffff;verticalAlign=top;aspect=fixed;imageAspect=0;image=data:image/png,iVBORw0KGgoAAAANSUhEUgAAAJUAAAAmCAYAAADN/NmUAAALVUlEQVR4Ae1b63OWxRXPh/4P/aKdakfth061tdM6FhmwKtNOEB0sVKdaLoJASQgMhqCoIAnlpuEiahJUQFMIl3DTSElSAk0gXEIDaGiJCAJJCSSEcL/O6fyezHnmPLtnN++bROcd3/fMPNl9ds+ePXv2t7tnz/MmjVKUskAvWyCtl+WlxH1HFti+5wvasmM/bSivpZWbd9DS1Vvp7Q83fke9+7tJgcpvn4StHZI5h3740AuR5+lxsxJCXyeoWtsv0IH/HAtWQ1HJVlpSXEYlZdVUXl1Pew81UuPxZjp7roNu3rqdEANJNiWGZS+IAAoAS0hQXbx8lT7esI0Gj59tKWyuCn5vaT2fbPOZEOMd98Z71hwlHKhq6hrowacmWYoyeFxpQlg4CZWYPPtDa64SClTNZ87Rw0OyLSVdQOLy5yfnJ+F0JsaQX19QbM1XQoFqRM4iS8H7nhhL2GILVm6hsqp9VF5TT8WbqmjBsk304ivv0ANPZtGUecsTw8JJqMXf3l9jzVnCgOrK1ev0434vRhTs+9xU+u/XTd6punb9BlXU1Ht5UpXfngUWLt8cmTOcHgkDqqrdhyzlensHOn/xMu3cfzh8vj1TJ4/kglVbrHlLGFDNLSq1lMucWdTj2QGQ5i1dT796Wnf+f/f8NCr57F+RfgDw9Vtr6YM15QS9cPzmvrs65EGQLyt3KT0+7PVA54eHTKEXXs6n1/KLg/BHyEhEx0610JvvlBD8vvvTJ9BPHh0d+I1PjsklhEjOX7gk2Qn6Qh+MHZPDfqOZYjzgqak7HGl/6Mg3wXgxZrTHU7Z9X8Bzovls0EbKwvgBDJPACxmol/ycZ7kr1m+z6lEHam5po5lLSgI3BacO2sIGsBsc/AOHj4XdXrpxk/7ecMJ6UO6iG6caqOPzReFz5WB5hDUNRxgrLNNNlbsjjPG8rPp0B9372BhVruwDeRgCEwpaVlpptfnr9Pfp8NGT9NJr71p1UhZ8vMpdBwM5H62toPvTM738vxiURd80nQmHBZBIebHk5eLDmM0284pKCWBz2QL1TLABFocpQ3uHrqvLqi1e2BLz9tAzL1t1phyAEnS0/RKlr62xnuIvT7BqVto8vR+dzLwn8kimNKwMs0N+xyrfWv1vyd9lXjMuy3Olw7IXBnIrdx2wdBk4eibd98Q4q1yTdccjI7y7jNlmWv4n4Xiwq5j1sbwzMDRQYrdx7dSQzbsdAOXamTQdMGeb/7nX0heg0vi1snsfH0uQAxpRts8CVWaF7i/fvtIRARPAdXrOwNCOyAQR9aET5nqViRVcWJXmAO557CUC0FCHB5OnxcPAgyi92V6+/3LQxAA0vx48me7sO9LL+6O+I4PjDls+DCjlyHx7R+cxCHCgHLo9NXYW/SV7AaEMT8abhUGZbMd57EJMXBZryu0edRx1KEff0AU6wZaQDarcaS9A7vfOR0bQbwZPDmzlA/WMxasCWRXHWyxQYffSjsBrjbUWqC5u+4iHEqQBqHDGskK+dPS0JbT7wJGIAPmCgcv2MAKvBsmHlckGYn6sMtwo+V2mDwycEBhRyoBc+FOSj/NZeUup6XSbZA8+uHK9TOu++Crggzw+hiMNxQt4tAWBxQLS6tAXxgpwSJACKCAGs9QJYGKZAZP4w/ZEsFq24TyOZObhZuDVdrHnJr3FLDR0Y60FLIDNpI6yRRaobradirCF3/5wFrNiXaWvvPVxRAhetO1fc0S5IY4esx/UYYcxy2EUjTTD3tV/lMYalMHgpuy1W3Y6+bUKDQR8jJmLCn0BIC6wotz0t1wL0dRFG/vcwnUmW/iuzS92MSb4UKZvlb+3kavDFEed9Kdai8aGdZwJQYWCM20dwe3KNLz2DmdQElaiyWeuGMmvgRBlvx06xZLjAhXkYauX/f48PVN2E8mrEyGc5Qiz40XTmxePBioGnCZOAyjKYiFtLHnipqzJkHbiPPPhqDNBNXRj9LKm+VPmzQ/yIqDiDvA7HTjI3LErhb/CZG79WIG4GrsebdfABDybNd/q1wcq+A5SP4QZXHTkWFOEF+0QuuiKoBfibJ9vr7NCA5DBoQMNVD7Zmi/lW4hSlgYq9pEkn8z/7A/jrfHLeuxMJrBwO2S6VLsuskvhFqiRCipmxLWTY0Jy4mQesSCQLOtuHpOXPWeZJcsHKtNXGDD8DVbfShGbMnXTQAU9AHqfkyvlgB+k7daWEqJAyuC8qPZmNVAhJOGj/n9+NTJ+efyhnRZekKGFtk+yI6CCf6WRF1TcoCtwwSlmo/QkxeTMLlhryfKBygT9oDF5rLaV3rp925ItQQUfxwRpLONhUGnHmaWEKNBki2pvVgNVzvwV3jawjexTs1VO1aHIboV3JjM+ZTrozBcTqJgZEyCV4rz2qQd1MDIMHuuDSX31bduB94HK/HXF70fOYHWt1LdToW8tVoQjCpcKhDwwDu3zSKKACtFyH8E2PGdINVvtamqLgIpDC4iid+Wgc99xgQqNELOSiiGPzypmGd5d12LuXEt1X0u//aE9HHPZN4DholOnWyO8aMc7lXl04RbGvpKUBwDJ/pDvLqjMsApkaX3K/jmv7VQTcv2f18xF47KVGQwF0BCLkqDSHHTWLW5QTV+00jIqVjHiLqaxMVHx0vApCy05vp3qrn6jIvx9/pTj7BKfe0wdASo4x2Y53+hMYT5QxeuoazbD8RsLaaDCJy0fwTZynC5bbWhsjuxWeJfxKZeDzn3HDSptJ8GtCsCSCnMe5fHQM8pPmX2g4n44RbTdRfhtPfNxClD5gGLK8vHGC6qe2EwDFYLTPoJteNxIXbaS4YWM8vogsi4j6S4HnfsOQJUxoyD4dYAZhWYmpPhHCPxgTyqFvLxBmGEF5i1c9Q9nABCysVPgug7C7Y3bceoClRaBR/TdRdtq7Z/5AFTa5LoWg8bLx1+8oIKeLpshFAM/TyO4Ffgmy/bhdOTUxRp7WAbbMC9Sn60QXoCT3nL5GlHrcqLrx6l9XW5wBLocdO4oDZ8pZEd39x8dfDdKHzUzuAlhO/bdiGa9t4ZlqSueZSNuBTm49mK3Y7kcUYZxQYgzcRtOXaBqa79g8f50wLhQHzOzuXKPxQ9QYZK4L045zsa/A8PCcNmBj8rugErrm3VAij5hL3x0R57tpYEKn618BNtI2T5bhXJOTiSq+wFRw4OE4Kf5nS/kE5k0GFV2FE9+0qwPhKjOrLaSY5GJCQGZjjfaukCFn66Ysu/2fKbB77FMfowf5NoxTH7tnaPgGqhiCWZ2x2ba8ffsxPnBWFx/YBupv89WgYwLVZ2AAqjwtHT+msQln8vTzGum7NSX911fcRzEO0kMKny7M/t1garhK9vxvqPPcB6blWK3MWUzqLBjaLcxk1/7ZskXEg1UfDRayhgF6D8em2mg+mPGHENq9BW2kePx2SpsCWDxc6s9LPZl0jJmFAa/CpSd+fL4mPz1ydM+mWEdVqB2w5HyOQ4Eo4L4WJSpC1R7Dh5R+UMFjAz+LVzKRZ5BBVb4MACICS5MNspZRwALAOIH7yB+lym3MVRxvrLNTB3YZrAXeGATcyx491G8/PsayqiwNCN41lTk0dVrF33iw7rw9od/JIWi8tn/5dHgN074Fy7U95SwavlxOaE97aM32yeCjmyveMHZG3ZYuHIY5SzuEz7V9Z2f5LqSHYKqK8ZUfXJZ4FzH/0IwMbCaz7p/SyetkwKVtEYqH1pgxac5EVBh14qVUqCK1VJJwocdasVnUyOAwk4F/ypWSoEqVkt9z/ngL8Ep56NOpvHsUjBTClTfc7DEOjwJIpmfXjCAYvWluK8UqNgSSZ4CPBJMyHcHUDBjClRJDiYe/uryvBBUBaXjCcdhrHEplsFpClRsiVTaaxb4P267ET5flwtDAAAAAElFTkSuQmCC;" vertex="1" parent="1">
          <mxGeometry x="1775" y="230" width="78.42" height="20" as="geometry" />
        </mxCell>
        <mxCell id="NkLvIqLFpbnPFktaiqOG-13" value="" style="shape=image;verticalLabelPosition=bottom;labelBackgroundColor=#ffffff;verticalAlign=top;aspect=fixed;imageAspect=0;image=data:image/svg+xml,PHN2ZyB4bWxuczpjYz0iaHR0cDovL2NyZWF0aXZlY29tbW9ucy5vcmcvbnMjIiB4bWxuczpkYz0iaHR0cDovL3B1cmwub3JnL2RjL2VsZW1lbnRzLzEuMS8iIHhtbG5zOmlua3NjYXBlPSJodHRwOi8vd3d3Lmlua3NjYXBlLm9yZy9uYW1lc3BhY2VzL2lua3NjYXBlIiB4bWxuczpyZGY9Imh0dHA6Ly93d3cudzMub3JnLzE5OTkvMDIvMjItcmRmLXN5bnRheC1ucyMiIHhtbG5zOnNvZGlwb2RpPSJodHRwOi8vc29kaXBvZGkuc291cmNlZm9yZ2UubmV0L0RURC9zb2RpcG9kaS0wLmR0ZCIgeG1sbnM6c3ZnPSJodHRwOi8vd3d3LnczLm9yZy8yMDAwL3N2ZyIgeG1sbnM9Imh0dHA6Ly93d3cudzMub3JnLzIwMDAvc3ZnIiB4bWxuczp4bGluaz0iaHR0cDovL3d3dy53My5vcmcvMTk5OS94bGluayIgdmVyc2lvbj0iMS4xIiBpZD0ic3ZnMTAwMzAzIiBpbmtzY2FwZTp2ZXJzaW9uPSIwLjkyLjMgKDI0MDU1NDYsIDIwMTgtMDMtMTEpIiBzb2RpcG9kaTpkb2NuYW1lPSJnZW5lcmljX2RhdGFiYXNlX2JsdWUuc3ZnIiB4PSIwcHgiIHk9IjBweCIgdmlld0JveD0iMCAwIDM2Ljc5IDQ3LjY5IiBzdHlsZT0iZW5hYmxlLWJhY2tncm91bmQ6bmV3IDAgMCAzNi43OSA0Ny42OTsiIHhtbDpzcGFjZT0icHJlc2VydmUiPiYjeGE7PHNvZGlwb2RpOm5hbWVkdmlldyBib3JkZXJjb2xvcj0iIzY2NjY2NiIgYm9yZGVyb3BhY2l0eT0iMSIgZml0LW1hcmdpbi1ib3R0b209IjAiIGZpdC1tYXJnaW4tbGVmdD0iMCIgZml0LW1hcmdpbi1yaWdodD0iMCIgZml0LW1hcmdpbi10b3A9IjAiIGdyaWR0b2xlcmFuY2U9IjEwIiBndWlkZXRvbGVyYW5jZT0iMTAiIGlkPSJuYW1lZHZpZXcxMDAzMDUiIGlua3NjYXBlOmN1cnJlbnQtbGF5ZXI9InN2ZzEwMDMwMyIgaW5rc2NhcGU6Y3g9IjI0LjUzMDAwMSIgaW5rc2NhcGU6Y3k9IjMxLjc5MTY2OSIgaW5rc2NhcGU6cGFnZW9wYWNpdHk9IjAiIGlua3NjYXBlOnBhZ2VzaGFkb3c9IjIiIGlua3NjYXBlOndpbmRvdy1oZWlnaHQ9IjEwMTciIGlua3NjYXBlOndpbmRvdy1tYXhpbWl6ZWQ9IjEiIGlua3NjYXBlOndpbmRvdy13aWR0aD0iMTkyMCIgaW5rc2NhcGU6d2luZG93LXg9Ii04IiBpbmtzY2FwZTp3aW5kb3cteT0iLTgiIGlua3NjYXBlOnpvb209IjEzLjIxODQ4MSIgb2JqZWN0dG9sZXJhbmNlPSIxMCIgcGFnZWNvbG9yPSIjZmZmZmZmIiBzaG93Z3JpZD0iZmFsc2UiPiYjeGE7CTwvc29kaXBvZGk6bmFtZWR2aWV3PiYjeGE7PGcgaWQ9ImcxMDAzMDEiIHRyYW5zZm9ybT0idHJhbnNsYXRlKC0wLjc1LC0wLjc0NSkiPiYjeGE7CTx0aXRsZSBpZD0idGl0bGUxMDAyNjkiPlBhZ2UtMTwvdGl0bGU+JiN4YTsJPGcgaWQ9Imdyb3VwMzQ5My0xIiB0cmFuc2Zvcm09InRyYW5zbGF0ZSgxLjUsLTEuNSkiPiYjeGE7CQk8dGl0bGUgaWQ9InRpdGxlMTAwMjcxIj5HZW5lcmljIERhdGFiYXNlIChCbHVlKTwvdGl0bGU+JiN4YTsJCTxnIGlkPSJncm91cDM0OTQtMiI+JiN4YTsJCQk8dGl0bGUgaWQ9InRpdGxlMTAwMjczIj5nMTQ1MDwvdGl0bGU+JiN4YTsJCQk8ZyBpZD0ic2hhcGUzNDk1LTMiPiYjeGE7CQkJCTx0aXRsZSBpZD0idGl0bGUxMDAyNzUiPnBhdGgxNDQyPC90aXRsZT4mI3hhOwkJCQk8cGF0aCBpZD0icGF0aDEwMDI3NyIgaW5rc2NhcGU6Y29ubmVjdG9yLWN1cnZhdHVyZT0iMCIgc3R5bGU9ImZpbGw6I0ZGRkZGRjsiIGQ9Ik0zMS43OSw5TDIxLjQ0LDkuMDlMMCw5LjI3djMzLjM3ICAgICAgYzAsMy40Miw3LjUsNi4zNywxNy4yNSw2LjU1aDAuMzdjMS4zMiwwLDIuNi0wLjA3LDMuODItMC4xOWMzLjU3LTAuMjIsNy4wOC0xLjA3LDEwLjM1LTIuNTNjMi4xOS0xLjEsMy40Ni0yLjQ0LDMuNDYtMy44M1Y4Ljk3ICAgICAgTDMxLjc5LDl6Ii8+JiN4YTsJCQk8L2c+JiN4YTsJCQk8ZyBpZD0ic2hhcGUzNDk2LTUiIHRyYW5zZm9ybT0idHJhbnNsYXRlKDIxLjQ0MjUsLTAuMjEpIj4mI3hhOwkJCQk8dGl0bGUgaWQ9InRpdGxlMTAwMjgwIj5wYXRoMTQ0NDwvdGl0bGU+JiN4YTsJCQkJPHBhdGggaWQ9InBhdGgxMDAyODIiIGlua3NjYXBlOmNvbm5lY3Rvci1jdXJ2YXR1cmU9IjAiIHN0eWxlPSJmaWxsOiNFNUU1RTU7IiBkPSJNMTAuMzUsOS4yMXYzNy40NSAgICAgIEM3LjA4LDQ4LjEyLDMuNTcsNDguOTcsMCw0OS4xOVY5LjNMMTAuMzUsOS4yMXoiLz4mI3hhOwkJCTwvZz4mI3hhOwkJCTxnIGlkPSJzaGFwZTM0OTctNyI+JiN4YTsJCQkJPHRpdGxlIGlkPSJ0aXRsZTEwMDI4NSI+cGF0aDE0NDY8L3RpdGxlPiYjeGE7CQkJCTxwYXRoIGlkPSJwYXRoMTAwMjg3IiBpbmtzY2FwZTpjb25uZWN0b3ItY3VydmF0dXJlPSIwIiBzdHlsZT0iZmlsbDpub25lOyIgZD0iTTAsOS4yN3YzMy4zN2MwLDMuNDIsNy40Niw2LjM3LDE3LjI1LDYuNTVoMC4zNyAgICAgIGM5Ljk3LTAuMTMsMTcuNjMtMy4xLDE3LjYzLTYuNTVWOC45N0wwLDkuMjd6Ii8+JiN4YTsJCQkJJiN4YTsJCQkJCTxwYXRoIGlkPSJwYXRoMTAwMjg5IiBpbmtzY2FwZTpjb25uZWN0b3ItY3VydmF0dXJlPSIwIiBzdHlsZT0iZmlsbDpub25lO3N0cm9rZTojNTU2QThBO3N0cm9rZS13aWR0aDoxLjU7c3Ryb2tlLW1pdGVybGltaXQ6MzsiIGQ9IiAgICAgIE0wLDkuMjd2MzMuMzdjMCwzLjQyLDcuNDYsNi4zNywxNy4yNSw2LjU1aDAuMzdjOS45Ny0wLjEzLDE3LjYzLTMuMSwxNy42My02LjU1VjguOTciLz4mI3hhOwkJCTwvZz4mI3hhOwkJCTxnIGlkPSJzaGFwZTM0OTgtMTAiIHRyYW5zZm9ybT0idHJhbnNsYXRlKDAuMDQ1LC0zMy40NjUpIj4mI3hhOwkJCQk8dGl0bGUgaWQ9InRpdGxlMTAwMjkyIj5wYXRoMTQ0ODwvdGl0bGU+JiN4YTsJCQkJPHBhdGggaWQ9InBhdGgxMDAyOTQiIGlua3NjYXBlOmNvbm5lY3Rvci1jdXJ2YXR1cmU9IjAiIHN0eWxlPSJmaWxsOiM1NUQyRjY7IiBkPSJNMzUuMjUsNDIuODJjMCwzLjUyLTcuODksNi4zNy0xNy42Myw2LjM3ICAgICAgQzcuODksNDkuMTksMCw0Ni4zNCwwLDQyLjgyYzAtMy41MSw4LjEyLTYuMzYsMTcuODYtNi4zNkMyNy41OSwzNi40NiwzNS4yNSwzOS4zMSwzNS4yNSw0Mi44MkwzNS4yNSw0Mi44MnoiLz4mI3hhOwkJCQkmI3hhOwkJCQkJPHBhdGggaWQ9InBhdGgxMDAyOTYiIGlua3NjYXBlOmNvbm5lY3Rvci1jdXJ2YXR1cmU9IjAiIHN0eWxlPSJmaWxsOm5vbmU7c3Ryb2tlOiM1NTZBOEE7c3Ryb2tlLXdpZHRoOjEuNTtzdHJva2UtbWl0ZXJsaW1pdDozOyIgZD0iICAgICAgTTM1LjI1LDQyLjgyYzAsMy41Mi03Ljg5LDYuMzctMTcuNjMsNi4zN0M3Ljg5LDQ5LjE5LDAsNDYuMzQsMCw0Mi44MmMwLTMuNTEsOC4xMi02LjM2LDE3Ljg2LTYuMzYgICAgICBDMjcuNTksMzYuNDYsMzUuMjUsMzkuMzEsMzUuMjUsNDIuODIiLz4mI3hhOwkJCTwvZz4mI3hhOwkJPC9nPiYjeGE7CTwvZz4mI3hhOzwvZz4mI3hhOzwvc3ZnPg==;" vertex="1" parent="1">
          <mxGeometry x="1729.49" y="178" width="37" height="48" as="geometry" />
        </mxCell>
        <mxCell id="NkLvIqLFpbnPFktaiqOG-14" style="edgeStyle=orthogonalEdgeStyle;rounded=0;orthogonalLoop=1;jettySize=auto;html=1;strokeWidth=3;endArrow=block;endFill=1;fillColor=#d5e8d4;strokeColor=#009900;" edge="1" parent="1" source="NkLvIqLFpbnPFktaiqOG-16" target="NkLvIqLFpbnPFktaiqOG-29">
          <mxGeometry relative="1" as="geometry" />
        </mxCell>
        <mxCell id="NkLvIqLFpbnPFktaiqOG-15" value="upserts" style="edgeLabel;html=1;align=center;verticalAlign=middle;resizable=0;points=[];" vertex="1" connectable="0" parent="NkLvIqLFpbnPFktaiqOG-14">
          <mxGeometry x="-0.5893" y="-2" relative="1" as="geometry">
            <mxPoint as="offset" />
          </mxGeometry>
        </mxCell>
        <mxCell id="NkLvIqLFpbnPFktaiqOG-16" value="" style="whiteSpace=wrap;html=1;rounded=0;fontSize=14;opacity=80;dashed=1;strokeColor=#6c8ebf;fillColor=#dae8fc;" vertex="1" parent="1">
          <mxGeometry x="1165" y="80" width="90" height="90" as="geometry" />
        </mxCell>
        <mxCell id="NkLvIqLFpbnPFktaiqOG-17" value="" style="shape=image;verticalLabelPosition=bottom;labelBackgroundColor=#ffffff;verticalAlign=top;aspect=fixed;imageAspect=0;image=data:image/svg+xml,PHN2ZyB4bWxuczpkYz0iaHR0cDovL3B1cmwub3JnL2RjL2VsZW1lbnRzLzEuMS8iIHhtbG5zOmNjPSJodHRwOi8vY3JlYXRpdmVjb21tb25zLm9yZy9ucyMiIHhtbG5zOnJkZj0iaHR0cDovL3d3dy53My5vcmcvMTk5OS8wMi8yMi1yZGYtc3ludGF4LW5zIyIgeG1sbnM6c3ZnPSJodHRwOi8vd3d3LnczLm9yZy8yMDAwL3N2ZyIgeG1sbnM9Imh0dHA6Ly93d3cudzMub3JnLzIwMDAvc3ZnIiB4bWxuczpzb2RpcG9kaT0iaHR0cDovL3NvZGlwb2RpLnNvdXJjZWZvcmdlLm5ldC9EVEQvc29kaXBvZGktMC5kdGQiIHhtbG5zOmlua3NjYXBlPSJodHRwOi8vd3d3Lmlua3NjYXBlLm9yZy9uYW1lc3BhY2VzL2lua3NjYXBlIiB2ZXJzaW9uPSIxLjEiIGlkPSJzdmc2MDYwNyIgaW5rc2NhcGU6dmVyc2lvbj0iMC45Mi4zICgyNDA1NTQ2LCAyMDE4LTAzLTExKSIgc29kaXBvZGk6ZG9jbmFtZT0iYXp1cmVfcG9ydGFsX2xvZ2ljX2FwcHMuc3ZnIiB4PSIwcHgiIHk9IjBweCIgdmlld0JveD0iMCAwIDgyLjQ5IDY0LjA1OTg2OCIgeG1sOnNwYWNlPSJwcmVzZXJ2ZSIgd2lkdGg9IjgyLjQ4OTk5OCIgaGVpZ2h0PSI2NC4wNTk4NjgiPjxtZXRhZGF0YSBpZD0ibWV0YWRhdGE5NTI0Ij48cmRmOlJERj48Y2M6V29yayByZGY6YWJvdXQ9IiI+PGRjOmZvcm1hdD5pbWFnZS9zdmcreG1sPC9kYzpmb3JtYXQ+PGRjOnR5cGUgcmRmOnJlc291cmNlPSJodHRwOi8vcHVybC5vcmcvZGMvZGNtaXR5cGUvU3RpbGxJbWFnZSIvPjxkYzp0aXRsZS8+PC9jYzpXb3JrPjwvcmRmOlJERj48L21ldGFkYXRhPjxkZWZzIGlkPSJkZWZzOTUyMiI+JiN4YTsJJiN4YTsmI3hhOwkmI3hhOyYjeGE7CSYjeGE7JiN4YTsJJiN4YTsmI3hhOwkmI3hhOyYjeGE7CSYjeGE7JiN4YTsJJiN4YTsmI3hhOwkmI3hhOyYjeGE7CQkmI3hhOwkmI3hhOwkJJiN4YTsJJiN4YTsJCSYjeGE7CSYjeGE7CQkmI3hhOwkmI3hhOwkJJiN4YTsJJiN4YTsJCSYjeGE7CSYjeGE7CQkmI3hhOwk8L2RlZnM+JiN4YTs8ZmlsdGVyIGlkPSJmaWx0ZXJfMiI+JiN4YTsJPGZlR2F1c3NpYW5CbHVyIGlkPSJmZUdhdXNzaWFuQmx1cjYwNTMyIiBzdGREZXZpYXRpb249IjIiLz4mI3hhOzwvZmlsdGVyPiYjeGE7PHNvZGlwb2RpOm5hbWVkdmlldyBib3JkZXJjb2xvcj0iIzY2NjY2NiIgYm9yZGVyb3BhY2l0eT0iMSIgZml0LW1hcmdpbi1ib3R0b209IjAiIGZpdC1tYXJnaW4tbGVmdD0iMCIgZml0LW1hcmdpbi1yaWdodD0iMCIgZml0LW1hcmdpbi10b3A9IjAiIGdyaWR0b2xlcmFuY2U9IjEwIiBndWlkZXRvbGVyYW5jZT0iMTAiIGlkPSJuYW1lZHZpZXc2MDYwOSIgaW5rc2NhcGU6Y3VycmVudC1sYXllcj0ic3ZnNjA2MDciIGlua3NjYXBlOmN4PSItMTcuNTIzODc3IiBpbmtzY2FwZTpjeT0iMjUuOTk4MTIzIiBpbmtzY2FwZTpwYWdlb3BhY2l0eT0iMCIgaW5rc2NhcGU6cGFnZXNoYWRvdz0iMiIgaW5rc2NhcGU6d2luZG93LWhlaWdodD0iMTAxNyIgaW5rc2NhcGU6d2luZG93LW1heGltaXplZD0iMSIgaW5rc2NhcGU6d2luZG93LXdpZHRoPSIxOTIwIiBpbmtzY2FwZTp3aW5kb3cteD0iLTgiIGlua3NjYXBlOndpbmRvdy15PSItOCIgaW5rc2NhcGU6em9vbT0iNS4xOTI4MDM5IiBvYmplY3R0b2xlcmFuY2U9IjEwIiBwYWdlY29sb3I9IiNmZmZmZmYiIHNob3dncmlkPSJmYWxzZSI+JiN4YTsJPC9zb2RpcG9kaTpuYW1lZHZpZXc+JiN4YTsmI3hhOzxwYXRoIGlkPSJwYXRoNjA1NDUiIGlua3NjYXBlOmNvbm5lY3Rvci1jdXJ2YXR1cmU9IjAiIHN0eWxlPSJmaWxsOiM1OWI0ZDkiIGQ9Im0gNDIuODksMjUuOTI2MyB2IC04LjI1IGggLTQuMTIgdiA4LjI1IGMgMCwxLjQ4IC0xLjMyLDIuOCAtMy40NywzLjQ2IGwgLTUuNjEsMS4xNiBjIC0zLjc5LDEuMTUgLTYuNDMsNC4xMiAtNi40Myw3LjQyIHYgOS40IGggNC4xMiB2IC05LjQgYyAwLC0xLjQ4IDEuMzIsLTIuOCAzLjQ3LC0zLjQ2IGwgNS42MSwtMS4zMiBjIDMuNDYsLTAuNjYgNi4xLC0zLjYzIDYuNDMsLTcuMjYgeiIvPiYjeGE7JiN4YTs8cGF0aCBpZD0icGF0aDYwNTUzIiBpbmtzY2FwZTpjb25uZWN0b3ItY3VydmF0dXJlPSIwIiBzdHlsZT0iZmlsbDojN2ZiYTAwIiBkPSJtIDMyLjM0LDUxLjY1NjMgdiAtNy41OCBjIDAsLTEuODIgLTEuNDksLTMuMyAtMy4zLC0zLjMgaCAtNy41OSBjIC0xLjgyLDAgLTMuMywxLjQ4IC0zLjMsMy4zIHYgNy41OCBjIDAsMS44MiAxLjQ4LDMuMyAzLjMsMy4zIGggNy41OSBjIDEuODEsMCAzLjMsLTEuNDggMy4zLC0zLjMgeiIvPiYjeGE7JiN4YTs8cGF0aCBpZD0icGF0aDYwNTYxIiBpbmtzY2FwZTpjb25uZWN0b3ItY3VydmF0dXJlPSIwIiBzdHlsZT0iZmlsbDojNTliNGQ5IiBkPSJtIDM4LjI4LDI1LjkyNjMgdiAtOC4yNSBoIDQuMTIgdiA4LjI1IGMgMCwxLjQ4IDEuMzIsMi44IDMuNDcsMy40NiBsIDYuOTMsMS40OSBjIDMuNzksMS4xNSA2LjQzLDQuMTIgNi40Myw3LjQyIHYgOS40IGggLTQuMTIgdiAtOS40IGMgMCwtMS40OCAtMS4zMiwtMi44IC0zLjQ3LC0zLjQ2IGwgLTYuOTMsLTEuNDkgYyAtMy43OSwtMS4xNSAtNi40MywtNC4xMiAtNi40MywtNy40MiB6Ii8+JiN4YTsmI3hhOzxwYXRoIGlkPSJwYXRoNjA1NjkiIGlua3NjYXBlOmNvbm5lY3Rvci1jdXJ2YXR1cmU9IjAiIHN0eWxlPSJmaWxsOiM3ZmJhMDAiIGQ9Im0gNTAuMTYsNTEuOTg2MyB2IC03LjU4IGMgMCwtMS44MiAxLjQ4LC0zLjMgMy4zLC0zLjMgaCA3LjU5IGMgMS44MSwwIDMuMywxLjQ4IDMuMywzLjMgdiA3LjU4IGMgMCwxLjgyIC0xLjQ5LDMuMyAtMy4zLDMuMyBoIC03LjU5IGMgLTEuODIsMCAtMy4zLC0xLjQ4IC0zLjMsLTMuMyB6Ii8+JiN4YTsmI3hhOyYjeGE7JiN4YTs8cGF0aCBpZD0icGF0aDYwNTg1IiBpbmtzY2FwZTpjb25uZWN0b3ItY3VydmF0dXJlPSIwIiBzdHlsZT0iZmlsbDojMDA3MmM2IiBkPSJtIDQzLjcyLDEwLjA4NjMgdiA2LjExIGggLTYuMSB2IC02LjExIHogbSAxLjMyLC00LjYyIEggMzYuMyBjIC0xLjgyLDAgLTMuMywxLjQ5IC0zLjMsMy4zIHYgOC43NCBjIDAsMS44MiAxLjQ4LDMuMyAzLjMsMy4zIGggOC43NCBjIDEuODIsMCAzLjMsLTEuNDggMy4zLC0zLjMgdiAtOC43NCBjIDAsLTEuODEgLTEuNDgsLTMuMyAtMy4zLC0zLjMgeiIvPiYjeGE7JiN4YTs8cGF0aCBpZD0icGF0aDYwNTkzIiBpbmtzY2FwZTpjb25uZWN0b3ItY3VydmF0dXJlPSIwIiBzdHlsZT0iZmlsbDojNTliNGQ5IiBkPSJtIDEzLjAzLDY0LjAzNjMgYyAtMi42NCwwLjE2IC01LjI4LC0wLjUgLTcuNDIsLTEuODIgLTEuNDksLTEuMzIgLTIuMTUsLTMuNDYgLTIuMTUsLTYuNTkgdiAtMTcuMTYgYyAwLC0yLjgxIC0xLjE1LC00LjI5IC0zLjQ2LC00LjI5IHYgLTQuMjkgYyAyLjMxLDAgMy40NiwtMS40OSAzLjQ2LC00LjQ2IHYgLTE2LjgzIGMgMCwtMy4xMyAwLjY2LC01LjQ0IDIuMTUsLTYuNzYgQyA3LjA5LDAuNTE2Mjk5OTggOS41NywwLjAxNjI5OTk4IDEzLjAzLDAuMDE2Mjk5OTggViA0LjMwNjMgYyAtMi40NywwIC0zLjc5LDEuMzIgLTMuNzksNC4xMyB2IDE2LjUgYyAwLDMuNzkgLTEuMTYsNi4xIC0zLjYzLDcuMDkgMi4zMSwwLjk5IDMuNjMsMy4zIDMuNjMsNy4xIHYgMTYuMzMgYyAwLDEuMTYgMC4xNiwyLjMxIDAuODIsMy4zIDAuODMsMC42NiAxLjgyLDEuMTYgMi44MSwwLjk5IDAsMCAwLjE2LDQuMjkgMC4xNiw0LjI5IHoiLz4mI3hhOyYjeGE7PHBhdGggaWQ9InBhdGg2MDYwMSIgaW5rc2NhcGU6Y29ubmVjdG9yLWN1cnZhdHVyZT0iMCIgc3R5bGU9ImZpbGw6IzU5YjRkOSIgZD0ibSA2OS40NiwwLjAyNjI5OTk4IGMgMi42NCwtMC4xNyA1LjI4LDAuNDkgNy40MiwxLjgxMDAwMDAyIDEuNDksMS4zMiAyLjE1LDMuNDcgMi4xNSw2LjYgdiAxNy4xNiBjIDAsMi44MSAxLjE1LDQuMjkgMy40Niw0LjI5IHYgNC4yOSBjIC0yLjMxLDAgLTMuNDYsMS40OSAtMy40Niw0LjQ2IHYgMTYuNjYgYyAwLDMuMTQgLTAuNjYsNS40NCAtMi4xNSw2Ljc2IC0xLjQ4LDEuMzIgLTMuOTYsMS45OCAtNy40MiwxLjk4IHYgLTQuMjggYyAyLjQ3LDAgMy43OSwtMS4zMiAzLjc5LC00LjEzIHYgLTE2LjUgYyAwLC0zLjc5IDEuMTYsLTYuMSAzLjYzLC03LjA5IC0yLjMxLC0wLjk5IC0zLjYzLC0zLjMgLTMuNjMsLTcuMSB2IC0xNi4zMyBjIDAsLTEuMTYgLTAuMTYsLTIuMzEgLTAuODIsLTMuMyAtMC44MywtMC42NiAtMS44MiwtMS4xNiAtMi44MSwtMC45OSB6Ii8+JiN4YTs8L3N2Zz4=;" vertex="1" parent="1">
          <mxGeometry x="1183.17" y="120" width="57.66" height="45" as="geometry" />
        </mxCell>
        <mxCell id="NkLvIqLFpbnPFktaiqOG-18" value="Outbound&lt;br&gt;(push - all)" style="text;html=1;resizable=0;autosize=1;align=center;verticalAlign=middle;points=[];fillColor=none;strokeColor=none;rounded=0;fontFamily=Helvetica;fontSize=12;opacity=80;" vertex="1" parent="1">
          <mxGeometry x="1177" y="85" width="70" height="30" as="geometry" />
        </mxCell>
        <mxCell id="NkLvIqLFpbnPFktaiqOG-19" value="" style="whiteSpace=wrap;html=1;rounded=0;fontSize=14;opacity=80;dashed=1;strokeColor=#007FFF;fillColor=#E6E6E6;" vertex="1" parent="1">
          <mxGeometry x="1055" y="320" width="90" height="180" as="geometry" />
        </mxCell>
        <mxCell id="NkLvIqLFpbnPFktaiqOG-20" value="" style="whiteSpace=wrap;html=1;rounded=0;fontSize=14;fillColor=#ffffff;opacity=80;dashed=1;strokeColor=#007FFF;" vertex="1" parent="1">
          <mxGeometry x="865" y="320" width="190" height="180" as="geometry" />
        </mxCell>
        <mxCell id="NkLvIqLFpbnPFktaiqOG-21" value="SaaS" style="text;html=1;resizable=0;autosize=1;align=center;verticalAlign=middle;points=[];fillColor=#dae8fc;rounded=0;fontSize=14;opacity=80;fontFamily=Lucida Console;" vertex="1" parent="1">
          <mxGeometry x="920" y="330" width="50" height="20" as="geometry" />
        </mxCell>
        <mxCell id="NkLvIqLFpbnPFktaiqOG-22" value="Integration" style="text;html=1;resizable=0;autosize=1;align=center;verticalAlign=middle;points=[];fillColor=none;strokeColor=none;rounded=0;fontFamily=Helvetica;fontSize=12;opacity=80;" vertex="1" parent="1">
          <mxGeometry x="1062.25" y="330" width="70" height="20" as="geometry" />
        </mxCell>
        <mxCell id="NkLvIqLFpbnPFktaiqOG-23" value="" style="aspect=fixed;html=1;points=[];align=center;image;fontSize=12;image=img/lib/azure2/identity/Azure_Active_Directory.svg;" vertex="1" parent="1">
          <mxGeometry x="925" y="380" width="70" height="64" as="geometry" />
        </mxCell>
        <mxCell id="NkLvIqLFpbnPFktaiqOG-24" value="Azure Active Directory" style="text;html=1;resizable=0;autosize=1;align=center;verticalAlign=middle;points=[];fillColor=none;strokeColor=none;rounded=0;fontFamily=Helvetica;fontSize=12;opacity=80;" vertex="1" parent="1">
          <mxGeometry x="895" y="449" width="130" height="20" as="geometry" />
        </mxCell>
        <mxCell id="NkLvIqLFpbnPFktaiqOG-25" value="" style="shape=image;verticalLabelPosition=bottom;labelBackgroundColor=#ffffff;verticalAlign=top;aspect=fixed;imageAspect=0;image=https://miro.medium.com/max/800/1*pXsVxOTq0eArERQKC1Ny9w.png;" vertex="1" parent="1">
          <mxGeometry x="1060.6" y="392.5" width="71.65" height="35" as="geometry" />
        </mxCell>
        <mxCell id="NkLvIqLFpbnPFktaiqOG-26" value="MS Graph API" style="text;html=1;resizable=0;autosize=1;align=center;verticalAlign=middle;points=[];fillColor=none;strokeColor=none;rounded=0;fontFamily=Helvetica;fontSize=12;opacity=80;" vertex="1" parent="1">
          <mxGeometry x="1055" y="434" width="90" height="20" as="geometry" />
        </mxCell>
        <mxCell id="NkLvIqLFpbnPFktaiqOG-27" value="" style="shape=image;verticalLabelPosition=bottom;labelBackgroundColor=#ffffff;verticalAlign=top;aspect=fixed;imageAspect=0;image=data:image/png,iVBORw0KGgoAAAANSUhEUgAAAH8AAAB/CAYAAADGvR0TAAASJElEQVR4Ae2d688dRRnA+X/8pJ/8YvxmTLzFKInwwZAYNQEvGJUgpMaS4AVSC8GSVrBS0wbSkr4kRasNVikotYW20Bbsa9NCaZUCSilYS7ms+R19js953pnZmd2Z2T31bLLv7rntZX7PbZ55Zt8rmsXyf9sCV1yud37p0tvNkeVTza49B5utDz8+We97cHfzvTse8K4/vX/X9LsP/3b/5Pevvf7m5dpEzWUB/+VXzzW/e+JwI3C/eOO65sprb8u2Xv31H08EBuFAmE6/9PfLQiDmEr7AXveLXzXXrtqQDXKKwCBgd2zcMdfCMDfwMb+Y4utX3zsI7DbBQAi3PPRog2DOyzJq+Pjtx/c/29y2YSkZODDw7wDB54sPJw6Qdd+hPzePPnFwZl3a+Vjzs/t3TtbvrtncXL/6nuRz33T75olFePPCxVHLwSjh02gAu+abd0Y1vDbByyfORDf4+fPnmzNnzkSt+w4caXbs+kOz9t6l5iur1kddF7ECrmms1mBU8DHtBG00WsjMIhQ5/G0KfCskzx07PhWGL990d/B6uZcxCsEo4MdCx/zjBnAHOZY+8K0wPLJnf3P7+gebq762JigI3MPJF8/muPzexxgc/tJv9gbNO74bf12iv50TvgjDCy+caogbvnXrxqAQYOGGjgkGg49vDkXu3/7+fZO+e2/xDhygBHwRArYEk9/50SavEBCrkJ8YaqkOHw3G//l8OtD3HVqu0h6l4YsgIAS33Hm/957pHQyROKoKny6WL/uGFagFXSSrFnwRAnoMPndAkEv2sOZSDT5dN5e2c9N8liuIS2m82vBFCIgJvnDDXc72oBdTKxYoDh8zj1lzgb/1J9sG7QMPBR8hOH7i+Wbdph3OdsEK1ugRFIWPmXclatD2IQMdsQ5DwhcrgCtwJY1qtFEx+PTHuQGr8Uj1EMGNANfbMcAXK/CDdVtXtBVth0sstRSBT7/cQuc1Uf4Qvt3XeGOBL1Zg247fO5NEtFuJJTt8khcWfA0T1qVxxgYfIcANfP4ba1e0IfFRbsXJCt/Vf8fn4/vHuIwRPgJw+OixxjVeQA4kZ08gG3yXxtOnrxG1dhWsscKXOMA1nJzTAmSBT37emnoCu7EOZYqwjBm+CAA1BbZtyQXkWHrDJ6q3Fwf4nOYpx426jjF2+AgAA0UuAaCesO/SC/7BoydWdOcYhRu7xkujzQN8sQAuF9C3G9gZPoBtAofXY/bxAl228wIfAaB4xBUEooBdl87wbcqW7txYo3pf48wTfASAXoAdEyCo7lrr0Am+a5BmDOlaH2Tf+/MGHwEgD2CrhShU7bIkw0e7bYBXKgPV5YZSfjOP8BEARgUtA3pcqUsSfMyLHY8nsg9lnhAWLMUY183bd0/LtKVceyzbX+/eG6wqpl5QCwBuN6VyGUFJgk//0p6wbZDG5SL0MRb77mllwEXLfStDwjYAJAMYUkRrGaLhu8x9jJ9fwHfDbRP6NvgIxR/3Pb3C/6eY/yj4SBPmXV8wJcgxywJ+OfgIAG5Kc8H8x+ZZouDb9C0niO1eWPhMn8KKjGF1Tdey07dqvd6y/ZEZiDGaD3wygLYYJDb6b4WPFAFbS1eKabHwY1xFjEXJ8Z0xRfsImW7jWPgIgP0tx4lp51b4drQuNahYwPcHbYCT1QJMgc8x+L4WHnplbcFfED6m3Wp9ajpxAf9/gAW0a9sXPulfWwTCoFtoCcJ3aX3oYK7PFvDrwEegbDUwVjq0eOG7tL7LpIoF/Hrw0X6b+g0x88LPofVI3QJ+Pfip2u+ET6BgfX1IgkKmZQG/LnyX9tOtdi1O+HQTdOTY5jtcB5b3FvDrwndpv2/gzQmfJIGG32cC4QJ+ffgHnnluhh9FNq5u3wr4JHU0eMx/n3q8Bfz68NF+W/bl6vatgG9h9a0UtceLyTyJyyi9vVwyfMC266Ztu2aU2DUWswK+HcBJTepYYAv4K8FYULzum+SxxyTwa7PgM/ApvtQ/iEkRWtj29QL+MPARBlvyba3uDHw7wdIXJVrAodcL+MPBt+VelucMfPyC1nwrKSHIvs8W8IeDT7Wv5smcCr3MwLd1+LFFAfqAdn8Bfzj4mH5b6qWZTuFbf2+lxEKNfb2APyx8O9SrczZT+CX8PQKygD8sfOv3dZdvCt9W5ubw9wv4ceBLdPWk62f9Pj04Wabwyd/r4KCtJFsO0LZdaH6cAOTu5wt8tnaKl2Rsp/B1sEdKN9eygD88fNvfl8m0E/gUbmit7zOKZ4VmAX94+LbCR/L8E/ikcDX8vvl8LQBDw2cKE9XGBDp2qpncM90hHpBMDTxPxGIyhDabNfZLmn3uSe6VLeXzLBP4NtKXDzXErvtDwEeybcJK33zMPn5yw+ZfTqZFzzt8/heAvmeJ+CfwecSH/jBXpI/A1IKP60LDfdqt7y91n4cl8y9WSgpBSc23ET+DdywT+OR8dYOIT+iq7fp3peFTpICl0tdfap/AiYYsIQQl4dsRPkngTeDbPr6v5ktDjd0vCb/tHzYgBPIftqhB1KlNrl/G85nxSuPjG/kHSrb+XQsT1bGMlecWgJLwuVZ9D9LXn8C3ZVvzAN8Klb45JBsXgCsILQLfBRIzb7tI+hy4gpxWoCZ87oPFCT9XgocTWEh94wkSFPZ5QAKF91NcVgi+CASAfQ9FppeQSwBKw7eJnil8W71jzeNETDr+yQkf8DYTKeBTJo/KrcTAFyEgYrYNyLlzCUBp+HZ0D6s40XzMpDQi2zHC94FHcFMfR9IFPkLAdGibMMklALXhw3gu4PvA930ObYrmiwVgax+IIAJA4Ki/l7I/GHwb8I1N863roLH7gkf7u8L3CUDqtGotHLXhc//OgG+M0b7OReQA3xe+TwC6JoNKw0dh9DqFb1OhY4TPxSIAucDngI8A2P+XR46ApIrW6pj9mvAZwZ3C11qFdHSdlDk5ovljTXbfrp5r2pE5ZevLVy691+x7/Z1mx+nzzQ+ffbV56PjZZueJs83yi39NhgZo2wtAIGKA6++UhE8sorV+JsNn4fcFpFs/N3x97NT9B1661Fxz9F/N+55407t+6elzzZbll5Pg2YGTiQIdOJJ0jJLwyUV44dNH1h926TP7QIwB/mOvvdN85MAFL3CXMHzyqdebR06+FA3Qmn+6hFqz2/ZLwmeIWvPFdbJMAj7MvP4wx4P8RRiGhr/21KUk6FYQ7nrulSiItoEZAyAv0AZdPi8JnyBU8+XBG1P4tmybNGmuZUj4Nx9/qxd4EYRVR/8RBdHOjOXZegK3bVsSPnUJGj71G1P4BFH6Q4kGcwjAUPDvOZ0HvAjAz5fbLYAtk2bwpw26fF4SvnVJMvl2YvaBbPP7bSNisYIxBPxDb7yTReMFPNv3732jeeqFvwVhYub1cHCK6S8J3z6hU9hO4Zfq6w8B/zPPpAV3GnJon56AaKpvSy2gtqJA9X1Xv18KPt08/YQubdWn8C0kXudY7HFzdiNd10dkHwLY97O9z4e13/rX2MKPUvB5br8WRlL5skzhk9XzfUm+3GVbG36uIM8nJCSFtMbafdvYsQmfUvDtKKRW6il8gj79+DX2c2TTasP/4P5/FtV8+v8WuH5ts2mMo+vPfful4NseiE7dT+Gj1XZ0T3+xi9bzGwufwJLzlFhvXLdUFDzWgMDPB5CKn4nPv+725sr/rigR77WtFlKfEUK5PiuI+Hut0DPwLShtInLB164l9/4nbt5YHD4C4BsDsNUyfe4vB3zrgqReX1jOwLd+P8e0LStQfRqk7bcfW725Cnxfl29s8O3cfEnuOOFjEjANupFlUp/8IHVbE/6nblhfBb6YVbsdE3ybc4CpLcyd0XzA2tk7kgdOhS7fpyoIi1JjPXDsxeLwP7TP7/PJ79vA7XNfXTN5j/dTVp6iaYUr5bXN57tS9ivgUwypNV8K/AXm2LdXHw4P2fq6cLHvX/fMa0Eo9tGnBHIp0HJ916Z0rcmH4wr4vGmreSUXPHbwXF/unL4ViraxfqtxOQK3VIGgwERn9VBmSelqhk741k/bKFEfYGz7VOl84E/+Yg0LM+U1Jv/k6XC1j83wpYzspUL2fd/+py4Zv7esnPDx09r0s9838LMnLvm67xi+TyA2HGsf2WMkT7cdVT4+SCXeJ9CzZWW+lLoTPmDsQM88af/Fd5vm44fyDu58tiWzB0j+w7UGj+kl0VICsu+YVuuJ2XRiRyudF74t8Jg37T9x4d0mV6oXc3/4VNjcA8Pm0WPz+j6Qqe+7tN4V6IkAeOG7tL9vt09OWmtLhW5fAQD8nohaPlfD1zb5NqMX0noYBOHbjB95alfUWAtml/Ocvvhe07X7d82hc95UrtVK2/D4Xfud0q/t+EBbIW4QPo1tZ8XmfFhTF5hdf7P08tvNh5+MG/H76JPnm61/ORsND79ugyyi/tKw9fGtr49R1Fb49kld+H4swrwuuIJbTrw1qd//9KH/dAkJ5q46cK6hUDPGxOtGZ5+neehAr+usHXvc2Nf063X5GNcS81CtVvhAtpE/1sAXQZYUCoLQnAmnPhM1BYwt2abhebyLfF5jax8eQZIuhk8UfPw8ZkRLdyiKLCEAgGfQievIJQB94TMTxg7mpFTs5hAMO5YAo9jpdlHwgWln9QAh51TukMAIeBE+zh17g6Hj9oGPqbXg6df3HZBJEQh6GLYyNyUfEw0fM2LLuxkpijEvIQAxnwHaWh4EwZe5ijkm3+kKnwDPRtZcT2yxZgrg0HfteD1tlNIbi4ZPY7mCv1p9f86dWwC6wEezXeB5WkcIVO7P7AQRhC/VFSfBRwCALeZXtjlMcIy2+gSAWcY8uiV1SYVPIGdHy2iD1EmZfQUBAbTXoUuyY9shGT5mHnMv4NkSiNXy/3QzbbUR10A2K9UNxMLHv/ueyVd7yNbl57n3FHMvwpEMnx8C2gKge9FF++RCUrY2ANSCiAbwLL6YWKQNPgM1wLVaJuerncgBvEsIu+ZdOsEHFKZeGkG2Nfv/1KMBWs5ttwgnJWkIim9xwaf7hj+1Q7P6+ET59O/7mu/U39v+PNfUp8K6M3wa1BZ9cDE5n5njg6bfx9RbK6RBsU+giKAgDFyzrJu37548Vo1gjRE4m6K1x+E1lqD2MC1CYrOIXIuvSEO3T2i/F3wObB/pwkXxXs0Ff0dDuGDleg9LUHuUTiyD67l/WNm+brY3fHyrq+ERgBi/m1NIiEXIadsaxK4CgK9H42ombgS4bF3gub8uAZ5t697wOSCQ7egfDV7bBeibo1uIALquKyQMZMww7XTrhjDvAp2ty9Tj4nL1rLLAp9GRRJfG5TBPGmrXfUrSiQ/E37PVPp/xeLp0uvGH2ieqdwV3gA8FsKltkw0+J0YiXZpGWjiXtKbeYOj7rmh/KOByXl93Ljd42iUrfA5IEOLqgpGIwBSPaRkbfGILO1CDi8KillCe7PCBSwxgawDEz8YUGdQSkDHBJ7fgSiZhSXMEd642LQJfTuTqBiIEpIdLSLKcN3Y7BviYeQJMUQ69JWDu250LtUVR+JyYIMs1GocPS83Fh26ky2dDwydL6DLzCEANC1kcPlBIxboCQbECdupwF5BdfjMUfHoVPm2vGRtVgQ8Y4gDXcDACgGVA0msnhYaAT/7AFluKqSdQLuXfXcpRDb6cnIgf6ZYb1luiWgoSaglBTfjkEVxFICL8bTX20n45t9Xhc/EEMT4rQGMgHAhByWCH66gBnyje1vppgSeoGyr4HQS+SG/bf8QkKCQTV8oUloJPWrgNOgJeqwJK2ttuB4UvF4PJA7TWCLuPhtA7yOkScsPHtJOWdfXX5X4kvilt1aRtQ9tRwOcCaQxMvS8e0I1H/gCt6duAfeHTR2eYlwGYtloAhJugtpQVC0H2fTYa+HKBaPauPQedg0QiAHpLF5L4gUAy1Sp0gc8kCYZZ7QOW9TXpfXFdfQVV2ifndnTw9c1Ri+dLE+sG1vtkD5lMSqyAdQj9t80QfOr30GpA0ycHdsic62tgn+tAiMcIXdp41PDlImlAGtJWDdsGj32NtaBPvWrNluljUWN/G/oeo5fEL0NF79Jesdu5gK9vhoYlNsAiuNLGITglPkOIsDI5x9n1/Zbcnzv4tjEw62ibaxi5BGysD4FblxjDXvvQr+cevm1ALAN17AgE1boIRRcLwe/oVaDVgB5q/MHeX87Xlx382MbBTCMkoYAw9ljz+r1/A0CGDvrgWJN2AAAAAElFTkSuQmCC;rounded=1;fontFamily=Lucida Console;fontSize=14;strokeColor=#007FFF;fillColor=#ffffff;opacity=80;" vertex="1" parent="1">
          <mxGeometry x="1650" y="145" width="50" height="50" as="geometry" />
        </mxCell>
        <mxCell id="NkLvIqLFpbnPFktaiqOG-28" style="edgeStyle=orthogonalEdgeStyle;rounded=0;orthogonalLoop=1;jettySize=auto;html=1;entryX=0;entryY=0.25;entryDx=0;entryDy=0;" edge="1" parent="1" source="NkLvIqLFpbnPFktaiqOG-29" target="NkLvIqLFpbnPFktaiqOG-7">
          <mxGeometry relative="1" as="geometry" />
        </mxCell>
        <mxCell id="NkLvIqLFpbnPFktaiqOG-29" value="" style="whiteSpace=wrap;html=1;rounded=0;fontSize=14;opacity=80;dashed=1;strokeColor=#6c8ebf;fillColor=#dae8fc;" vertex="1" parent="1">
          <mxGeometry x="1520" y="80" width="90" height="90" as="geometry" />
        </mxCell>
        <mxCell id="NkLvIqLFpbnPFktaiqOG-30" style="edgeStyle=orthogonalEdgeStyle;rounded=0;orthogonalLoop=1;jettySize=auto;html=1;entryX=1;entryY=0.75;entryDx=0;entryDy=0;endArrow=block;endFill=1;strokeWidth=3;strokeColor=#FF8000;" edge="1" parent="1" source="NkLvIqLFpbnPFktaiqOG-34" target="NkLvIqLFpbnPFktaiqOG-58">
          <mxGeometry relative="1" as="geometry">
            <Array as="points">
              <mxPoint x="1420" y="212" />
              <mxPoint x="1420" y="685" />
            </Array>
          </mxGeometry>
        </mxCell>
        <mxCell id="NkLvIqLFpbnPFktaiqOG-31" value="upserts (subscribe)" style="edgeLabel;html=1;align=center;verticalAlign=middle;resizable=0;points=[];" vertex="1" connectable="0" parent="NkLvIqLFpbnPFktaiqOG-30">
          <mxGeometry x="0.5177" y="-1" relative="1" as="geometry">
            <mxPoint x="-13" y="4" as="offset" />
          </mxGeometry>
        </mxCell>
        <mxCell id="NkLvIqLFpbnPFktaiqOG-32" style="edgeStyle=orthogonalEdgeStyle;rounded=0;orthogonalLoop=1;jettySize=auto;html=1;entryX=0;entryY=0.5;entryDx=0;entryDy=0;endArrow=block;endFill=1;strokeColor=#FF8000;strokeWidth=3;exitX=0;exitY=0.5;exitDx=0;exitDy=0;" edge="1" parent="1" source="NkLvIqLFpbnPFktaiqOG-34" target="NkLvIqLFpbnPFktaiqOG-80">
          <mxGeometry relative="1" as="geometry">
            <Array as="points">
              <mxPoint x="1470" y="212" />
              <mxPoint x="1470" y="465" />
            </Array>
          </mxGeometry>
        </mxCell>
        <mxCell id="NkLvIqLFpbnPFktaiqOG-33" value="upserts&lt;br&gt;(subscribe)" style="edgeLabel;html=1;align=center;verticalAlign=middle;resizable=0;points=[];" vertex="1" connectable="0" parent="NkLvIqLFpbnPFktaiqOG-32">
          <mxGeometry x="-0.3036" y="-4" relative="1" as="geometry">
            <mxPoint as="offset" />
          </mxGeometry>
        </mxCell>
        <mxCell id="NkLvIqLFpbnPFktaiqOG-34" value="" style="whiteSpace=wrap;html=1;rounded=0;fontSize=14;opacity=80;dashed=1;strokeColor=#6c8ebf;fillColor=#dae8fc;" vertex="1" parent="1">
          <mxGeometry x="1520" y="167.5" width="90" height="90" as="geometry" />
        </mxCell>
        <mxCell id="NkLvIqLFpbnPFktaiqOG-35" value="Inbound" style="text;html=1;resizable=0;autosize=1;align=center;verticalAlign=middle;points=[];fillColor=none;strokeColor=none;rounded=0;fontFamily=Helvetica;fontSize=12;opacity=80;" vertex="1" parent="1">
          <mxGeometry x="1535" y="83" width="60" height="20" as="geometry" />
        </mxCell>
        <mxCell id="NkLvIqLFpbnPFktaiqOG-36" value="Outbound" style="text;html=1;resizable=0;autosize=1;align=center;verticalAlign=middle;points=[];fillColor=none;strokeColor=none;rounded=0;fontFamily=Helvetica;fontSize=12;opacity=80;" vertex="1" parent="1">
          <mxGeometry x="1528" y="170" width="70" height="20" as="geometry" />
        </mxCell>
        <mxCell id="NkLvIqLFpbnPFktaiqOG-37" value="" style="shape=image;verticalLabelPosition=bottom;labelBackgroundColor=#ffffff;verticalAlign=top;aspect=fixed;imageAspect=0;image=data:image/svg+xml,PHN2ZyB4bWxuczpkYz0iaHR0cDovL3B1cmwub3JnL2RjL2VsZW1lbnRzLzEuMS8iIHhtbG5zOmNjPSJodHRwOi8vY3JlYXRpdmVjb21tb25zLm9yZy9ucyMiIHhtbG5zOnJkZj0iaHR0cDovL3d3dy53My5vcmcvMTk5OS8wMi8yMi1yZGYtc3ludGF4LW5zIyIgeG1sbnM6c3ZnPSJodHRwOi8vd3d3LnczLm9yZy8yMDAwL3N2ZyIgeG1sbnM9Imh0dHA6Ly93d3cudzMub3JnLzIwMDAvc3ZnIiB4bWxuczpzb2RpcG9kaT0iaHR0cDovL3NvZGlwb2RpLnNvdXJjZWZvcmdlLm5ldC9EVEQvc29kaXBvZGktMC5kdGQiIHhtbG5zOmlua3NjYXBlPSJodHRwOi8vd3d3Lmlua3NjYXBlLm9yZy9uYW1lc3BhY2VzL2lua3NjYXBlIiB2ZXJzaW9uPSIxLjEiIGlkPSJzdmc2MDYwNyIgaW5rc2NhcGU6dmVyc2lvbj0iMC45Mi4zICgyNDA1NTQ2LCAyMDE4LTAzLTExKSIgc29kaXBvZGk6ZG9jbmFtZT0iYXp1cmVfcG9ydGFsX2xvZ2ljX2FwcHMuc3ZnIiB4PSIwcHgiIHk9IjBweCIgdmlld0JveD0iMCAwIDgyLjQ5IDY0LjA1OTg2OCIgeG1sOnNwYWNlPSJwcmVzZXJ2ZSIgd2lkdGg9IjgyLjQ4OTk5OCIgaGVpZ2h0PSI2NC4wNTk4NjgiPjxtZXRhZGF0YSBpZD0ibWV0YWRhdGE5NTI0Ij48cmRmOlJERj48Y2M6V29yayByZGY6YWJvdXQ9IiI+PGRjOmZvcm1hdD5pbWFnZS9zdmcreG1sPC9kYzpmb3JtYXQ+PGRjOnR5cGUgcmRmOnJlc291cmNlPSJodHRwOi8vcHVybC5vcmcvZGMvZGNtaXR5cGUvU3RpbGxJbWFnZSIvPjxkYzp0aXRsZS8+PC9jYzpXb3JrPjwvcmRmOlJERj48L21ldGFkYXRhPjxkZWZzIGlkPSJkZWZzOTUyMiI+JiN4YTsJJiN4YTsmI3hhOwkmI3hhOyYjeGE7CSYjeGE7JiN4YTsJJiN4YTsmI3hhOwkmI3hhOyYjeGE7CSYjeGE7JiN4YTsJJiN4YTsmI3hhOwkmI3hhOyYjeGE7CQkmI3hhOwkmI3hhOwkJJiN4YTsJJiN4YTsJCSYjeGE7CSYjeGE7CQkmI3hhOwkmI3hhOwkJJiN4YTsJJiN4YTsJCSYjeGE7CSYjeGE7CQkmI3hhOwk8L2RlZnM+JiN4YTs8ZmlsdGVyIGlkPSJmaWx0ZXJfMiI+JiN4YTsJPGZlR2F1c3NpYW5CbHVyIGlkPSJmZUdhdXNzaWFuQmx1cjYwNTMyIiBzdGREZXZpYXRpb249IjIiLz4mI3hhOzwvZmlsdGVyPiYjeGE7PHNvZGlwb2RpOm5hbWVkdmlldyBib3JkZXJjb2xvcj0iIzY2NjY2NiIgYm9yZGVyb3BhY2l0eT0iMSIgZml0LW1hcmdpbi1ib3R0b209IjAiIGZpdC1tYXJnaW4tbGVmdD0iMCIgZml0LW1hcmdpbi1yaWdodD0iMCIgZml0LW1hcmdpbi10b3A9IjAiIGdyaWR0b2xlcmFuY2U9IjEwIiBndWlkZXRvbGVyYW5jZT0iMTAiIGlkPSJuYW1lZHZpZXc2MDYwOSIgaW5rc2NhcGU6Y3VycmVudC1sYXllcj0ic3ZnNjA2MDciIGlua3NjYXBlOmN4PSItMTcuNTIzODc3IiBpbmtzY2FwZTpjeT0iMjUuOTk4MTIzIiBpbmtzY2FwZTpwYWdlb3BhY2l0eT0iMCIgaW5rc2NhcGU6cGFnZXNoYWRvdz0iMiIgaW5rc2NhcGU6d2luZG93LWhlaWdodD0iMTAxNyIgaW5rc2NhcGU6d2luZG93LW1heGltaXplZD0iMSIgaW5rc2NhcGU6d2luZG93LXdpZHRoPSIxOTIwIiBpbmtzY2FwZTp3aW5kb3cteD0iLTgiIGlua3NjYXBlOndpbmRvdy15PSItOCIgaW5rc2NhcGU6em9vbT0iNS4xOTI4MDM5IiBvYmplY3R0b2xlcmFuY2U9IjEwIiBwYWdlY29sb3I9IiNmZmZmZmYiIHNob3dncmlkPSJmYWxzZSI+JiN4YTsJPC9zb2RpcG9kaTpuYW1lZHZpZXc+JiN4YTsmI3hhOzxwYXRoIGlkPSJwYXRoNjA1NDUiIGlua3NjYXBlOmNvbm5lY3Rvci1jdXJ2YXR1cmU9IjAiIHN0eWxlPSJmaWxsOiM1OWI0ZDkiIGQ9Im0gNDIuODksMjUuOTI2MyB2IC04LjI1IGggLTQuMTIgdiA4LjI1IGMgMCwxLjQ4IC0xLjMyLDIuOCAtMy40NywzLjQ2IGwgLTUuNjEsMS4xNiBjIC0zLjc5LDEuMTUgLTYuNDMsNC4xMiAtNi40Myw3LjQyIHYgOS40IGggNC4xMiB2IC05LjQgYyAwLC0xLjQ4IDEuMzIsLTIuOCAzLjQ3LC0zLjQ2IGwgNS42MSwtMS4zMiBjIDMuNDYsLTAuNjYgNi4xLC0zLjYzIDYuNDMsLTcuMjYgeiIvPiYjeGE7JiN4YTs8cGF0aCBpZD0icGF0aDYwNTUzIiBpbmtzY2FwZTpjb25uZWN0b3ItY3VydmF0dXJlPSIwIiBzdHlsZT0iZmlsbDojN2ZiYTAwIiBkPSJtIDMyLjM0LDUxLjY1NjMgdiAtNy41OCBjIDAsLTEuODIgLTEuNDksLTMuMyAtMy4zLC0zLjMgaCAtNy41OSBjIC0xLjgyLDAgLTMuMywxLjQ4IC0zLjMsMy4zIHYgNy41OCBjIDAsMS44MiAxLjQ4LDMuMyAzLjMsMy4zIGggNy41OSBjIDEuODEsMCAzLjMsLTEuNDggMy4zLC0zLjMgeiIvPiYjeGE7JiN4YTs8cGF0aCBpZD0icGF0aDYwNTYxIiBpbmtzY2FwZTpjb25uZWN0b3ItY3VydmF0dXJlPSIwIiBzdHlsZT0iZmlsbDojNTliNGQ5IiBkPSJtIDM4LjI4LDI1LjkyNjMgdiAtOC4yNSBoIDQuMTIgdiA4LjI1IGMgMCwxLjQ4IDEuMzIsMi44IDMuNDcsMy40NiBsIDYuOTMsMS40OSBjIDMuNzksMS4xNSA2LjQzLDQuMTIgNi40Myw3LjQyIHYgOS40IGggLTQuMTIgdiAtOS40IGMgMCwtMS40OCAtMS4zMiwtMi44IC0zLjQ3LC0zLjQ2IGwgLTYuOTMsLTEuNDkgYyAtMy43OSwtMS4xNSAtNi40MywtNC4xMiAtNi40MywtNy40MiB6Ii8+JiN4YTsmI3hhOzxwYXRoIGlkPSJwYXRoNjA1NjkiIGlua3NjYXBlOmNvbm5lY3Rvci1jdXJ2YXR1cmU9IjAiIHN0eWxlPSJmaWxsOiM3ZmJhMDAiIGQ9Im0gNTAuMTYsNTEuOTg2MyB2IC03LjU4IGMgMCwtMS44MiAxLjQ4LC0zLjMgMy4zLC0zLjMgaCA3LjU5IGMgMS44MSwwIDMuMywxLjQ4IDMuMywzLjMgdiA3LjU4IGMgMCwxLjgyIC0xLjQ5LDMuMyAtMy4zLDMuMyBoIC03LjU5IGMgLTEuODIsMCAtMy4zLC0xLjQ4IC0zLjMsLTMuMyB6Ii8+JiN4YTsmI3hhOyYjeGE7JiN4YTs8cGF0aCBpZD0icGF0aDYwNTg1IiBpbmtzY2FwZTpjb25uZWN0b3ItY3VydmF0dXJlPSIwIiBzdHlsZT0iZmlsbDojMDA3MmM2IiBkPSJtIDQzLjcyLDEwLjA4NjMgdiA2LjExIGggLTYuMSB2IC02LjExIHogbSAxLjMyLC00LjYyIEggMzYuMyBjIC0xLjgyLDAgLTMuMywxLjQ5IC0zLjMsMy4zIHYgOC43NCBjIDAsMS44MiAxLjQ4LDMuMyAzLjMsMy4zIGggOC43NCBjIDEuODIsMCAzLjMsLTEuNDggMy4zLC0zLjMgdiAtOC43NCBjIDAsLTEuODEgLTEuNDgsLTMuMyAtMy4zLC0zLjMgeiIvPiYjeGE7JiN4YTs8cGF0aCBpZD0icGF0aDYwNTkzIiBpbmtzY2FwZTpjb25uZWN0b3ItY3VydmF0dXJlPSIwIiBzdHlsZT0iZmlsbDojNTliNGQ5IiBkPSJtIDEzLjAzLDY0LjAzNjMgYyAtMi42NCwwLjE2IC01LjI4LC0wLjUgLTcuNDIsLTEuODIgLTEuNDksLTEuMzIgLTIuMTUsLTMuNDYgLTIuMTUsLTYuNTkgdiAtMTcuMTYgYyAwLC0yLjgxIC0xLjE1LC00LjI5IC0zLjQ2LC00LjI5IHYgLTQuMjkgYyAyLjMxLDAgMy40NiwtMS40OSAzLjQ2LC00LjQ2IHYgLTE2LjgzIGMgMCwtMy4xMyAwLjY2LC01LjQ0IDIuMTUsLTYuNzYgQyA3LjA5LDAuNTE2Mjk5OTggOS41NywwLjAxNjI5OTk4IDEzLjAzLDAuMDE2Mjk5OTggViA0LjMwNjMgYyAtMi40NywwIC0zLjc5LDEuMzIgLTMuNzksNC4xMyB2IDE2LjUgYyAwLDMuNzkgLTEuMTYsNi4xIC0zLjYzLDcuMDkgMi4zMSwwLjk5IDMuNjMsMy4zIDMuNjMsNy4xIHYgMTYuMzMgYyAwLDEuMTYgMC4xNiwyLjMxIDAuODIsMy4zIDAuODMsMC42NiAxLjgyLDEuMTYgMi44MSwwLjk5IDAsMCAwLjE2LDQuMjkgMC4xNiw0LjI5IHoiLz4mI3hhOyYjeGE7PHBhdGggaWQ9InBhdGg2MDYwMSIgaW5rc2NhcGU6Y29ubmVjdG9yLWN1cnZhdHVyZT0iMCIgc3R5bGU9ImZpbGw6IzU5YjRkOSIgZD0ibSA2OS40NiwwLjAyNjI5OTk4IGMgMi42NCwtMC4xNyA1LjI4LDAuNDkgNy40MiwxLjgxMDAwMDAyIDEuNDksMS4zMiAyLjE1LDMuNDcgMi4xNSw2LjYgdiAxNy4xNiBjIDAsMi44MSAxLjE1LDQuMjkgMy40Niw0LjI5IHYgNC4yOSBjIC0yLjMxLDAgLTMuNDYsMS40OSAtMy40Niw0LjQ2IHYgMTYuNjYgYyAwLDMuMTQgLTAuNjYsNS40NCAtMi4xNSw2Ljc2IC0xLjQ4LDEuMzIgLTMuOTYsMS45OCAtNy40MiwxLjk4IHYgLTQuMjggYyAyLjQ3LDAgMy43OSwtMS4zMiAzLjc5LC00LjEzIHYgLTE2LjUgYyAwLC0zLjc5IDEuMTYsLTYuMSAzLjYzLC03LjA5IC0yLjMxLC0wLjk5IC0zLjYzLC0zLjMgLTMuNjMsLTcuMSB2IC0xNi4zMyBjIDAsLTEuMTYgLTAuMTYsLTIuMzEgLTAuODIsLTMuMyAtMC44MywtMC42NiAtMS44MiwtMS4xNiAtMi44MSwtMC45OSB6Ii8+JiN4YTs8L3N2Zz4=;" vertex="1" parent="1">
          <mxGeometry x="1535" y="112.5" width="57.66" height="45" as="geometry" />
        </mxCell>
        <mxCell id="NkLvIqLFpbnPFktaiqOG-38" value="" style="shape=image;verticalLabelPosition=bottom;labelBackgroundColor=#ffffff;verticalAlign=top;aspect=fixed;imageAspect=0;image=data:image/png,iVBORw0KGgoAAAANSUhEUgAAAH8AAAB/CAYAAADGvR0TAAASJElEQVR4Ae2d688dRRnA+X/8pJ/8YvxmTLzFKInwwZAYNQEvGJUgpMaS4AVSC8GSVrBS0wbSkr4kRasNVikotYW20Bbsa9NCaZUCSilYS7ms+R19js953pnZmd2Z2T31bLLv7rntZX7PbZ55Zt8rmsXyf9sCV1yud37p0tvNkeVTza49B5utDz8+We97cHfzvTse8K4/vX/X9LsP/3b/5Pevvf7m5dpEzWUB/+VXzzW/e+JwI3C/eOO65sprb8u2Xv31H08EBuFAmE6/9PfLQiDmEr7AXveLXzXXrtqQDXKKwCBgd2zcMdfCMDfwMb+Y4utX3zsI7DbBQAi3PPRog2DOyzJq+Pjtx/c/29y2YSkZODDw7wDB54sPJw6Qdd+hPzePPnFwZl3a+Vjzs/t3TtbvrtncXL/6nuRz33T75olFePPCxVHLwSjh02gAu+abd0Y1vDbByyfORDf4+fPnmzNnzkSt+w4caXbs+kOz9t6l5iur1kddF7ECrmms1mBU8DHtBG00WsjMIhQ5/G0KfCskzx07PhWGL990d/B6uZcxCsEo4MdCx/zjBnAHOZY+8K0wPLJnf3P7+gebq762JigI3MPJF8/muPzexxgc/tJv9gbNO74bf12iv50TvgjDCy+caogbvnXrxqAQYOGGjgkGg49vDkXu3/7+fZO+e2/xDhygBHwRArYEk9/50SavEBCrkJ8YaqkOHw3G//l8OtD3HVqu0h6l4YsgIAS33Hm/957pHQyROKoKny6WL/uGFagFXSSrFnwRAnoMPndAkEv2sOZSDT5dN5e2c9N8liuIS2m82vBFCIgJvnDDXc72oBdTKxYoDh8zj1lzgb/1J9sG7QMPBR8hOH7i+Wbdph3OdsEK1ugRFIWPmXclatD2IQMdsQ5DwhcrgCtwJY1qtFEx+PTHuQGr8Uj1EMGNANfbMcAXK/CDdVtXtBVth0sstRSBT7/cQuc1Uf4Qvt3XeGOBL1Zg247fO5NEtFuJJTt8khcWfA0T1qVxxgYfIcANfP4ba1e0IfFRbsXJCt/Vf8fn4/vHuIwRPgJw+OixxjVeQA4kZ08gG3yXxtOnrxG1dhWsscKXOMA1nJzTAmSBT37emnoCu7EOZYqwjBm+CAA1BbZtyQXkWHrDJ6q3Fwf4nOYpx426jjF2+AgAA0UuAaCesO/SC/7BoydWdOcYhRu7xkujzQN8sQAuF9C3G9gZPoBtAofXY/bxAl228wIfAaB4xBUEooBdl87wbcqW7txYo3pf48wTfASAXoAdEyCo7lrr0Am+a5BmDOlaH2Tf+/MGHwEgD2CrhShU7bIkw0e7bYBXKgPV5YZSfjOP8BEARgUtA3pcqUsSfMyLHY8nsg9lnhAWLMUY183bd0/LtKVceyzbX+/eG6wqpl5QCwBuN6VyGUFJgk//0p6wbZDG5SL0MRb77mllwEXLfStDwjYAJAMYUkRrGaLhu8x9jJ9fwHfDbRP6NvgIxR/3Pb3C/6eY/yj4SBPmXV8wJcgxywJ+OfgIAG5Kc8H8x+ZZouDb9C0niO1eWPhMn8KKjGF1Tdey07dqvd6y/ZEZiDGaD3wygLYYJDb6b4WPFAFbS1eKabHwY1xFjEXJ8Z0xRfsImW7jWPgIgP0tx4lp51b4drQuNahYwPcHbYCT1QJMgc8x+L4WHnplbcFfED6m3Wp9ajpxAf9/gAW0a9sXPulfWwTCoFtoCcJ3aX3oYK7PFvDrwEegbDUwVjq0eOG7tL7LpIoF/Hrw0X6b+g0x88LPofVI3QJ+Pfip2u+ET6BgfX1IgkKmZQG/LnyX9tOtdi1O+HQTdOTY5jtcB5b3FvDrwndpv2/gzQmfJIGG32cC4QJ+ffgHnnluhh9FNq5u3wr4JHU0eMx/n3q8Bfz68NF+W/bl6vatgG9h9a0UtceLyTyJyyi9vVwyfMC266Ztu2aU2DUWswK+HcBJTepYYAv4K8FYULzum+SxxyTwa7PgM/ApvtQ/iEkRWtj29QL+MPARBlvyba3uDHw7wdIXJVrAodcL+MPBt+VelucMfPyC1nwrKSHIvs8W8IeDT7Wv5smcCr3MwLd1+LFFAfqAdn8Bfzj4mH5b6qWZTuFbf2+lxEKNfb2APyx8O9SrczZT+CX8PQKygD8sfOv3dZdvCt9W5ubw9wv4ceBLdPWk62f9Pj04Wabwyd/r4KCtJFsO0LZdaH6cAOTu5wt8tnaKl2Rsp/B1sEdKN9eygD88fNvfl8m0E/gUbmit7zOKZ4VmAX94+LbCR/L8E/ikcDX8vvl8LQBDw2cKE9XGBDp2qpncM90hHpBMDTxPxGIyhDabNfZLmn3uSe6VLeXzLBP4NtKXDzXErvtDwEeybcJK33zMPn5yw+ZfTqZFzzt8/heAvmeJ+CfwecSH/jBXpI/A1IKP60LDfdqt7y91n4cl8y9WSgpBSc23ET+DdywT+OR8dYOIT+iq7fp3peFTpICl0tdfap/AiYYsIQQl4dsRPkngTeDbPr6v5ktDjd0vCb/tHzYgBPIftqhB1KlNrl/G85nxSuPjG/kHSrb+XQsT1bGMlecWgJLwuVZ9D9LXn8C3ZVvzAN8Klb45JBsXgCsILQLfBRIzb7tI+hy4gpxWoCZ87oPFCT9XgocTWEh94wkSFPZ5QAKF91NcVgi+CASAfQ9FppeQSwBKw7eJnil8W71jzeNETDr+yQkf8DYTKeBTJo/KrcTAFyEgYrYNyLlzCUBp+HZ0D6s40XzMpDQi2zHC94FHcFMfR9IFPkLAdGibMMklALXhw3gu4PvA930ObYrmiwVgax+IIAJA4Ki/l7I/GHwb8I1N863roLH7gkf7u8L3CUDqtGotHLXhc//OgG+M0b7OReQA3xe+TwC6JoNKw0dh9DqFb1OhY4TPxSIAucDngI8A2P+XR46ApIrW6pj9mvAZwZ3C11qFdHSdlDk5ovljTXbfrp5r2pE5ZevLVy691+x7/Z1mx+nzzQ+ffbV56PjZZueJs83yi39NhgZo2wtAIGKA6++UhE8sorV+JsNn4fcFpFs/N3x97NT9B1661Fxz9F/N+55407t+6elzzZbll5Pg2YGTiQIdOJJ0jJLwyUV44dNH1h926TP7QIwB/mOvvdN85MAFL3CXMHzyqdebR06+FA3Qmn+6hFqz2/ZLwmeIWvPFdbJMAj7MvP4wx4P8RRiGhr/21KUk6FYQ7nrulSiItoEZAyAv0AZdPi8JnyBU8+XBG1P4tmybNGmuZUj4Nx9/qxd4EYRVR/8RBdHOjOXZegK3bVsSPnUJGj71G1P4BFH6Q4kGcwjAUPDvOZ0HvAjAz5fbLYAtk2bwpw26fF4SvnVJMvl2YvaBbPP7bSNisYIxBPxDb7yTReMFPNv3732jeeqFvwVhYub1cHCK6S8J3z6hU9hO4Zfq6w8B/zPPpAV3GnJon56AaKpvSy2gtqJA9X1Xv18KPt08/YQubdWn8C0kXudY7HFzdiNd10dkHwLY97O9z4e13/rX2MKPUvB5br8WRlL5skzhk9XzfUm+3GVbG36uIM8nJCSFtMbafdvYsQmfUvDtKKRW6il8gj79+DX2c2TTasP/4P5/FtV8+v8WuH5ts2mMo+vPfful4NseiE7dT+Gj1XZ0T3+xi9bzGwufwJLzlFhvXLdUFDzWgMDPB5CKn4nPv+725sr/rigR77WtFlKfEUK5PiuI+Hut0DPwLShtInLB164l9/4nbt5YHD4C4BsDsNUyfe4vB3zrgqReX1jOwLd+P8e0LStQfRqk7bcfW725Cnxfl29s8O3cfEnuOOFjEjANupFlUp/8IHVbE/6nblhfBb6YVbsdE3ybc4CpLcyd0XzA2tk7kgdOhS7fpyoIi1JjPXDsxeLwP7TP7/PJ79vA7XNfXTN5j/dTVp6iaYUr5bXN57tS9ivgUwypNV8K/AXm2LdXHw4P2fq6cLHvX/fMa0Eo9tGnBHIp0HJ916Z0rcmH4wr4vGmreSUXPHbwXF/unL4ViraxfqtxOQK3VIGgwERn9VBmSelqhk741k/bKFEfYGz7VOl84E/+Yg0LM+U1Jv/k6XC1j83wpYzspUL2fd/+py4Zv7esnPDx09r0s9838LMnLvm67xi+TyA2HGsf2WMkT7cdVT4+SCXeJ9CzZWW+lLoTPmDsQM88af/Fd5vm44fyDu58tiWzB0j+w7UGj+kl0VICsu+YVuuJ2XRiRyudF74t8Jg37T9x4d0mV6oXc3/4VNjcA8Pm0WPz+j6Qqe+7tN4V6IkAeOG7tL9vt09OWmtLhW5fAQD8nohaPlfD1zb5NqMX0noYBOHbjB95alfUWAtml/Ocvvhe07X7d82hc95UrtVK2/D4Xfud0q/t+EBbIW4QPo1tZ8XmfFhTF5hdf7P08tvNh5+MG/H76JPnm61/ORsND79ugyyi/tKw9fGtr49R1Fb49kld+H4swrwuuIJbTrw1qd//9KH/dAkJ5q46cK6hUDPGxOtGZ5+neehAr+usHXvc2Nf063X5GNcS81CtVvhAtpE/1sAXQZYUCoLQnAmnPhM1BYwt2abhebyLfF5jax8eQZIuhk8UfPw8ZkRLdyiKLCEAgGfQievIJQB94TMTxg7mpFTs5hAMO5YAo9jpdlHwgWln9QAh51TukMAIeBE+zh17g6Hj9oGPqbXg6df3HZBJEQh6GLYyNyUfEw0fM2LLuxkpijEvIQAxnwHaWh4EwZe5ijkm3+kKnwDPRtZcT2yxZgrg0HfteD1tlNIbi4ZPY7mCv1p9f86dWwC6wEezXeB5WkcIVO7P7AQRhC/VFSfBRwCALeZXtjlMcIy2+gSAWcY8uiV1SYVPIGdHy2iD1EmZfQUBAbTXoUuyY9shGT5mHnMv4NkSiNXy/3QzbbUR10A2K9UNxMLHv/ueyVd7yNbl57n3FHMvwpEMnx8C2gKge9FF++RCUrY2ANSCiAbwLL6YWKQNPgM1wLVaJuerncgBvEsIu+ZdOsEHFKZeGkG2Nfv/1KMBWs5ttwgnJWkIim9xwaf7hj+1Q7P6+ET59O/7mu/U39v+PNfUp8K6M3wa1BZ9cDE5n5njg6bfx9RbK6RBsU+giKAgDFyzrJu37548Vo1gjRE4m6K1x+E1lqD2MC1CYrOIXIuvSEO3T2i/F3wObB/pwkXxXs0Ff0dDuGDleg9LUHuUTiyD67l/WNm+brY3fHyrq+ERgBi/m1NIiEXIadsaxK4CgK9H42ombgS4bF3gub8uAZ5t697wOSCQ7egfDV7bBeibo1uIALquKyQMZMww7XTrhjDvAp2ty9Tj4nL1rLLAp9GRRJfG5TBPGmrXfUrSiQ/E37PVPp/xeLp0uvGH2ieqdwV3gA8FsKltkw0+J0YiXZpGWjiXtKbeYOj7rmh/KOByXl93Ljd42iUrfA5IEOLqgpGIwBSPaRkbfGILO1CDi8KillCe7PCBSwxgawDEz8YUGdQSkDHBJ7fgSiZhSXMEd642LQJfTuTqBiIEpIdLSLKcN3Y7BviYeQJMUQ69JWDu250LtUVR+JyYIMs1GocPS83Fh26ky2dDwydL6DLzCEANC1kcPlBIxboCQbECdupwF5BdfjMUfHoVPm2vGRtVgQ8Y4gDXcDACgGVA0msnhYaAT/7AFluKqSdQLuXfXcpRDb6cnIgf6ZYb1luiWgoSaglBTfjkEVxFICL8bTX20n45t9Xhc/EEMT4rQGMgHAhByWCH66gBnyje1vppgSeoGyr4HQS+SG/bf8QkKCQTV8oUloJPWrgNOgJeqwJK2ttuB4UvF4PJA7TWCLuPhtA7yOkScsPHtJOWdfXX5X4kvilt1aRtQ9tRwOcCaQxMvS8e0I1H/gCt6duAfeHTR2eYlwGYtloAhJugtpQVC0H2fTYa+HKBaPauPQedg0QiAHpLF5L4gUAy1Sp0gc8kCYZZ7QOW9TXpfXFdfQVV2ifndnTw9c1Ri+dLE+sG1vtkD5lMSqyAdQj9t80QfOr30GpA0ycHdsic62tgn+tAiMcIXdp41PDlImlAGtJWDdsGj32NtaBPvWrNluljUWN/G/oeo5fEL0NF79Jesdu5gK9vhoYlNsAiuNLGITglPkOIsDI5x9n1/Zbcnzv4tjEw62ibaxi5BGysD4FblxjDXvvQr+cevm1ALAN17AgE1boIRRcLwe/oVaDVgB5q/MHeX87Xlx382MbBTCMkoYAw9ljz+r1/A0CGDvrgWJN2AAAAAElFTkSuQmCC;rounded=1;fontFamily=Lucida Console;fontSize=14;strokeColor=#007FFF;fillColor=#ffffff;opacity=80;" vertex="1" parent="1">
          <mxGeometry x="1075" y="190" width="50" height="50" as="geometry" />
        </mxCell>
        <mxCell id="NkLvIqLFpbnPFktaiqOG-39" value="" style="shape=image;verticalLabelPosition=bottom;labelBackgroundColor=#ffffff;verticalAlign=top;aspect=fixed;imageAspect=0;image=data:image/svg+xml,PHN2ZyB4bWxuczpjYz0iaHR0cDovL2NyZWF0aXZlY29tbW9ucy5vcmcvbnMjIiB4bWxuczpkYz0iaHR0cDovL3B1cmwub3JnL2RjL2VsZW1lbnRzLzEuMS8iIHhtbG5zOmlua3NjYXBlPSJodHRwOi8vd3d3Lmlua3NjYXBlLm9yZy9uYW1lc3BhY2VzL2lua3NjYXBlIiB4bWxuczpyZGY9Imh0dHA6Ly93d3cudzMub3JnLzE5OTkvMDIvMjItcmRmLXN5bnRheC1ucyMiIHhtbG5zOnNvZGlwb2RpPSJodHRwOi8vc29kaXBvZGkuc291cmNlZm9yZ2UubmV0L0RURC9zb2RpcG9kaS0wLmR0ZCIgeG1sbnM6c3ZnPSJodHRwOi8vd3d3LnczLm9yZy8yMDAwL3N2ZyIgeG1sbnM9Imh0dHA6Ly93d3cudzMub3JnLzIwMDAvc3ZnIiB4bWxuczp4bGluaz0iaHR0cDovL3d3dy53My5vcmcvMTk5OS94bGluayIgdmVyc2lvbj0iMS4xIiBpZD0ic3ZnMzg3NzciIGlua3NjYXBlOnZlcnNpb249IjAuOTIuMyAoMjQwNTU0NiwgMjAxOC0wMy0xMSkiIHNvZGlwb2RpOmRvY25hbWU9ImNzdi5zdmciIHg9IjBweCIgeT0iMHB4IiB2aWV3Qm94PSIwIDAgMjYuODUgMzUuMzIiIHN0eWxlPSJlbmFibGUtYmFja2dyb3VuZDpuZXcgMCAwIDI2Ljg1IDM1LjMyOyIgeG1sOnNwYWNlPSJwcmVzZXJ2ZSI+JiN4YTs8c29kaXBvZGk6bmFtZWR2aWV3IGJvcmRlcmNvbG9yPSIjNjY2NjY2IiBib3JkZXJvcGFjaXR5PSIxIiBmaXQtbWFyZ2luLWJvdHRvbT0iMCIgZml0LW1hcmdpbi1sZWZ0PSIwIiBmaXQtbWFyZ2luLXJpZ2h0PSIwIiBmaXQtbWFyZ2luLXRvcD0iMCIgZ3JpZHRvbGVyYW5jZT0iMTAiIGd1aWRldG9sZXJhbmNlPSIxMCIgaWQ9Im5hbWVkdmlldzM4Nzc5IiBpbmtzY2FwZTpjdXJyZW50LWxheWVyPSJzdmczODc3NyIgaW5rc2NhcGU6Y3g9IjE3Ljg5Nzg4NCIgaW5rc2NhcGU6Y3k9IjIzLjU0OTc1NiIgaW5rc2NhcGU6cGFnZW9wYWNpdHk9IjAiIGlua3NjYXBlOnBhZ2VzaGFkb3c9IjIiIGlua3NjYXBlOndpbmRvdy1oZWlnaHQ9IjEwMTciIGlua3NjYXBlOndpbmRvdy1tYXhpbWl6ZWQ9IjEiIGlua3NjYXBlOndpbmRvdy13aWR0aD0iMTkyMCIgaW5rc2NhcGU6d2luZG93LXg9Ii04IiBpbmtzY2FwZTp3aW5kb3cteT0iLTgiIGlua3NjYXBlOnpvb209IjExLjM3MjMzNiIgb2JqZWN0dG9sZXJhbmNlPSIxMCIgcGFnZWNvbG9yPSIjZmZmZmZmIiBzaG93Z3JpZD0iZmFsc2UiPiYjeGE7CTwvc29kaXBvZGk6bmFtZWR2aWV3PiYjeGE7PGcgaWQ9ImczODc3NSIgdHJhbnNmb3JtPSJ0cmFuc2xhdGUoLTEwLjkyODYsLTEwLjkzMTQpIj4mI3hhOwk8dGl0bGUgaWQ9InRpdGxlMzg3MjkiPlBhZ2UtMTwvdGl0bGU+JiN4YTsJPGcgaWQ9Imdyb3VwNDAxNi0xIiB0cmFuc2Zvcm09InRyYW5zbGF0ZSgxMC45Mjg2LC0xMC45Mjg2KSI+JiN4YTsJCTx0aXRsZSBpZD0idGl0bGUzODczMSI+Q1NWPC90aXRsZT4mI3hhOwkJPGcgaWQ9Imdyb3VwNDAxNy0yIj4mI3hhOwkJCTx0aXRsZSBpZD0idGl0bGUzODczMyI+U2hlZXQuNDAxNzwvdGl0bGU+JiN4YTsJCQk8ZyBpZD0ic2hhcGU0MDE4LTMiPiYjeGE7CQkJCTx0aXRsZSBpZD0idGl0bGUzODczNSI+U2hlZXQuNDAxODwvdGl0bGU+JiN4YTsJCQkJPHBhdGggaWQ9InBhdGgzODczNyIgaW5rc2NhcGU6Y29ubmVjdG9yLWN1cnZhdHVyZT0iMCIgc3R5bGU9ImZpbGw6I0U5RTlFMDsiIGQ9Ik0xOS4wMywyMS44NkgwLjkxYy0wLjUsMC0wLjkxLDAuNDEtMC45MSwxLjIxICAgICAgdjMzLjQ4YzAsMC4yMiwwLjQxLDAuNjMsMC45MSwwLjYzaDI1LjAyYzAuNTEsMCwwLjkyLTAuNDEsMC45Mi0wLjYzVjMwLjA0YzAtMC40NC0wLjA2LTAuNTgtMC4xNi0wLjY4bC03LjI3LTcuMzQgICAgICBDMTkuMzIsMjEuOTIsMTkuMTgsMjEuODYsMTkuMDMsMjEuODZ6Ii8+JiN4YTsJCQk8L2c+JiN4YTsJCQk8ZyBpZD0ic2hhcGU0MDE5LTUiIHRyYW5zZm9ybT0idHJhbnNsYXRlKDE5LjM1NDcsLTI3Ljc1MjMpIj4mI3hhOwkJCQk8dGl0bGUgaWQ9InRpdGxlMzg3NDAiPlNoZWV0LjQwMTk8L3RpdGxlPiYjeGE7CQkJCTxwYXRoIGlkPSJwYXRoMzg3NDIiIGlua3NjYXBlOmNvbm5lY3Rvci1jdXJ2YXR1cmU9IjAiIHN0eWxlPSJmaWxsOiNEOUQ3Q0E7IiBkPSJNMCw0OS43djcuNDhoNy40TDAsNDkuN3oiLz4mI3hhOwkJCTwvZz4mI3hhOwkJCTxnIGlkPSJzaGFwZTQwMjAtNyI+JiN4YTsJCQkJPHRpdGxlIGlkPSJ0aXRsZTM4NzQ1Ij5TaGVldC40MDIwPC90aXRsZT4mI3hhOwkJCQk8cGF0aCBpZD0icGF0aDM4NzQ3IiBpbmtzY2FwZTpjb25uZWN0b3ItY3VydmF0dXJlPSIwIiBzdHlsZT0iZmlsbDojRjMwQkEwOyIgZD0iTTI1LjkzLDU3LjE4SDAuOTFjLTAuNSwwLTAuOTEtMC40MS0wLjkxLTAuOTIgICAgICB2LTkuOGgyNi44NXY5LjhDMjYuODUsNTYuNzcsMjYuNDQsNTcuMTgsMjUuOTMsNTcuMTh6Ii8+JiN4YTsJCQk8L2c+JiN4YTsJCQk8ZyBpZD0iZ3JvdXA0MDIxLTkiIHRyYW5zZm9ybT0idHJhbnNsYXRlKDUuMDQ1MzQsLTEuODQ5MzEpIj4mI3hhOwkJCQk8dGl0bGUgaWQ9InRpdGxlMzg3NTAiPlNoZWV0LjQwMjE8L3RpdGxlPiYjeGE7CQkJCTxnIGlkPSJzaGFwZTQwMjItMTAiPiYjeGE7CQkJCQk8dGl0bGUgaWQ9InRpdGxlMzg3NTIiPlNoZWV0LjQwMjI8L3RpdGxlPiYjeGE7CQkJCQk8cGF0aCBpZD0icGF0aDM4NzU0IiBpbmtzY2FwZTpjb25uZWN0b3ItY3VydmF0dXJlPSIwIiBzdHlsZT0iZmlsbDojRkZGRkZGOyIgZD0iTTQuMzcsNTYuNDljLTAuMjMsMC4yMy0wLjUsMC40LTAuNzksMC41MiAgICAgICBjLTAuMywwLjExLTAuNjIsMC4xNy0wLjk2LDAuMTdjLTAuMzgsMC0wLjcyLTAuMDctMS4wNC0wLjIxYy0wLjMxLTAuMTQtMC41OS0wLjM0LTAuODItMC42MWMtMC4yNC0wLjI3LTAuNDMtMC42MS0wLjU2LTEuMDIgICAgICAgUzAsNTQuNDYsMCw1My45M2MwLTAuNTQsMC4wNy0xLjAxLDAuMi0xLjQxYzAuMTMtMC40MSwwLjMyLTAuNzUsMC41Ni0xLjAyYzAuMjMtMC4yNywwLjUxLTAuNDcsMC44My0wLjYxczAuNjYtMC4yMSwxLjAzLTAuMjEgICAgICAgYzAuMzQsMCwwLjY2LDAuMDUsMC45NiwwLjE3YzAuMjksMC4xMSwwLjU2LDAuMjksMC43OSwwLjUyTDMuNjYsNTJjLTAuMTQtMC4xNi0wLjMtMC4yOC0wLjQ3LTAuMzYgICAgICAgYy0wLjE4LTAuMDctMC4zNi0wLjExLTAuNTQtMC4xMWMtMC4yMiwwLTAuNDIsMC4wNC0wLjYxLDAuMTJjLTAuMTksMC4wOC0wLjM2LDAuMjItMC41MSwwLjQxcy0wLjI3LDAuNDQtMC4zNSwwLjc1ICAgICAgIGMtMC4wOSwwLjMtMC4xMywwLjY3LTAuMTQsMS4xMmMwLjAxLDAuNDMsMC4wNSwwLjgsMC4xMywxLjFjMC4wOSwwLjMxLDAuMiwwLjU1LDAuMzQsMC43NWMwLjE1LDAuMTksMC4zMSwwLjMzLDAuNSwwLjQyICAgICAgIGMwLjE4LDAuMDksMC4zOCwwLjEzLDAuNTgsMC4xM2MwLjIxLDAsMC40LTAuMDMsMC41OC0wLjExYzAuMTgtMC4wNywwLjM0LTAuMTksMC40OS0wLjM2TDQuMzcsNTYuNDl6Ii8+JiN4YTsJCQkJPC9nPiYjeGE7CQkJCTxnIGlkPSJzaGFwZTQwMjMtMTIiIHRyYW5zZm9ybT0idHJhbnNsYXRlKDUuNzQzMzYsLTAuMDA4ODMwMjcpIj4mI3hhOwkJCQkJPHRpdGxlIGlkPSJ0aXRsZTM4NzU3Ij5TaGVldC40MDIzPC90aXRsZT4mI3hhOwkJCQkJPHBhdGggaWQ9InBhdGgzODc1OSIgaW5rc2NhcGU6Y29ubmVjdG9yLWN1cnZhdHVyZT0iMCIgc3R5bGU9ImZpbGw6I0ZGRkZGRjsiIGQ9Ik0zLjY1LDU1LjRjMCwwLjIzLTAuMDQsMC40NS0wLjE0LDAuNjcgICAgICAgYy0wLjA5LDAuMjItMC4yMiwwLjQxLTAuMzksMC41N3MtMC4zOSwwLjI5LTAuNjQsMC4zOXMtMC41MywwLjE1LTAuODUsMC4xNWMtMC4xNCwwLTAuMjgtMC4wMS0wLjQyLTAuMDIgICAgICAgYy0wLjE1LTAuMDItMC4yOS0wLjA0LTAuNDQtMC4wOEMwLjYyLDU3LjA1LDAuNDgsNTcsMC4zNSw1Ni45NEMwLjIxLDU2Ljg4LDAuMSw1Ni44MSwwLDU2LjcybDAuMTgtMC43NCAgICAgICBjMC4wOCwwLjA1LDAuMTgsMC4wOSwwLjMsMC4xM2MwLjEyLDAuMDUsMC4yNSwwLjA5LDAuMzgsMC4xMmMwLjEzLDAuMDQsMC4yNiwwLjA3LDAuMzksMC4wOWMwLjEzLDAuMDMsMC4yNiwwLjA0LDAuMzcsMC4wNCAgICAgICBjMC4zNSwwLDAuNjEtMC4wOCwwLjgtMC4yNWMwLjE4LTAuMTYsMC4yOC0wLjQsMC4yOC0wLjczYzAtMC4xOS0wLjA3LTAuMzYtMC4yLTAuNWMtMC4xMy0wLjEzLTAuMjktMC4yNi0wLjQ5LTAuMzcgICAgICAgYy0wLjItMC4xMS0wLjQxLTAuMjItMC42NC0wLjM0Yy0wLjIyLTAuMTEtMC40NC0wLjI0LTAuNjQtMC4zOWMtMC4yLTAuMTYtMC4zNi0wLjM0LTAuNDktMC41NGMtMC4xMy0wLjIxLTAuMi0wLjQ3LTAuMi0wLjc4ICAgICAgIGMwLTAuMjgsMC4wNS0wLjUzLDAuMTYtMC43NWMwLjEtMC4yMiwwLjI0LTAuNCwwLjQxLTAuNTVjMC4xNy0wLjE2LDAuMzgtMC4yNywwLjYxLTAuMzVjMC4yMy0wLjA4LDAuNDctMC4xMiwwLjczLTAuMTIgICAgICAgczAuNTIsMC4wMiwwLjc5LDAuMDdTMy4yMiw1MC44OSwzLjM5LDUxYy0wLjA0LDAuMDctMC4wOCwwLjE1LTAuMTIsMC4yNGMtMC4wNSwwLjA5LTAuMDksMC4xNy0wLjEzLDAuMjUgICAgICAgYy0wLjA0LDAuMDgtMC4wNywwLjE0LTAuMSwwLjJjLTAuMDMsMC4wNS0wLjA1LDAuMDgtMC4wNSwwLjA4Yy0wLjA0LTAuMDEtMC4wNy0wLjA0LTAuMTItMC4wN2MtMC4wNC0wLjAzLTAuMS0wLjA1LTAuMTgtMC4wOCAgICAgICBjLTAuMDgtMC4wMy0wLjE5LTAuMDUtMC4zMi0wLjA2Yy0wLjEzLTAuMDItMC4zLTAuMDEtMC41LDAuMDFjLTAuMTIsMC4wMS0wLjIyLDAuMDQtMC4zMywwLjA5Yy0wLjEsMC4wNi0wLjE5LDAuMTMtMC4yNywwLjIxICAgICAgIGMtMC4wOCwwLjA4LTAuMTQsMC4xNy0wLjE5LDAuMjdjLTAuMDQsMC4xLTAuMDcsMC4yLTAuMDcsMC4yOWMwLDAuMjMsMC4wNywwLjQxLDAuMiwwLjU1YzAuMTMsMC4xNSwwLjI5LDAuMjcsMC40OSwwLjM3ICAgICAgIGMwLjE5LDAuMTEsMC40LDAuMjEsMC42MywwLjMyYzAuMjMsMC4xLDAuNDQsMC4yMiwwLjY0LDAuMzZjMC4xOSwwLjE0LDAuMzUsMC4zMywwLjQ5LDAuNTRDMy41OSw1NC43OSwzLjY1LDU1LjA2LDMuNjUsNTUuNHoiLz4mI3hhOwkJCQk8L2c+JiN4YTsJCQkJPGcgaWQ9InNoYXBlNDAyNC0xNCIgdHJhbnNmb3JtPSJ0cmFuc2xhdGUoMTAuMTkxMiwtMC4wMDgxOTk1MykiPiYjeGE7CQkJCQk8dGl0bGUgaWQ9InRpdGxlMzg3NjIiPlNoZWV0LjQwMjQ8L3RpdGxlPiYjeGE7CQkJCQk8cGF0aCBpZD0icGF0aDM4NzY0IiBpbmtzY2FwZTpjb25uZWN0b3ItY3VydmF0dXJlPSIwIiBzdHlsZT0iZmlsbDojRkZGRkZGOyIgZD0iTTEuOTUsNTcuMThMMCw1MC43OWgxLjE3bDEuNDYsNS40OGwxLjU0LTUuNDggICAgICAgaDEuMTdsLTIuMDUsNi4zOUgxLjk1eiIvPiYjeGE7CQkJCTwvZz4mI3hhOwkJCTwvZz4mI3hhOwkJCTxnIGlkPSJzaGFwZTQwMjUtMTYiIHRyYW5zZm9ybT0idHJhbnNsYXRlKDMuMTIxNzMsLTEzLjg3NjEpIj4mI3hhOwkJCQk8dGl0bGUgaWQ9InRpdGxlMzg3NjgiPlNoZWV0LjQwMjU8L3RpdGxlPiYjeGE7CQkJCTxwYXRoIGlkPSJwYXRoMzg3NzAiIGlua3NjYXBlOmNvbm5lY3Rvci1jdXJ2YXR1cmU9IjAiIHN0eWxlPSJmaWxsOiNDOEJEQjg7IiBkPSJNNy40OSw0NS44M1Y0My4zSDB2Mi41M3YxLjI2djEuMjZ2MS4yNnYxLjI2ICAgICAgdjEuMjZ2MS4yNnYxLjI3djIuNTJoNi4yNGgxLjI1SDIwLjZ2LTIuNTJ2LTEuMjd2LTEuMjZ2LTEuMjZ2LTEuMjZ2LTEuMjZ2LTIuNTJINy40OXogTTEuMjUsNDQuNTZoNC45OXYxLjI3SDEuMjVWNDQuNTZ6ICAgICAgIE0xLjI1LDQ3LjA5aDQuOTl2MS4yNkgxLjI1VjQ3LjA5eiBNMS4yNSw0OS42MWg0Ljk5djEuMjZIMS4yNVY0OS42MXogTTEuMjUsNTIuMTNoNC45OXYxLjI2SDEuMjVWNTIuMTN6IE02LjI0LDU1LjkySDEuMjUgICAgICB2LTEuMjZoNC45OVY1NS45MnogTTE5LjM1LDU1LjkySDcuNDl2LTEuMjZoMTEuODZWNTUuOTJ6IE0xOS4zNSw1My4zOUg3LjQ5di0xLjI2aDExLjg2VjUzLjM5eiBNMTkuMzUsNTAuODdINy40OXYtMS4yNmgxMS44NiAgICAgIEwxOS4zNSw1MC44N3ogTTcuNDksNDguMzV2LTEuMjZoMTEuODZ2MS4yNkg3LjQ5eiIvPiYjeGE7CQkJPC9nPiYjeGE7CQk8L2c+JiN4YTsJPC9nPiYjeGE7PC9nPiYjeGE7PC9zdmc+;" vertex="1" parent="1">
          <mxGeometry x="1080.71" y="120" width="38.57" height="50" as="geometry" />
        </mxCell>
        <mxCell id="NkLvIqLFpbnPFktaiqOG-40" value="HR Suite" style="whiteSpace=wrap;html=1;" vertex="1" parent="1">
          <mxGeometry x="900" y="140" width="120" height="60" as="geometry" />
        </mxCell>
        <mxCell id="NkLvIqLFpbnPFktaiqOG-41" value="" style="shape=image;verticalLabelPosition=bottom;labelBackgroundColor=#ffffff;verticalAlign=top;aspect=fixed;imageAspect=0;image=data:image/svg+xml,PHN2ZyB4bWxuczpkYz0iaHR0cDovL3B1cmwub3JnL2RjL2VsZW1lbnRzLzEuMS8iIHhtbG5zOmNjPSJodHRwOi8vY3JlYXRpdmVjb21tb25zLm9yZy9ucyMiIHhtbG5zOnJkZj0iaHR0cDovL3d3dy53My5vcmcvMTk5OS8wMi8yMi1yZGYtc3ludGF4LW5zIyIgeG1sbnM6c3ZnPSJodHRwOi8vd3d3LnczLm9yZy8yMDAwL3N2ZyIgeG1sbnM9Imh0dHA6Ly93d3cudzMub3JnLzIwMDAvc3ZnIiB4bWxuczp4bGluaz0iaHR0cDovL3d3dy53My5vcmcvMTk5OS94bGluayIgeG1sbnM6c29kaXBvZGk9Imh0dHA6Ly9zb2RpcG9kaS5zb3VyY2Vmb3JnZS5uZXQvRFREL3NvZGlwb2RpLTAuZHRkIiB4bWxuczppbmtzY2FwZT0iaHR0cDovL3d3dy5pbmtzY2FwZS5vcmcvbmFtZXNwYWNlcy9pbmtzY2FwZSIgdmVyc2lvbj0iMS4xIiBpZD0iTGF5ZXJfMSIgeD0iMHB4IiB5PSIwcHgiIHZpZXdCb3g9IjAgMCAyOS4zOTk5OTIgMjkuMzk5OTk4IiB4bWw6c3BhY2U9InByZXNlcnZlIiBzb2RpcG9kaTpkb2NuYW1lPSJyZW1vdmUuc3ZnIiB3aWR0aD0iMjkuMzk5OTkyIiBoZWlnaHQ9IjI5LjM5OTk5OCIgaW5rc2NhcGU6dmVyc2lvbj0iMC45Mi4zICgyNDA1NTQ2LCAyMDE4LTAzLTExKSI+PG1ldGFkYXRhIGlkPSJtZXRhZGF0YTQ2NzA0Ij48cmRmOlJERj48Y2M6V29yayByZGY6YWJvdXQ9IiI+PGRjOmZvcm1hdD5pbWFnZS9zdmcreG1sPC9kYzpmb3JtYXQ+PGRjOnR5cGUgcmRmOnJlc291cmNlPSJodHRwOi8vcHVybC5vcmcvZGMvZGNtaXR5cGUvU3RpbGxJbWFnZSIvPjxkYzp0aXRsZS8+PC9jYzpXb3JrPjwvcmRmOlJERj48L21ldGFkYXRhPjxkZWZzIGlkPSJkZWZzNDY3MDIiLz48c29kaXBvZGk6bmFtZWR2aWV3IHBhZ2Vjb2xvcj0iI2ZmZmZmZiIgYm9yZGVyY29sb3I9IiM2NjY2NjYiIGJvcmRlcm9wYWNpdHk9IjEiIG9iamVjdHRvbGVyYW5jZT0iMTAiIGdyaWR0b2xlcmFuY2U9IjEwIiBndWlkZXRvbGVyYW5jZT0iMTAiIGlua3NjYXBlOnBhZ2VvcGFjaXR5PSIwIiBpbmtzY2FwZTpwYWdlc2hhZG93PSIyIiBpbmtzY2FwZTp3aW5kb3ctd2lkdGg9IjE5MjAiIGlua3NjYXBlOndpbmRvdy1oZWlnaHQ9IjEwMTciIGlkPSJuYW1lZHZpZXc0NjcwMCIgc2hvd2dyaWQ9ImZhbHNlIiBmaXQtbWFyZ2luLXRvcD0iMCIgZml0LW1hcmdpbi1sZWZ0PSIwIiBmaXQtbWFyZ2luLXJpZ2h0PSIwIiBmaXQtbWFyZ2luLWJvdHRvbT0iMCIgaW5rc2NhcGU6em9vbT0iMS4wMzAzMDMiIGlua3NjYXBlOmN4PSIwLjMwNDk5MjY4IiBpbmtzY2FwZTpjeT0iLTMzMS43OSIgaW5rc2NhcGU6d2luZG93LXg9Ii04IiBpbmtzY2FwZTp3aW5kb3cteT0iLTgiIGlua3NjYXBlOndpbmRvdy1tYXhpbWl6ZWQ9IjEiIGlua3NjYXBlOmN1cnJlbnQtbGF5ZXI9IkxheWVyXzEiLz4mI3hhOyYjeGE7PGcgaWQ9Imc0NjY5NyIgdHJhbnNmb3JtPSJ0cmFuc2xhdGUoLTI5Ny4wNzAwMSwtNTkuNTYwMDAxKSI+JiN4YTsJPGRlZnMgaWQ9ImRlZnM0NjY4MiI+JiN4YTsJCTxyZWN0IGlkPSJTVkdJRF8zXyIgeD0iMjk3LjA3MDAxIiB5PSI1OS41NjAwMDEiIHdpZHRoPSIzMS4xNSIgaGVpZ2h0PSIzMS4xNSIvPiYjeGE7CTwvZGVmcz4mI3hhOwk8Y2xpcFBhdGggaWQ9IlNWR0lEXzRfIj4mI3hhOwkJPHVzZSB4bGluazpocmVmPSIjU1ZHSURfM18iIHN0eWxlPSJvdmVyZmxvdzp2aXNpYmxlIiBpZD0idXNlNDY2ODQiIHg9IjAiIHk9IjAiIHdpZHRoPSIxMDAlIiBoZWlnaHQ9IjEwMCUiLz4mI3hhOwk8L2NsaXBQYXRoPiYjeGE7CTxnIGNsaXAtcGF0aD0idXJsKCNTVkdJRF80XykiIGlkPSJnNDY2OTUiPiYjeGE7CQk8ZGVmcyBpZD0iZGVmczQ2Njg4Ij4mI3hhOwkJCTxyZWN0IGlkPSJTVkdJRF81XyIgeD0iMjk3LjA3MDAxIiB5PSI1OS41NjAwMDEiIHdpZHRoPSIzMS4xNSIgaGVpZ2h0PSIzMS4xNSIvPiYjeGE7CQk8L2RlZnM+JiN4YTsJCTxjbGlwUGF0aCBpZD0iU1ZHSURfNl8iPiYjeGE7CQkJPHVzZSB4bGluazpocmVmPSIjU1ZHSURfNV8iIHN0eWxlPSJvdmVyZmxvdzp2aXNpYmxlIiBpZD0idXNlNDY2OTAiIHg9IjAiIHk9IjAiIHdpZHRoPSIxMDAlIiBoZWlnaHQ9IjEwMCUiLz4mI3hhOwkJPC9jbGlwUGF0aD4mI3hhOwkJPHBvbHlnb24gc3R5bGU9ImZpbGw6I2VhNGUzOSIgcG9pbnRzPSIzMjYuMDUsODUuNDkgMzIzLjA2LDg4LjQ4IDMxMS44Niw3Ny4yOCAzMDAuMTgsODguOTYgMjk3LjA3LDg1Ljg1IDMwOC43NSw3NC4xNyAyOTcuNjEsNjIuOTcgMzAwLjYsNTkuOTggMzExLjc0LDcxLjE4IDMyMy4zNiw1OS41NiAzMjYuNDcsNjIuNzMgMzE0Ljg2LDc0LjI5ICIgY2xpcC1wYXRoPSJ1cmwoI1NWR0lEXzZfKSIgaWQ9InBvbHlnb240NjY5MyIvPiYjeGE7CTwvZz4mI3hhOzwvZz4mI3hhOzwvc3ZnPg==;" vertex="1" parent="1">
          <mxGeometry x="1075" y="190" width="54.5" height="54.5" as="geometry" />
        </mxCell>
        <mxCell id="NkLvIqLFpbnPFktaiqOG-42" value="updates" style="edgeStyle=orthogonalEdgeStyle;rounded=0;orthogonalLoop=1;jettySize=auto;html=1;endArrow=block;endFill=1;strokeColor=#009900;strokeWidth=3;" edge="1" parent="1" source="NkLvIqLFpbnPFktaiqOG-43">
          <mxGeometry relative="1" as="geometry">
            <mxPoint x="1520" y="125" as="targetPoint" />
            <Array as="points">
              <mxPoint x="1350" y="365" />
              <mxPoint x="1350" y="125" />
            </Array>
          </mxGeometry>
        </mxCell>
        <mxCell id="NkLvIqLFpbnPFktaiqOG-43" value="" style="whiteSpace=wrap;html=1;rounded=0;fontSize=14;opacity=80;dashed=1;strokeColor=#6c8ebf;fillColor=#dae8fc;" vertex="1" parent="1">
          <mxGeometry x="1165" y="320" width="90" height="90" as="geometry" />
        </mxCell>
        <mxCell id="NkLvIqLFpbnPFktaiqOG-44" value="" style="shape=image;verticalLabelPosition=bottom;labelBackgroundColor=#ffffff;verticalAlign=top;aspect=fixed;imageAspect=0;image=data:image/svg+xml,PHN2ZyB4bWxuczpkYz0iaHR0cDovL3B1cmwub3JnL2RjL2VsZW1lbnRzLzEuMS8iIHhtbG5zOmNjPSJodHRwOi8vY3JlYXRpdmVjb21tb25zLm9yZy9ucyMiIHhtbG5zOnJkZj0iaHR0cDovL3d3dy53My5vcmcvMTk5OS8wMi8yMi1yZGYtc3ludGF4LW5zIyIgeG1sbnM6c3ZnPSJodHRwOi8vd3d3LnczLm9yZy8yMDAwL3N2ZyIgeG1sbnM9Imh0dHA6Ly93d3cudzMub3JnLzIwMDAvc3ZnIiB4bWxuczpzb2RpcG9kaT0iaHR0cDovL3NvZGlwb2RpLnNvdXJjZWZvcmdlLm5ldC9EVEQvc29kaXBvZGktMC5kdGQiIHhtbG5zOmlua3NjYXBlPSJodHRwOi8vd3d3Lmlua3NjYXBlLm9yZy9uYW1lc3BhY2VzL2lua3NjYXBlIiB2ZXJzaW9uPSIxLjEiIGlkPSJzdmc2MDYwNyIgaW5rc2NhcGU6dmVyc2lvbj0iMC45Mi4zICgyNDA1NTQ2LCAyMDE4LTAzLTExKSIgc29kaXBvZGk6ZG9jbmFtZT0iYXp1cmVfcG9ydGFsX2xvZ2ljX2FwcHMuc3ZnIiB4PSIwcHgiIHk9IjBweCIgdmlld0JveD0iMCAwIDgyLjQ5IDY0LjA1OTg2OCIgeG1sOnNwYWNlPSJwcmVzZXJ2ZSIgd2lkdGg9IjgyLjQ4OTk5OCIgaGVpZ2h0PSI2NC4wNTk4NjgiPjxtZXRhZGF0YSBpZD0ibWV0YWRhdGE5NTI0Ij48cmRmOlJERj48Y2M6V29yayByZGY6YWJvdXQ9IiI+PGRjOmZvcm1hdD5pbWFnZS9zdmcreG1sPC9kYzpmb3JtYXQ+PGRjOnR5cGUgcmRmOnJlc291cmNlPSJodHRwOi8vcHVybC5vcmcvZGMvZGNtaXR5cGUvU3RpbGxJbWFnZSIvPjxkYzp0aXRsZS8+PC9jYzpXb3JrPjwvcmRmOlJERj48L21ldGFkYXRhPjxkZWZzIGlkPSJkZWZzOTUyMiI+JiN4YTsJJiN4YTsmI3hhOwkmI3hhOyYjeGE7CSYjeGE7JiN4YTsJJiN4YTsmI3hhOwkmI3hhOyYjeGE7CSYjeGE7JiN4YTsJJiN4YTsmI3hhOwkmI3hhOyYjeGE7CQkmI3hhOwkmI3hhOwkJJiN4YTsJJiN4YTsJCSYjeGE7CSYjeGE7CQkmI3hhOwkmI3hhOwkJJiN4YTsJJiN4YTsJCSYjeGE7CSYjeGE7CQkmI3hhOwk8L2RlZnM+JiN4YTs8ZmlsdGVyIGlkPSJmaWx0ZXJfMiI+JiN4YTsJPGZlR2F1c3NpYW5CbHVyIGlkPSJmZUdhdXNzaWFuQmx1cjYwNTMyIiBzdGREZXZpYXRpb249IjIiLz4mI3hhOzwvZmlsdGVyPiYjeGE7PHNvZGlwb2RpOm5hbWVkdmlldyBib3JkZXJjb2xvcj0iIzY2NjY2NiIgYm9yZGVyb3BhY2l0eT0iMSIgZml0LW1hcmdpbi1ib3R0b209IjAiIGZpdC1tYXJnaW4tbGVmdD0iMCIgZml0LW1hcmdpbi1yaWdodD0iMCIgZml0LW1hcmdpbi10b3A9IjAiIGdyaWR0b2xlcmFuY2U9IjEwIiBndWlkZXRvbGVyYW5jZT0iMTAiIGlkPSJuYW1lZHZpZXc2MDYwOSIgaW5rc2NhcGU6Y3VycmVudC1sYXllcj0ic3ZnNjA2MDciIGlua3NjYXBlOmN4PSItMTcuNTIzODc3IiBpbmtzY2FwZTpjeT0iMjUuOTk4MTIzIiBpbmtzY2FwZTpwYWdlb3BhY2l0eT0iMCIgaW5rc2NhcGU6cGFnZXNoYWRvdz0iMiIgaW5rc2NhcGU6d2luZG93LWhlaWdodD0iMTAxNyIgaW5rc2NhcGU6d2luZG93LW1heGltaXplZD0iMSIgaW5rc2NhcGU6d2luZG93LXdpZHRoPSIxOTIwIiBpbmtzY2FwZTp3aW5kb3cteD0iLTgiIGlua3NjYXBlOndpbmRvdy15PSItOCIgaW5rc2NhcGU6em9vbT0iNS4xOTI4MDM5IiBvYmplY3R0b2xlcmFuY2U9IjEwIiBwYWdlY29sb3I9IiNmZmZmZmYiIHNob3dncmlkPSJmYWxzZSI+JiN4YTsJPC9zb2RpcG9kaTpuYW1lZHZpZXc+JiN4YTsmI3hhOzxwYXRoIGlkPSJwYXRoNjA1NDUiIGlua3NjYXBlOmNvbm5lY3Rvci1jdXJ2YXR1cmU9IjAiIHN0eWxlPSJmaWxsOiM1OWI0ZDkiIGQ9Im0gNDIuODksMjUuOTI2MyB2IC04LjI1IGggLTQuMTIgdiA4LjI1IGMgMCwxLjQ4IC0xLjMyLDIuOCAtMy40NywzLjQ2IGwgLTUuNjEsMS4xNiBjIC0zLjc5LDEuMTUgLTYuNDMsNC4xMiAtNi40Myw3LjQyIHYgOS40IGggNC4xMiB2IC05LjQgYyAwLC0xLjQ4IDEuMzIsLTIuOCAzLjQ3LC0zLjQ2IGwgNS42MSwtMS4zMiBjIDMuNDYsLTAuNjYgNi4xLC0zLjYzIDYuNDMsLTcuMjYgeiIvPiYjeGE7JiN4YTs8cGF0aCBpZD0icGF0aDYwNTUzIiBpbmtzY2FwZTpjb25uZWN0b3ItY3VydmF0dXJlPSIwIiBzdHlsZT0iZmlsbDojN2ZiYTAwIiBkPSJtIDMyLjM0LDUxLjY1NjMgdiAtNy41OCBjIDAsLTEuODIgLTEuNDksLTMuMyAtMy4zLC0zLjMgaCAtNy41OSBjIC0xLjgyLDAgLTMuMywxLjQ4IC0zLjMsMy4zIHYgNy41OCBjIDAsMS44MiAxLjQ4LDMuMyAzLjMsMy4zIGggNy41OSBjIDEuODEsMCAzLjMsLTEuNDggMy4zLC0zLjMgeiIvPiYjeGE7JiN4YTs8cGF0aCBpZD0icGF0aDYwNTYxIiBpbmtzY2FwZTpjb25uZWN0b3ItY3VydmF0dXJlPSIwIiBzdHlsZT0iZmlsbDojNTliNGQ5IiBkPSJtIDM4LjI4LDI1LjkyNjMgdiAtOC4yNSBoIDQuMTIgdiA4LjI1IGMgMCwxLjQ4IDEuMzIsMi44IDMuNDcsMy40NiBsIDYuOTMsMS40OSBjIDMuNzksMS4xNSA2LjQzLDQuMTIgNi40Myw3LjQyIHYgOS40IGggLTQuMTIgdiAtOS40IGMgMCwtMS40OCAtMS4zMiwtMi44IC0zLjQ3LC0zLjQ2IGwgLTYuOTMsLTEuNDkgYyAtMy43OSwtMS4xNSAtNi40MywtNC4xMiAtNi40MywtNy40MiB6Ii8+JiN4YTsmI3hhOzxwYXRoIGlkPSJwYXRoNjA1NjkiIGlua3NjYXBlOmNvbm5lY3Rvci1jdXJ2YXR1cmU9IjAiIHN0eWxlPSJmaWxsOiM3ZmJhMDAiIGQ9Im0gNTAuMTYsNTEuOTg2MyB2IC03LjU4IGMgMCwtMS44MiAxLjQ4LC0zLjMgMy4zLC0zLjMgaCA3LjU5IGMgMS44MSwwIDMuMywxLjQ4IDMuMywzLjMgdiA3LjU4IGMgMCwxLjgyIC0xLjQ5LDMuMyAtMy4zLDMuMyBoIC03LjU5IGMgLTEuODIsMCAtMy4zLC0xLjQ4IC0zLjMsLTMuMyB6Ii8+JiN4YTsmI3hhOyYjeGE7JiN4YTs8cGF0aCBpZD0icGF0aDYwNTg1IiBpbmtzY2FwZTpjb25uZWN0b3ItY3VydmF0dXJlPSIwIiBzdHlsZT0iZmlsbDojMDA3MmM2IiBkPSJtIDQzLjcyLDEwLjA4NjMgdiA2LjExIGggLTYuMSB2IC02LjExIHogbSAxLjMyLC00LjYyIEggMzYuMyBjIC0xLjgyLDAgLTMuMywxLjQ5IC0zLjMsMy4zIHYgOC43NCBjIDAsMS44MiAxLjQ4LDMuMyAzLjMsMy4zIGggOC43NCBjIDEuODIsMCAzLjMsLTEuNDggMy4zLC0zLjMgdiAtOC43NCBjIDAsLTEuODEgLTEuNDgsLTMuMyAtMy4zLC0zLjMgeiIvPiYjeGE7JiN4YTs8cGF0aCBpZD0icGF0aDYwNTkzIiBpbmtzY2FwZTpjb25uZWN0b3ItY3VydmF0dXJlPSIwIiBzdHlsZT0iZmlsbDojNTliNGQ5IiBkPSJtIDEzLjAzLDY0LjAzNjMgYyAtMi42NCwwLjE2IC01LjI4LC0wLjUgLTcuNDIsLTEuODIgLTEuNDksLTEuMzIgLTIuMTUsLTMuNDYgLTIuMTUsLTYuNTkgdiAtMTcuMTYgYyAwLC0yLjgxIC0xLjE1LC00LjI5IC0zLjQ2LC00LjI5IHYgLTQuMjkgYyAyLjMxLDAgMy40NiwtMS40OSAzLjQ2LC00LjQ2IHYgLTE2LjgzIGMgMCwtMy4xMyAwLjY2LC01LjQ0IDIuMTUsLTYuNzYgQyA3LjA5LDAuNTE2Mjk5OTggOS41NywwLjAxNjI5OTk4IDEzLjAzLDAuMDE2Mjk5OTggViA0LjMwNjMgYyAtMi40NywwIC0zLjc5LDEuMzIgLTMuNzksNC4xMyB2IDE2LjUgYyAwLDMuNzkgLTEuMTYsNi4xIC0zLjYzLDcuMDkgMi4zMSwwLjk5IDMuNjMsMy4zIDMuNjMsNy4xIHYgMTYuMzMgYyAwLDEuMTYgMC4xNiwyLjMxIDAuODIsMy4zIDAuODMsMC42NiAxLjgyLDEuMTYgMi44MSwwLjk5IDAsMCAwLjE2LDQuMjkgMC4xNiw0LjI5IHoiLz4mI3hhOyYjeGE7PHBhdGggaWQ9InBhdGg2MDYwMSIgaW5rc2NhcGU6Y29ubmVjdG9yLWN1cnZhdHVyZT0iMCIgc3R5bGU9ImZpbGw6IzU5YjRkOSIgZD0ibSA2OS40NiwwLjAyNjI5OTk4IGMgMi42NCwtMC4xNyA1LjI4LDAuNDkgNy40MiwxLjgxMDAwMDAyIDEuNDksMS4zMiAyLjE1LDMuNDcgMi4xNSw2LjYgdiAxNy4xNiBjIDAsMi44MSAxLjE1LDQuMjkgMy40Niw0LjI5IHYgNC4yOSBjIC0yLjMxLDAgLTMuNDYsMS40OSAtMy40Niw0LjQ2IHYgMTYuNjYgYyAwLDMuMTQgLTAuNjYsNS40NCAtMi4xNSw2Ljc2IC0xLjQ4LDEuMzIgLTMuOTYsMS45OCAtNy40MiwxLjk4IHYgLTQuMjggYyAyLjQ3LDAgMy43OSwtMS4zMiAzLjc5LC00LjEzIHYgLTE2LjUgYyAwLC0zLjc5IDEuMTYsLTYuMSAzLjYzLC03LjA5IC0yLjMxLC0wLjk5IC0zLjYzLC0zLjMgLTMuNjMsLTcuMSB2IC0xNi4zMyBjIDAsLTEuMTYgLTAuMTYsLTIuMzEgLTAuODIsLTMuMyAtMC44MywtMC42NiAtMS44MiwtMS4xNiAtMi44MSwtMC45OSB6Ii8+JiN4YTs8L3N2Zz4=;" vertex="1" parent="1">
          <mxGeometry x="1183.17" y="360" width="57.66" height="45" as="geometry" />
        </mxCell>
        <mxCell id="NkLvIqLFpbnPFktaiqOG-45" value="Outbound&lt;br&gt;(push deltas)" style="text;html=1;resizable=0;autosize=1;align=center;verticalAlign=middle;points=[];fillColor=none;strokeColor=none;rounded=0;fontFamily=Helvetica;fontSize=12;opacity=80;" vertex="1" parent="1">
          <mxGeometry x="1167" y="325" width="90" height="30" as="geometry" />
        </mxCell>
        <mxCell id="NkLvIqLFpbnPFktaiqOG-46" value="" style="shape=image;verticalLabelPosition=bottom;labelBackgroundColor=#ffffff;verticalAlign=top;aspect=fixed;imageAspect=0;image=data:image/svg+xml,PHN2ZyB4bWxuczpjYz0iaHR0cDovL2NyZWF0aXZlY29tbW9ucy5vcmcvbnMjIiB4bWxuczpkYz0iaHR0cDovL3B1cmwub3JnL2RjL2VsZW1lbnRzLzEuMS8iIHhtbG5zOmlua3NjYXBlPSJodHRwOi8vd3d3Lmlua3NjYXBlLm9yZy9uYW1lc3BhY2VzL2lua3NjYXBlIiB4bWxuczpyZGY9Imh0dHA6Ly93d3cudzMub3JnLzE5OTkvMDIvMjItcmRmLXN5bnRheC1ucyMiIHhtbG5zOnNvZGlwb2RpPSJodHRwOi8vc29kaXBvZGkuc291cmNlZm9yZ2UubmV0L0RURC9zb2RpcG9kaS0wLmR0ZCIgeG1sbnM6c3ZnPSJodHRwOi8vd3d3LnczLm9yZy8yMDAwL3N2ZyIgeG1sbnM9Imh0dHA6Ly93d3cudzMub3JnLzIwMDAvc3ZnIiB4bWxuczp4bGluaz0iaHR0cDovL3d3dy53My5vcmcvMTk5OS94bGluayIgdmVyc2lvbj0iMS4xIiBpZD0ic3ZnMTAwMzAzIiBpbmtzY2FwZTp2ZXJzaW9uPSIwLjkyLjMgKDI0MDU1NDYsIDIwMTgtMDMtMTEpIiBzb2RpcG9kaTpkb2NuYW1lPSJnZW5lcmljX2RhdGFiYXNlX2JsdWUuc3ZnIiB4PSIwcHgiIHk9IjBweCIgdmlld0JveD0iMCAwIDM2Ljc5IDQ3LjY5IiBzdHlsZT0iZW5hYmxlLWJhY2tncm91bmQ6bmV3IDAgMCAzNi43OSA0Ny42OTsiIHhtbDpzcGFjZT0icHJlc2VydmUiPiYjeGE7PHNvZGlwb2RpOm5hbWVkdmlldyBib3JkZXJjb2xvcj0iIzY2NjY2NiIgYm9yZGVyb3BhY2l0eT0iMSIgZml0LW1hcmdpbi1ib3R0b209IjAiIGZpdC1tYXJnaW4tbGVmdD0iMCIgZml0LW1hcmdpbi1yaWdodD0iMCIgZml0LW1hcmdpbi10b3A9IjAiIGdyaWR0b2xlcmFuY2U9IjEwIiBndWlkZXRvbGVyYW5jZT0iMTAiIGlkPSJuYW1lZHZpZXcxMDAzMDUiIGlua3NjYXBlOmN1cnJlbnQtbGF5ZXI9InN2ZzEwMDMwMyIgaW5rc2NhcGU6Y3g9IjI0LjUzMDAwMSIgaW5rc2NhcGU6Y3k9IjMxLjc5MTY2OSIgaW5rc2NhcGU6cGFnZW9wYWNpdHk9IjAiIGlua3NjYXBlOnBhZ2VzaGFkb3c9IjIiIGlua3NjYXBlOndpbmRvdy1oZWlnaHQ9IjEwMTciIGlua3NjYXBlOndpbmRvdy1tYXhpbWl6ZWQ9IjEiIGlua3NjYXBlOndpbmRvdy13aWR0aD0iMTkyMCIgaW5rc2NhcGU6d2luZG93LXg9Ii04IiBpbmtzY2FwZTp3aW5kb3cteT0iLTgiIGlua3NjYXBlOnpvb209IjEzLjIxODQ4MSIgb2JqZWN0dG9sZXJhbmNlPSIxMCIgcGFnZWNvbG9yPSIjZmZmZmZmIiBzaG93Z3JpZD0iZmFsc2UiPiYjeGE7CTwvc29kaXBvZGk6bmFtZWR2aWV3PiYjeGE7PGcgaWQ9ImcxMDAzMDEiIHRyYW5zZm9ybT0idHJhbnNsYXRlKC0wLjc1LC0wLjc0NSkiPiYjeGE7CTx0aXRsZSBpZD0idGl0bGUxMDAyNjkiPlBhZ2UtMTwvdGl0bGU+JiN4YTsJPGcgaWQ9Imdyb3VwMzQ5My0xIiB0cmFuc2Zvcm09InRyYW5zbGF0ZSgxLjUsLTEuNSkiPiYjeGE7CQk8dGl0bGUgaWQ9InRpdGxlMTAwMjcxIj5HZW5lcmljIERhdGFiYXNlIChCbHVlKTwvdGl0bGU+JiN4YTsJCTxnIGlkPSJncm91cDM0OTQtMiI+JiN4YTsJCQk8dGl0bGUgaWQ9InRpdGxlMTAwMjczIj5nMTQ1MDwvdGl0bGU+JiN4YTsJCQk8ZyBpZD0ic2hhcGUzNDk1LTMiPiYjeGE7CQkJCTx0aXRsZSBpZD0idGl0bGUxMDAyNzUiPnBhdGgxNDQyPC90aXRsZT4mI3hhOwkJCQk8cGF0aCBpZD0icGF0aDEwMDI3NyIgaW5rc2NhcGU6Y29ubmVjdG9yLWN1cnZhdHVyZT0iMCIgc3R5bGU9ImZpbGw6I0ZGRkZGRjsiIGQ9Ik0zMS43OSw5TDIxLjQ0LDkuMDlMMCw5LjI3djMzLjM3ICAgICAgYzAsMy40Miw3LjUsNi4zNywxNy4yNSw2LjU1aDAuMzdjMS4zMiwwLDIuNi0wLjA3LDMuODItMC4xOWMzLjU3LTAuMjIsNy4wOC0xLjA3LDEwLjM1LTIuNTNjMi4xOS0xLjEsMy40Ni0yLjQ0LDMuNDYtMy44M1Y4Ljk3ICAgICAgTDMxLjc5LDl6Ii8+JiN4YTsJCQk8L2c+JiN4YTsJCQk8ZyBpZD0ic2hhcGUzNDk2LTUiIHRyYW5zZm9ybT0idHJhbnNsYXRlKDIxLjQ0MjUsLTAuMjEpIj4mI3hhOwkJCQk8dGl0bGUgaWQ9InRpdGxlMTAwMjgwIj5wYXRoMTQ0NDwvdGl0bGU+JiN4YTsJCQkJPHBhdGggaWQ9InBhdGgxMDAyODIiIGlua3NjYXBlOmNvbm5lY3Rvci1jdXJ2YXR1cmU9IjAiIHN0eWxlPSJmaWxsOiNFNUU1RTU7IiBkPSJNMTAuMzUsOS4yMXYzNy40NSAgICAgIEM3LjA4LDQ4LjEyLDMuNTcsNDguOTcsMCw0OS4xOVY5LjNMMTAuMzUsOS4yMXoiLz4mI3hhOwkJCTwvZz4mI3hhOwkJCTxnIGlkPSJzaGFwZTM0OTctNyI+JiN4YTsJCQkJPHRpdGxlIGlkPSJ0aXRsZTEwMDI4NSI+cGF0aDE0NDY8L3RpdGxlPiYjeGE7CQkJCTxwYXRoIGlkPSJwYXRoMTAwMjg3IiBpbmtzY2FwZTpjb25uZWN0b3ItY3VydmF0dXJlPSIwIiBzdHlsZT0iZmlsbDpub25lOyIgZD0iTTAsOS4yN3YzMy4zN2MwLDMuNDIsNy40Niw2LjM3LDE3LjI1LDYuNTVoMC4zNyAgICAgIGM5Ljk3LTAuMTMsMTcuNjMtMy4xLDE3LjYzLTYuNTVWOC45N0wwLDkuMjd6Ii8+JiN4YTsJCQkJJiN4YTsJCQkJCTxwYXRoIGlkPSJwYXRoMTAwMjg5IiBpbmtzY2FwZTpjb25uZWN0b3ItY3VydmF0dXJlPSIwIiBzdHlsZT0iZmlsbDpub25lO3N0cm9rZTojNTU2QThBO3N0cm9rZS13aWR0aDoxLjU7c3Ryb2tlLW1pdGVybGltaXQ6MzsiIGQ9IiAgICAgIE0wLDkuMjd2MzMuMzdjMCwzLjQyLDcuNDYsNi4zNywxNy4yNSw2LjU1aDAuMzdjOS45Ny0wLjEzLDE3LjYzLTMuMSwxNy42My02LjU1VjguOTciLz4mI3hhOwkJCTwvZz4mI3hhOwkJCTxnIGlkPSJzaGFwZTM0OTgtMTAiIHRyYW5zZm9ybT0idHJhbnNsYXRlKDAuMDQ1LC0zMy40NjUpIj4mI3hhOwkJCQk8dGl0bGUgaWQ9InRpdGxlMTAwMjkyIj5wYXRoMTQ0ODwvdGl0bGU+JiN4YTsJCQkJPHBhdGggaWQ9InBhdGgxMDAyOTQiIGlua3NjYXBlOmNvbm5lY3Rvci1jdXJ2YXR1cmU9IjAiIHN0eWxlPSJmaWxsOiM1NUQyRjY7IiBkPSJNMzUuMjUsNDIuODJjMCwzLjUyLTcuODksNi4zNy0xNy42Myw2LjM3ICAgICAgQzcuODksNDkuMTksMCw0Ni4zNCwwLDQyLjgyYzAtMy41MSw4LjEyLTYuMzYsMTcuODYtNi4zNkMyNy41OSwzNi40NiwzNS4yNSwzOS4zMSwzNS4yNSw0Mi44MkwzNS4yNSw0Mi44MnoiLz4mI3hhOwkJCQkmI3hhOwkJCQkJPHBhdGggaWQ9InBhdGgxMDAyOTYiIGlua3NjYXBlOmNvbm5lY3Rvci1jdXJ2YXR1cmU9IjAiIHN0eWxlPSJmaWxsOm5vbmU7c3Ryb2tlOiM1NTZBOEE7c3Ryb2tlLXdpZHRoOjEuNTtzdHJva2UtbWl0ZXJsaW1pdDozOyIgZD0iICAgICAgTTM1LjI1LDQyLjgyYzAsMy41Mi03Ljg5LDYuMzctMTcuNjMsNi4zN0M3Ljg5LDQ5LjE5LDAsNDYuMzQsMCw0Mi44MmMwLTMuNTEsOC4xMi02LjM2LDE3Ljg2LTYuMzYgICAgICBDMjcuNTksMzYuNDYsMzUuMjUsMzkuMzEsMzUuMjUsNDIuODIiLz4mI3hhOwkJCTwvZz4mI3hhOwkJPC9nPiYjeGE7CTwvZz4mI3hhOzwvZz4mI3hhOzwvc3ZnPg==;" vertex="1" parent="1">
          <mxGeometry x="1167.75" y="385" width="15.42" height="20" as="geometry" />
        </mxCell>
        <mxCell id="NkLvIqLFpbnPFktaiqOG-47" value="" style="shape=image;verticalLabelPosition=bottom;labelBackgroundColor=#ffffff;verticalAlign=top;aspect=fixed;imageAspect=0;image=data:image/svg+xml,PHN2ZyB4bWxuczpkYz0iaHR0cDovL3B1cmwub3JnL2RjL2VsZW1lbnRzLzEuMS8iIHhtbG5zOmNjPSJodHRwOi8vY3JlYXRpdmVjb21tb25zLm9yZy9ucyMiIHhtbG5zOnJkZj0iaHR0cDovL3d3dy53My5vcmcvMTk5OS8wMi8yMi1yZGYtc3ludGF4LW5zIyIgeG1sbnM6c3ZnPSJodHRwOi8vd3d3LnczLm9yZy8yMDAwL3N2ZyIgeG1sbnM9Imh0dHA6Ly93d3cudzMub3JnLzIwMDAvc3ZnIiB4bWxuczpzb2RpcG9kaT0iaHR0cDovL3NvZGlwb2RpLnNvdXJjZWZvcmdlLm5ldC9EVEQvc29kaXBvZGktMC5kdGQiIHhtbG5zOmlua3NjYXBlPSJodHRwOi8vd3d3Lmlua3NjYXBlLm9yZy9uYW1lc3BhY2VzL2lua3NjYXBlIiB2ZXJzaW9uPSIxLjEiIGlkPSJzdmc2MzExNiIgaW5rc2NhcGU6dmVyc2lvbj0iMC45Mi4zICgyNDA1NTQ2LCAyMDE4LTAzLTExKSIgc29kaXBvZGk6ZG9jbmFtZT0iYXp1cmVfc2VydmljZV9idXNfdG9waWNzLnN2ZyIgeD0iMHB4IiB5PSIwcHgiIHZpZXdCb3g9IjAgMCAzNy41IDM3LjUiIHhtbDpzcGFjZT0icHJlc2VydmUiIHdpZHRoPSIzNy41IiBoZWlnaHQ9IjM3LjUiPjxtZXRhZGF0YSBpZD0ibWV0YWRhdGExNzgyNCI+PHJkZjpSREY+PGNjOldvcmsgcmRmOmFib3V0PSIiPjxkYzpmb3JtYXQ+aW1hZ2Uvc3ZnK3htbDwvZGM6Zm9ybWF0PjxkYzp0eXBlIHJkZjpyZXNvdXJjZT0iaHR0cDovL3B1cmwub3JnL2RjL2RjbWl0eXBlL1N0aWxsSW1hZ2UiLz48ZGM6dGl0bGUvPjwvY2M6V29yaz48L3JkZjpSREY+PC9tZXRhZGF0YT48ZGVmcyBpZD0iZGVmczE3ODIyIj4mI3hhOwkmI3hhOyYjeGE7CSYjeGE7JiN4YTsJJiN4YTsJCSYjeGE7JiN4YTsJJiN4YTsJCSYjeGE7JiN4YTsJJiN4YTsJCSYjeGE7JiN4YTsJJiN4YTsJCSYjeGE7JiN4YTsJJiN4YTsmI3hhOwkmI3hhOyYjeGE7CSYjeGE7JiN4YTsJJiN4YTsmI3hhOwkmI3hhOyYjeGE7CSYjeGE7JiN4YTsJJiN4YTsmI3hhOwkmI3hhOzwvZGVmcz4mI3hhOzxmaWx0ZXIgaWQ9ImZpbHRlcl8yIj4mI3hhOwk8ZmVHYXVzc2lhbkJsdXIgaWQ9ImZlR2F1c3NpYW5CbHVyNjI5OTMiIHN0ZERldmlhdGlvbj0iMiIvPiYjeGE7PC9maWx0ZXI+JiN4YTs8c29kaXBvZGk6bmFtZWR2aWV3IGJvcmRlcmNvbG9yPSIjNjY2NjY2IiBib3JkZXJvcGFjaXR5PSIxIiBmaXQtbWFyZ2luLWJvdHRvbT0iMCIgZml0LW1hcmdpbi1sZWZ0PSIwIiBmaXQtbWFyZ2luLXJpZ2h0PSIwIiBmaXQtbWFyZ2luLXRvcD0iMCIgZ3JpZHRvbGVyYW5jZT0iMTAiIGd1aWRldG9sZXJhbmNlPSIxMCIgaWQ9Im5hbWVkdmlldzYzMTE4IiBpbmtzY2FwZTpjdXJyZW50LWxheWVyPSJzdmc2MzExNiIgaW5rc2NhcGU6Y3g9Ii0xMi44MTEzMTYiIGlua3NjYXBlOmN5PSItNC44MzUzMjU4IiBpbmtzY2FwZTpwYWdlb3BhY2l0eT0iMCIgaW5rc2NhcGU6cGFnZXNoYWRvdz0iMiIgaW5rc2NhcGU6d2luZG93LWhlaWdodD0iMTAxNyIgaW5rc2NhcGU6d2luZG93LW1heGltaXplZD0iMSIgaW5rc2NhcGU6d2luZG93LXdpZHRoPSIxOTIwIiBpbmtzY2FwZTp3aW5kb3cteD0iLTgiIGlua3NjYXBlOndpbmRvdy15PSItOCIgaW5rc2NhcGU6em9vbT0iNy40NzQxMzQyIiBvYmplY3R0b2xlcmFuY2U9IjEwIiBwYWdlY29sb3I9IiNmZmZmZmYiIHNob3dncmlkPSJmYWxzZSI+JiN4YTsJPC9zb2RpcG9kaTpuYW1lZHZpZXc+JiN4YTsmI3hhOzxwYXRoIGlkPSJwYXRoNjMwMDYiIGlua3NjYXBlOmNvbm5lY3Rvci1jdXJ2YXR1cmU9IjAiIHN0eWxlPSJmaWxsOiMwMDcyYzYiIGQ9Ik0gMC42MiwwIEMgMC4yNSwwIDAsMC4yNSAwLDAuNjIgdiA3LjUgQyAwLDguNSAwLjI1LDguNzUgMC42Miw4Ljc1IEggNC4zNyBDIDQuNzUsOC43NSA1LDguNSA1LDguMTIgViA1IGggMjcuNSB2IDMuMTMgYyAwLDAuMzcgMC4yNSwwLjYyIDAuNzUsMC42MiBoIDMuNjIgYyAwLjM4LDAgMC42MywtMC4yNSAwLjYzLC0wLjYyIFYgNC4zOCAwLjYzIEMgMzcuNSwwLjI1IDM3LjI1LDAgMzYuODgsMCBaIi8+JiN4YTsmI3hhOzxwYXRoIGlkPSJwYXRoNjMwMTQiIGlua3NjYXBlOmNvbm5lY3Rvci1jdXJ2YXR1cmU9IjAiIHN0eWxlPSJmaWxsOiMwMDcyYzYiIGQ9Im0gMzYuODgsMzcuNSBjIDAuMzcsMCAwLjYyLC0wLjI1IDAuNjIsLTAuNjIgViAyOS41IGMgMCwtMC4zNyAtMC4yNSwtMC42MiAtMC42MiwtMC42MiBoIC0zLjYzIGMgLTAuMzcsMCAtMC42MiwwLjI1IC0wLjYyLDAuNjIgdiAzIEggNSBWIDI5LjM4IEMgNSwyOSA0Ljc1LDI4Ljc1IDQuMjUsMjguNzUgSCAwLjYyIEMgMC4yNSwyOC43NSAwLDI5IDAsMjkuNSB2IDcuMzggYyAwLDAuMzcgMC4yNSwwLjYyIDAuNjIsMC42MiB6Ii8+JiN4YTsmI3hhOzxyZWN0IGlkPSJyZWN0NjMwMjIiIHg9Ii0yLjI5NzM3NDciIHk9IjIxLjg2NzQzOSIgdHJhbnNmb3JtPSJyb3RhdGUoLTQ1KSIgc3R5bGU9ImZpbGw6I2I4ZDQzMjtzdHJva2Utd2lkdGg6MC45OTk5OTA0IiB3aWR0aD0iMi4yODk5NzgiIGhlaWdodD0iMS42ODk5ODM4Ii8+JiN4YTsmI3hhOzxyZWN0IGlkPSJyZWN0NjMwMzAiIHg9IjEuMDI0Mzc5NyIgeT0iMjEuODY1OTc0IiB0cmFuc2Zvcm09InJvdGF0ZSgtNDUpIiBzdHlsZT0iZmlsbDojYjhkNDMyO3N0cm9rZS13aWR0aDowLjk5OTk5MDQiIHdpZHRoPSIyLjI4OTk3OCIgaGVpZ2h0PSIxLjY5OTk4MzciLz4mI3hhOyYjeGE7PHBhdGggaWQ9InBhdGg2MzAzOCIgaW5rc2NhcGU6Y29ubmVjdG9yLWN1cnZhdHVyZT0iMCIgc3R5bGU9ImZpbGw6I2I4ZDQzMiIgZD0ibSAxOS43MywxMy41OCAtMS4yLC0xLjE5IDEuNiwtMS42MSAxLjIsMS4yIHoiLz4mI3hhOyYjeGE7PHJlY3QgaWQ9InJlY3Q2MzA0NiIgeD0iLTQuMjg0NjM4OSIgeT0iMzAuNTA5Mzk5IiB0cmFuc2Zvcm09InJvdGF0ZSgtNDQuOTgzNzk0KSIgc3R5bGU9ImZpbGw6I2I4ZDQzMjtzdHJva2Utd2lkdGg6MC45OTk5OTA0NiIgd2lkdGg9IjEuNjk5OTgzOCIgaGVpZ2h0PSIyLjI2OTk3ODMiLz4mI3hhOyYjeGE7PHBhdGggaWQ9InBhdGg2MzA1NCIgaW5rc2NhcGU6Y29ubmVjdG9yLWN1cnZhdHVyZT0iMCIgc3R5bGU9ImZpbGw6I2I4ZDQzMiIgZD0ibSAxNy44MSwyMy44NyAtMS42MiwtMS42MiAxLjIsLTEuMTkgMS42MiwxLjYyIHoiLz4mI3hhOyYjeGE7PHBhdGggaWQ9InBhdGg2MzA2MiIgaW5rc2NhcGU6Y29ubmVjdG9yLWN1cnZhdHVyZT0iMCIgc3R5bGU9ImZpbGw6I2I4ZDQzMiIgZD0ibSAxNS40NiwyMS41MiAtMS42MiwtMS42MiAxLjIsLTEuMTkgMS42MSwxLjYxIHoiLz4mI3hhOyYjeGE7PHBhdGggaWQ9InBhdGg2MzA3MCIgaW5rc2NhcGU6Y29ubmVjdG9yLWN1cnZhdHVyZT0iMCIgc3R5bGU9ImZpbGw6IzU5YjRkOSIgZD0ibSAyNy4xLDExLjQ0IGMgLTAuNCwwLjM5IC0wLjkyLDAuNjEgLTEuNDgsMC42MSAtMC41NiwwIC0xLjA5LC0wLjIxIC0xLjQ4LC0wLjYxIEwgMjEuMyw4LjYgdiA1Ljc3IGggOC42NCBWIDguNiBaIi8+JiN4YTsmI3hhOzxwYXRoIGlkPSJwYXRoNjMwNzgiIGlua3NjYXBlOmNvbm5lY3Rvci1jdXJ2YXR1cmU9IjAiIHN0eWxlPSJmaWxsOiM1OWI0ZDkiIGQ9Im0gMjUuNjIsMTEuNjMgYyAwLjQ0LDAgMC44NiwtMC4xNyAxLjE4LC0wLjQ5IEwgMjkuOTQsOCBWIDcuODQgSCAyMS4zIFYgOCBsIDMuMTQsMy4xNCBjIDAuMzEsMC4zMiAwLjczLDAuNDkgMS4xOCwwLjQ5IHoiLz4mI3hhOyYjeGE7PHBhdGggaWQ9InBhdGg2MzA4NiIgaW5rc2NhcGU6Y29ubmVjdG9yLWN1cnZhdHVyZT0iMCIgc3R5bGU9ImZpbGw6IzU5YjRkOSIgZD0ibSAyNy4xLDI2LjIzIGMgLTAuNCwwLjM5IC0wLjkyLDAuNjEgLTEuNDgsMC42MSAtMC41NiwwIC0xLjA5LC0wLjIxIC0xLjQ4LC0wLjYxIEwgMjEuMywyMy4zOSB2IDUuNzcgaCA4LjY0IHYgLTUuNzcgeiIvPiYjeGE7JiN4YTs8cGF0aCBpZD0icGF0aDYzMDk0IiBpbmtzY2FwZTpjb25uZWN0b3ItY3VydmF0dXJlPSIwIiBzdHlsZT0iZmlsbDojNTliNGQ5IiBkPSJtIDI1LjYyLDI2LjQyIGMgMC40NCwwIDAuODYsLTAuMTcgMS4xOCwtMC40OSBsIDMuMTQsLTMuMTQgViAyMi42MyBIIDIxLjMgdiAwLjE2IGwgMy4xNCwzLjE0IGMgMC4zMSwwLjMyIDAuNzMsMC40OSAxLjE4LDAuNDkgeiIvPiYjeGE7JiN4YTs8cGF0aCBpZD0icGF0aDYzMTAyIiBpbmtzY2FwZTpjb25uZWN0b3ItY3VydmF0dXJlPSIwIiBzdHlsZT0iZmlsbDojNTliNGQ5IiBkPSJtIDkuMjQsMTkuMDMgYyAtMC42MywwLjYzIC0xLjQ3LDAuOTggLTIuMzYsMC45OCAtMC44OSwwIC0xLjczLC0wLjM1IC0yLjM2LC0wLjk4IEwgMCwxNC41MSB2IDkuMTkgaCAxMy43NyB2IC05LjE5IHoiLz4mI3hhOyYjeGE7PHBhdGggaWQ9InBhdGg2MzExMCIgaW5rc2NhcGU6Y29ubmVjdG9yLWN1cnZhdHVyZT0iMCIgc3R5bGU9ImZpbGw6IzU5YjRkOSIgZD0ibSA2Ljg4LDE5LjM0IGMgMC43MiwwIDEuMzgsLTAuMjggMS44OSwtMC43OCBsIDUsLTUgViAxMy4zIEggMCB2IDAuMjYgbCA1LDUgYyAwLjUsMC41IDEuMTcsMC43OCAxLjg4LDAuNzggeiIvPiYjeGE7PC9zdmc+;" vertex="1" parent="1">
          <mxGeometry x="1528.83" y="192.5" width="31.5" height="31.5" as="geometry" />
        </mxCell>
        <mxCell id="NkLvIqLFpbnPFktaiqOG-48" value="" style="whiteSpace=wrap;html=1;rounded=0;fontSize=14;opacity=80;dashed=1;strokeColor=#007FFF;fillColor=#E6E6E6;" vertex="1" parent="1">
          <mxGeometry x="1055" y="80" width="90" height="180" as="geometry" />
        </mxCell>
        <mxCell id="NkLvIqLFpbnPFktaiqOG-49" value="" style="whiteSpace=wrap;html=1;rounded=0;fontSize=14;fillColor=#ffffff;opacity=80;dashed=1;strokeColor=#007FFF;" vertex="1" parent="1">
          <mxGeometry x="865" y="80" width="190" height="180" as="geometry" />
        </mxCell>
        <mxCell id="NkLvIqLFpbnPFktaiqOG-50" value="SaaS" style="text;html=1;resizable=0;autosize=1;align=center;verticalAlign=middle;points=[];fillColor=#dae8fc;rounded=0;fontSize=14;opacity=80;fontFamily=Lucida Console;" vertex="1" parent="1">
          <mxGeometry x="920" y="90" width="50" height="20" as="geometry" />
        </mxCell>
        <mxCell id="NkLvIqLFpbnPFktaiqOG-51" value="Integration" style="text;html=1;resizable=0;autosize=1;align=center;verticalAlign=middle;points=[];fillColor=none;strokeColor=none;rounded=0;fontFamily=Helvetica;fontSize=12;opacity=80;" vertex="1" parent="1">
          <mxGeometry x="1062.25" y="90" width="70" height="20" as="geometry" />
        </mxCell>
        <mxCell id="NkLvIqLFpbnPFktaiqOG-52" value="" style="shape=image;verticalLabelPosition=bottom;labelBackgroundColor=#ffffff;verticalAlign=top;aspect=fixed;imageAspect=0;image=data:image/png,iVBORw0KGgoAAAANSUhEUgAAAH8AAAB/CAYAAADGvR0TAAASJElEQVR4Ae2d688dRRnA+X/8pJ/8YvxmTLzFKInwwZAYNQEvGJUgpMaS4AVSC8GSVrBS0wbSkr4kRasNVikotYW20Bbsa9NCaZUCSilYS7ms+R19js953pnZmd2Z2T31bLLv7rntZX7PbZ55Zt8rmsXyf9sCV1yud37p0tvNkeVTza49B5utDz8+We97cHfzvTse8K4/vX/X9LsP/3b/5Pevvf7m5dpEzWUB/+VXzzW/e+JwI3C/eOO65sprb8u2Xv31H08EBuFAmE6/9PfLQiDmEr7AXveLXzXXrtqQDXKKwCBgd2zcMdfCMDfwMb+Y4utX3zsI7DbBQAi3PPRog2DOyzJq+Pjtx/c/29y2YSkZODDw7wDB54sPJw6Qdd+hPzePPnFwZl3a+Vjzs/t3TtbvrtncXL/6nuRz33T75olFePPCxVHLwSjh02gAu+abd0Y1vDbByyfORDf4+fPnmzNnzkSt+w4caXbs+kOz9t6l5iur1kddF7ECrmms1mBU8DHtBG00WsjMIhQ5/G0KfCskzx07PhWGL990d/B6uZcxCsEo4MdCx/zjBnAHOZY+8K0wPLJnf3P7+gebq762JigI3MPJF8/muPzexxgc/tJv9gbNO74bf12iv50TvgjDCy+caogbvnXrxqAQYOGGjgkGg49vDkXu3/7+fZO+e2/xDhygBHwRArYEk9/50SavEBCrkJ8YaqkOHw3G//l8OtD3HVqu0h6l4YsgIAS33Hm/957pHQyROKoKny6WL/uGFagFXSSrFnwRAnoMPndAkEv2sOZSDT5dN5e2c9N8liuIS2m82vBFCIgJvnDDXc72oBdTKxYoDh8zj1lzgb/1J9sG7QMPBR8hOH7i+Wbdph3OdsEK1ugRFIWPmXclatD2IQMdsQ5DwhcrgCtwJY1qtFEx+PTHuQGr8Uj1EMGNANfbMcAXK/CDdVtXtBVth0sstRSBT7/cQuc1Uf4Qvt3XeGOBL1Zg247fO5NEtFuJJTt8khcWfA0T1qVxxgYfIcANfP4ba1e0IfFRbsXJCt/Vf8fn4/vHuIwRPgJw+OixxjVeQA4kZ08gG3yXxtOnrxG1dhWsscKXOMA1nJzTAmSBT37emnoCu7EOZYqwjBm+CAA1BbZtyQXkWHrDJ6q3Fwf4nOYpx426jjF2+AgAA0UuAaCesO/SC/7BoydWdOcYhRu7xkujzQN8sQAuF9C3G9gZPoBtAofXY/bxAl228wIfAaB4xBUEooBdl87wbcqW7txYo3pf48wTfASAXoAdEyCo7lrr0Am+a5BmDOlaH2Tf+/MGHwEgD2CrhShU7bIkw0e7bYBXKgPV5YZSfjOP8BEARgUtA3pcqUsSfMyLHY8nsg9lnhAWLMUY183bd0/LtKVceyzbX+/eG6wqpl5QCwBuN6VyGUFJgk//0p6wbZDG5SL0MRb77mllwEXLfStDwjYAJAMYUkRrGaLhu8x9jJ9fwHfDbRP6NvgIxR/3Pb3C/6eY/yj4SBPmXV8wJcgxywJ+OfgIAG5Kc8H8x+ZZouDb9C0niO1eWPhMn8KKjGF1Tdey07dqvd6y/ZEZiDGaD3wygLYYJDb6b4WPFAFbS1eKabHwY1xFjEXJ8Z0xRfsImW7jWPgIgP0tx4lp51b4drQuNahYwPcHbYCT1QJMgc8x+L4WHnplbcFfED6m3Wp9ajpxAf9/gAW0a9sXPulfWwTCoFtoCcJ3aX3oYK7PFvDrwEegbDUwVjq0eOG7tL7LpIoF/Hrw0X6b+g0x88LPofVI3QJ+Pfip2u+ET6BgfX1IgkKmZQG/LnyX9tOtdi1O+HQTdOTY5jtcB5b3FvDrwndpv2/gzQmfJIGG32cC4QJ+ffgHnnluhh9FNq5u3wr4JHU0eMx/n3q8Bfz68NF+W/bl6vatgG9h9a0UtceLyTyJyyi9vVwyfMC266Ztu2aU2DUWswK+HcBJTepYYAv4K8FYULzum+SxxyTwa7PgM/ApvtQ/iEkRWtj29QL+MPARBlvyba3uDHw7wdIXJVrAodcL+MPBt+VelucMfPyC1nwrKSHIvs8W8IeDT7Wv5smcCr3MwLd1+LFFAfqAdn8Bfzj4mH5b6qWZTuFbf2+lxEKNfb2APyx8O9SrczZT+CX8PQKygD8sfOv3dZdvCt9W5ubw9wv4ceBLdPWk62f9Pj04Wabwyd/r4KCtJFsO0LZdaH6cAOTu5wt8tnaKl2Rsp/B1sEdKN9eygD88fNvfl8m0E/gUbmit7zOKZ4VmAX94+LbCR/L8E/ikcDX8vvl8LQBDw2cKE9XGBDp2qpncM90hHpBMDTxPxGIyhDabNfZLmn3uSe6VLeXzLBP4NtKXDzXErvtDwEeybcJK33zMPn5yw+ZfTqZFzzt8/heAvmeJ+CfwecSH/jBXpI/A1IKP60LDfdqt7y91n4cl8y9WSgpBSc23ET+DdywT+OR8dYOIT+iq7fp3peFTpICl0tdfap/AiYYsIQQl4dsRPkngTeDbPr6v5ktDjd0vCb/tHzYgBPIftqhB1KlNrl/G85nxSuPjG/kHSrb+XQsT1bGMlecWgJLwuVZ9D9LXn8C3ZVvzAN8Klb45JBsXgCsILQLfBRIzb7tI+hy4gpxWoCZ87oPFCT9XgocTWEh94wkSFPZ5QAKF91NcVgi+CASAfQ9FppeQSwBKw7eJnil8W71jzeNETDr+yQkf8DYTKeBTJo/KrcTAFyEgYrYNyLlzCUBp+HZ0D6s40XzMpDQi2zHC94FHcFMfR9IFPkLAdGibMMklALXhw3gu4PvA930ObYrmiwVgax+IIAJA4Ki/l7I/GHwb8I1N863roLH7gkf7u8L3CUDqtGotHLXhc//OgG+M0b7OReQA3xe+TwC6JoNKw0dh9DqFb1OhY4TPxSIAucDngI8A2P+XR46ApIrW6pj9mvAZwZ3C11qFdHSdlDk5ovljTXbfrp5r2pE5ZevLVy691+x7/Z1mx+nzzQ+ffbV56PjZZueJs83yi39NhgZo2wtAIGKA6++UhE8sorV+JsNn4fcFpFs/N3x97NT9B1661Fxz9F/N+55407t+6elzzZbll5Pg2YGTiQIdOJJ0jJLwyUV44dNH1h926TP7QIwB/mOvvdN85MAFL3CXMHzyqdebR06+FA3Qmn+6hFqz2/ZLwmeIWvPFdbJMAj7MvP4wx4P8RRiGhr/21KUk6FYQ7nrulSiItoEZAyAv0AZdPi8JnyBU8+XBG1P4tmybNGmuZUj4Nx9/qxd4EYRVR/8RBdHOjOXZegK3bVsSPnUJGj71G1P4BFH6Q4kGcwjAUPDvOZ0HvAjAz5fbLYAtk2bwpw26fF4SvnVJMvl2YvaBbPP7bSNisYIxBPxDb7yTReMFPNv3732jeeqFvwVhYub1cHCK6S8J3z6hU9hO4Zfq6w8B/zPPpAV3GnJon56AaKpvSy2gtqJA9X1Xv18KPt08/YQubdWn8C0kXudY7HFzdiNd10dkHwLY97O9z4e13/rX2MKPUvB5br8WRlL5skzhk9XzfUm+3GVbG36uIM8nJCSFtMbafdvYsQmfUvDtKKRW6il8gj79+DX2c2TTasP/4P5/FtV8+v8WuH5ts2mMo+vPfful4NseiE7dT+Gj1XZ0T3+xi9bzGwufwJLzlFhvXLdUFDzWgMDPB5CKn4nPv+725sr/rigR77WtFlKfEUK5PiuI+Hut0DPwLShtInLB164l9/4nbt5YHD4C4BsDsNUyfe4vB3zrgqReX1jOwLd+P8e0LStQfRqk7bcfW725Cnxfl29s8O3cfEnuOOFjEjANupFlUp/8IHVbE/6nblhfBb6YVbsdE3ybc4CpLcyd0XzA2tk7kgdOhS7fpyoIi1JjPXDsxeLwP7TP7/PJ79vA7XNfXTN5j/dTVp6iaYUr5bXN57tS9ivgUwypNV8K/AXm2LdXHw4P2fq6cLHvX/fMa0Eo9tGnBHIp0HJ916Z0rcmH4wr4vGmreSUXPHbwXF/unL4ViraxfqtxOQK3VIGgwERn9VBmSelqhk741k/bKFEfYGz7VOl84E/+Yg0LM+U1Jv/k6XC1j83wpYzspUL2fd/+py4Zv7esnPDx09r0s9838LMnLvm67xi+TyA2HGsf2WMkT7cdVT4+SCXeJ9CzZWW+lLoTPmDsQM88af/Fd5vm44fyDu58tiWzB0j+w7UGj+kl0VICsu+YVuuJ2XRiRyudF74t8Jg37T9x4d0mV6oXc3/4VNjcA8Pm0WPz+j6Qqe+7tN4V6IkAeOG7tL9vt09OWmtLhW5fAQD8nohaPlfD1zb5NqMX0noYBOHbjB95alfUWAtml/Ocvvhe07X7d82hc95UrtVK2/D4Xfud0q/t+EBbIW4QPo1tZ8XmfFhTF5hdf7P08tvNh5+MG/H76JPnm61/ORsND79ugyyi/tKw9fGtr49R1Fb49kld+H4swrwuuIJbTrw1qd//9KH/dAkJ5q46cK6hUDPGxOtGZ5+neehAr+usHXvc2Nf063X5GNcS81CtVvhAtpE/1sAXQZYUCoLQnAmnPhM1BYwt2abhebyLfF5jax8eQZIuhk8UfPw8ZkRLdyiKLCEAgGfQievIJQB94TMTxg7mpFTs5hAMO5YAo9jpdlHwgWln9QAh51TukMAIeBE+zh17g6Hj9oGPqbXg6df3HZBJEQh6GLYyNyUfEw0fM2LLuxkpijEvIQAxnwHaWh4EwZe5ijkm3+kKnwDPRtZcT2yxZgrg0HfteD1tlNIbi4ZPY7mCv1p9f86dWwC6wEezXeB5WkcIVO7P7AQRhC/VFSfBRwCALeZXtjlMcIy2+gSAWcY8uiV1SYVPIGdHy2iD1EmZfQUBAbTXoUuyY9shGT5mHnMv4NkSiNXy/3QzbbUR10A2K9UNxMLHv/ueyVd7yNbl57n3FHMvwpEMnx8C2gKge9FF++RCUrY2ANSCiAbwLL6YWKQNPgM1wLVaJuerncgBvEsIu+ZdOsEHFKZeGkG2Nfv/1KMBWs5ttwgnJWkIim9xwaf7hj+1Q7P6+ET59O/7mu/U39v+PNfUp8K6M3wa1BZ9cDE5n5njg6bfx9RbK6RBsU+giKAgDFyzrJu37548Vo1gjRE4m6K1x+E1lqD2MC1CYrOIXIuvSEO3T2i/F3wObB/pwkXxXs0Ff0dDuGDleg9LUHuUTiyD67l/WNm+brY3fHyrq+ERgBi/m1NIiEXIadsaxK4CgK9H42ombgS4bF3gub8uAZ5t697wOSCQ7egfDV7bBeibo1uIALquKyQMZMww7XTrhjDvAp2ty9Tj4nL1rLLAp9GRRJfG5TBPGmrXfUrSiQ/E37PVPp/xeLp0uvGH2ieqdwV3gA8FsKltkw0+J0YiXZpGWjiXtKbeYOj7rmh/KOByXl93Ljd42iUrfA5IEOLqgpGIwBSPaRkbfGILO1CDi8KillCe7PCBSwxgawDEz8YUGdQSkDHBJ7fgSiZhSXMEd642LQJfTuTqBiIEpIdLSLKcN3Y7BviYeQJMUQ69JWDu250LtUVR+JyYIMs1GocPS83Fh26ky2dDwydL6DLzCEANC1kcPlBIxboCQbECdupwF5BdfjMUfHoVPm2vGRtVgQ8Y4gDXcDACgGVA0msnhYaAT/7AFluKqSdQLuXfXcpRDb6cnIgf6ZYb1luiWgoSaglBTfjkEVxFICL8bTX20n45t9Xhc/EEMT4rQGMgHAhByWCH66gBnyje1vppgSeoGyr4HQS+SG/bf8QkKCQTV8oUloJPWrgNOgJeqwJK2ttuB4UvF4PJA7TWCLuPhtA7yOkScsPHtJOWdfXX5X4kvilt1aRtQ9tRwOcCaQxMvS8e0I1H/gCt6duAfeHTR2eYlwGYtloAhJugtpQVC0H2fTYa+HKBaPauPQedg0QiAHpLF5L4gUAy1Sp0gc8kCYZZ7QOW9TXpfXFdfQVV2ifndnTw9c1Ri+dLE+sG1vtkD5lMSqyAdQj9t80QfOr30GpA0ycHdsic62tgn+tAiMcIXdp41PDlImlAGtJWDdsGj32NtaBPvWrNluljUWN/G/oeo5fEL0NF79Jesdu5gK9vhoYlNsAiuNLGITglPkOIsDI5x9n1/Zbcnzv4tjEw62ibaxi5BGysD4FblxjDXvvQr+cevm1ALAN17AgE1boIRRcLwe/oVaDVgB5q/MHeX87Xlx382MbBTCMkoYAw9ljz+r1/A0CGDvrgWJN2AAAAAElFTkSuQmCC;rounded=1;fontFamily=Lucida Console;fontSize=14;strokeColor=#007FFF;fillColor=#ffffff;opacity=80;" vertex="1" parent="1">
          <mxGeometry x="1075" y="190" width="50" height="50" as="geometry" />
        </mxCell>
        <mxCell id="NkLvIqLFpbnPFktaiqOG-53" value="" style="shape=image;verticalLabelPosition=bottom;labelBackgroundColor=#ffffff;verticalAlign=top;aspect=fixed;imageAspect=0;image=data:image/svg+xml,PHN2ZyB4bWxuczpjYz0iaHR0cDovL2NyZWF0aXZlY29tbW9ucy5vcmcvbnMjIiB4bWxuczpkYz0iaHR0cDovL3B1cmwub3JnL2RjL2VsZW1lbnRzLzEuMS8iIHhtbG5zOmlua3NjYXBlPSJodHRwOi8vd3d3Lmlua3NjYXBlLm9yZy9uYW1lc3BhY2VzL2lua3NjYXBlIiB4bWxuczpyZGY9Imh0dHA6Ly93d3cudzMub3JnLzE5OTkvMDIvMjItcmRmLXN5bnRheC1ucyMiIHhtbG5zOnNvZGlwb2RpPSJodHRwOi8vc29kaXBvZGkuc291cmNlZm9yZ2UubmV0L0RURC9zb2RpcG9kaS0wLmR0ZCIgeG1sbnM6c3ZnPSJodHRwOi8vd3d3LnczLm9yZy8yMDAwL3N2ZyIgeG1sbnM9Imh0dHA6Ly93d3cudzMub3JnLzIwMDAvc3ZnIiB4bWxuczp4bGluaz0iaHR0cDovL3d3dy53My5vcmcvMTk5OS94bGluayIgdmVyc2lvbj0iMS4xIiBpZD0ic3ZnMzg3NzciIGlua3NjYXBlOnZlcnNpb249IjAuOTIuMyAoMjQwNTU0NiwgMjAxOC0wMy0xMSkiIHNvZGlwb2RpOmRvY25hbWU9ImNzdi5zdmciIHg9IjBweCIgeT0iMHB4IiB2aWV3Qm94PSIwIDAgMjYuODUgMzUuMzIiIHN0eWxlPSJlbmFibGUtYmFja2dyb3VuZDpuZXcgMCAwIDI2Ljg1IDM1LjMyOyIgeG1sOnNwYWNlPSJwcmVzZXJ2ZSI+JiN4YTs8c29kaXBvZGk6bmFtZWR2aWV3IGJvcmRlcmNvbG9yPSIjNjY2NjY2IiBib3JkZXJvcGFjaXR5PSIxIiBmaXQtbWFyZ2luLWJvdHRvbT0iMCIgZml0LW1hcmdpbi1sZWZ0PSIwIiBmaXQtbWFyZ2luLXJpZ2h0PSIwIiBmaXQtbWFyZ2luLXRvcD0iMCIgZ3JpZHRvbGVyYW5jZT0iMTAiIGd1aWRldG9sZXJhbmNlPSIxMCIgaWQ9Im5hbWVkdmlldzM4Nzc5IiBpbmtzY2FwZTpjdXJyZW50LWxheWVyPSJzdmczODc3NyIgaW5rc2NhcGU6Y3g9IjE3Ljg5Nzg4NCIgaW5rc2NhcGU6Y3k9IjIzLjU0OTc1NiIgaW5rc2NhcGU6cGFnZW9wYWNpdHk9IjAiIGlua3NjYXBlOnBhZ2VzaGFkb3c9IjIiIGlua3NjYXBlOndpbmRvdy1oZWlnaHQ9IjEwMTciIGlua3NjYXBlOndpbmRvdy1tYXhpbWl6ZWQ9IjEiIGlua3NjYXBlOndpbmRvdy13aWR0aD0iMTkyMCIgaW5rc2NhcGU6d2luZG93LXg9Ii04IiBpbmtzY2FwZTp3aW5kb3cteT0iLTgiIGlua3NjYXBlOnpvb209IjExLjM3MjMzNiIgb2JqZWN0dG9sZXJhbmNlPSIxMCIgcGFnZWNvbG9yPSIjZmZmZmZmIiBzaG93Z3JpZD0iZmFsc2UiPiYjeGE7CTwvc29kaXBvZGk6bmFtZWR2aWV3PiYjeGE7PGcgaWQ9ImczODc3NSIgdHJhbnNmb3JtPSJ0cmFuc2xhdGUoLTEwLjkyODYsLTEwLjkzMTQpIj4mI3hhOwk8dGl0bGUgaWQ9InRpdGxlMzg3MjkiPlBhZ2UtMTwvdGl0bGU+JiN4YTsJPGcgaWQ9Imdyb3VwNDAxNi0xIiB0cmFuc2Zvcm09InRyYW5zbGF0ZSgxMC45Mjg2LC0xMC45Mjg2KSI+JiN4YTsJCTx0aXRsZSBpZD0idGl0bGUzODczMSI+Q1NWPC90aXRsZT4mI3hhOwkJPGcgaWQ9Imdyb3VwNDAxNy0yIj4mI3hhOwkJCTx0aXRsZSBpZD0idGl0bGUzODczMyI+U2hlZXQuNDAxNzwvdGl0bGU+JiN4YTsJCQk8ZyBpZD0ic2hhcGU0MDE4LTMiPiYjeGE7CQkJCTx0aXRsZSBpZD0idGl0bGUzODczNSI+U2hlZXQuNDAxODwvdGl0bGU+JiN4YTsJCQkJPHBhdGggaWQ9InBhdGgzODczNyIgaW5rc2NhcGU6Y29ubmVjdG9yLWN1cnZhdHVyZT0iMCIgc3R5bGU9ImZpbGw6I0U5RTlFMDsiIGQ9Ik0xOS4wMywyMS44NkgwLjkxYy0wLjUsMC0wLjkxLDAuNDEtMC45MSwxLjIxICAgICAgdjMzLjQ4YzAsMC4yMiwwLjQxLDAuNjMsMC45MSwwLjYzaDI1LjAyYzAuNTEsMCwwLjkyLTAuNDEsMC45Mi0wLjYzVjMwLjA0YzAtMC40NC0wLjA2LTAuNTgtMC4xNi0wLjY4bC03LjI3LTcuMzQgICAgICBDMTkuMzIsMjEuOTIsMTkuMTgsMjEuODYsMTkuMDMsMjEuODZ6Ii8+JiN4YTsJCQk8L2c+JiN4YTsJCQk8ZyBpZD0ic2hhcGU0MDE5LTUiIHRyYW5zZm9ybT0idHJhbnNsYXRlKDE5LjM1NDcsLTI3Ljc1MjMpIj4mI3hhOwkJCQk8dGl0bGUgaWQ9InRpdGxlMzg3NDAiPlNoZWV0LjQwMTk8L3RpdGxlPiYjeGE7CQkJCTxwYXRoIGlkPSJwYXRoMzg3NDIiIGlua3NjYXBlOmNvbm5lY3Rvci1jdXJ2YXR1cmU9IjAiIHN0eWxlPSJmaWxsOiNEOUQ3Q0E7IiBkPSJNMCw0OS43djcuNDhoNy40TDAsNDkuN3oiLz4mI3hhOwkJCTwvZz4mI3hhOwkJCTxnIGlkPSJzaGFwZTQwMjAtNyI+JiN4YTsJCQkJPHRpdGxlIGlkPSJ0aXRsZTM4NzQ1Ij5TaGVldC40MDIwPC90aXRsZT4mI3hhOwkJCQk8cGF0aCBpZD0icGF0aDM4NzQ3IiBpbmtzY2FwZTpjb25uZWN0b3ItY3VydmF0dXJlPSIwIiBzdHlsZT0iZmlsbDojRjMwQkEwOyIgZD0iTTI1LjkzLDU3LjE4SDAuOTFjLTAuNSwwLTAuOTEtMC40MS0wLjkxLTAuOTIgICAgICB2LTkuOGgyNi44NXY5LjhDMjYuODUsNTYuNzcsMjYuNDQsNTcuMTgsMjUuOTMsNTcuMTh6Ii8+JiN4YTsJCQk8L2c+JiN4YTsJCQk8ZyBpZD0iZ3JvdXA0MDIxLTkiIHRyYW5zZm9ybT0idHJhbnNsYXRlKDUuMDQ1MzQsLTEuODQ5MzEpIj4mI3hhOwkJCQk8dGl0bGUgaWQ9InRpdGxlMzg3NTAiPlNoZWV0LjQwMjE8L3RpdGxlPiYjeGE7CQkJCTxnIGlkPSJzaGFwZTQwMjItMTAiPiYjeGE7CQkJCQk8dGl0bGUgaWQ9InRpdGxlMzg3NTIiPlNoZWV0LjQwMjI8L3RpdGxlPiYjeGE7CQkJCQk8cGF0aCBpZD0icGF0aDM4NzU0IiBpbmtzY2FwZTpjb25uZWN0b3ItY3VydmF0dXJlPSIwIiBzdHlsZT0iZmlsbDojRkZGRkZGOyIgZD0iTTQuMzcsNTYuNDljLTAuMjMsMC4yMy0wLjUsMC40LTAuNzksMC41MiAgICAgICBjLTAuMywwLjExLTAuNjIsMC4xNy0wLjk2LDAuMTdjLTAuMzgsMC0wLjcyLTAuMDctMS4wNC0wLjIxYy0wLjMxLTAuMTQtMC41OS0wLjM0LTAuODItMC42MWMtMC4yNC0wLjI3LTAuNDMtMC42MS0wLjU2LTEuMDIgICAgICAgUzAsNTQuNDYsMCw1My45M2MwLTAuNTQsMC4wNy0xLjAxLDAuMi0xLjQxYzAuMTMtMC40MSwwLjMyLTAuNzUsMC41Ni0xLjAyYzAuMjMtMC4yNywwLjUxLTAuNDcsMC44My0wLjYxczAuNjYtMC4yMSwxLjAzLTAuMjEgICAgICAgYzAuMzQsMCwwLjY2LDAuMDUsMC45NiwwLjE3YzAuMjksMC4xMSwwLjU2LDAuMjksMC43OSwwLjUyTDMuNjYsNTJjLTAuMTQtMC4xNi0wLjMtMC4yOC0wLjQ3LTAuMzYgICAgICAgYy0wLjE4LTAuMDctMC4zNi0wLjExLTAuNTQtMC4xMWMtMC4yMiwwLTAuNDIsMC4wNC0wLjYxLDAuMTJjLTAuMTksMC4wOC0wLjM2LDAuMjItMC41MSwwLjQxcy0wLjI3LDAuNDQtMC4zNSwwLjc1ICAgICAgIGMtMC4wOSwwLjMtMC4xMywwLjY3LTAuMTQsMS4xMmMwLjAxLDAuNDMsMC4wNSwwLjgsMC4xMywxLjFjMC4wOSwwLjMxLDAuMiwwLjU1LDAuMzQsMC43NWMwLjE1LDAuMTksMC4zMSwwLjMzLDAuNSwwLjQyICAgICAgIGMwLjE4LDAuMDksMC4zOCwwLjEzLDAuNTgsMC4xM2MwLjIxLDAsMC40LTAuMDMsMC41OC0wLjExYzAuMTgtMC4wNywwLjM0LTAuMTksMC40OS0wLjM2TDQuMzcsNTYuNDl6Ii8+JiN4YTsJCQkJPC9nPiYjeGE7CQkJCTxnIGlkPSJzaGFwZTQwMjMtMTIiIHRyYW5zZm9ybT0idHJhbnNsYXRlKDUuNzQzMzYsLTAuMDA4ODMwMjcpIj4mI3hhOwkJCQkJPHRpdGxlIGlkPSJ0aXRsZTM4NzU3Ij5TaGVldC40MDIzPC90aXRsZT4mI3hhOwkJCQkJPHBhdGggaWQ9InBhdGgzODc1OSIgaW5rc2NhcGU6Y29ubmVjdG9yLWN1cnZhdHVyZT0iMCIgc3R5bGU9ImZpbGw6I0ZGRkZGRjsiIGQ9Ik0zLjY1LDU1LjRjMCwwLjIzLTAuMDQsMC40NS0wLjE0LDAuNjcgICAgICAgYy0wLjA5LDAuMjItMC4yMiwwLjQxLTAuMzksMC41N3MtMC4zOSwwLjI5LTAuNjQsMC4zOXMtMC41MywwLjE1LTAuODUsMC4xNWMtMC4xNCwwLTAuMjgtMC4wMS0wLjQyLTAuMDIgICAgICAgYy0wLjE1LTAuMDItMC4yOS0wLjA0LTAuNDQtMC4wOEMwLjYyLDU3LjA1LDAuNDgsNTcsMC4zNSw1Ni45NEMwLjIxLDU2Ljg4LDAuMSw1Ni44MSwwLDU2LjcybDAuMTgtMC43NCAgICAgICBjMC4wOCwwLjA1LDAuMTgsMC4wOSwwLjMsMC4xM2MwLjEyLDAuMDUsMC4yNSwwLjA5LDAuMzgsMC4xMmMwLjEzLDAuMDQsMC4yNiwwLjA3LDAuMzksMC4wOWMwLjEzLDAuMDMsMC4yNiwwLjA0LDAuMzcsMC4wNCAgICAgICBjMC4zNSwwLDAuNjEtMC4wOCwwLjgtMC4yNWMwLjE4LTAuMTYsMC4yOC0wLjQsMC4yOC0wLjczYzAtMC4xOS0wLjA3LTAuMzYtMC4yLTAuNWMtMC4xMy0wLjEzLTAuMjktMC4yNi0wLjQ5LTAuMzcgICAgICAgYy0wLjItMC4xMS0wLjQxLTAuMjItMC42NC0wLjM0Yy0wLjIyLTAuMTEtMC40NC0wLjI0LTAuNjQtMC4zOWMtMC4yLTAuMTYtMC4zNi0wLjM0LTAuNDktMC41NGMtMC4xMy0wLjIxLTAuMi0wLjQ3LTAuMi0wLjc4ICAgICAgIGMwLTAuMjgsMC4wNS0wLjUzLDAuMTYtMC43NWMwLjEtMC4yMiwwLjI0LTAuNCwwLjQxLTAuNTVjMC4xNy0wLjE2LDAuMzgtMC4yNywwLjYxLTAuMzVjMC4yMy0wLjA4LDAuNDctMC4xMiwwLjczLTAuMTIgICAgICAgczAuNTIsMC4wMiwwLjc5LDAuMDdTMy4yMiw1MC44OSwzLjM5LDUxYy0wLjA0LDAuMDctMC4wOCwwLjE1LTAuMTIsMC4yNGMtMC4wNSwwLjA5LTAuMDksMC4xNy0wLjEzLDAuMjUgICAgICAgYy0wLjA0LDAuMDgtMC4wNywwLjE0LTAuMSwwLjJjLTAuMDMsMC4wNS0wLjA1LDAuMDgtMC4wNSwwLjA4Yy0wLjA0LTAuMDEtMC4wNy0wLjA0LTAuMTItMC4wN2MtMC4wNC0wLjAzLTAuMS0wLjA1LTAuMTgtMC4wOCAgICAgICBjLTAuMDgtMC4wMy0wLjE5LTAuMDUtMC4zMi0wLjA2Yy0wLjEzLTAuMDItMC4zLTAuMDEtMC41LDAuMDFjLTAuMTIsMC4wMS0wLjIyLDAuMDQtMC4zMywwLjA5Yy0wLjEsMC4wNi0wLjE5LDAuMTMtMC4yNywwLjIxICAgICAgIGMtMC4wOCwwLjA4LTAuMTQsMC4xNy0wLjE5LDAuMjdjLTAuMDQsMC4xLTAuMDcsMC4yLTAuMDcsMC4yOWMwLDAuMjMsMC4wNywwLjQxLDAuMiwwLjU1YzAuMTMsMC4xNSwwLjI5LDAuMjcsMC40OSwwLjM3ICAgICAgIGMwLjE5LDAuMTEsMC40LDAuMjEsMC42MywwLjMyYzAuMjMsMC4xLDAuNDQsMC4yMiwwLjY0LDAuMzZjMC4xOSwwLjE0LDAuMzUsMC4zMywwLjQ5LDAuNTRDMy41OSw1NC43OSwzLjY1LDU1LjA2LDMuNjUsNTUuNHoiLz4mI3hhOwkJCQk8L2c+JiN4YTsJCQkJPGcgaWQ9InNoYXBlNDAyNC0xNCIgdHJhbnNmb3JtPSJ0cmFuc2xhdGUoMTAuMTkxMiwtMC4wMDgxOTk1MykiPiYjeGE7CQkJCQk8dGl0bGUgaWQ9InRpdGxlMzg3NjIiPlNoZWV0LjQwMjQ8L3RpdGxlPiYjeGE7CQkJCQk8cGF0aCBpZD0icGF0aDM4NzY0IiBpbmtzY2FwZTpjb25uZWN0b3ItY3VydmF0dXJlPSIwIiBzdHlsZT0iZmlsbDojRkZGRkZGOyIgZD0iTTEuOTUsNTcuMThMMCw1MC43OWgxLjE3bDEuNDYsNS40OGwxLjU0LTUuNDggICAgICAgaDEuMTdsLTIuMDUsNi4zOUgxLjk1eiIvPiYjeGE7CQkJCTwvZz4mI3hhOwkJCTwvZz4mI3hhOwkJCTxnIGlkPSJzaGFwZTQwMjUtMTYiIHRyYW5zZm9ybT0idHJhbnNsYXRlKDMuMTIxNzMsLTEzLjg3NjEpIj4mI3hhOwkJCQk8dGl0bGUgaWQ9InRpdGxlMzg3NjgiPlNoZWV0LjQwMjU8L3RpdGxlPiYjeGE7CQkJCTxwYXRoIGlkPSJwYXRoMzg3NzAiIGlua3NjYXBlOmNvbm5lY3Rvci1jdXJ2YXR1cmU9IjAiIHN0eWxlPSJmaWxsOiNDOEJEQjg7IiBkPSJNNy40OSw0NS44M1Y0My4zSDB2Mi41M3YxLjI2djEuMjZ2MS4yNnYxLjI2ICAgICAgdjEuMjZ2MS4yNnYxLjI3djIuNTJoNi4yNGgxLjI1SDIwLjZ2LTIuNTJ2LTEuMjd2LTEuMjZ2LTEuMjZ2LTEuMjZ2LTEuMjZ2LTIuNTJINy40OXogTTEuMjUsNDQuNTZoNC45OXYxLjI3SDEuMjVWNDQuNTZ6ICAgICAgIE0xLjI1LDQ3LjA5aDQuOTl2MS4yNkgxLjI1VjQ3LjA5eiBNMS4yNSw0OS42MWg0Ljk5djEuMjZIMS4yNVY0OS42MXogTTEuMjUsNTIuMTNoNC45OXYxLjI2SDEuMjVWNTIuMTN6IE02LjI0LDU1LjkySDEuMjUgICAgICB2LTEuMjZoNC45OVY1NS45MnogTTE5LjM1LDU1LjkySDcuNDl2LTEuMjZoMTEuODZWNTUuOTJ6IE0xOS4zNSw1My4zOUg3LjQ5di0xLjI2aDExLjg2VjUzLjM5eiBNMTkuMzUsNTAuODdINy40OXYtMS4yNmgxMS44NiAgICAgIEwxOS4zNSw1MC44N3ogTTcuNDksNDguMzV2LTEuMjZoMTEuODZ2MS4yNkg3LjQ5eiIvPiYjeGE7CQkJPC9nPiYjeGE7CQk8L2c+JiN4YTsJPC9nPiYjeGE7PC9nPiYjeGE7PC9zdmc+;" vertex="1" parent="1">
          <mxGeometry x="1080.71" y="120" width="38.57" height="50" as="geometry" />
        </mxCell>
        <mxCell id="NkLvIqLFpbnPFktaiqOG-54" value="HR Suite" style="whiteSpace=wrap;html=1;" vertex="1" parent="1">
          <mxGeometry x="900" y="140" width="120" height="60" as="geometry" />
        </mxCell>
        <mxCell id="NkLvIqLFpbnPFktaiqOG-55" value="" style="shape=image;verticalLabelPosition=bottom;labelBackgroundColor=#ffffff;verticalAlign=top;aspect=fixed;imageAspect=0;image=data:image/svg+xml,PHN2ZyB4bWxuczpkYz0iaHR0cDovL3B1cmwub3JnL2RjL2VsZW1lbnRzLzEuMS8iIHhtbG5zOmNjPSJodHRwOi8vY3JlYXRpdmVjb21tb25zLm9yZy9ucyMiIHhtbG5zOnJkZj0iaHR0cDovL3d3dy53My5vcmcvMTk5OS8wMi8yMi1yZGYtc3ludGF4LW5zIyIgeG1sbnM6c3ZnPSJodHRwOi8vd3d3LnczLm9yZy8yMDAwL3N2ZyIgeG1sbnM9Imh0dHA6Ly93d3cudzMub3JnLzIwMDAvc3ZnIiB4bWxuczp4bGluaz0iaHR0cDovL3d3dy53My5vcmcvMTk5OS94bGluayIgeG1sbnM6c29kaXBvZGk9Imh0dHA6Ly9zb2RpcG9kaS5zb3VyY2Vmb3JnZS5uZXQvRFREL3NvZGlwb2RpLTAuZHRkIiB4bWxuczppbmtzY2FwZT0iaHR0cDovL3d3dy5pbmtzY2FwZS5vcmcvbmFtZXNwYWNlcy9pbmtzY2FwZSIgdmVyc2lvbj0iMS4xIiBpZD0iTGF5ZXJfMSIgeD0iMHB4IiB5PSIwcHgiIHZpZXdCb3g9IjAgMCAyOS4zOTk5OTIgMjkuMzk5OTk4IiB4bWw6c3BhY2U9InByZXNlcnZlIiBzb2RpcG9kaTpkb2NuYW1lPSJyZW1vdmUuc3ZnIiB3aWR0aD0iMjkuMzk5OTkyIiBoZWlnaHQ9IjI5LjM5OTk5OCIgaW5rc2NhcGU6dmVyc2lvbj0iMC45Mi4zICgyNDA1NTQ2LCAyMDE4LTAzLTExKSI+PG1ldGFkYXRhIGlkPSJtZXRhZGF0YTQ2NzA0Ij48cmRmOlJERj48Y2M6V29yayByZGY6YWJvdXQ9IiI+PGRjOmZvcm1hdD5pbWFnZS9zdmcreG1sPC9kYzpmb3JtYXQ+PGRjOnR5cGUgcmRmOnJlc291cmNlPSJodHRwOi8vcHVybC5vcmcvZGMvZGNtaXR5cGUvU3RpbGxJbWFnZSIvPjxkYzp0aXRsZS8+PC9jYzpXb3JrPjwvcmRmOlJERj48L21ldGFkYXRhPjxkZWZzIGlkPSJkZWZzNDY3MDIiLz48c29kaXBvZGk6bmFtZWR2aWV3IHBhZ2Vjb2xvcj0iI2ZmZmZmZiIgYm9yZGVyY29sb3I9IiM2NjY2NjYiIGJvcmRlcm9wYWNpdHk9IjEiIG9iamVjdHRvbGVyYW5jZT0iMTAiIGdyaWR0b2xlcmFuY2U9IjEwIiBndWlkZXRvbGVyYW5jZT0iMTAiIGlua3NjYXBlOnBhZ2VvcGFjaXR5PSIwIiBpbmtzY2FwZTpwYWdlc2hhZG93PSIyIiBpbmtzY2FwZTp3aW5kb3ctd2lkdGg9IjE5MjAiIGlua3NjYXBlOndpbmRvdy1oZWlnaHQ9IjEwMTciIGlkPSJuYW1lZHZpZXc0NjcwMCIgc2hvd2dyaWQ9ImZhbHNlIiBmaXQtbWFyZ2luLXRvcD0iMCIgZml0LW1hcmdpbi1sZWZ0PSIwIiBmaXQtbWFyZ2luLXJpZ2h0PSIwIiBmaXQtbWFyZ2luLWJvdHRvbT0iMCIgaW5rc2NhcGU6em9vbT0iMS4wMzAzMDMiIGlua3NjYXBlOmN4PSIwLjMwNDk5MjY4IiBpbmtzY2FwZTpjeT0iLTMzMS43OSIgaW5rc2NhcGU6d2luZG93LXg9Ii04IiBpbmtzY2FwZTp3aW5kb3cteT0iLTgiIGlua3NjYXBlOndpbmRvdy1tYXhpbWl6ZWQ9IjEiIGlua3NjYXBlOmN1cnJlbnQtbGF5ZXI9IkxheWVyXzEiLz4mI3hhOyYjeGE7PGcgaWQ9Imc0NjY5NyIgdHJhbnNmb3JtPSJ0cmFuc2xhdGUoLTI5Ny4wNzAwMSwtNTkuNTYwMDAxKSI+JiN4YTsJPGRlZnMgaWQ9ImRlZnM0NjY4MiI+JiN4YTsJCTxyZWN0IGlkPSJTVkdJRF8zXyIgeD0iMjk3LjA3MDAxIiB5PSI1OS41NjAwMDEiIHdpZHRoPSIzMS4xNSIgaGVpZ2h0PSIzMS4xNSIvPiYjeGE7CTwvZGVmcz4mI3hhOwk8Y2xpcFBhdGggaWQ9IlNWR0lEXzRfIj4mI3hhOwkJPHVzZSB4bGluazpocmVmPSIjU1ZHSURfM18iIHN0eWxlPSJvdmVyZmxvdzp2aXNpYmxlIiBpZD0idXNlNDY2ODQiIHg9IjAiIHk9IjAiIHdpZHRoPSIxMDAlIiBoZWlnaHQ9IjEwMCUiLz4mI3hhOwk8L2NsaXBQYXRoPiYjeGE7CTxnIGNsaXAtcGF0aD0idXJsKCNTVkdJRF80XykiIGlkPSJnNDY2OTUiPiYjeGE7CQk8ZGVmcyBpZD0iZGVmczQ2Njg4Ij4mI3hhOwkJCTxyZWN0IGlkPSJTVkdJRF81XyIgeD0iMjk3LjA3MDAxIiB5PSI1OS41NjAwMDEiIHdpZHRoPSIzMS4xNSIgaGVpZ2h0PSIzMS4xNSIvPiYjeGE7CQk8L2RlZnM+JiN4YTsJCTxjbGlwUGF0aCBpZD0iU1ZHSURfNl8iPiYjeGE7CQkJPHVzZSB4bGluazpocmVmPSIjU1ZHSURfNV8iIHN0eWxlPSJvdmVyZmxvdzp2aXNpYmxlIiBpZD0idXNlNDY2OTAiIHg9IjAiIHk9IjAiIHdpZHRoPSIxMDAlIiBoZWlnaHQ9IjEwMCUiLz4mI3hhOwkJPC9jbGlwUGF0aD4mI3hhOwkJPHBvbHlnb24gc3R5bGU9ImZpbGw6I2VhNGUzOSIgcG9pbnRzPSIzMjYuMDUsODUuNDkgMzIzLjA2LDg4LjQ4IDMxMS44Niw3Ny4yOCAzMDAuMTgsODguOTYgMjk3LjA3LDg1Ljg1IDMwOC43NSw3NC4xNyAyOTcuNjEsNjIuOTcgMzAwLjYsNTkuOTggMzExLjc0LDcxLjE4IDMyMy4zNiw1OS41NiAzMjYuNDcsNjIuNzMgMzE0Ljg2LDc0LjI5ICIgY2xpcC1wYXRoPSJ1cmwoI1NWR0lEXzZfKSIgaWQ9InBvbHlnb240NjY5MyIvPiYjeGE7CTwvZz4mI3hhOzwvZz4mI3hhOzwvc3ZnPg==;" vertex="1" parent="1">
          <mxGeometry x="1075" y="190" width="54.5" height="54.5" as="geometry" />
        </mxCell>
        <mxCell id="NkLvIqLFpbnPFktaiqOG-56" style="edgeStyle=orthogonalEdgeStyle;rounded=0;orthogonalLoop=1;jettySize=auto;html=1;entryX=0;entryY=0.5;entryDx=0;entryDy=0;endArrow=block;endFill=1;strokeColor=#009900;strokeWidth=3;" edge="1" parent="1" source="NkLvIqLFpbnPFktaiqOG-58" target="NkLvIqLFpbnPFktaiqOG-29">
          <mxGeometry relative="1" as="geometry">
            <Array as="points">
              <mxPoint x="1380" y="620" />
              <mxPoint x="1380" y="125" />
            </Array>
          </mxGeometry>
        </mxCell>
        <mxCell id="NkLvIqLFpbnPFktaiqOG-57" value="updates" style="edgeLabel;html=1;align=center;verticalAlign=middle;resizable=0;points=[];" vertex="1" connectable="0" parent="NkLvIqLFpbnPFktaiqOG-56">
          <mxGeometry x="-0.6491" y="2" relative="1" as="geometry">
            <mxPoint as="offset" />
          </mxGeometry>
        </mxCell>
        <mxCell id="NkLvIqLFpbnPFktaiqOG-58" value="" style="whiteSpace=wrap;html=1;rounded=0;fontSize=14;opacity=80;dashed=1;strokeColor=#007FFF;fillColor=#E6E6E6;" vertex="1" parent="1">
          <mxGeometry x="1055" y="550" width="90" height="180" as="geometry" />
        </mxCell>
        <mxCell id="NkLvIqLFpbnPFktaiqOG-59" value="" style="whiteSpace=wrap;html=1;rounded=0;fontSize=14;fillColor=#ffffff;opacity=80;dashed=1;strokeColor=#007FFF;" vertex="1" parent="1">
          <mxGeometry x="865" y="550" width="190" height="180" as="geometry" />
        </mxCell>
        <mxCell id="NkLvIqLFpbnPFktaiqOG-60" value="PaaS/Serverless" style="text;html=1;resizable=0;autosize=1;align=center;verticalAlign=middle;points=[];fillColor=#dae8fc;rounded=0;fontSize=14;opacity=80;fontFamily=Lucida Console;" vertex="1" parent="1">
          <mxGeometry x="875" y="560" width="140" height="20" as="geometry" />
        </mxCell>
        <mxCell id="NkLvIqLFpbnPFktaiqOG-61" value="" style="aspect=fixed;html=1;points=[];align=center;image;fontSize=12;image=img/lib/mscae/CosmosDB.svg;rounded=1;fontFamily=Lucida Console;strokeColor=#007FFF;fillColor=#ffffff;opacity=80;" vertex="1" parent="1">
          <mxGeometry x="885" y="600" width="50" height="50" as="geometry" />
        </mxCell>
        <mxCell id="NkLvIqLFpbnPFktaiqOG-62" value="" style="shape=image;verticalLabelPosition=bottom;labelBackgroundColor=#ffffff;verticalAlign=top;aspect=fixed;imageAspect=0;image=data:image/svg+xml,PHN2ZyB4bWxuczpkYz0iaHR0cDovL3B1cmwub3JnL2RjL2VsZW1lbnRzLzEuMS8iIHhtbG5zOmNjPSJodHRwOi8vY3JlYXRpdmVjb21tb25zLm9yZy9ucyMiIHhtbG5zOnJkZj0iaHR0cDovL3d3dy53My5vcmcvMTk5OS8wMi8yMi1yZGYtc3ludGF4LW5zIyIgeG1sbnM6c3ZnPSJodHRwOi8vd3d3LnczLm9yZy8yMDAwL3N2ZyIgeG1sbnM9Imh0dHA6Ly93d3cudzMub3JnLzIwMDAvc3ZnIiB4bWxuczpzb2RpcG9kaT0iaHR0cDovL3NvZGlwb2RpLnNvdXJjZWZvcmdlLm5ldC9EVEQvc29kaXBvZGktMC5kdGQiIHhtbG5zOmlua3NjYXBlPSJodHRwOi8vd3d3Lmlua3NjYXBlLm9yZy9uYW1lc3BhY2VzL2lua3NjYXBlIiB2ZXJzaW9uPSIxLjEiIGlkPSJzdmc2MTMyMyIgaW5rc2NhcGU6dmVyc2lvbj0iMC45Mi4zICgyNDA1NTQ2LCAyMDE4LTAzLTExKSIgc29kaXBvZGk6ZG9jbmFtZT0iYXp1cmVfcG9ydGFsX3dlYl9hcHBzLnN2ZyIgeD0iMHB4IiB5PSIwcHgiIHZpZXdCb3g9IjAgMCA1MS4wMjkzMTcgNTEuMDIiIHhtbDpzcGFjZT0icHJlc2VydmUiIHdpZHRoPSI1MS4wMjkzMTYiIGhlaWdodD0iNTEuMDIiPjxtZXRhZGF0YSBpZD0ibWV0YWRhdGExMTY1NSI+PHJkZjpSREY+PGNjOldvcmsgcmRmOmFib3V0PSIiPjxkYzpmb3JtYXQ+aW1hZ2Uvc3ZnK3htbDwvZGM6Zm9ybWF0PjxkYzp0eXBlIHJkZjpyZXNvdXJjZT0iaHR0cDovL3B1cmwub3JnL2RjL2RjbWl0eXBlL1N0aWxsSW1hZ2UiLz48ZGM6dGl0bGUvPjwvY2M6V29yaz48L3JkZjpSREY+PC9tZXRhZGF0YT48ZGVmcyBpZD0iZGVmczExNjUzIi8+JiN4YTs8ZmlsdGVyIGlkPSJmaWx0ZXJfMiI+JiN4YTsJPGZlR2F1c3NpYW5CbHVyIGlkPSJmZUdhdXNzaWFuQmx1cjYxMjk2IiBzdGREZXZpYXRpb249IjIiLz4mI3hhOzwvZmlsdGVyPiYjeGE7PHNvZGlwb2RpOm5hbWVkdmlldyBib3JkZXJjb2xvcj0iIzY2NjY2NiIgYm9yZGVyb3BhY2l0eT0iMSIgZml0LW1hcmdpbi1ib3R0b209IjAiIGZpdC1tYXJnaW4tbGVmdD0iMCIgZml0LW1hcmdpbi1yaWdodD0iMCIgZml0LW1hcmdpbi10b3A9IjAiIGdyaWR0b2xlcmFuY2U9IjEwIiBndWlkZXRvbGVyYW5jZT0iMTAiIGlkPSJuYW1lZHZpZXc2MTMyNSIgaW5rc2NhcGU6Y3VycmVudC1sYXllcj0ic3ZnNjEzMjMiIGlua3NjYXBlOmN4PSItNDUuMDA0ODE4IiBpbmtzY2FwZTpjeT0iMzkuNDkwNjM4IiBpbmtzY2FwZTpwYWdlb3BhY2l0eT0iMCIgaW5rc2NhcGU6cGFnZXNoYWRvdz0iMiIgaW5rc2NhcGU6d2luZG93LWhlaWdodD0iMTAxNyIgaW5rc2NhcGU6d2luZG93LW1heGltaXplZD0iMSIgaW5rc2NhcGU6d2luZG93LXdpZHRoPSIxOTIwIiBpbmtzY2FwZTp3aW5kb3cteD0iLTgiIGlua3NjYXBlOndpbmRvdy15PSItOCIgaW5rc2NhcGU6em9vbT0iNC4zMDY1ODM0IiBvYmplY3R0b2xlcmFuY2U9IjEwIiBwYWdlY29sb3I9IiNmZmZmZmYiIHNob3dncmlkPSJmYWxzZSI+JiN4YTsJPC9zb2RpcG9kaTpuYW1lZHZpZXc+JiN4YTsmI3hhOzxwYXRoIGlkPSJwYXRoNjEzMDkiIGlua3NjYXBlOmNvbm5lY3Rvci1jdXJ2YXR1cmU9IjAiIHN0eWxlPSJmaWxsOiM1OWI0ZDkiIGQ9Im0gNDEuMDE0NTI2LDQ1Ljc2IGMgLTQuNjIsMy41MyAtMTAuMDcsNS4yNiAtMTUuNDcsNS4yNiAtNy42OCwwIC0xNS4yNywtMy40NSAtMjAuMjc5OTk5OSwtMTAuMDEgLTguNTcsLTExLjE5IC02LjQ2LC0yNy4xOCA0Ljc0OTk5OTksLTM1Ljc2IDQuNjIsLTMuNTUgMTAuMDgsLTUuMjUgMTUuNDgsLTUuMjUgNy42NywwIDE1LjI2LDMuNDUgMjAuMjgsMTAuMDEgOC41NywxMS4xOCA2LjQzLDI3LjE5IC00Ljc2LDM1Ljc1IHoiLz4mI3hhOyYjeGE7PHBhdGggaWQ9InBhdGg2MTMxNyIgaW5rc2NhcGU6Y29ubmVjdG9yLWN1cnZhdHVyZT0iMCIgc3R5bGU9ImZpbGw6I2ZmZmZmZiIgZD0ibSAzNi4zMzQ1MjYsMjkuOTggYyAxLjg1LDIuNDEgNS4yOSwyLjg1IDcuNywxLjAyIDAuMTIsLTAuMDkgMC4yMiwtMC4yMSAwLjMzLC0wLjMxIDIuNDYsMS43MyA0LjE3LDIuODcgNS4xMywzLjUzIDAuMjgsLTAuNzQgMC40OCwtMS40NSAwLjY4LC0yLjE5IC0xLjAxLC0wLjc2IC0yLjM5LC0xLjgxIC00LjM3LC0zLjQyIDAuNjUsLTEuNzIgMC40NCwtMy43MiAtMC43NSwtNS4yOCAtMS43LC0yLjIxIC00LjcyLC0yLjc3IC03LjA4LC0xLjQxIC0yLjYsLTIuMzMgLTUuNDUsLTUgLTguNDYsLTcuOTkgOS4zNSwtNS4wMyAxNiwtNC4yOSAxNiwtNC4yOSAtMS4xMSwtMS40MiAtMi4zNiwtMi42NiAtMy42OCwtMy43OCAtMy45NSwtMC42MSAtMTAuMDcsLTAuNTQgLTE3LjA3LDMuMTkgbCAtMC4wMSwtMC4wMSB2IDAgYyAtMi4zMywtMi40NCAtNC43MSwtNS4wNiAtNy4xMiwtNy44NyAtMS4xNiwwLjM3IC0yLjI5LDAuODMgLTMuMzgsMS4zOCAxLjc4LDIuOTIgNC4xOCw1Ljg3IDYuODksOC43NCAwLDAuMDEgMC4wMSwwLjAxIDAuMDIsMC4wMiAtMi4yNiwxLjU3IC00Ljc3LDMuNjggLTcuMDksNi4xMyAtMC4zLDAuMzIgLTAuNTgsMC42NCAtMC44NiwwLjk1IC0xLjM4LC0wLjI5IC0yLjg0LC0wLjIgLTQuMTk5OTk5OSwwLjI5IC0yLjMxLC00Ljk4IC0yLjEzLC04Ljk5IC0xLjc2LC0xMS4wNSAtMSwxLjA1IC0xLjk0LDIuMTUgLTIuNzUsMy4zMyAtMC42LDIuNDcgLTAuNzcsNi4wMiAxLjAxLDEwLjMgLTIuMDYsMi43IC0yLjE2LDYuNTIgLTAuMDEsOS4zNSAwLjE4LDAuMjMgMC4zNywwLjQ1IDAuNTcsMC42NSAtMC45NCwzLjIgLTEuMzYsNi4yOSAtMS40OSw4Ljk0IDAuMjQsMC4zMyAwLjI0LDAuNiAwLjQ4LDAuOTIgMS4yMywxLjU3IDIuNzYsMi44OSA0LjI1LDQuMDkgLTAuMTgsLTIuODEgMC4wMSwtNi45NSAxLjc0OTk5OTksLTExLjYxIDEuMiwwLjA5IDIuNDEsLTAuMDkgMy41NSwtMC41NyAwLjY2LDAuNTcgMS4zNCwxLjE1IDIuMDcsMS43NCAyLjUsMS45OCA1LDMuNTMgNy40Myw0Ljc0IC0wLjEyLDEuMjQgMC4xOSwyLjUyIDAuOTksMy41OSAxLjcyLDIuMjIgNC45MSwyLjY0IDcuMTMsMC45NCAwLjQ2LC0wLjM2IDAuODMsLTAuNzggMS4xMywtMS4yNCAzLjk3LDAuODggNy40NCwxLjA0IDEwLjAxLDEuMDQgMC4zOSwwIDIuMjIsLTIuNDkgMy4yNiwtNC4wMyAtMS41NiwwLjMzIC02LjIsMC45NyAtMTIuNTUsLTAuODYgLTAuMTUsLTAuNzEgLTAuNDQsLTEuNCAtMC45MSwtMi4wMiAtMS42MiwtMi4xMSAtNC41NiwtMi41NyAtNi43NiwtMS4xNSAtMi4yLC0xLjIgLTQuNTEsLTIuNyAtNi44OSwtNC41OSAtMC40OCwtMC4zOCAtMC45NSwtMC43NiAtMS4zOSwtMS4xNCAxLjQ1LC0yLjI5IDEuNjEsLTUuMjMgMC4zMiwtNy43IDAuMywtMC4yOSAwLjU4LC0wLjU5IDAuODksLTAuODggMi4zNiwtMi4yIDQuNTgsLTMuOTYgNi42NiwtNS4zOCAtMC4wOSwtMC4wOCAtMC4xNiwtMC4xNiAtMC4yNSwtMC4yNCAwLjA5LDAuMDggMC4xNiwwLjE2IDAuMjUsMC4yNCB2IDAgYyAzLjE4LDIuOTQgNi41Niw1LjczIDkuNzYsOC4yMyAtMC44NSwxLjc5IC0wLjcyLDMuOTggMC41Nyw1LjY2IHoiLz4mI3hhOzwvc3ZnPg==;rounded=1;fontFamily=Lucida Console;fontSize=14;strokeColor=#007FFF;fillColor=#ffffff;opacity=80;" vertex="1" parent="1">
          <mxGeometry x="964.0000000000001" y="599" width="51" height="51" as="geometry" />
        </mxCell>
        <mxCell id="NkLvIqLFpbnPFktaiqOG-63" value="" style="shape=image;verticalLabelPosition=bottom;labelBackgroundColor=#ffffff;verticalAlign=top;aspect=fixed;imageAspect=0;image=data:image/svg+xml,PHN2ZyB4bWxuczpjYz0iaHR0cDovL2NyZWF0aXZlY29tbW9ucy5vcmcvbnMjIiB4bWxuczpkYz0iaHR0cDovL3B1cmwub3JnL2RjL2VsZW1lbnRzLzEuMS8iIHhtbG5zOmlua3NjYXBlPSJodHRwOi8vd3d3Lmlua3NjYXBlLm9yZy9uYW1lc3BhY2VzL2lua3NjYXBlIiB4bWxuczpyZGY9Imh0dHA6Ly93d3cudzMub3JnLzE5OTkvMDIvMjItcmRmLXN5bnRheC1ucyMiIHhtbG5zOnNvZGlwb2RpPSJodHRwOi8vc29kaXBvZGkuc291cmNlZm9yZ2UubmV0L0RURC9zb2RpcG9kaS0wLmR0ZCIgeG1sbnM6c3ZnPSJodHRwOi8vd3d3LnczLm9yZy8yMDAwL3N2ZyIgeG1sbnM9Imh0dHA6Ly93d3cudzMub3JnLzIwMDAvc3ZnIiB4bWxuczp4bGluaz0iaHR0cDovL3d3dy53My5vcmcvMTk5OS94bGluayIgdmVyc2lvbj0iMS4xIiBpZD0ic3ZnMTE0MjUwIiBpbmtzY2FwZTp2ZXJzaW9uPSIwLjkyLjMgKDI0MDU1NDYsIDIwMTgtMDMtMTEpIiBzb2RpcG9kaTpkb2NuYW1lPSJ3ZWJwYWdlXzEuc3ZnIiB4PSIwcHgiIHk9IjBweCIgdmlld0JveD0iMCAwIDYxLjQ2IDQ1IiBzdHlsZT0iZW5hYmxlLWJhY2tncm91bmQ6bmV3IDAgMCA2MS40NiA0NTsiIHhtbDpzcGFjZT0icHJlc2VydmUiPiYjeGE7PHNvZGlwb2RpOm5hbWVkdmlldyBib3JkZXJjb2xvcj0iIzY2NjY2NiIgYm9yZGVyb3BhY2l0eT0iMSIgZml0LW1hcmdpbi1ib3R0b209IjAiIGZpdC1tYXJnaW4tbGVmdD0iMCIgZml0LW1hcmdpbi1yaWdodD0iMCIgZml0LW1hcmdpbi10b3A9IjAiIGdyaWR0b2xlcmFuY2U9IjEwIiBndWlkZXRvbGVyYW5jZT0iMTAiIGlkPSJuYW1lZHZpZXcxMTQyNTIiIGlua3NjYXBlOmN1cnJlbnQtbGF5ZXI9InN2ZzExNDI1MCIgaW5rc2NhcGU6Y3g9IjQwLjk3MDU5MiIgaW5rc2NhcGU6Y3k9IjI5Ljk5OTk5NSIgaW5rc2NhcGU6cGFnZW9wYWNpdHk9IjAiIGlua3NjYXBlOnBhZ2VzaGFkb3c9IjIiIGlua3NjYXBlOndpbmRvdy1oZWlnaHQ9IjEwMTciIGlua3NjYXBlOndpbmRvdy1tYXhpbWl6ZWQ9IjEiIGlua3NjYXBlOndpbmRvdy13aWR0aD0iMTkyMCIgaW5rc2NhcGU6d2luZG93LXg9Ii04IiBpbmtzY2FwZTp3aW5kb3cteT0iLTgiIGlua3NjYXBlOnpvb209IjE0LjQ1IiBvYmplY3R0b2xlcmFuY2U9IjEwIiBwYWdlY29sb3I9IiNmZmZmZmYiIHNob3dncmlkPSJmYWxzZSI+JiN4YTsJPC9zb2RpcG9kaTpuYW1lZHZpZXc+JiN4YTs8ZyBpZD0iZzExNDI0OCI+JiN4YTsJPHRpdGxlIGlkPSJ0aXRsZTExNDE1OSI+UGFnZS0xPC90aXRsZT4mI3hhOwk8ZyBpZD0iZ3JvdXA1NDk2LTEiPiYjeGE7CQk8dGl0bGUgaWQ9InRpdGxlMTE0MTYxIj5XZWJwYWdlICMxPC90aXRsZT4mI3hhOwkJPGcgaWQ9Imdyb3VwNTQ5Ny0yIj4mI3hhOwkJCTx0aXRsZSBpZD0idGl0bGUxMTQxNjMiPk1hbmFnZW1lbnQgUm9sZXMvUGVybWlzc2lvbnMuNzQ1MzwvdGl0bGU+JiN4YTsJCQk8ZyBpZD0iZ3JvdXA1NDk4LTMiPiYjeGE7CQkJCTx0aXRsZSBpZD0idGl0bGUxMTQxNjUiPldlYnNpdGVzICMyPC90aXRsZT4mI3hhOwkJCQk8ZyBpZD0ic2hhcGU1NDk5LTQiPiYjeGE7CQkJCQk8dGl0bGUgaWQ9InRpdGxlMTE0MTY3Ij5TaGVldC41NDk5PC90aXRsZT4mI3hhOwkJCQkJPHBhdGggaWQ9InBhdGgxMTQxNjkiIGlua3NjYXBlOmNvbm5lY3Rvci1jdXJ2YXR1cmU9IjAiIHN0eWxlPSJmaWxsOiMzRjU3NjU7IiBkPSJNNTkuMTEsMEMyLjI3LDAsMi4yNywwLDIuMjcsMCAgICAgICBDMC4zOCwwLDAsMC40NSwwLDIuMzRjMCw0MC4zOSwwLDQwLjM5LDAsNDAuMzlDMCw0NC42MiwwLjM4LDQ1LDIuMjcsNDVjNTYuODQsMCw1Ni44NCwwLDU2Ljg0LDBjMS45NywwLDIuMzUtMC4zOCwyLjM1LTIuMjcgICAgICAgYzAtNDAuMzksMC00MC4zOSwwLTQwLjM5QzYxLjQ2LDAuNDUsNjEuMDgsMCw1OS4xMSwweiIvPiYjeGE7CQkJCTwvZz4mI3hhOwkJCQk8ZyBpZD0ic2hhcGU1NTAwLTYiIHRyYW5zZm9ybT0idHJhbnNsYXRlKDEuNTg3NDIsLTM3Ljc1MTcpIj4mI3hhOwkJCQkJPHRpdGxlIGlkPSJ0aXRsZTExNDE3MiI+U2hlZXQuNTUwMDwvdGl0bGU+JiN4YTsJCQkJCTxwYXRoIGlkPSJwYXRoMTE0MTc0IiBpbmtzY2FwZTpjb25uZWN0b3ItY3VydmF0dXJlPSIwIiBzdHlsZT0iZmlsbDojMjZBOUUwOyIgZD0iTTYuMTIsNDEuOThDNi4xMiw0My43Miw0Ljc2LDQ1LDMuMSw0NSAgICAgICBTMCw0My43MiwwLDQxLjk4YzAtMS42NiwxLjQ0LTMuMDIsMy4xLTMuMDJTNi4xMiw0MC4zMiw2LjEyLDQxLjk4eiIvPiYjeGE7CQkJCTwvZz4mI3hhOwkJCQk8ZyBpZD0ic2hhcGU1NTAxLTgiIHRyYW5zZm9ybT0idHJhbnNsYXRlKDIuODcyNDgsLTM5LjQxMjgpIj4mI3hhOwkJCQkJPHRpdGxlIGlkPSJ0aXRsZTExNDE3NyI+U2hlZXQuNTUwMTwvdGl0bGU+JiN4YTsJCQkJCTxwYXRoIGlkPSJwYXRoMTE0MTc5IiBpbmtzY2FwZTpjb25uZWN0b3ItY3VydmF0dXJlPSIwIiBzdHlsZT0iZmlsbDojRkZGRkZGOyIgZD0iTTEuMjEsNDMuMzRsMS4wNi0wLjk4SDEuNDRMMCw0My42NEwxLjQ0LDQ1ICAgICAgIGgwLjgzbC0xLjA2LTEuMDZoMi40MnYtMC42SDEuMjF6Ii8+JiN4YTsJCQkJPC9nPiYjeGE7CQkJCTxnIGlkPSJzaGFwZTU1MDItMTAiIHRyYW5zZm9ybT0idHJhbnNsYXRlKDguODQ0MjEsLTM5LjQxMjgpIj4mI3hhOwkJCQkJPHRpdGxlIGlkPSJ0aXRsZTExNDE4MiI+U2hlZXQuNTUwMjwvdGl0bGU+JiN4YTsJCQkJCTxwYXRoIGlkPSJwYXRoMTE0MTg0IiBpbmtzY2FwZTpjb25uZWN0b3ItY3VydmF0dXJlPSIwIiBzdHlsZT0iZmlsbDojRkZGRkZGOyIgZD0iTTAsNDIuMTNWNDVoNTEuMTh2LTIuODdIMHoiLz4mI3hhOwkJCQk8L2c+JiN4YTsJCQkJPGcgaWQ9InNoYXBlNTUwMy0xMiIgdHJhbnNmb3JtPSJ0cmFuc2xhdGUoMTUuNzk4NiwtMTMuMTM3NikiPiYjeGE7CQkJCQk8dGl0bGUgaWQ9InRpdGxlMTE0MTg3Ij5TaGVldC41NTAzPC90aXRsZT4mI3hhOwkJCQkJPHBhdGggaWQ9InBhdGgxMTQxODkiIGlua3NjYXBlOmNvbm5lY3Rvci1jdXJ2YXR1cmU9IjAiIHN0eWxlPSJmaWxsOiNGRkZGRkY7IiBkPSJNMjguOCwzOC40M2MwLTEuNTEtMS4yMS0yLjc5LTIuOC0yLjc5ICAgICAgIGMtNC4yMywwLTQuMjMsMC00LjIzLDBjLTMuNy0zLjYzLTMuNy0zLjYzLTMuNy0zLjYzYy05LjA3LDAtOS4wNywwLTkuMDcsMGMtMy44NiwzLjctMy44NiwzLjctMy44NiwzLjcgICAgICAgYy0yLjM0LDAuMjMtNC4yMywyLjE5LTQuMjMsNC42MWMwLDAuOSwwLDAuOSwwLDAuOWMtMC45MSwwLTAuOTEsMC0wLjkxLDBjMCwxLjgyLDAsMS44MiwwLDEuODJjMy45MywwLDMuOTMsMCwzLjkzLDAgICAgICAgQzQuMzEsNDQuMTcsNS4zNyw0NSw2LjU4LDQ1czIuMTktMC44MywyLjU3LTEuOTZjMTEuNDksMCwxMS40OSwwLDExLjQ5LDBjMC40NSwxLjEzLDEuNDMsMS45NiwyLjY0LDEuOTZzMi4xOS0wLjgzLDIuNjUtMS45NiAgICAgICBjMy43OCwwLDMuNzgsMCwzLjc4LDBjMC0xLjgyLDAtMS44MiwwLTEuODJjLTAuOTEsMC0wLjkxLDAtMC45MSwwVjM4LjQzeiBNMjYuOTksMzguNDNjMCwyLjc5LDAsMi43OSwwLDIuNzkgICAgICAgYy0xLjA2LDAtMS4wNiwwLTEuMDYsMGMtMC40Ni0xLjA1LTEuNDQtMS44OC0yLjY1LTEuODhjLTEuMjEsMC0yLjE5LDAuODMtMi42NCwxLjg4Yy03LjY0LDAtNy42NCwwLTcuNjQsMCAgICAgICBjMC0zLjY5LDAtMy42OSwwLTMuNjljMTMsMCwxMywwLDEzLDBDMjYuNjEsMzcuNTMsMjYuOTksMzcuOSwyNi45OSwzOC40M3ogTTE5LjEyLDM1LjY0Yy02LjEyLDAtNi4xMiwwLTYuMTIsMCAgICAgICBjMC0xLjgxLDAtMS44MSwwLTEuODFjNC4zMSwwLDQuMzEsMCw0LjMxLDBMMTkuMTIsMzUuNjR6IE05LjY4LDMzLjgzYzEuNTEsMCwxLjUxLDAsMS41MSwwYzAsMS44MSwwLDEuODEsMCwxLjgxICAgICAgIGMtMy4zMywwLTMuMzMsMC0zLjMzLDBMOS42OCwzMy44M3ogTTIuOCw0MC4zMmMwLTEuNTksMS4yMS0yLjc5LDIuODctMi43OWM1LjUyLDAsNS41MiwwLDUuNTIsMGMwLDMuNjksMCwzLjY5LDAsMy42OSAgICAgICBjLTIuMDQsMC0yLjA0LDAtMi4wNCwwYy0wLjM4LTEuMDUtMS4zNi0xLjg4LTIuNTctMS44OHMtMi4yNywwLjgzLTIuNjUsMS44OGMtMS4xMywwLTEuMTMsMC0xLjEzLDBMMi44LDQwLjMyeiBNNi41OCw0My4wNCAgICAgICBjLTAuNTMsMC0wLjkxLTAuMzgtMC45MS0wLjkxYzAtMC40NSwwLjM4LTAuOTEsMC45MS0wLjkxYzAuNDUsMCwwLjksMC40NiwwLjksMC45MUM3LjQ4LDQyLjY2LDcuMDMsNDMuMDQsNi41OCw0My4wNHogICAgICAgIE0yMy4yOCw0My4wNGMtMC41MywwLTAuOS0wLjM4LTAuOS0wLjkxYzAtMC40NSwwLjM3LTAuOTEsMC45LTAuOTFjMC41MywwLDAuOTEsMC40NiwwLjkxLDAuOTEgICAgICAgQzI0LjE5LDQyLjY2LDIzLjgxLDQzLjA0LDIzLjI4LDQzLjA0eiIvPiYjeGE7CQkJCTwvZz4mI3hhOwkJCQk8ZyBpZD0ic2hhcGU1NTA0LTE0IiB0cmFuc2Zvcm09InRyYW5zbGF0ZSgxLjMxNzczLC0yLjEzMjg3KSI+JiN4YTsJCQkJCTx0aXRsZSBpZD0idGl0bGUxMTQxOTIiPlNoZWV0LjU1MDQ8L3RpdGxlPiYjeGE7CQkJCQk8cGF0aCBpZD0icGF0aDExNDE5NCIgaW5rc2NhcGU6Y29ubmVjdG9yLWN1cnZhdHVyZT0iMCIgc3R5bGU9ImZpbGw6IzAwQjBGMDsiIGQ9Ik0wLDEwLjU2VjQ1aDU4LjUyVjEwLjU2SDB6Ii8+JiN4YTsJCQkJPC9nPiYjeGE7CQkJPC9nPiYjeGE7CQk8L2c+JiN4YTsJCTxnIGlkPSJncm91cDU1MDUtMTYiIHRyYW5zZm9ybT0idHJhbnNsYXRlKDQuMjkwNDUsLTYuNzUwMDEpIj4mI3hhOwkJCTx0aXRsZSBpZD0idGl0bGUxMTQxOTkiPldlYjwvdGl0bGU+JiN4YTsJCQk8ZyBpZD0ic2hhcGU1NTA2LTE3Ij4mI3hhOwkJCQk8dGl0bGUgaWQ9InRpdGxlMTE0MjAxIj5TaGVldC41NTA2PC90aXRsZT4mI3hhOwkJCQk8cGF0aCBpZD0icGF0aDExNDIwMyIgaW5rc2NhcGU6Y29ubmVjdG9yLWN1cnZhdHVyZT0iMCIgc3R5bGU9ImZpbGw6I0ZGRkZGRjsiIGQ9Ik0wLDIxLjg3VjQ1aDUyLjg3VjIxLjg3SDB6Ii8+JiN4YTsJCQk8L2c+JiN4YTsJCQk8ZyBpZD0ic2hhcGU1NTA3LTE5IiB0cmFuc2Zvcm09InRyYW5zbGF0ZSgwLC0yMy4xMzA5KSI+JiN4YTsJCQkJPHRpdGxlIGlkPSJ0aXRsZTExNDIwNiI+U2hlZXQuNTUwNzwvdGl0bGU+JiN4YTsJCQkJPHBhdGggaWQ9InBhdGgxMTQyMDgiIGlua3NjYXBlOmNvbm5lY3Rvci1jdXJ2YXR1cmU9IjAiIHN0eWxlPSJmaWxsOiM1MDUwNTA7IiBkPSJNMCw0Mi41NVY0NWg1Mi44N3YtMi40NUgweiIvPiYjeGE7CQkJPC9nPiYjeGE7CQkJPGcgaWQ9InNoYXBlNTUwOC0yMSIgdHJhbnNmb3JtPSJ0cmFuc2xhdGUoNTAuNzc0LC0yMy44MzE5KSI+JiN4YTsJCQkJPHRpdGxlIGlkPSJ0aXRsZTExNDIxMSI+U2hlZXQuNTUwODwvdGl0bGU+JiN4YTsJCQkJPHBhdGggaWQ9InBhdGgxMTQyMTMiIGlua3NjYXBlOmNvbm5lY3Rvci1jdXJ2YXR1cmU9IjAiIHN0eWxlPSJmaWxsOiNGOUY3Rjg7IiBkPSJNMS4wNSw0NWMtMC4zMSwwLTAuMzEsMC0wLjMxLDAgICAgICBjLTAuMTUtMC4zMy0wLjE1LTAuMzMtMC4xNS0wLjMzYy0wLjA2LTAuMDQtMC4wNi0wLjA0LTAuMDYtMC4wOWwwLDBjMCwwLjA1LDAsMC4wNSwwLDAuMDlDMC4zMyw0NSwwLjMzLDQ1LDAuMzMsNDUgICAgICBDMCw0NSwwLDQ1LDAsNDVjMC4zNy0wLjUzLDAuMzctMC41MywwLjM3LTAuNTNjLTAuMy0wLjUyLTAuMy0wLjUyLTAuMy0wLjUyYzAuMywwLDAuMywwLDAuMywwYzAuMTYsMC4zNSwwLjE2LDAuMzUsMC4xNiwwLjM1ICAgICAgdjAuMDRsMCwwbDAuMDYtMC4wNGMwLjE1LTAuMzUsMC4xNS0wLjM1LDAuMTUtMC4zNWMwLjMxLDAsMC4zMSwwLDAuMzEsMEMwLjcsNDQuNDcsMC43LDQ0LjQ3LDAuNyw0NC40N0wxLjA1LDQ1eiIvPiYjeGE7CQkJPC9nPiYjeGE7CQkJPGcgaWQ9InNoYXBlNTUwOS0yMyIgdHJhbnNmb3JtPSJ0cmFuc2xhdGUoNC45MDIzMiwtMTcuODczOSkiPiYjeGE7CQkJCTx0aXRsZSBpZD0idGl0bGUxMTQyMTYiPlNoZWV0LjU1MDk8L3RpdGxlPiYjeGE7CQkJCTxwYXRoIGlkPSJwYXRoMTE0MjE4IiBpbmtzY2FwZTpjb25uZWN0b3ItY3VydmF0dXJlPSIwIiBzdHlsZT0iZmlsbDojREZERkRGOyIgZD0iTTAsNDMuMjVWNDVoMjMuODF2LTEuNzVIMHoiLz4mI3hhOwkJCTwvZz4mI3hhOwkJCTxnIGlkPSJzaGFwZTU1MTAtMjUiIHRyYW5zZm9ybT0idHJhbnNsYXRlKDQuOTAyMzIsLTE0LjM2OTIpIj4mI3hhOwkJCQk8dGl0bGUgaWQ9InRpdGxlMTE0MjIxIj5TaGVldC41NTEwPC90aXRsZT4mI3hhOwkJCQk8cGF0aCBpZD0icGF0aDExNDIyMyIgaW5rc2NhcGU6Y29ubmVjdG9yLWN1cnZhdHVyZT0iMCIgc3R5bGU9ImZpbGw6I0RGREZERjsiIGQ9Ik0wLDQzLjZWNDVoMjMuODF2LTEuNEgweiIvPiYjeGE7CQkJPC9nPiYjeGE7CQkJPGcgaWQ9InNoYXBlNTUxMS0yNyIgdHJhbnNmb3JtPSJ0cmFuc2xhdGUoNC45MDIzMiwtMTAuODY0NSkiPiYjeGE7CQkJCTx0aXRsZSBpZD0idGl0bGUxMTQyMjYiPlNoZWV0LjU1MTE8L3RpdGxlPiYjeGE7CQkJCTxwYXRoIGlkPSJwYXRoMTE0MjI4IiBpbmtzY2FwZTpjb25uZWN0b3ItY3VydmF0dXJlPSIwIiBzdHlsZT0iZmlsbDojREZERkRGOyIgZD0iTTAsNDMuNlY0NWgyMy44MXYtMS40SDB6Ii8+JiN4YTsJCQk8L2c+JiN4YTsJCQk8ZyBpZD0ic2hhcGU1NTEyLTI5IiB0cmFuc2Zvcm09InRyYW5zbGF0ZSg0LjkwMjMyLC03LjM1OTg0KSI+JiN4YTsJCQkJPHRpdGxlIGlkPSJ0aXRsZTExNDIzMSI+U2hlZXQuNTUxMjwvdGl0bGU+JiN4YTsJCQkJPHBhdGggaWQ9InBhdGgxMTQyMzMiIGlua3NjYXBlOmNvbm5lY3Rvci1jdXJ2YXR1cmU9IjAiIHN0eWxlPSJmaWxsOiNERkRGREY7IiBkPSJNMCw0My42VjQ1aDIzLjgxdi0xLjRIMHoiLz4mI3hhOwkJCTwvZz4mI3hhOwkJCTxnIGlkPSJzaGFwZTU1MTMtMzEiIHRyYW5zZm9ybT0idHJhbnNsYXRlKDQuOTAyMzIsLTMuODU1MTUpIj4mI3hhOwkJCQk8dGl0bGUgaWQ9InRpdGxlMTE0MjM2Ij5TaGVldC41NTEzPC90aXRsZT4mI3hhOwkJCQk8cGF0aCBpZD0icGF0aDExNDIzOCIgaW5rc2NhcGU6Y29ubmVjdG9yLWN1cnZhdHVyZT0iMCIgc3R5bGU9ImZpbGw6I0RGREZERjsiIGQ9Ik0wLDQzLjZWNDVoMjMuODF2LTEuNEgweiIvPiYjeGE7CQkJPC9nPiYjeGE7CQkJPGcgaWQ9InNoYXBlNTUxNC0zMyIgdHJhbnNmb3JtPSJ0cmFuc2xhdGUoMzAuODE0NiwtMy44NTUxNSkiPiYjeGE7CQkJCTx0aXRsZSBpZD0idGl0bGUxMTQyNDEiPlNoZWV0LjU1MTQ8L3RpdGxlPiYjeGE7CQkJCTxwYXRoIGlkPSJwYXRoMTE0MjQzIiBpbmtzY2FwZTpjb25uZWN0b3ItY3VydmF0dXJlPSIwIiBzdHlsZT0iZmlsbDojREZERkRGOyIgZD0iTTAsMjkuMjNWNDVoMTguNTZWMjkuMjNIMHoiLz4mI3hhOwkJCTwvZz4mI3hhOwkJPC9nPiYjeGE7CTwvZz4mI3hhOzwvZz4mI3hhOzwvc3ZnPg==;rounded=1;fontFamily=Lucida Console;fontSize=14;strokeColor=#007FFF;fillColor=#ffffff;opacity=80;" vertex="1" parent="1">
          <mxGeometry x="915" y="665" width="61" height="45" as="geometry" />
        </mxCell>
        <mxCell id="NkLvIqLFpbnPFktaiqOG-64" value="Integration" style="text;html=1;resizable=0;autosize=1;align=center;verticalAlign=middle;points=[];fillColor=none;strokeColor=none;rounded=0;fontFamily=Helvetica;fontSize=12;opacity=80;" vertex="1" parent="1">
          <mxGeometry x="1062.25" y="560" width="70" height="20" as="geometry" />
        </mxCell>
        <mxCell id="NkLvIqLFpbnPFktaiqOG-65" value="" style="shape=image;verticalLabelPosition=bottom;labelBackgroundColor=#ffffff;verticalAlign=top;aspect=fixed;imageAspect=0;image=data:image/svg+xml,PHN2ZyB4bWxuczpkYz0iaHR0cDovL3B1cmwub3JnL2RjL2VsZW1lbnRzLzEuMS8iIHhtbG5zOmNjPSJodHRwOi8vY3JlYXRpdmVjb21tb25zLm9yZy9ucyMiIHhtbG5zOnJkZj0iaHR0cDovL3d3dy53My5vcmcvMTk5OS8wMi8yMi1yZGYtc3ludGF4LW5zIyIgeG1sbnM6c3ZnPSJodHRwOi8vd3d3LnczLm9yZy8yMDAwL3N2ZyIgeG1sbnM9Imh0dHA6Ly93d3cudzMub3JnLzIwMDAvc3ZnIiB4bWxuczpzb2RpcG9kaT0iaHR0cDovL3NvZGlwb2RpLnNvdXJjZWZvcmdlLm5ldC9EVEQvc29kaXBvZGktMC5kdGQiIHhtbG5zOmlua3NjYXBlPSJodHRwOi8vd3d3Lmlua3NjYXBlLm9yZy9uYW1lc3BhY2VzL2lua3NjYXBlIiB2ZXJzaW9uPSIxLjEiIGlkPSJzdmc2MDYwNyIgaW5rc2NhcGU6dmVyc2lvbj0iMC45Mi4zICgyNDA1NTQ2LCAyMDE4LTAzLTExKSIgc29kaXBvZGk6ZG9jbmFtZT0iYXp1cmVfcG9ydGFsX2xvZ2ljX2FwcHMuc3ZnIiB4PSIwcHgiIHk9IjBweCIgdmlld0JveD0iMCAwIDgyLjQ5IDY0LjA1OTg2OCIgeG1sOnNwYWNlPSJwcmVzZXJ2ZSIgd2lkdGg9IjgyLjQ4OTk5OCIgaGVpZ2h0PSI2NC4wNTk4NjgiPjxtZXRhZGF0YSBpZD0ibWV0YWRhdGE5NTI0Ij48cmRmOlJERj48Y2M6V29yayByZGY6YWJvdXQ9IiI+PGRjOmZvcm1hdD5pbWFnZS9zdmcreG1sPC9kYzpmb3JtYXQ+PGRjOnR5cGUgcmRmOnJlc291cmNlPSJodHRwOi8vcHVybC5vcmcvZGMvZGNtaXR5cGUvU3RpbGxJbWFnZSIvPjxkYzp0aXRsZS8+PC9jYzpXb3JrPjwvcmRmOlJERj48L21ldGFkYXRhPjxkZWZzIGlkPSJkZWZzOTUyMiI+JiN4YTsJJiN4YTsmI3hhOwkmI3hhOyYjeGE7CSYjeGE7JiN4YTsJJiN4YTsmI3hhOwkmI3hhOyYjeGE7CSYjeGE7JiN4YTsJJiN4YTsmI3hhOwkmI3hhOyYjeGE7CQkmI3hhOwkmI3hhOwkJJiN4YTsJJiN4YTsJCSYjeGE7CSYjeGE7CQkmI3hhOwkmI3hhOwkJJiN4YTsJJiN4YTsJCSYjeGE7CSYjeGE7CQkmI3hhOwk8L2RlZnM+JiN4YTs8ZmlsdGVyIGlkPSJmaWx0ZXJfMiI+JiN4YTsJPGZlR2F1c3NpYW5CbHVyIGlkPSJmZUdhdXNzaWFuQmx1cjYwNTMyIiBzdGREZXZpYXRpb249IjIiLz4mI3hhOzwvZmlsdGVyPiYjeGE7PHNvZGlwb2RpOm5hbWVkdmlldyBib3JkZXJjb2xvcj0iIzY2NjY2NiIgYm9yZGVyb3BhY2l0eT0iMSIgZml0LW1hcmdpbi1ib3R0b209IjAiIGZpdC1tYXJnaW4tbGVmdD0iMCIgZml0LW1hcmdpbi1yaWdodD0iMCIgZml0LW1hcmdpbi10b3A9IjAiIGdyaWR0b2xlcmFuY2U9IjEwIiBndWlkZXRvbGVyYW5jZT0iMTAiIGlkPSJuYW1lZHZpZXc2MDYwOSIgaW5rc2NhcGU6Y3VycmVudC1sYXllcj0ic3ZnNjA2MDciIGlua3NjYXBlOmN4PSItMTcuNTIzODc3IiBpbmtzY2FwZTpjeT0iMjUuOTk4MTIzIiBpbmtzY2FwZTpwYWdlb3BhY2l0eT0iMCIgaW5rc2NhcGU6cGFnZXNoYWRvdz0iMiIgaW5rc2NhcGU6d2luZG93LWhlaWdodD0iMTAxNyIgaW5rc2NhcGU6d2luZG93LW1heGltaXplZD0iMSIgaW5rc2NhcGU6d2luZG93LXdpZHRoPSIxOTIwIiBpbmtzY2FwZTp3aW5kb3cteD0iLTgiIGlua3NjYXBlOndpbmRvdy15PSItOCIgaW5rc2NhcGU6em9vbT0iNS4xOTI4MDM5IiBvYmplY3R0b2xlcmFuY2U9IjEwIiBwYWdlY29sb3I9IiNmZmZmZmYiIHNob3dncmlkPSJmYWxzZSI+JiN4YTsJPC9zb2RpcG9kaTpuYW1lZHZpZXc+JiN4YTsmI3hhOzxwYXRoIGlkPSJwYXRoNjA1NDUiIGlua3NjYXBlOmNvbm5lY3Rvci1jdXJ2YXR1cmU9IjAiIHN0eWxlPSJmaWxsOiM1OWI0ZDkiIGQ9Im0gNDIuODksMjUuOTI2MyB2IC04LjI1IGggLTQuMTIgdiA4LjI1IGMgMCwxLjQ4IC0xLjMyLDIuOCAtMy40NywzLjQ2IGwgLTUuNjEsMS4xNiBjIC0zLjc5LDEuMTUgLTYuNDMsNC4xMiAtNi40Myw3LjQyIHYgOS40IGggNC4xMiB2IC05LjQgYyAwLC0xLjQ4IDEuMzIsLTIuOCAzLjQ3LC0zLjQ2IGwgNS42MSwtMS4zMiBjIDMuNDYsLTAuNjYgNi4xLC0zLjYzIDYuNDMsLTcuMjYgeiIvPiYjeGE7JiN4YTs8cGF0aCBpZD0icGF0aDYwNTUzIiBpbmtzY2FwZTpjb25uZWN0b3ItY3VydmF0dXJlPSIwIiBzdHlsZT0iZmlsbDojN2ZiYTAwIiBkPSJtIDMyLjM0LDUxLjY1NjMgdiAtNy41OCBjIDAsLTEuODIgLTEuNDksLTMuMyAtMy4zLC0zLjMgaCAtNy41OSBjIC0xLjgyLDAgLTMuMywxLjQ4IC0zLjMsMy4zIHYgNy41OCBjIDAsMS44MiAxLjQ4LDMuMyAzLjMsMy4zIGggNy41OSBjIDEuODEsMCAzLjMsLTEuNDggMy4zLC0zLjMgeiIvPiYjeGE7JiN4YTs8cGF0aCBpZD0icGF0aDYwNTYxIiBpbmtzY2FwZTpjb25uZWN0b3ItY3VydmF0dXJlPSIwIiBzdHlsZT0iZmlsbDojNTliNGQ5IiBkPSJtIDM4LjI4LDI1LjkyNjMgdiAtOC4yNSBoIDQuMTIgdiA4LjI1IGMgMCwxLjQ4IDEuMzIsMi44IDMuNDcsMy40NiBsIDYuOTMsMS40OSBjIDMuNzksMS4xNSA2LjQzLDQuMTIgNi40Myw3LjQyIHYgOS40IGggLTQuMTIgdiAtOS40IGMgMCwtMS40OCAtMS4zMiwtMi44IC0zLjQ3LC0zLjQ2IGwgLTYuOTMsLTEuNDkgYyAtMy43OSwtMS4xNSAtNi40MywtNC4xMiAtNi40MywtNy40MiB6Ii8+JiN4YTsmI3hhOzxwYXRoIGlkPSJwYXRoNjA1NjkiIGlua3NjYXBlOmNvbm5lY3Rvci1jdXJ2YXR1cmU9IjAiIHN0eWxlPSJmaWxsOiM3ZmJhMDAiIGQ9Im0gNTAuMTYsNTEuOTg2MyB2IC03LjU4IGMgMCwtMS44MiAxLjQ4LC0zLjMgMy4zLC0zLjMgaCA3LjU5IGMgMS44MSwwIDMuMywxLjQ4IDMuMywzLjMgdiA3LjU4IGMgMCwxLjgyIC0xLjQ5LDMuMyAtMy4zLDMuMyBoIC03LjU5IGMgLTEuODIsMCAtMy4zLC0xLjQ4IC0zLjMsLTMuMyB6Ii8+JiN4YTsmI3hhOyYjeGE7JiN4YTs8cGF0aCBpZD0icGF0aDYwNTg1IiBpbmtzY2FwZTpjb25uZWN0b3ItY3VydmF0dXJlPSIwIiBzdHlsZT0iZmlsbDojMDA3MmM2IiBkPSJtIDQzLjcyLDEwLjA4NjMgdiA2LjExIGggLTYuMSB2IC02LjExIHogbSAxLjMyLC00LjYyIEggMzYuMyBjIC0xLjgyLDAgLTMuMywxLjQ5IC0zLjMsMy4zIHYgOC43NCBjIDAsMS44MiAxLjQ4LDMuMyAzLjMsMy4zIGggOC43NCBjIDEuODIsMCAzLjMsLTEuNDggMy4zLC0zLjMgdiAtOC43NCBjIDAsLTEuODEgLTEuNDgsLTMuMyAtMy4zLC0zLjMgeiIvPiYjeGE7JiN4YTs8cGF0aCBpZD0icGF0aDYwNTkzIiBpbmtzY2FwZTpjb25uZWN0b3ItY3VydmF0dXJlPSIwIiBzdHlsZT0iZmlsbDojNTliNGQ5IiBkPSJtIDEzLjAzLDY0LjAzNjMgYyAtMi42NCwwLjE2IC01LjI4LC0wLjUgLTcuNDIsLTEuODIgLTEuNDksLTEuMzIgLTIuMTUsLTMuNDYgLTIuMTUsLTYuNTkgdiAtMTcuMTYgYyAwLC0yLjgxIC0xLjE1LC00LjI5IC0zLjQ2LC00LjI5IHYgLTQuMjkgYyAyLjMxLDAgMy40NiwtMS40OSAzLjQ2LC00LjQ2IHYgLTE2LjgzIGMgMCwtMy4xMyAwLjY2LC01LjQ0IDIuMTUsLTYuNzYgQyA3LjA5LDAuNTE2Mjk5OTggOS41NywwLjAxNjI5OTk4IDEzLjAzLDAuMDE2Mjk5OTggViA0LjMwNjMgYyAtMi40NywwIC0zLjc5LDEuMzIgLTMuNzksNC4xMyB2IDE2LjUgYyAwLDMuNzkgLTEuMTYsNi4xIC0zLjYzLDcuMDkgMi4zMSwwLjk5IDMuNjMsMy4zIDMuNjMsNy4xIHYgMTYuMzMgYyAwLDEuMTYgMC4xNiwyLjMxIDAuODIsMy4zIDAuODMsMC42NiAxLjgyLDEuMTYgMi44MSwwLjk5IDAsMCAwLjE2LDQuMjkgMC4xNiw0LjI5IHoiLz4mI3hhOyYjeGE7PHBhdGggaWQ9InBhdGg2MDYwMSIgaW5rc2NhcGU6Y29ubmVjdG9yLWN1cnZhdHVyZT0iMCIgc3R5bGU9ImZpbGw6IzU5YjRkOSIgZD0ibSA2OS40NiwwLjAyNjI5OTk4IGMgMi42NCwtMC4xNyA1LjI4LDAuNDkgNy40MiwxLjgxMDAwMDAyIDEuNDksMS4zMiAyLjE1LDMuNDcgMi4xNSw2LjYgdiAxNy4xNiBjIDAsMi44MSAxLjE1LDQuMjkgMy40Niw0LjI5IHYgNC4yOSBjIC0yLjMxLDAgLTMuNDYsMS40OSAtMy40Niw0LjQ2IHYgMTYuNjYgYyAwLDMuMTQgLTAuNjYsNS40NCAtMi4xNSw2Ljc2IC0xLjQ4LDEuMzIgLTMuOTYsMS45OCAtNy40MiwxLjk4IHYgLTQuMjggYyAyLjQ3LDAgMy43OSwtMS4zMiAzLjc5LC00LjEzIHYgLTE2LjUgYyAwLC0zLjc5IDEuMTYsLTYuMSAzLjYzLC03LjA5IC0yLjMxLC0wLjk5IC0zLjYzLC0zLjMgLTMuNjMsLTcuMSB2IC0xNi4zMyBjIDAsLTEuMTYgLTAuMTYsLTIuMzEgLTAuODIsLTMuMyAtMC44MywtMC42NiAtMS44MiwtMS4xNiAtMi44MSwtMC45OSB6Ii8+JiN4YTs8L3N2Zz4=;" vertex="1" parent="1">
          <mxGeometry x="1071" y="665" width="57.66" height="45" as="geometry" />
        </mxCell>
        <mxCell id="NkLvIqLFpbnPFktaiqOG-66" style="edgeStyle=orthogonalEdgeStyle;rounded=0;orthogonalLoop=1;jettySize=auto;html=1;exitX=0.989;exitY=0.315;exitDx=0;exitDy=0;exitPerimeter=0;" edge="1" parent="1" source="NkLvIqLFpbnPFktaiqOG-19">
          <mxGeometry relative="1" as="geometry">
            <mxPoint x="1150" y="370" as="sourcePoint" />
            <mxPoint x="1165" y="377" as="targetPoint" />
          </mxGeometry>
        </mxCell>
        <mxCell id="NkLvIqLFpbnPFktaiqOG-67" value="" style="shape=image;verticalLabelPosition=bottom;labelBackgroundColor=#ffffff;verticalAlign=top;aspect=fixed;imageAspect=0;image=data:image/svg+xml,PHN2ZyB4bWxuczpkYz0iaHR0cDovL3B1cmwub3JnL2RjL2VsZW1lbnRzLzEuMS8iIHhtbG5zOmNjPSJodHRwOi8vY3JlYXRpdmVjb21tb25zLm9yZy9ucyMiIHhtbG5zOnJkZj0iaHR0cDovL3d3dy53My5vcmcvMTk5OS8wMi8yMi1yZGYtc3ludGF4LW5zIyIgeG1sbnM6c3ZnPSJodHRwOi8vd3d3LnczLm9yZy8yMDAwL3N2ZyIgeG1sbnM9Imh0dHA6Ly93d3cudzMub3JnLzIwMDAvc3ZnIiB4bWxuczpzb2RpcG9kaT0iaHR0cDovL3NvZGlwb2RpLnNvdXJjZWZvcmdlLm5ldC9EVEQvc29kaXBvZGktMC5kdGQiIHhtbG5zOmlua3NjYXBlPSJodHRwOi8vd3d3Lmlua3NjYXBlLm9yZy9uYW1lc3BhY2VzL2lua3NjYXBlIiB2ZXJzaW9uPSIxLjEiIGlkPSJzdmc2MDYwNyIgaW5rc2NhcGU6dmVyc2lvbj0iMC45Mi4zICgyNDA1NTQ2LCAyMDE4LTAzLTExKSIgc29kaXBvZGk6ZG9jbmFtZT0iYXp1cmVfcG9ydGFsX2xvZ2ljX2FwcHMuc3ZnIiB4PSIwcHgiIHk9IjBweCIgdmlld0JveD0iMCAwIDgyLjQ5IDY0LjA1OTg2OCIgeG1sOnNwYWNlPSJwcmVzZXJ2ZSIgd2lkdGg9IjgyLjQ4OTk5OCIgaGVpZ2h0PSI2NC4wNTk4NjgiPjxtZXRhZGF0YSBpZD0ibWV0YWRhdGE5NTI0Ij48cmRmOlJERj48Y2M6V29yayByZGY6YWJvdXQ9IiI+PGRjOmZvcm1hdD5pbWFnZS9zdmcreG1sPC9kYzpmb3JtYXQ+PGRjOnR5cGUgcmRmOnJlc291cmNlPSJodHRwOi8vcHVybC5vcmcvZGMvZGNtaXR5cGUvU3RpbGxJbWFnZSIvPjxkYzp0aXRsZS8+PC9jYzpXb3JrPjwvcmRmOlJERj48L21ldGFkYXRhPjxkZWZzIGlkPSJkZWZzOTUyMiI+JiN4YTsJJiN4YTsmI3hhOwkmI3hhOyYjeGE7CSYjeGE7JiN4YTsJJiN4YTsmI3hhOwkmI3hhOyYjeGE7CSYjeGE7JiN4YTsJJiN4YTsmI3hhOwkmI3hhOyYjeGE7CQkmI3hhOwkmI3hhOwkJJiN4YTsJJiN4YTsJCSYjeGE7CSYjeGE7CQkmI3hhOwkmI3hhOwkJJiN4YTsJJiN4YTsJCSYjeGE7CSYjeGE7CQkmI3hhOwk8L2RlZnM+JiN4YTs8ZmlsdGVyIGlkPSJmaWx0ZXJfMiI+JiN4YTsJPGZlR2F1c3NpYW5CbHVyIGlkPSJmZUdhdXNzaWFuQmx1cjYwNTMyIiBzdGREZXZpYXRpb249IjIiLz4mI3hhOzwvZmlsdGVyPiYjeGE7PHNvZGlwb2RpOm5hbWVkdmlldyBib3JkZXJjb2xvcj0iIzY2NjY2NiIgYm9yZGVyb3BhY2l0eT0iMSIgZml0LW1hcmdpbi1ib3R0b209IjAiIGZpdC1tYXJnaW4tbGVmdD0iMCIgZml0LW1hcmdpbi1yaWdodD0iMCIgZml0LW1hcmdpbi10b3A9IjAiIGdyaWR0b2xlcmFuY2U9IjEwIiBndWlkZXRvbGVyYW5jZT0iMTAiIGlkPSJuYW1lZHZpZXc2MDYwOSIgaW5rc2NhcGU6Y3VycmVudC1sYXllcj0ic3ZnNjA2MDciIGlua3NjYXBlOmN4PSItMTcuNTIzODc3IiBpbmtzY2FwZTpjeT0iMjUuOTk4MTIzIiBpbmtzY2FwZTpwYWdlb3BhY2l0eT0iMCIgaW5rc2NhcGU6cGFnZXNoYWRvdz0iMiIgaW5rc2NhcGU6d2luZG93LWhlaWdodD0iMTAxNyIgaW5rc2NhcGU6d2luZG93LW1heGltaXplZD0iMSIgaW5rc2NhcGU6d2luZG93LXdpZHRoPSIxOTIwIiBpbmtzY2FwZTp3aW5kb3cteD0iLTgiIGlua3NjYXBlOndpbmRvdy15PSItOCIgaW5rc2NhcGU6em9vbT0iNS4xOTI4MDM5IiBvYmplY3R0b2xlcmFuY2U9IjEwIiBwYWdlY29sb3I9IiNmZmZmZmYiIHNob3dncmlkPSJmYWxzZSI+JiN4YTsJPC9zb2RpcG9kaTpuYW1lZHZpZXc+JiN4YTsmI3hhOzxwYXRoIGlkPSJwYXRoNjA1NDUiIGlua3NjYXBlOmNvbm5lY3Rvci1jdXJ2YXR1cmU9IjAiIHN0eWxlPSJmaWxsOiM1OWI0ZDkiIGQ9Im0gNDIuODksMjUuOTI2MyB2IC04LjI1IGggLTQuMTIgdiA4LjI1IGMgMCwxLjQ4IC0xLjMyLDIuOCAtMy40NywzLjQ2IGwgLTUuNjEsMS4xNiBjIC0zLjc5LDEuMTUgLTYuNDMsNC4xMiAtNi40Myw3LjQyIHYgOS40IGggNC4xMiB2IC05LjQgYyAwLC0xLjQ4IDEuMzIsLTIuOCAzLjQ3LC0zLjQ2IGwgNS42MSwtMS4zMiBjIDMuNDYsLTAuNjYgNi4xLC0zLjYzIDYuNDMsLTcuMjYgeiIvPiYjeGE7JiN4YTs8cGF0aCBpZD0icGF0aDYwNTUzIiBpbmtzY2FwZTpjb25uZWN0b3ItY3VydmF0dXJlPSIwIiBzdHlsZT0iZmlsbDojN2ZiYTAwIiBkPSJtIDMyLjM0LDUxLjY1NjMgdiAtNy41OCBjIDAsLTEuODIgLTEuNDksLTMuMyAtMy4zLC0zLjMgaCAtNy41OSBjIC0xLjgyLDAgLTMuMywxLjQ4IC0zLjMsMy4zIHYgNy41OCBjIDAsMS44MiAxLjQ4LDMuMyAzLjMsMy4zIGggNy41OSBjIDEuODEsMCAzLjMsLTEuNDggMy4zLC0zLjMgeiIvPiYjeGE7JiN4YTs8cGF0aCBpZD0icGF0aDYwNTYxIiBpbmtzY2FwZTpjb25uZWN0b3ItY3VydmF0dXJlPSIwIiBzdHlsZT0iZmlsbDojNTliNGQ5IiBkPSJtIDM4LjI4LDI1LjkyNjMgdiAtOC4yNSBoIDQuMTIgdiA4LjI1IGMgMCwxLjQ4IDEuMzIsMi44IDMuNDcsMy40NiBsIDYuOTMsMS40OSBjIDMuNzksMS4xNSA2LjQzLDQuMTIgNi40Myw3LjQyIHYgOS40IGggLTQuMTIgdiAtOS40IGMgMCwtMS40OCAtMS4zMiwtMi44IC0zLjQ3LC0zLjQ2IGwgLTYuOTMsLTEuNDkgYyAtMy43OSwtMS4xNSAtNi40MywtNC4xMiAtNi40MywtNy40MiB6Ii8+JiN4YTsmI3hhOzxwYXRoIGlkPSJwYXRoNjA1NjkiIGlua3NjYXBlOmNvbm5lY3Rvci1jdXJ2YXR1cmU9IjAiIHN0eWxlPSJmaWxsOiM3ZmJhMDAiIGQ9Im0gNTAuMTYsNTEuOTg2MyB2IC03LjU4IGMgMCwtMS44MiAxLjQ4LC0zLjMgMy4zLC0zLjMgaCA3LjU5IGMgMS44MSwwIDMuMywxLjQ4IDMuMywzLjMgdiA3LjU4IGMgMCwxLjgyIC0xLjQ5LDMuMyAtMy4zLDMuMyBoIC03LjU5IGMgLTEuODIsMCAtMy4zLC0xLjQ4IC0zLjMsLTMuMyB6Ii8+JiN4YTsmI3hhOyYjeGE7JiN4YTs8cGF0aCBpZD0icGF0aDYwNTg1IiBpbmtzY2FwZTpjb25uZWN0b3ItY3VydmF0dXJlPSIwIiBzdHlsZT0iZmlsbDojMDA3MmM2IiBkPSJtIDQzLjcyLDEwLjA4NjMgdiA2LjExIGggLTYuMSB2IC02LjExIHogbSAxLjMyLC00LjYyIEggMzYuMyBjIC0xLjgyLDAgLTMuMywxLjQ5IC0zLjMsMy4zIHYgOC43NCBjIDAsMS44MiAxLjQ4LDMuMyAzLjMsMy4zIGggOC43NCBjIDEuODIsMCAzLjMsLTEuNDggMy4zLC0zLjMgdiAtOC43NCBjIDAsLTEuODEgLTEuNDgsLTMuMyAtMy4zLC0zLjMgeiIvPiYjeGE7JiN4YTs8cGF0aCBpZD0icGF0aDYwNTkzIiBpbmtzY2FwZTpjb25uZWN0b3ItY3VydmF0dXJlPSIwIiBzdHlsZT0iZmlsbDojNTliNGQ5IiBkPSJtIDEzLjAzLDY0LjAzNjMgYyAtMi42NCwwLjE2IC01LjI4LC0wLjUgLTcuNDIsLTEuODIgLTEuNDksLTEuMzIgLTIuMTUsLTMuNDYgLTIuMTUsLTYuNTkgdiAtMTcuMTYgYyAwLC0yLjgxIC0xLjE1LC00LjI5IC0zLjQ2LC00LjI5IHYgLTQuMjkgYyAyLjMxLDAgMy40NiwtMS40OSAzLjQ2LC00LjQ2IHYgLTE2LjgzIGMgMCwtMy4xMyAwLjY2LC01LjQ0IDIuMTUsLTYuNzYgQyA3LjA5LDAuNTE2Mjk5OTggOS41NywwLjAxNjI5OTk4IDEzLjAzLDAuMDE2Mjk5OTggViA0LjMwNjMgYyAtMi40NywwIC0zLjc5LDEuMzIgLTMuNzksNC4xMyB2IDE2LjUgYyAwLDMuNzkgLTEuMTYsNi4xIC0zLjYzLDcuMDkgMi4zMSwwLjk5IDMuNjMsMy4zIDMuNjMsNy4xIHYgMTYuMzMgYyAwLDEuMTYgMC4xNiwyLjMxIDAuODIsMy4zIDAuODMsMC42NiAxLjgyLDEuMTYgMi44MSwwLjk5IDAsMCAwLjE2LDQuMjkgMC4xNiw0LjI5IHoiLz4mI3hhOyYjeGE7PHBhdGggaWQ9InBhdGg2MDYwMSIgaW5rc2NhcGU6Y29ubmVjdG9yLWN1cnZhdHVyZT0iMCIgc3R5bGU9ImZpbGw6IzU5YjRkOSIgZD0ibSA2OS40NiwwLjAyNjI5OTk4IGMgMi42NCwtMC4xNyA1LjI4LDAuNDkgNy40MiwxLjgxMDAwMDAyIDEuNDksMS4zMiAyLjE1LDMuNDcgMi4xNSw2LjYgdiAxNy4xNiBjIDAsMi44MSAxLjE1LDQuMjkgMy40Niw0LjI5IHYgNC4yOSBjIC0yLjMxLDAgLTMuNDYsMS40OSAtMy40Niw0LjQ2IHYgMTYuNjYgYyAwLDMuMTQgLTAuNjYsNS40NCAtMi4xNSw2Ljc2IC0xLjQ4LDEuMzIgLTMuOTYsMS45OCAtNy40MiwxLjk4IHYgLTQuMjggYyAyLjQ3LDAgMy43OSwtMS4zMiAzLjc5LC00LjEzIHYgLTE2LjUgYyAwLC0zLjc5IDEuMTYsLTYuMSAzLjYzLC03LjA5IC0yLjMxLC0wLjk5IC0zLjYzLC0zLjMgLTMuNjMsLTcuMSB2IC0xNi4zMyBjIDAsLTEuMTYgLTAuMTYsLTIuMzEgLTAuODIsLTMuMyAtMC44MywtMC42NiAtMS44MiwtMS4xNiAtMi44MSwtMC45OSB6Ii8+JiN4YTs8L3N2Zz4=;" vertex="1" parent="1">
          <mxGeometry x="1071.84" y="605" width="57.66" height="45" as="geometry" />
        </mxCell>
        <mxCell id="NkLvIqLFpbnPFktaiqOG-68" value="" style="shape=image;verticalLabelPosition=bottom;labelBackgroundColor=#ffffff;verticalAlign=top;aspect=fixed;imageAspect=0;image=data:image/png,iVBORw0KGgoAAAANSUhEUgAAAHQAAAB0CAYAAABUmhYnAAAM/ElEQVR4Ae2df4weRRnHKyFIgtFG/uiJrcUaSkPxgIQS/NFQUxr80VJLT5S0KvZCCqf8cRWbooVcLXolghdI+XERCzVtDE0qljRtJaeFHD9sQNETS6j4ozaRlkRpo6ZV/xjzXfK8fXbemdmZ2dnZfd+bSTazu+/u7OzzmWfmmWdm550iUugqCUzphrc59OYhMf6ncTH88+Fs63+8Xyz+4WLjtmL7itb1Y4fGxMTfJrpBFKLjgALelgNbBKDNf2C+mLp+atDtivuuEID94HMPdiTkxgM99s9jLYAXbrowKDybwjDzrpktwIffOtx4LW4k0FP/OyV2TuzMBGkj9JjXoCrf/uvt4vjJ442E2yigaMcGfjIgoBUxIfk8q2eoJ6v20XY3KTQCKISCdstHsE24Z9HoIrH74O5GcK0VKECiCmsClBB5gJGG6rjOUAtQWKp9W/u6BqRcGGApv/jXF2vhGhUojJ0NT20QaH9kIXTjMeyB2MZTNKBoY+rodtRdUGDgxayGKwcKrURJrVuwdT8fTUwMba0UKNpKtCd1C7Mpz0cNVXXbWhlQVDOTpa10LTAjz4xUZjBVAjRVscX+ZfS70RyFDkGBIoOd7CBw1bSy18MhEbpdDQYUGesmJ0FZWLb3wxkR0ukfBOjRE8fE+wYuEu/+xnuTAeQxnNd7b28wqKWBQjPP7Z8tpnxmujjjuvcnqB5Aoc2hoJYCijZzxsAlGUwATVCLjSFTVYwuXtk2tRTQWbdenoOZoJYDCtgwlMpYv95A592xUAkzQS0PFV4l3+AFdP3OjUaYCWp5qJjw5hOcge4/OC7OuPbt9pLAmeJkKPnD9ZkN4QT0+L9PiHetmGWlnRxyguoHFb5fTJJzCU5A5972cWeYBDZB9YMKZ41LsAY6vPteb5gJqh9M6uK4OPOtgKKqfefnP1AaKMAmTXWHi1Er26rXCuiCjUuCwEya6g6TtBSDHjahEOi+iTHxjiX2Vi1BK4qTprrDxTc4RaEQaM9Nc4NqJwedoLpBhWuwyItkBHr/2EOVwSSwCaobVHxEZQpGoDSKQsKvKk5Q7aGib2rSUi3QGNrJC0iCag/VpKVaoOet/nDl1S0Hiv0E1Q4q2lJdUALdceCJ6DAJboJqB1X3cZQS6NzbPlYb0KSpdkAxbqoKbUDhFXIZTSHNCh0nTS0Gq5pc1gb0a1vX1qqdvGAkqGaoqjHTNqDnfnlOY4Cm6tcMFBPL5JAD+tyhA42CSdqaNFUPVh4EzwHtG7mxkUCTpuqB3r7n9pyS5oDOuPnSxgKNCfXq0atzi1bN3jS7sRPIMfOehxxQF+t25Kc/EPsnni/cfvzMLjG0/fviC3cPiKnXX+RUYHpWXtaW/tOvPC/GX382WzkM1Y1po6GnohhDU+jXmVxqEBquGdw12AYXS/CY8uH6G9IryjP/nc/lbQF1dSYApmt4618nxLrHhsXZyz5kBfb8VVe6PiJ3PX9p1f7AzgGvTxDktFTdh1xGHA+QnvwM0zF3MrSAurafPkDpvf589IiA9pHRo4urBLrpF5soO86xLNy6gfJ2tAX0vJt6CwXMBc+BvvzHV8SCdZ/LbahiUdU+tOdHAgDlgPt5eqp9Gejwjs25Z3zijj7x6YeX5No7TKqiTRY8HUMzeUCVhQ+UVV/PzbtvXnYeDnGq2igdiuU2l55PMRc4notj+k0VIz1K2ybm7WgL6Fl9bnOGOFAbODeODApUuTyg+lWBpHMyUKRBv1Hs2qUBIB4ACQKxERwWwBh6asjqWp4eoPGAY/57iH1q/zOgcPeRgGxjV6BI97Mb+/l7iRde/ZXxuTZAka4LVHkG3arHVwUXrgwoBlCsZ4GQAXU1iCBEH6DyfSf/cyoIUBeo8rycGOsKxgBKhlEGdHDbt4yChcDkzRcoujs8XHrrNW1p07NsNZSut9FUKsnIA/ZlbariOAZQqnkyoAs2LNUKlYQlx75Ab96c92zAmJLTpmNXoLivCGq3aigWKkHIgM4Z/KhWqCRcOfYFKmuoqfviA7QIKpVkqiVUjoLQWhpDQ+kZGVDXLguE5guU3werVy4o/NgXqAmqPGEZ1qFrN8EVOAmbChGOXdMoup66LhlQnyEzDgb7HIRuH9UrD9BW3bU4XwYo7tdVv2RAUF4A1ac7UiRk+j0GUBpKy4C+54sXGAWrErorUFSt3MHwxj/eLPQWlQWqgwpnu8q7gxW1q1hnKQZQTO9EyICe1TezMqAACQcCuigUsA9Pkqqg8HMy0FeP/KHNWY+Cpdp426zSVECF01wVADZktRgDKGoDhCBA0RaqhKoSFq41WbYmoKr0dOdQGHhaKqgQAowk8rLIacEihmeJqk7fODrQM5fNyL08F4Run1e5siBUx6huoalcc3Rp03lZQ1Xp6s7JQJGmDmrvPb3GNeMB3Rcm7osOtGyVqxMqnUd7eeXXr3UuNDLQJ17Ylzn84fQv2nRjrzqoEDysXV01jGVRfQe6owM95wb3dRO4hvLRFhplgfDlAAikfTaxDFTlnLdJR77GBJU0SgUWjnxos6u2xgAKFyZCpd0WuPW4ZYsHukCpCigAF0EFNAyz0ZAZFU6AbiLQXLelp/9iJ82BQLiGYl/WAjoGFA4VFu6c1Qu019N9iKsEivRtoEIjZagYz3SBGkND6XuXTEOrdv3JDgVTAYgJ1BYqeWF8tTQGUHpGBnT+0GIrjeHCttVQugczF3jw6Ye6VNf0XJvYRlP5WvHo5kwbmmatpSRsen8cu2i4zbX4t0aEDOiXHrilcqDorsDapYB9nSVKEKqucuk5iIugyk59F/9vDKD4P5wW0C1Pb6scKIQmD51Ba7lQ5f2YQIugyh/Zuli7MYBi6mcL6OG/HzEKVhY0jl2rXEoDXRweTP3TKoAW1Qo6TeX/AIwq16YapGtiAKX8ZVUuBOwyyboMUHRleABg3TzdKoCiqv/knSuNBViGKs/aw2gNwbKJYwAlS7wF1HUIzVdDURhkA0k3+68KoFSY4OhHE6BzRQLqBd+ek/11M92DGNoJQDYg6ZqqgVIfFPlrAV141zJjqaUqk+IyQGUDCX1TwKO0KZaBcsHa7COPlBbFqvsAl7sVsY97T/739AgR7gPM5VuXO8EE1KqB0vQT5LEF9P6fjba9PAlBFZcBivRkA2nvS/vbnh8LqAqyfM4XZgyg/M/yWkAxN9dlCbiyQAFVNpDkvmkVQJGmbja/DBHH0N5bRteJGXd+0FkzY1W5fLC+BRSZd21HVZrbSecAF14seeQGbTrO8ymmsqFEsOqOefsJhjmgru1oJ8ELkdcmQuXtZxtQHwdDCEF1UhpNg0oOBcBEyGkoTpx9/fltxkknCTxGXpsCFWOgMNZ4aAO6+O4bElDFpx9yQWkC1DVPruEss/02oL87cjABtQAKwHVD5SNARLYNKH6YbNaurH0ux3VBla1bI9D1O76TtNRSS+vSVHn0xwgUP/rMBHQp2d12bUxNxb9EyMZQIVDXRTS6DZDP+8SCKo/+EEzEyjYUP8AV6DMB20cQ3XRP1VCL/sNFCxRQk5a2f7luU/iqhGrSTqOGJi31g0nAq4BapJ2FQHGBz/oL9FKTPQ4NVZ6oBj5yMFa5dLHPROzJDpPePxRUzA3WWbbECbEVUKyj6zJWSi+T4rer7RBQVV4hDpL2rYDi4jS0Vl+bKg+RETxVbA0U3RifT/eTlp4uCD6aChcfzehTAZTPWQPFjah6Xad7JqCngUIWLlBh1dpWtQTWCShuSn7ePCCfAmsLVeevJXiq2BkoEpn3zUXJee/gvFdBL4Iqr6ekgqc65wUU7anPV9+qF5vM53RQXdtNDtYLKBLA9zBpukr46hfrDfFpmRyWzb43UCQOIykNs4WDijlC9NGRDTzVNaWAIkGstZss3/JQz1w+Xez5/V4VI6dzpYEmqOVhwgs3vGvECZzu4iBACWoaP3WHi9ptdP8WHR/n88GA4smpTXUDCphoskKGoECRMVi/qUtTDBbG5N7fjIVkmaUVHChB9VkqZ7L0SfH/5ij4VYRKgFJGVz+yJg27SR6la76bXwSaZBUqrhQoMrnvt2PJAQGn/NLp4uGxR0Nx06ZTOVA8Ga7Cyez/RfPz2huvayGE/CEKUMowLLrJNKYK1+g9uzfT60eJowKlN0Lb2s19VjgKFm68LquZ6J1jxbUAxcvBysO0lm5yGwLkJWuvEi/95eVY/NqeUxtQygmB7WSNBUjYCPgUs+5QO1ASAAwnzNTvpNEbFEL8zVgsg4dkZYobA5RnEms99K69qpHVMbQRVmsoZzp/7xD7jQTKXwwz92d99fJajSi08zMHLhMw5o4eP71ELM9nU/YbD5QLCk4KrO0bA/C0r1wsln5vpdg2voNnofH7HQVUliYMKixpB8iwmLGUADYbAwtaR9d/ZP2nMnhI69nXfik/pqOOOxpoR0k6Umb/D/7bgN4c8lwfAAAAAElFTkSuQmCC;" vertex="1" parent="1">
          <mxGeometry x="1528" y="105" width="25" height="25" as="geometry" />
        </mxCell>
        <mxCell id="NkLvIqLFpbnPFktaiqOG-69" value="" style="shape=image;verticalLabelPosition=bottom;labelBackgroundColor=#ffffff;verticalAlign=top;aspect=fixed;imageAspect=0;image=data:image/png,iVBORw0KGgoAAAANSUhEUgAAAHQAAAB0CAYAAABUmhYnAAAM/ElEQVR4Ae2df4weRRnHKyFIgtFG/uiJrcUaSkPxgIQS/NFQUxr80VJLT5S0KvZCCqf8cRWbooVcLXolghdI+XERCzVtDE0qljRtJaeFHD9sQNETS6j4ozaRlkRpo6ZV/xjzXfK8fXbemdmZ2dnZfd+bSTazu+/u7OzzmWfmmWdm550iUugqCUzphrc59OYhMf6ncTH88+Fs63+8Xyz+4WLjtmL7itb1Y4fGxMTfJrpBFKLjgALelgNbBKDNf2C+mLp+atDtivuuEID94HMPdiTkxgM99s9jLYAXbrowKDybwjDzrpktwIffOtx4LW4k0FP/OyV2TuzMBGkj9JjXoCrf/uvt4vjJ442E2yigaMcGfjIgoBUxIfk8q2eoJ6v20XY3KTQCKISCdstHsE24Z9HoIrH74O5GcK0VKECiCmsClBB5gJGG6rjOUAtQWKp9W/u6BqRcGGApv/jXF2vhGhUojJ0NT20QaH9kIXTjMeyB2MZTNKBoY+rodtRdUGDgxayGKwcKrURJrVuwdT8fTUwMba0UKNpKtCd1C7Mpz0cNVXXbWhlQVDOTpa10LTAjz4xUZjBVAjRVscX+ZfS70RyFDkGBIoOd7CBw1bSy18MhEbpdDQYUGesmJ0FZWLb3wxkR0ukfBOjRE8fE+wYuEu/+xnuTAeQxnNd7b28wqKWBQjPP7Z8tpnxmujjjuvcnqB5Aoc2hoJYCijZzxsAlGUwATVCLjSFTVYwuXtk2tRTQWbdenoOZoJYDCtgwlMpYv95A592xUAkzQS0PFV4l3+AFdP3OjUaYCWp5qJjw5hOcge4/OC7OuPbt9pLAmeJkKPnD9ZkN4QT0+L9PiHetmGWlnRxyguoHFb5fTJJzCU5A5972cWeYBDZB9YMKZ41LsAY6vPteb5gJqh9M6uK4OPOtgKKqfefnP1AaKMAmTXWHi1Er26rXCuiCjUuCwEya6g6TtBSDHjahEOi+iTHxjiX2Vi1BK4qTprrDxTc4RaEQaM9Nc4NqJwedoLpBhWuwyItkBHr/2EOVwSSwCaobVHxEZQpGoDSKQsKvKk5Q7aGib2rSUi3QGNrJC0iCag/VpKVaoOet/nDl1S0Hiv0E1Q4q2lJdUALdceCJ6DAJboJqB1X3cZQS6NzbPlYb0KSpdkAxbqoKbUDhFXIZTSHNCh0nTS0Gq5pc1gb0a1vX1qqdvGAkqGaoqjHTNqDnfnlOY4Cm6tcMFBPL5JAD+tyhA42CSdqaNFUPVh4EzwHtG7mxkUCTpuqB3r7n9pyS5oDOuPnSxgKNCfXq0atzi1bN3jS7sRPIMfOehxxQF+t25Kc/EPsnni/cfvzMLjG0/fviC3cPiKnXX+RUYHpWXtaW/tOvPC/GX382WzkM1Y1po6GnohhDU+jXmVxqEBquGdw12AYXS/CY8uH6G9IryjP/nc/lbQF1dSYApmt4618nxLrHhsXZyz5kBfb8VVe6PiJ3PX9p1f7AzgGvTxDktFTdh1xGHA+QnvwM0zF3MrSAurafPkDpvf589IiA9pHRo4urBLrpF5soO86xLNy6gfJ2tAX0vJt6CwXMBc+BvvzHV8SCdZ/LbahiUdU+tOdHAgDlgPt5eqp9Gejwjs25Z3zijj7x6YeX5No7TKqiTRY8HUMzeUCVhQ+UVV/PzbtvXnYeDnGq2igdiuU2l55PMRc4notj+k0VIz1K2ybm7WgL6Fl9bnOGOFAbODeODApUuTyg+lWBpHMyUKRBv1Hs2qUBIB4ACQKxERwWwBh6asjqWp4eoPGAY/57iH1q/zOgcPeRgGxjV6BI97Mb+/l7iRde/ZXxuTZAka4LVHkG3arHVwUXrgwoBlCsZ4GQAXU1iCBEH6DyfSf/cyoIUBeo8rycGOsKxgBKhlEGdHDbt4yChcDkzRcoujs8XHrrNW1p07NsNZSut9FUKsnIA/ZlbariOAZQqnkyoAs2LNUKlYQlx75Ab96c92zAmJLTpmNXoLivCGq3aigWKkHIgM4Z/KhWqCRcOfYFKmuoqfviA7QIKpVkqiVUjoLQWhpDQ+kZGVDXLguE5guU3werVy4o/NgXqAmqPGEZ1qFrN8EVOAmbChGOXdMoup66LhlQnyEzDgb7HIRuH9UrD9BW3bU4XwYo7tdVv2RAUF4A1ac7UiRk+j0GUBpKy4C+54sXGAWrErorUFSt3MHwxj/eLPQWlQWqgwpnu8q7gxW1q1hnKQZQTO9EyICe1TezMqAACQcCuigUsA9Pkqqg8HMy0FeP/KHNWY+Cpdp426zSVECF01wVADZktRgDKGoDhCBA0RaqhKoSFq41WbYmoKr0dOdQGHhaKqgQAowk8rLIacEihmeJqk7fODrQM5fNyL08F4Run1e5siBUx6huoalcc3Rp03lZQ1Xp6s7JQJGmDmrvPb3GNeMB3Rcm7osOtGyVqxMqnUd7eeXXr3UuNDLQJ17Ylzn84fQv2nRjrzqoEDysXV01jGVRfQe6owM95wb3dRO4hvLRFhplgfDlAAikfTaxDFTlnLdJR77GBJU0SgUWjnxos6u2xgAKFyZCpd0WuPW4ZYsHukCpCigAF0EFNAyz0ZAZFU6AbiLQXLelp/9iJ82BQLiGYl/WAjoGFA4VFu6c1Qu019N9iKsEivRtoEIjZagYz3SBGkND6XuXTEOrdv3JDgVTAYgJ1BYqeWF8tTQGUHpGBnT+0GIrjeHCttVQugczF3jw6Ye6VNf0XJvYRlP5WvHo5kwbmmatpSRsen8cu2i4zbX4t0aEDOiXHrilcqDorsDapYB9nSVKEKqucuk5iIugyk59F/9vDKD4P5wW0C1Pb6scKIQmD51Ba7lQ5f2YQIugyh/Zuli7MYBi6mcL6OG/HzEKVhY0jl2rXEoDXRweTP3TKoAW1Qo6TeX/AIwq16YapGtiAKX8ZVUuBOwyyboMUHRleABg3TzdKoCiqv/knSuNBViGKs/aw2gNwbKJYwAlS7wF1HUIzVdDURhkA0k3+68KoFSY4OhHE6BzRQLqBd+ek/11M92DGNoJQDYg6ZqqgVIfFPlrAV141zJjqaUqk+IyQGUDCX1TwKO0KZaBcsHa7COPlBbFqvsAl7sVsY97T/739AgR7gPM5VuXO8EE1KqB0vQT5LEF9P6fjba9PAlBFZcBivRkA2nvS/vbnh8LqAqyfM4XZgyg/M/yWkAxN9dlCbiyQAFVNpDkvmkVQJGmbja/DBHH0N5bRteJGXd+0FkzY1W5fLC+BRSZd21HVZrbSecAF14seeQGbTrO8ymmsqFEsOqOefsJhjmgru1oJ8ELkdcmQuXtZxtQHwdDCEF1UhpNg0oOBcBEyGkoTpx9/fltxkknCTxGXpsCFWOgMNZ4aAO6+O4bElDFpx9yQWkC1DVPruEss/02oL87cjABtQAKwHVD5SNARLYNKH6YbNaurH0ux3VBla1bI9D1O76TtNRSS+vSVHn0xwgUP/rMBHQp2d12bUxNxb9EyMZQIVDXRTS6DZDP+8SCKo/+EEzEyjYUP8AV6DMB20cQ3XRP1VCL/sNFCxRQk5a2f7luU/iqhGrSTqOGJi31g0nAq4BapJ2FQHGBz/oL9FKTPQ4NVZ6oBj5yMFa5dLHPROzJDpPePxRUzA3WWbbECbEVUKyj6zJWSi+T4rer7RBQVV4hDpL2rYDi4jS0Vl+bKg+RETxVbA0U3RifT/eTlp4uCD6aChcfzehTAZTPWQPFjah6Xad7JqCngUIWLlBh1dpWtQTWCShuSn7ePCCfAmsLVeevJXiq2BkoEpn3zUXJee/gvFdBL4Iqr6ekgqc65wUU7anPV9+qF5vM53RQXdtNDtYLKBLA9zBpukr46hfrDfFpmRyWzb43UCQOIykNs4WDijlC9NGRDTzVNaWAIkGstZss3/JQz1w+Xez5/V4VI6dzpYEmqOVhwgs3vGvECZzu4iBACWoaP3WHi9ptdP8WHR/n88GA4smpTXUDCphoskKGoECRMVi/qUtTDBbG5N7fjIVkmaUVHChB9VkqZ7L0SfH/5ij4VYRKgFJGVz+yJg27SR6la76bXwSaZBUqrhQoMrnvt2PJAQGn/NLp4uGxR0Nx06ZTOVA8Ga7Cyez/RfPz2huvayGE/CEKUMowLLrJNKYK1+g9uzfT60eJowKlN0Lb2s19VjgKFm68LquZ6J1jxbUAxcvBysO0lm5yGwLkJWuvEi/95eVY/NqeUxtQygmB7WSNBUjYCPgUs+5QO1ASAAwnzNTvpNEbFEL8zVgsg4dkZYobA5RnEms99K69qpHVMbQRVmsoZzp/7xD7jQTKXwwz92d99fJajSi08zMHLhMw5o4eP71ELM9nU/YbD5QLCk4KrO0bA/C0r1wsln5vpdg2voNnofH7HQVUliYMKixpB8iwmLGUADYbAwtaR9d/ZP2nMnhI69nXfik/pqOOOxpoR0k6Umb/D/7bgN4c8lwfAAAAAElFTkSuQmCC;" vertex="1" parent="1">
          <mxGeometry x="1110" y="665" width="25" height="25" as="geometry" />
        </mxCell>
        <mxCell id="NkLvIqLFpbnPFktaiqOG-70" value="" style="shape=image;verticalLabelPosition=bottom;labelBackgroundColor=#ffffff;verticalAlign=top;aspect=fixed;imageAspect=0;image=data:image/svg+xml,PHN2ZyB4bWxuczpkYz0iaHR0cDovL3B1cmwub3JnL2RjL2VsZW1lbnRzLzEuMS8iIHhtbG5zOmNjPSJodHRwOi8vY3JlYXRpdmVjb21tb25zLm9yZy9ucyMiIHhtbG5zOnJkZj0iaHR0cDovL3d3dy53My5vcmcvMTk5OS8wMi8yMi1yZGYtc3ludGF4LW5zIyIgeG1sbnM6c3ZnPSJodHRwOi8vd3d3LnczLm9yZy8yMDAwL3N2ZyIgeG1sbnM9Imh0dHA6Ly93d3cudzMub3JnLzIwMDAvc3ZnIiB4bWxuczpzb2RpcG9kaT0iaHR0cDovL3NvZGlwb2RpLnNvdXJjZWZvcmdlLm5ldC9EVEQvc29kaXBvZGktMC5kdGQiIHhtbG5zOmlua3NjYXBlPSJodHRwOi8vd3d3Lmlua3NjYXBlLm9yZy9uYW1lc3BhY2VzL2lua3NjYXBlIiB2ZXJzaW9uPSIxLjEiIGlkPSJzdmc2MDYwNyIgaW5rc2NhcGU6dmVyc2lvbj0iMC45Mi4zICgyNDA1NTQ2LCAyMDE4LTAzLTExKSIgc29kaXBvZGk6ZG9jbmFtZT0iYXp1cmVfcG9ydGFsX2xvZ2ljX2FwcHMuc3ZnIiB4PSIwcHgiIHk9IjBweCIgdmlld0JveD0iMCAwIDgyLjQ5IDY0LjA1OTg2OCIgeG1sOnNwYWNlPSJwcmVzZXJ2ZSIgd2lkdGg9IjgyLjQ4OTk5OCIgaGVpZ2h0PSI2NC4wNTk4NjgiPjxtZXRhZGF0YSBpZD0ibWV0YWRhdGE5NTI0Ij48cmRmOlJERj48Y2M6V29yayByZGY6YWJvdXQ9IiI+PGRjOmZvcm1hdD5pbWFnZS9zdmcreG1sPC9kYzpmb3JtYXQ+PGRjOnR5cGUgcmRmOnJlc291cmNlPSJodHRwOi8vcHVybC5vcmcvZGMvZGNtaXR5cGUvU3RpbGxJbWFnZSIvPjxkYzp0aXRsZS8+PC9jYzpXb3JrPjwvcmRmOlJERj48L21ldGFkYXRhPjxkZWZzIGlkPSJkZWZzOTUyMiI+JiN4YTsJJiN4YTsmI3hhOwkmI3hhOyYjeGE7CSYjeGE7JiN4YTsJJiN4YTsmI3hhOwkmI3hhOyYjeGE7CSYjeGE7JiN4YTsJJiN4YTsmI3hhOwkmI3hhOyYjeGE7CQkmI3hhOwkmI3hhOwkJJiN4YTsJJiN4YTsJCSYjeGE7CSYjeGE7CQkmI3hhOwkmI3hhOwkJJiN4YTsJJiN4YTsJCSYjeGE7CSYjeGE7CQkmI3hhOwk8L2RlZnM+JiN4YTs8ZmlsdGVyIGlkPSJmaWx0ZXJfMiI+JiN4YTsJPGZlR2F1c3NpYW5CbHVyIGlkPSJmZUdhdXNzaWFuQmx1cjYwNTMyIiBzdGREZXZpYXRpb249IjIiLz4mI3hhOzwvZmlsdGVyPiYjeGE7PHNvZGlwb2RpOm5hbWVkdmlldyBib3JkZXJjb2xvcj0iIzY2NjY2NiIgYm9yZGVyb3BhY2l0eT0iMSIgZml0LW1hcmdpbi1ib3R0b209IjAiIGZpdC1tYXJnaW4tbGVmdD0iMCIgZml0LW1hcmdpbi1yaWdodD0iMCIgZml0LW1hcmdpbi10b3A9IjAiIGdyaWR0b2xlcmFuY2U9IjEwIiBndWlkZXRvbGVyYW5jZT0iMTAiIGlkPSJuYW1lZHZpZXc2MDYwOSIgaW5rc2NhcGU6Y3VycmVudC1sYXllcj0ic3ZnNjA2MDciIGlua3NjYXBlOmN4PSItMTcuNTIzODc3IiBpbmtzY2FwZTpjeT0iMjUuOTk4MTIzIiBpbmtzY2FwZTpwYWdlb3BhY2l0eT0iMCIgaW5rc2NhcGU6cGFnZXNoYWRvdz0iMiIgaW5rc2NhcGU6d2luZG93LWhlaWdodD0iMTAxNyIgaW5rc2NhcGU6d2luZG93LW1heGltaXplZD0iMSIgaW5rc2NhcGU6d2luZG93LXdpZHRoPSIxOTIwIiBpbmtzY2FwZTp3aW5kb3cteD0iLTgiIGlua3NjYXBlOndpbmRvdy15PSItOCIgaW5rc2NhcGU6em9vbT0iNS4xOTI4MDM5IiBvYmplY3R0b2xlcmFuY2U9IjEwIiBwYWdlY29sb3I9IiNmZmZmZmYiIHNob3dncmlkPSJmYWxzZSI+JiN4YTsJPC9zb2RpcG9kaTpuYW1lZHZpZXc+JiN4YTsmI3hhOzxwYXRoIGlkPSJwYXRoNjA1NDUiIGlua3NjYXBlOmNvbm5lY3Rvci1jdXJ2YXR1cmU9IjAiIHN0eWxlPSJmaWxsOiM1OWI0ZDkiIGQ9Im0gNDIuODksMjUuOTI2MyB2IC04LjI1IGggLTQuMTIgdiA4LjI1IGMgMCwxLjQ4IC0xLjMyLDIuOCAtMy40NywzLjQ2IGwgLTUuNjEsMS4xNiBjIC0zLjc5LDEuMTUgLTYuNDMsNC4xMiAtNi40Myw3LjQyIHYgOS40IGggNC4xMiB2IC05LjQgYyAwLC0xLjQ4IDEuMzIsLTIuOCAzLjQ3LC0zLjQ2IGwgNS42MSwtMS4zMiBjIDMuNDYsLTAuNjYgNi4xLC0zLjYzIDYuNDMsLTcuMjYgeiIvPiYjeGE7JiN4YTs8cGF0aCBpZD0icGF0aDYwNTUzIiBpbmtzY2FwZTpjb25uZWN0b3ItY3VydmF0dXJlPSIwIiBzdHlsZT0iZmlsbDojN2ZiYTAwIiBkPSJtIDMyLjM0LDUxLjY1NjMgdiAtNy41OCBjIDAsLTEuODIgLTEuNDksLTMuMyAtMy4zLC0zLjMgaCAtNy41OSBjIC0xLjgyLDAgLTMuMywxLjQ4IC0zLjMsMy4zIHYgNy41OCBjIDAsMS44MiAxLjQ4LDMuMyAzLjMsMy4zIGggNy41OSBjIDEuODEsMCAzLjMsLTEuNDggMy4zLC0zLjMgeiIvPiYjeGE7JiN4YTs8cGF0aCBpZD0icGF0aDYwNTYxIiBpbmtzY2FwZTpjb25uZWN0b3ItY3VydmF0dXJlPSIwIiBzdHlsZT0iZmlsbDojNTliNGQ5IiBkPSJtIDM4LjI4LDI1LjkyNjMgdiAtOC4yNSBoIDQuMTIgdiA4LjI1IGMgMCwxLjQ4IDEuMzIsMi44IDMuNDcsMy40NiBsIDYuOTMsMS40OSBjIDMuNzksMS4xNSA2LjQzLDQuMTIgNi40Myw3LjQyIHYgOS40IGggLTQuMTIgdiAtOS40IGMgMCwtMS40OCAtMS4zMiwtMi44IC0zLjQ3LC0zLjQ2IGwgLTYuOTMsLTEuNDkgYyAtMy43OSwtMS4xNSAtNi40MywtNC4xMiAtNi40MywtNy40MiB6Ii8+JiN4YTsmI3hhOzxwYXRoIGlkPSJwYXRoNjA1NjkiIGlua3NjYXBlOmNvbm5lY3Rvci1jdXJ2YXR1cmU9IjAiIHN0eWxlPSJmaWxsOiM3ZmJhMDAiIGQ9Im0gNTAuMTYsNTEuOTg2MyB2IC03LjU4IGMgMCwtMS44MiAxLjQ4LC0zLjMgMy4zLC0zLjMgaCA3LjU5IGMgMS44MSwwIDMuMywxLjQ4IDMuMywzLjMgdiA3LjU4IGMgMCwxLjgyIC0xLjQ5LDMuMyAtMy4zLDMuMyBoIC03LjU5IGMgLTEuODIsMCAtMy4zLC0xLjQ4IC0zLjMsLTMuMyB6Ii8+JiN4YTsmI3hhOyYjeGE7JiN4YTs8cGF0aCBpZD0icGF0aDYwNTg1IiBpbmtzY2FwZTpjb25uZWN0b3ItY3VydmF0dXJlPSIwIiBzdHlsZT0iZmlsbDojMDA3MmM2IiBkPSJtIDQzLjcyLDEwLjA4NjMgdiA2LjExIGggLTYuMSB2IC02LjExIHogbSAxLjMyLC00LjYyIEggMzYuMyBjIC0xLjgyLDAgLTMuMywxLjQ5IC0zLjMsMy4zIHYgOC43NCBjIDAsMS44MiAxLjQ4LDMuMyAzLjMsMy4zIGggOC43NCBjIDEuODIsMCAzLjMsLTEuNDggMy4zLC0zLjMgdiAtOC43NCBjIDAsLTEuODEgLTEuNDgsLTMuMyAtMy4zLC0zLjMgeiIvPiYjeGE7JiN4YTs8cGF0aCBpZD0icGF0aDYwNTkzIiBpbmtzY2FwZTpjb25uZWN0b3ItY3VydmF0dXJlPSIwIiBzdHlsZT0iZmlsbDojNTliNGQ5IiBkPSJtIDEzLjAzLDY0LjAzNjMgYyAtMi42NCwwLjE2IC01LjI4LC0wLjUgLTcuNDIsLTEuODIgLTEuNDksLTEuMzIgLTIuMTUsLTMuNDYgLTIuMTUsLTYuNTkgdiAtMTcuMTYgYyAwLC0yLjgxIC0xLjE1LC00LjI5IC0zLjQ2LC00LjI5IHYgLTQuMjkgYyAyLjMxLDAgMy40NiwtMS40OSAzLjQ2LC00LjQ2IHYgLTE2LjgzIGMgMCwtMy4xMyAwLjY2LC01LjQ0IDIuMTUsLTYuNzYgQyA3LjA5LDAuNTE2Mjk5OTggOS41NywwLjAxNjI5OTk4IDEzLjAzLDAuMDE2Mjk5OTggViA0LjMwNjMgYyAtMi40NywwIC0zLjc5LDEuMzIgLTMuNzksNC4xMyB2IDE2LjUgYyAwLDMuNzkgLTEuMTYsNi4xIC0zLjYzLDcuMDkgMi4zMSwwLjk5IDMuNjMsMy4zIDMuNjMsNy4xIHYgMTYuMzMgYyAwLDEuMTYgMC4xNiwyLjMxIDAuODIsMy4zIDAuODMsMC42NiAxLjgyLDEuMTYgMi44MSwwLjk5IDAsMCAwLjE2LDQuMjkgMC4xNiw0LjI5IHoiLz4mI3hhOyYjeGE7PHBhdGggaWQ9InBhdGg2MDYwMSIgaW5rc2NhcGU6Y29ubmVjdG9yLWN1cnZhdHVyZT0iMCIgc3R5bGU9ImZpbGw6IzU5YjRkOSIgZD0ibSA2OS40NiwwLjAyNjI5OTk4IGMgMi42NCwtMC4xNyA1LjI4LDAuNDkgNy40MiwxLjgxMDAwMDAyIDEuNDksMS4zMiAyLjE1LDMuNDcgMi4xNSw2LjYgdiAxNy4xNiBjIDAsMi44MSAxLjE1LDQuMjkgMy40Niw0LjI5IHYgNC4yOSBjIC0yLjMxLDAgLTMuNDYsMS40OSAtMy40Niw0LjQ2IHYgMTYuNjYgYyAwLDMuMTQgLTAuNjYsNS40NCAtMi4xNSw2Ljc2IC0xLjQ4LDEuMzIgLTMuOTYsMS45OCAtNy40MiwxLjk4IHYgLTQuMjggYyAyLjQ3LDAgMy43OSwtMS4zMiAzLjc5LC00LjEzIHYgLTE2LjUgYyAwLC0zLjc5IDEuMTYsLTYuMSAzLjYzLC03LjA5IC0yLjMxLC0wLjk5IC0zLjYzLC0zLjMgLTMuNjMsLTcuMSB2IC0xNi4zMyBjIDAsLTEuMTYgLTAuMTYsLTIuMzEgLTAuODIsLTMuMyAtMC44MywtMC42NiAtMS44MiwtMS4xNiAtMi44MSwtMC45OSB6Ii8+JiN4YTs8L3N2Zz4=;" vertex="1" parent="1">
          <mxGeometry x="1565.75" y="220" width="38.73" height="30.23" as="geometry" />
        </mxCell>
        <mxCell id="NkLvIqLFpbnPFktaiqOG-71" value="" style="shape=image;verticalLabelPosition=bottom;labelBackgroundColor=#ffffff;verticalAlign=top;aspect=fixed;imageAspect=0;image=data:image/svg+xml,PHN2ZyB4bWxuczpjYz0iaHR0cDovL2NyZWF0aXZlY29tbW9ucy5vcmcvbnMjIiB4bWxuczpkYz0iaHR0cDovL3B1cmwub3JnL2RjL2VsZW1lbnRzLzEuMS8iIHhtbG5zOmlua3NjYXBlPSJodHRwOi8vd3d3Lmlua3NjYXBlLm9yZy9uYW1lc3BhY2VzL2lua3NjYXBlIiB4bWxuczpyZGY9Imh0dHA6Ly93d3cudzMub3JnLzE5OTkvMDIvMjItcmRmLXN5bnRheC1ucyMiIHhtbG5zOnNvZGlwb2RpPSJodHRwOi8vc29kaXBvZGkuc291cmNlZm9yZ2UubmV0L0RURC9zb2RpcG9kaS0wLmR0ZCIgeG1sbnM6c3ZnPSJodHRwOi8vd3d3LnczLm9yZy8yMDAwL3N2ZyIgeG1sbnM9Imh0dHA6Ly93d3cudzMub3JnLzIwMDAvc3ZnIiB4bWxuczp4bGluaz0iaHR0cDovL3d3dy53My5vcmcvMTk5OS94bGluayIgdmVyc2lvbj0iMS4xIiBpZD0ic3ZnOTcwMjAiIGlua3NjYXBlOnZlcnNpb249IjAuOTIuMyAoMjQwNTU0NiwgMjAxOC0wMy0xMSkiIHNvZGlwb2RpOmRvY25hbWU9InNjaGVkdWxlci5zdmciIHg9IjBweCIgeT0iMHB4IiB2aWV3Qm94PSIwIDAgNDIgNDIiIHN0eWxlPSJlbmFibGUtYmFja2dyb3VuZDpuZXcgMCAwIDQyIDQyOyIgeG1sOnNwYWNlPSJwcmVzZXJ2ZSI+JiN4YTs8c29kaXBvZGk6bmFtZWR2aWV3IGJvcmRlcmNvbG9yPSIjNjY2NjY2IiBib3JkZXJvcGFjaXR5PSIxIiBmaXQtbWFyZ2luLWJvdHRvbT0iMCIgZml0LW1hcmdpbi1sZWZ0PSIwIiBmaXQtbWFyZ2luLXJpZ2h0PSIwIiBmaXQtbWFyZ2luLXRvcD0iMCIgZ3JpZHRvbGVyYW5jZT0iMTAiIGd1aWRldG9sZXJhbmNlPSIxMCIgaWQ9Im5hbWVkdmlldzk3MDIyIiBpbmtzY2FwZTpjdXJyZW50LWxheWVyPSJzdmc5NzAyMCIgaW5rc2NhcGU6Y3g9IjI4IiBpbmtzY2FwZTpjeT0iMjcuOTk4Nzk2IiBpbmtzY2FwZTpwYWdlb3BhY2l0eT0iMCIgaW5rc2NhcGU6cGFnZXNoYWRvdz0iMiIgaW5rc2NhcGU6d2luZG93LWhlaWdodD0iMTAxNyIgaW5rc2NhcGU6d2luZG93LW1heGltaXplZD0iMSIgaW5rc2NhcGU6d2luZG93LXdpZHRoPSIxOTIwIiBpbmtzY2FwZTp3aW5kb3cteD0iLTgiIGlua3NjYXBlOndpbmRvdy15PSItOCIgaW5rc2NhcGU6em9vbT0iMTMuMTM2MzY0IiBvYmplY3R0b2xlcmFuY2U9IjEwIiBwYWdlY29sb3I9IiNmZmZmZmYiIHNob3dncmlkPSJmYWxzZSI+JiN4YTsJPC9zb2RpcG9kaTpuYW1lZHZpZXc+JiN4YTs8cGF0aCBpZD0icGF0aDk2OTg2IiBpbmtzY2FwZTpjb25uZWN0b3ItY3VydmF0dXJlPSIwIiBzdHlsZT0iZmlsbDojQUNFOEY5OyIgZD0iTTQxLjI1LDIxYzAsMTEuMTgtOS4wNywyMC4yNS0yMC4yNSwyMC4yNSAgYy0wLjI2LDAtMC41MSwwLTAuNzUsMEM5LjA4LDQwLjcsMC40OCwzMS4xOSwxLjA0LDIwLjAyQzEuNTUsOS42Myw5Ljg2LDEuMzIsMjAuMjUsMC44YzAuMjQsMCwwLjQ5LDAsMC43NSwwICBDMzIuMTcsMC44LDQxLjIzLDkuODQsNDEuMjUsMjF6Ii8+JiN4YTs8ZyBpZD0ic2hhcGU1MDczLTUiIHRyYW5zZm9ybT0idHJhbnNsYXRlKC0zLC00LjQ5OTA5OTUpIj4mI3hhOwk8dGl0bGUgaWQ9InRpdGxlOTY5OTEiPnJlY3Q0ODM5PC90aXRsZT4mI3hhOwk8cmVjdCBpZD0icmVjdDk2OTkzIiB5PSIxLjUiIHN0eWxlPSJmaWxsOm5vbmU7IiB3aWR0aD0iNDgiIGhlaWdodD0iNDgiLz4mI3hhOzwvZz4mI3hhOzxnIGlkPSJzaGFwZTUwNzQtNyIgdHJhbnNmb3JtPSJ0cmFuc2xhdGUoMjAuMjUsLTguMjQ5MDk5NSkiPiYjeGE7CTx0aXRsZSBpZD0idGl0bGU5Njk5NiI+cGF0aDQ4NDE8L3RpdGxlPiYjeGE7CTxwYXRoIGlkPSJwYXRoOTY5OTgiIGlua3NjYXBlOmNvbm5lY3Rvci1jdXJ2YXR1cmU9IjAiIHN0eWxlPSJmaWxsOiNEN0Y0RkQ7IiBkPSJNMjEsMjkuMjVDMjEsNDAuNDMsMTEuOTMsNDkuNSwwLjc1LDQ5LjUgICBjLTAuMjYsMC0wLjUsMC0wLjc1LDBWOS4wMmMwLjI1LDAsMC40OSwwLDAuNzUsMEMxMS45Myw5LjAyLDIwLjk5LDE4LjA3LDIxLDI5LjI1eiIvPiYjeGE7PC9nPiYjeGE7PGcgaWQ9InNoYXBlNTA3NS05IiB0cmFuc2Zvcm09InRyYW5zbGF0ZSgxOS41LC0xNy45NTQwOTkpIj4mI3hhOwk8dGl0bGUgaWQ9InRpdGxlOTcwMDEiPnBvbHlnb240ODQzPC90aXRsZT4mI3hhOwk8cGF0aCBpZD0icGF0aDk3MDAzIiBpbmtzY2FwZTpjb25uZWN0b3ItY3VydmF0dXJlPSIwIiBzdHlsZT0iZmlsbDojNTU2QThBOyIgZD0iTTAsMjUuODN2MTQuNTZsOS4xLDkuMTFsMS4wNy0xLjA2TDEuNSwzOS43NyAgIFYyNS44M0gweiIvPiYjeGE7PC9nPiYjeGE7PGcgaWQ9InNoYXBlNTA3Ni0xMSIgdHJhbnNmb3JtPSJ0cmFuc2xhdGUoMCwtMTUuOTQ5OTk5KSI+JiN4YTsJPHRpdGxlIGlkPSJ0aXRsZTk3MDA2Ij5wYXRoNDg0NTwvdGl0bGU+JiN4YTsJPHBhdGggaWQ9InBhdGg5NzAwOCIgaW5rc2NhcGU6Y29ubmVjdG9yLWN1cnZhdHVyZT0iMCIgc3R5bGU9ImZpbGw6IzU1NkE4QTsiIGQ9Ik0yMSwxNS45NUMxMi40LDE1Ljk2LDQuNjgsMjEuMiwxLjUsMjkuMTl2LTkuODZIMCAgIHYxMS4yNWgxMnYtMS41SDNjMy4wOC03LjE3LDEwLjE5LTExLjc3LDE4LTExLjYzYzEwLjc3LDAsMTkuNSw4LjczLDE5LjUsMTkuNXMtOC43MywxOS41LTE5LjUsMTkuNWMtOC40NiwwLTE1Ljk2LTUuNDUtMTguNTYtMTMuNSAgIEgwLjg4QzQuMTksNTQuMDYsMTUuODksNjAuMzksMjcsNTcuMDdzMTcuNDQtMTUuMDEsMTQuMTItMjYuMTJDMzguNDgsMjIuMDUsMzAuMjksMTUuOTUsMjEsMTUuOTV6Ii8+JiN4YTs8L2c+JiN4YTs8ZyBpZD0ic2hhcGU1MDc3LTEzIiB0cmFuc2Zvcm09InRyYW5zbGF0ZSgtMywtNC40OTkwOTk1KSI+JiN4YTsJPHRpdGxlIGlkPSJ0aXRsZTk3MDExIj5yZWN0NDg0NzwvdGl0bGU+JiN4YTsJPHJlY3QgaWQ9InJlY3Q5NzAxMyIgeT0iMS41IiBzdHlsZT0iZmlsbDpub25lOyIgd2lkdGg9IjQ4IiBoZWlnaHQ9IjQ4Ii8+JiN4YTs8L2c+JiN4YTs8L3N2Zz4=;" vertex="1" parent="1">
          <mxGeometry x="1574.48" y="190" width="30" height="30" as="geometry" />
        </mxCell>
        <mxCell id="NkLvIqLFpbnPFktaiqOG-72" value="" style="shape=image;verticalLabelPosition=bottom;labelBackgroundColor=#ffffff;verticalAlign=top;aspect=fixed;imageAspect=0;image=data:image/svg+xml,PHN2ZyB4bWxuczpjYz0iaHR0cDovL2NyZWF0aXZlY29tbW9ucy5vcmcvbnMjIiB4bWxuczpkYz0iaHR0cDovL3B1cmwub3JnL2RjL2VsZW1lbnRzLzEuMS8iIHhtbG5zOmlua3NjYXBlPSJodHRwOi8vd3d3Lmlua3NjYXBlLm9yZy9uYW1lc3BhY2VzL2lua3NjYXBlIiB4bWxuczpyZGY9Imh0dHA6Ly93d3cudzMub3JnLzE5OTkvMDIvMjItcmRmLXN5bnRheC1ucyMiIHhtbG5zOnNvZGlwb2RpPSJodHRwOi8vc29kaXBvZGkuc291cmNlZm9yZ2UubmV0L0RURC9zb2RpcG9kaS0wLmR0ZCIgeG1sbnM6c3ZnPSJodHRwOi8vd3d3LnczLm9yZy8yMDAwL3N2ZyIgeG1sbnM9Imh0dHA6Ly93d3cudzMub3JnLzIwMDAvc3ZnIiB4bWxuczp4bGluaz0iaHR0cDovL3d3dy53My5vcmcvMTk5OS94bGluayIgdmVyc2lvbj0iMS4xIiBpZD0ic3ZnOTcwMjAiIGlua3NjYXBlOnZlcnNpb249IjAuOTIuMyAoMjQwNTU0NiwgMjAxOC0wMy0xMSkiIHNvZGlwb2RpOmRvY25hbWU9InNjaGVkdWxlci5zdmciIHg9IjBweCIgeT0iMHB4IiB2aWV3Qm94PSIwIDAgNDIgNDIiIHN0eWxlPSJlbmFibGUtYmFja2dyb3VuZDpuZXcgMCAwIDQyIDQyOyIgeG1sOnNwYWNlPSJwcmVzZXJ2ZSI+JiN4YTs8c29kaXBvZGk6bmFtZWR2aWV3IGJvcmRlcmNvbG9yPSIjNjY2NjY2IiBib3JkZXJvcGFjaXR5PSIxIiBmaXQtbWFyZ2luLWJvdHRvbT0iMCIgZml0LW1hcmdpbi1sZWZ0PSIwIiBmaXQtbWFyZ2luLXJpZ2h0PSIwIiBmaXQtbWFyZ2luLXRvcD0iMCIgZ3JpZHRvbGVyYW5jZT0iMTAiIGd1aWRldG9sZXJhbmNlPSIxMCIgaWQ9Im5hbWVkdmlldzk3MDIyIiBpbmtzY2FwZTpjdXJyZW50LWxheWVyPSJzdmc5NzAyMCIgaW5rc2NhcGU6Y3g9IjI4IiBpbmtzY2FwZTpjeT0iMjcuOTk4Nzk2IiBpbmtzY2FwZTpwYWdlb3BhY2l0eT0iMCIgaW5rc2NhcGU6cGFnZXNoYWRvdz0iMiIgaW5rc2NhcGU6d2luZG93LWhlaWdodD0iMTAxNyIgaW5rc2NhcGU6d2luZG93LW1heGltaXplZD0iMSIgaW5rc2NhcGU6d2luZG93LXdpZHRoPSIxOTIwIiBpbmtzY2FwZTp3aW5kb3cteD0iLTgiIGlua3NjYXBlOndpbmRvdy15PSItOCIgaW5rc2NhcGU6em9vbT0iMTMuMTM2MzY0IiBvYmplY3R0b2xlcmFuY2U9IjEwIiBwYWdlY29sb3I9IiNmZmZmZmYiIHNob3dncmlkPSJmYWxzZSI+JiN4YTsJPC9zb2RpcG9kaTpuYW1lZHZpZXc+JiN4YTs8cGF0aCBpZD0icGF0aDk2OTg2IiBpbmtzY2FwZTpjb25uZWN0b3ItY3VydmF0dXJlPSIwIiBzdHlsZT0iZmlsbDojQUNFOEY5OyIgZD0iTTQxLjI1LDIxYzAsMTEuMTgtOS4wNywyMC4yNS0yMC4yNSwyMC4yNSAgYy0wLjI2LDAtMC41MSwwLTAuNzUsMEM5LjA4LDQwLjcsMC40OCwzMS4xOSwxLjA0LDIwLjAyQzEuNTUsOS42Myw5Ljg2LDEuMzIsMjAuMjUsMC44YzAuMjQsMCwwLjQ5LDAsMC43NSwwICBDMzIuMTcsMC44LDQxLjIzLDkuODQsNDEuMjUsMjF6Ii8+JiN4YTs8ZyBpZD0ic2hhcGU1MDczLTUiIHRyYW5zZm9ybT0idHJhbnNsYXRlKC0zLC00LjQ5OTA5OTUpIj4mI3hhOwk8dGl0bGUgaWQ9InRpdGxlOTY5OTEiPnJlY3Q0ODM5PC90aXRsZT4mI3hhOwk8cmVjdCBpZD0icmVjdDk2OTkzIiB5PSIxLjUiIHN0eWxlPSJmaWxsOm5vbmU7IiB3aWR0aD0iNDgiIGhlaWdodD0iNDgiLz4mI3hhOzwvZz4mI3hhOzxnIGlkPSJzaGFwZTUwNzQtNyIgdHJhbnNmb3JtPSJ0cmFuc2xhdGUoMjAuMjUsLTguMjQ5MDk5NSkiPiYjeGE7CTx0aXRsZSBpZD0idGl0bGU5Njk5NiI+cGF0aDQ4NDE8L3RpdGxlPiYjeGE7CTxwYXRoIGlkPSJwYXRoOTY5OTgiIGlua3NjYXBlOmNvbm5lY3Rvci1jdXJ2YXR1cmU9IjAiIHN0eWxlPSJmaWxsOiNEN0Y0RkQ7IiBkPSJNMjEsMjkuMjVDMjEsNDAuNDMsMTEuOTMsNDkuNSwwLjc1LDQ5LjUgICBjLTAuMjYsMC0wLjUsMC0wLjc1LDBWOS4wMmMwLjI1LDAsMC40OSwwLDAuNzUsMEMxMS45Myw5LjAyLDIwLjk5LDE4LjA3LDIxLDI5LjI1eiIvPiYjeGE7PC9nPiYjeGE7PGcgaWQ9InNoYXBlNTA3NS05IiB0cmFuc2Zvcm09InRyYW5zbGF0ZSgxOS41LC0xNy45NTQwOTkpIj4mI3hhOwk8dGl0bGUgaWQ9InRpdGxlOTcwMDEiPnBvbHlnb240ODQzPC90aXRsZT4mI3hhOwk8cGF0aCBpZD0icGF0aDk3MDAzIiBpbmtzY2FwZTpjb25uZWN0b3ItY3VydmF0dXJlPSIwIiBzdHlsZT0iZmlsbDojNTU2QThBOyIgZD0iTTAsMjUuODN2MTQuNTZsOS4xLDkuMTFsMS4wNy0xLjA2TDEuNSwzOS43NyAgIFYyNS44M0gweiIvPiYjeGE7PC9nPiYjeGE7PGcgaWQ9InNoYXBlNTA3Ni0xMSIgdHJhbnNmb3JtPSJ0cmFuc2xhdGUoMCwtMTUuOTQ5OTk5KSI+JiN4YTsJPHRpdGxlIGlkPSJ0aXRsZTk3MDA2Ij5wYXRoNDg0NTwvdGl0bGU+JiN4YTsJPHBhdGggaWQ9InBhdGg5NzAwOCIgaW5rc2NhcGU6Y29ubmVjdG9yLWN1cnZhdHVyZT0iMCIgc3R5bGU9ImZpbGw6IzU1NkE4QTsiIGQ9Ik0yMSwxNS45NUMxMi40LDE1Ljk2LDQuNjgsMjEuMiwxLjUsMjkuMTl2LTkuODZIMCAgIHYxMS4yNWgxMnYtMS41SDNjMy4wOC03LjE3LDEwLjE5LTExLjc3LDE4LTExLjYzYzEwLjc3LDAsMTkuNSw4LjczLDE5LjUsMTkuNXMtOC43MywxOS41LTE5LjUsMTkuNWMtOC40NiwwLTE1Ljk2LTUuNDUtMTguNTYtMTMuNSAgIEgwLjg4QzQuMTksNTQuMDYsMTUuODksNjAuMzksMjcsNTcuMDdzMTcuNDQtMTUuMDEsMTQuMTItMjYuMTJDMzguNDgsMjIuMDUsMzAuMjksMTUuOTUsMjEsMTUuOTV6Ii8+JiN4YTs8L2c+JiN4YTs8ZyBpZD0ic2hhcGU1MDc3LTEzIiB0cmFuc2Zvcm09InRyYW5zbGF0ZSgtMywtNC40OTkwOTk1KSI+JiN4YTsJPHRpdGxlIGlkPSJ0aXRsZTk3MDExIj5yZWN0NDg0NzwvdGl0bGU+JiN4YTsJPHJlY3QgaWQ9InJlY3Q5NzAxMyIgeT0iMS41IiBzdHlsZT0iZmlsbDpub25lOyIgd2lkdGg9IjQ4IiBoZWlnaHQ9IjQ4Ii8+JiN4YTs8L2c+JiN4YTs8L3N2Zz4=;" vertex="1" parent="1">
          <mxGeometry x="1225" y="360" width="30" height="30" as="geometry" />
        </mxCell>
        <mxCell id="NkLvIqLFpbnPFktaiqOG-73" value="" style="whiteSpace=wrap;html=1;rounded=0;fontSize=14;opacity=80;dashed=1;strokeColor=#007FFF;fillColor=#E6E6E6;" vertex="1" parent="1">
          <mxGeometry x="1630" y="420" width="90" height="180" as="geometry" />
        </mxCell>
        <mxCell id="NkLvIqLFpbnPFktaiqOG-74" value="" style="whiteSpace=wrap;html=1;rounded=0;fontSize=14;fillColor=#ffffff;opacity=80;dashed=1;strokeColor=#007FFF;" vertex="1" parent="1">
          <mxGeometry x="1720" y="420" width="190" height="180" as="geometry" />
        </mxCell>
        <mxCell id="NkLvIqLFpbnPFktaiqOG-75" value="IaaS" style="text;html=1;resizable=0;autosize=1;align=center;verticalAlign=middle;points=[];fillColor=#dae8fc;rounded=0;fontSize=14;opacity=80;fontFamily=Lucida Console;" vertex="1" parent="1">
          <mxGeometry x="1775" y="430" width="50" height="20" as="geometry" />
        </mxCell>
        <mxCell id="NkLvIqLFpbnPFktaiqOG-76" value="Integration" style="text;html=1;resizable=0;autosize=1;align=center;verticalAlign=middle;points=[];fillColor=none;strokeColor=none;rounded=0;fontFamily=Helvetica;fontSize=12;opacity=80;" vertex="1" parent="1">
          <mxGeometry x="1637.25" y="430" width="70" height="20" as="geometry" />
        </mxCell>
        <mxCell id="NkLvIqLFpbnPFktaiqOG-77" value="" style="shape=image;verticalLabelPosition=bottom;labelBackgroundColor=#ffffff;verticalAlign=top;aspect=fixed;imageAspect=0;image=data:image/svg+xml,PHN2ZyB4bWxuczpjYz0iaHR0cDovL2NyZWF0aXZlY29tbW9ucy5vcmcvbnMjIiB4bWxuczpkYz0iaHR0cDovL3B1cmwub3JnL2RjL2VsZW1lbnRzLzEuMS8iIHhtbG5zOmlua3NjYXBlPSJodHRwOi8vd3d3Lmlua3NjYXBlLm9yZy9uYW1lc3BhY2VzL2lua3NjYXBlIiB4bWxuczpyZGY9Imh0dHA6Ly93d3cudzMub3JnLzE5OTkvMDIvMjItcmRmLXN5bnRheC1ucyMiIHhtbG5zOnNvZGlwb2RpPSJodHRwOi8vc29kaXBvZGkuc291cmNlZm9yZ2UubmV0L0RURC9zb2RpcG9kaS0wLmR0ZCIgeG1sbnM6c3ZnPSJodHRwOi8vd3d3LnczLm9yZy8yMDAwL3N2ZyIgeG1sbnM9Imh0dHA6Ly93d3cudzMub3JnLzIwMDAvc3ZnIiB4bWxuczp4bGluaz0iaHR0cDovL3d3dy53My5vcmcvMTk5OS94bGluayIgdmVyc2lvbj0iMS4xIiBpZD0ic3ZnMTAwMzAzIiBpbmtzY2FwZTp2ZXJzaW9uPSIwLjkyLjMgKDI0MDU1NDYsIDIwMTgtMDMtMTEpIiBzb2RpcG9kaTpkb2NuYW1lPSJnZW5lcmljX2RhdGFiYXNlX2JsdWUuc3ZnIiB4PSIwcHgiIHk9IjBweCIgdmlld0JveD0iMCAwIDM2Ljc5IDQ3LjY5IiBzdHlsZT0iZW5hYmxlLWJhY2tncm91bmQ6bmV3IDAgMCAzNi43OSA0Ny42OTsiIHhtbDpzcGFjZT0icHJlc2VydmUiPiYjeGE7PHNvZGlwb2RpOm5hbWVkdmlldyBib3JkZXJjb2xvcj0iIzY2NjY2NiIgYm9yZGVyb3BhY2l0eT0iMSIgZml0LW1hcmdpbi1ib3R0b209IjAiIGZpdC1tYXJnaW4tbGVmdD0iMCIgZml0LW1hcmdpbi1yaWdodD0iMCIgZml0LW1hcmdpbi10b3A9IjAiIGdyaWR0b2xlcmFuY2U9IjEwIiBndWlkZXRvbGVyYW5jZT0iMTAiIGlkPSJuYW1lZHZpZXcxMDAzMDUiIGlua3NjYXBlOmN1cnJlbnQtbGF5ZXI9InN2ZzEwMDMwMyIgaW5rc2NhcGU6Y3g9IjI0LjUzMDAwMSIgaW5rc2NhcGU6Y3k9IjMxLjc5MTY2OSIgaW5rc2NhcGU6cGFnZW9wYWNpdHk9IjAiIGlua3NjYXBlOnBhZ2VzaGFkb3c9IjIiIGlua3NjYXBlOndpbmRvdy1oZWlnaHQ9IjEwMTciIGlua3NjYXBlOndpbmRvdy1tYXhpbWl6ZWQ9IjEiIGlua3NjYXBlOndpbmRvdy13aWR0aD0iMTkyMCIgaW5rc2NhcGU6d2luZG93LXg9Ii04IiBpbmtzY2FwZTp3aW5kb3cteT0iLTgiIGlua3NjYXBlOnpvb209IjEzLjIxODQ4MSIgb2JqZWN0dG9sZXJhbmNlPSIxMCIgcGFnZWNvbG9yPSIjZmZmZmZmIiBzaG93Z3JpZD0iZmFsc2UiPiYjeGE7CTwvc29kaXBvZGk6bmFtZWR2aWV3PiYjeGE7PGcgaWQ9ImcxMDAzMDEiIHRyYW5zZm9ybT0idHJhbnNsYXRlKC0wLjc1LC0wLjc0NSkiPiYjeGE7CTx0aXRsZSBpZD0idGl0bGUxMDAyNjkiPlBhZ2UtMTwvdGl0bGU+JiN4YTsJPGcgaWQ9Imdyb3VwMzQ5My0xIiB0cmFuc2Zvcm09InRyYW5zbGF0ZSgxLjUsLTEuNSkiPiYjeGE7CQk8dGl0bGUgaWQ9InRpdGxlMTAwMjcxIj5HZW5lcmljIERhdGFiYXNlIChCbHVlKTwvdGl0bGU+JiN4YTsJCTxnIGlkPSJncm91cDM0OTQtMiI+JiN4YTsJCQk8dGl0bGUgaWQ9InRpdGxlMTAwMjczIj5nMTQ1MDwvdGl0bGU+JiN4YTsJCQk8ZyBpZD0ic2hhcGUzNDk1LTMiPiYjeGE7CQkJCTx0aXRsZSBpZD0idGl0bGUxMDAyNzUiPnBhdGgxNDQyPC90aXRsZT4mI3hhOwkJCQk8cGF0aCBpZD0icGF0aDEwMDI3NyIgaW5rc2NhcGU6Y29ubmVjdG9yLWN1cnZhdHVyZT0iMCIgc3R5bGU9ImZpbGw6I0ZGRkZGRjsiIGQ9Ik0zMS43OSw5TDIxLjQ0LDkuMDlMMCw5LjI3djMzLjM3ICAgICAgYzAsMy40Miw3LjUsNi4zNywxNy4yNSw2LjU1aDAuMzdjMS4zMiwwLDIuNi0wLjA3LDMuODItMC4xOWMzLjU3LTAuMjIsNy4wOC0xLjA3LDEwLjM1LTIuNTNjMi4xOS0xLjEsMy40Ni0yLjQ0LDMuNDYtMy44M1Y4Ljk3ICAgICAgTDMxLjc5LDl6Ii8+JiN4YTsJCQk8L2c+JiN4YTsJCQk8ZyBpZD0ic2hhcGUzNDk2LTUiIHRyYW5zZm9ybT0idHJhbnNsYXRlKDIxLjQ0MjUsLTAuMjEpIj4mI3hhOwkJCQk8dGl0bGUgaWQ9InRpdGxlMTAwMjgwIj5wYXRoMTQ0NDwvdGl0bGU+JiN4YTsJCQkJPHBhdGggaWQ9InBhdGgxMDAyODIiIGlua3NjYXBlOmNvbm5lY3Rvci1jdXJ2YXR1cmU9IjAiIHN0eWxlPSJmaWxsOiNFNUU1RTU7IiBkPSJNMTAuMzUsOS4yMXYzNy40NSAgICAgIEM3LjA4LDQ4LjEyLDMuNTcsNDguOTcsMCw0OS4xOVY5LjNMMTAuMzUsOS4yMXoiLz4mI3hhOwkJCTwvZz4mI3hhOwkJCTxnIGlkPSJzaGFwZTM0OTctNyI+JiN4YTsJCQkJPHRpdGxlIGlkPSJ0aXRsZTEwMDI4NSI+cGF0aDE0NDY8L3RpdGxlPiYjeGE7CQkJCTxwYXRoIGlkPSJwYXRoMTAwMjg3IiBpbmtzY2FwZTpjb25uZWN0b3ItY3VydmF0dXJlPSIwIiBzdHlsZT0iZmlsbDpub25lOyIgZD0iTTAsOS4yN3YzMy4zN2MwLDMuNDIsNy40Niw2LjM3LDE3LjI1LDYuNTVoMC4zNyAgICAgIGM5Ljk3LTAuMTMsMTcuNjMtMy4xLDE3LjYzLTYuNTVWOC45N0wwLDkuMjd6Ii8+JiN4YTsJCQkJJiN4YTsJCQkJCTxwYXRoIGlkPSJwYXRoMTAwMjg5IiBpbmtzY2FwZTpjb25uZWN0b3ItY3VydmF0dXJlPSIwIiBzdHlsZT0iZmlsbDpub25lO3N0cm9rZTojNTU2QThBO3N0cm9rZS13aWR0aDoxLjU7c3Ryb2tlLW1pdGVybGltaXQ6MzsiIGQ9IiAgICAgIE0wLDkuMjd2MzMuMzdjMCwzLjQyLDcuNDYsNi4zNywxNy4yNSw2LjU1aDAuMzdjOS45Ny0wLjEzLDE3LjYzLTMuMSwxNy42My02LjU1VjguOTciLz4mI3hhOwkJCTwvZz4mI3hhOwkJCTxnIGlkPSJzaGFwZTM0OTgtMTAiIHRyYW5zZm9ybT0idHJhbnNsYXRlKDAuMDQ1LC0zMy40NjUpIj4mI3hhOwkJCQk8dGl0bGUgaWQ9InRpdGxlMTAwMjkyIj5wYXRoMTQ0ODwvdGl0bGU+JiN4YTsJCQkJPHBhdGggaWQ9InBhdGgxMDAyOTQiIGlua3NjYXBlOmNvbm5lY3Rvci1jdXJ2YXR1cmU9IjAiIHN0eWxlPSJmaWxsOiM1NUQyRjY7IiBkPSJNMzUuMjUsNDIuODJjMCwzLjUyLTcuODksNi4zNy0xNy42Myw2LjM3ICAgICAgQzcuODksNDkuMTksMCw0Ni4zNCwwLDQyLjgyYzAtMy41MSw4LjEyLTYuMzYsMTcuODYtNi4zNkMyNy41OSwzNi40NiwzNS4yNSwzOS4zMSwzNS4yNSw0Mi44MkwzNS4yNSw0Mi44MnoiLz4mI3hhOwkJCQkmI3hhOwkJCQkJPHBhdGggaWQ9InBhdGgxMDAyOTYiIGlua3NjYXBlOmNvbm5lY3Rvci1jdXJ2YXR1cmU9IjAiIHN0eWxlPSJmaWxsOm5vbmU7c3Ryb2tlOiM1NTZBOEE7c3Ryb2tlLXdpZHRoOjEuNTtzdHJva2UtbWl0ZXJsaW1pdDozOyIgZD0iICAgICAgTTM1LjI1LDQyLjgyYzAsMy41Mi03Ljg5LDYuMzctMTcuNjMsNi4zN0M3Ljg5LDQ5LjE5LDAsNDYuMzQsMCw0Mi44MmMwLTMuNTEsOC4xMi02LjM2LDE3Ljg2LTYuMzYgICAgICBDMjcuNTksMzYuNDYsMzUuMjUsMzkuMzEsMzUuMjUsNDIuODIiLz4mI3hhOwkJCTwvZz4mI3hhOwkJPC9nPiYjeGE7CTwvZz4mI3hhOzwvZz4mI3hhOzwvc3ZnPg==;" vertex="1" parent="1">
          <mxGeometry x="1853.5" y="518" width="37" height="48" as="geometry" />
        </mxCell>
        <mxCell id="NkLvIqLFpbnPFktaiqOG-78" value="" style="shape=image;html=1;verticalAlign=top;verticalLabelPosition=bottom;labelBackgroundColor=#ffffff;imageAspect=0;aspect=fixed;image=https://cdn2.iconfinder.com/data/icons/stilllife/48x48/filesystems/gnome-fs-ftp.png" vertex="1" parent="1">
          <mxGeometry x="1648" y="500" width="48" height="48" as="geometry" />
        </mxCell>
        <mxCell id="NkLvIqLFpbnPFktaiqOG-79" value="" style="shape=image;verticalLabelPosition=bottom;labelBackgroundColor=#ffffff;verticalAlign=top;aspect=fixed;imageAspect=0;image=data:image/svg+xml,PHN2ZyB4bWxuczpjYz0iaHR0cDovL2NyZWF0aXZlY29tbW9ucy5vcmcvbnMjIiB4bWxuczpkYz0iaHR0cDovL3B1cmwub3JnL2RjL2VsZW1lbnRzLzEuMS8iIHhtbG5zOmlua3NjYXBlPSJodHRwOi8vd3d3Lmlua3NjYXBlLm9yZy9uYW1lc3BhY2VzL2lua3NjYXBlIiB4bWxuczpyZGY9Imh0dHA6Ly93d3cudzMub3JnLzE5OTkvMDIvMjItcmRmLXN5bnRheC1ucyMiIHhtbG5zOnNvZGlwb2RpPSJodHRwOi8vc29kaXBvZGkuc291cmNlZm9yZ2UubmV0L0RURC9zb2RpcG9kaS0wLmR0ZCIgeG1sbnM6c3ZnPSJodHRwOi8vd3d3LnczLm9yZy8yMDAwL3N2ZyIgeG1sbnM9Imh0dHA6Ly93d3cudzMub3JnLzIwMDAvc3ZnIiB4bWxuczp4bGluaz0iaHR0cDovL3d3dy53My5vcmcvMTk5OS94bGluayIgdmVyc2lvbj0iMS4xIiBpZD0ic3ZnMzg3NzciIGlua3NjYXBlOnZlcnNpb249IjAuOTIuMyAoMjQwNTU0NiwgMjAxOC0wMy0xMSkiIHNvZGlwb2RpOmRvY25hbWU9ImNzdi5zdmciIHg9IjBweCIgeT0iMHB4IiB2aWV3Qm94PSIwIDAgMjYuODUgMzUuMzIiIHN0eWxlPSJlbmFibGUtYmFja2dyb3VuZDpuZXcgMCAwIDI2Ljg1IDM1LjMyOyIgeG1sOnNwYWNlPSJwcmVzZXJ2ZSI+JiN4YTs8c29kaXBvZGk6bmFtZWR2aWV3IGJvcmRlcmNvbG9yPSIjNjY2NjY2IiBib3JkZXJvcGFjaXR5PSIxIiBmaXQtbWFyZ2luLWJvdHRvbT0iMCIgZml0LW1hcmdpbi1sZWZ0PSIwIiBmaXQtbWFyZ2luLXJpZ2h0PSIwIiBmaXQtbWFyZ2luLXRvcD0iMCIgZ3JpZHRvbGVyYW5jZT0iMTAiIGd1aWRldG9sZXJhbmNlPSIxMCIgaWQ9Im5hbWVkdmlldzM4Nzc5IiBpbmtzY2FwZTpjdXJyZW50LWxheWVyPSJzdmczODc3NyIgaW5rc2NhcGU6Y3g9IjE3Ljg5Nzg4NCIgaW5rc2NhcGU6Y3k9IjIzLjU0OTc1NiIgaW5rc2NhcGU6cGFnZW9wYWNpdHk9IjAiIGlua3NjYXBlOnBhZ2VzaGFkb3c9IjIiIGlua3NjYXBlOndpbmRvdy1oZWlnaHQ9IjEwMTciIGlua3NjYXBlOndpbmRvdy1tYXhpbWl6ZWQ9IjEiIGlua3NjYXBlOndpbmRvdy13aWR0aD0iMTkyMCIgaW5rc2NhcGU6d2luZG93LXg9Ii04IiBpbmtzY2FwZTp3aW5kb3cteT0iLTgiIGlua3NjYXBlOnpvb209IjExLjM3MjMzNiIgb2JqZWN0dG9sZXJhbmNlPSIxMCIgcGFnZWNvbG9yPSIjZmZmZmZmIiBzaG93Z3JpZD0iZmFsc2UiPiYjeGE7CTwvc29kaXBvZGk6bmFtZWR2aWV3PiYjeGE7PGcgaWQ9ImczODc3NSIgdHJhbnNmb3JtPSJ0cmFuc2xhdGUoLTEwLjkyODYsLTEwLjkzMTQpIj4mI3hhOwk8dGl0bGUgaWQ9InRpdGxlMzg3MjkiPlBhZ2UtMTwvdGl0bGU+JiN4YTsJPGcgaWQ9Imdyb3VwNDAxNi0xIiB0cmFuc2Zvcm09InRyYW5zbGF0ZSgxMC45Mjg2LC0xMC45Mjg2KSI+JiN4YTsJCTx0aXRsZSBpZD0idGl0bGUzODczMSI+Q1NWPC90aXRsZT4mI3hhOwkJPGcgaWQ9Imdyb3VwNDAxNy0yIj4mI3hhOwkJCTx0aXRsZSBpZD0idGl0bGUzODczMyI+U2hlZXQuNDAxNzwvdGl0bGU+JiN4YTsJCQk8ZyBpZD0ic2hhcGU0MDE4LTMiPiYjeGE7CQkJCTx0aXRsZSBpZD0idGl0bGUzODczNSI+U2hlZXQuNDAxODwvdGl0bGU+JiN4YTsJCQkJPHBhdGggaWQ9InBhdGgzODczNyIgaW5rc2NhcGU6Y29ubmVjdG9yLWN1cnZhdHVyZT0iMCIgc3R5bGU9ImZpbGw6I0U5RTlFMDsiIGQ9Ik0xOS4wMywyMS44NkgwLjkxYy0wLjUsMC0wLjkxLDAuNDEtMC45MSwxLjIxICAgICAgdjMzLjQ4YzAsMC4yMiwwLjQxLDAuNjMsMC45MSwwLjYzaDI1LjAyYzAuNTEsMCwwLjkyLTAuNDEsMC45Mi0wLjYzVjMwLjA0YzAtMC40NC0wLjA2LTAuNTgtMC4xNi0wLjY4bC03LjI3LTcuMzQgICAgICBDMTkuMzIsMjEuOTIsMTkuMTgsMjEuODYsMTkuMDMsMjEuODZ6Ii8+JiN4YTsJCQk8L2c+JiN4YTsJCQk8ZyBpZD0ic2hhcGU0MDE5LTUiIHRyYW5zZm9ybT0idHJhbnNsYXRlKDE5LjM1NDcsLTI3Ljc1MjMpIj4mI3hhOwkJCQk8dGl0bGUgaWQ9InRpdGxlMzg3NDAiPlNoZWV0LjQwMTk8L3RpdGxlPiYjeGE7CQkJCTxwYXRoIGlkPSJwYXRoMzg3NDIiIGlua3NjYXBlOmNvbm5lY3Rvci1jdXJ2YXR1cmU9IjAiIHN0eWxlPSJmaWxsOiNEOUQ3Q0E7IiBkPSJNMCw0OS43djcuNDhoNy40TDAsNDkuN3oiLz4mI3hhOwkJCTwvZz4mI3hhOwkJCTxnIGlkPSJzaGFwZTQwMjAtNyI+JiN4YTsJCQkJPHRpdGxlIGlkPSJ0aXRsZTM4NzQ1Ij5TaGVldC40MDIwPC90aXRsZT4mI3hhOwkJCQk8cGF0aCBpZD0icGF0aDM4NzQ3IiBpbmtzY2FwZTpjb25uZWN0b3ItY3VydmF0dXJlPSIwIiBzdHlsZT0iZmlsbDojRjMwQkEwOyIgZD0iTTI1LjkzLDU3LjE4SDAuOTFjLTAuNSwwLTAuOTEtMC40MS0wLjkxLTAuOTIgICAgICB2LTkuOGgyNi44NXY5LjhDMjYuODUsNTYuNzcsMjYuNDQsNTcuMTgsMjUuOTMsNTcuMTh6Ii8+JiN4YTsJCQk8L2c+JiN4YTsJCQk8ZyBpZD0iZ3JvdXA0MDIxLTkiIHRyYW5zZm9ybT0idHJhbnNsYXRlKDUuMDQ1MzQsLTEuODQ5MzEpIj4mI3hhOwkJCQk8dGl0bGUgaWQ9InRpdGxlMzg3NTAiPlNoZWV0LjQwMjE8L3RpdGxlPiYjeGE7CQkJCTxnIGlkPSJzaGFwZTQwMjItMTAiPiYjeGE7CQkJCQk8dGl0bGUgaWQ9InRpdGxlMzg3NTIiPlNoZWV0LjQwMjI8L3RpdGxlPiYjeGE7CQkJCQk8cGF0aCBpZD0icGF0aDM4NzU0IiBpbmtzY2FwZTpjb25uZWN0b3ItY3VydmF0dXJlPSIwIiBzdHlsZT0iZmlsbDojRkZGRkZGOyIgZD0iTTQuMzcsNTYuNDljLTAuMjMsMC4yMy0wLjUsMC40LTAuNzksMC41MiAgICAgICBjLTAuMywwLjExLTAuNjIsMC4xNy0wLjk2LDAuMTdjLTAuMzgsMC0wLjcyLTAuMDctMS4wNC0wLjIxYy0wLjMxLTAuMTQtMC41OS0wLjM0LTAuODItMC42MWMtMC4yNC0wLjI3LTAuNDMtMC42MS0wLjU2LTEuMDIgICAgICAgUzAsNTQuNDYsMCw1My45M2MwLTAuNTQsMC4wNy0xLjAxLDAuMi0xLjQxYzAuMTMtMC40MSwwLjMyLTAuNzUsMC41Ni0xLjAyYzAuMjMtMC4yNywwLjUxLTAuNDcsMC44My0wLjYxczAuNjYtMC4yMSwxLjAzLTAuMjEgICAgICAgYzAuMzQsMCwwLjY2LDAuMDUsMC45NiwwLjE3YzAuMjksMC4xMSwwLjU2LDAuMjksMC43OSwwLjUyTDMuNjYsNTJjLTAuMTQtMC4xNi0wLjMtMC4yOC0wLjQ3LTAuMzYgICAgICAgYy0wLjE4LTAuMDctMC4zNi0wLjExLTAuNTQtMC4xMWMtMC4yMiwwLTAuNDIsMC4wNC0wLjYxLDAuMTJjLTAuMTksMC4wOC0wLjM2LDAuMjItMC41MSwwLjQxcy0wLjI3LDAuNDQtMC4zNSwwLjc1ICAgICAgIGMtMC4wOSwwLjMtMC4xMywwLjY3LTAuMTQsMS4xMmMwLjAxLDAuNDMsMC4wNSwwLjgsMC4xMywxLjFjMC4wOSwwLjMxLDAuMiwwLjU1LDAuMzQsMC43NWMwLjE1LDAuMTksMC4zMSwwLjMzLDAuNSwwLjQyICAgICAgIGMwLjE4LDAuMDksMC4zOCwwLjEzLDAuNTgsMC4xM2MwLjIxLDAsMC40LTAuMDMsMC41OC0wLjExYzAuMTgtMC4wNywwLjM0LTAuMTksMC40OS0wLjM2TDQuMzcsNTYuNDl6Ii8+JiN4YTsJCQkJPC9nPiYjeGE7CQkJCTxnIGlkPSJzaGFwZTQwMjMtMTIiIHRyYW5zZm9ybT0idHJhbnNsYXRlKDUuNzQzMzYsLTAuMDA4ODMwMjcpIj4mI3hhOwkJCQkJPHRpdGxlIGlkPSJ0aXRsZTM4NzU3Ij5TaGVldC40MDIzPC90aXRsZT4mI3hhOwkJCQkJPHBhdGggaWQ9InBhdGgzODc1OSIgaW5rc2NhcGU6Y29ubmVjdG9yLWN1cnZhdHVyZT0iMCIgc3R5bGU9ImZpbGw6I0ZGRkZGRjsiIGQ9Ik0zLjY1LDU1LjRjMCwwLjIzLTAuMDQsMC40NS0wLjE0LDAuNjcgICAgICAgYy0wLjA5LDAuMjItMC4yMiwwLjQxLTAuMzksMC41N3MtMC4zOSwwLjI5LTAuNjQsMC4zOXMtMC41MywwLjE1LTAuODUsMC4xNWMtMC4xNCwwLTAuMjgtMC4wMS0wLjQyLTAuMDIgICAgICAgYy0wLjE1LTAuMDItMC4yOS0wLjA0LTAuNDQtMC4wOEMwLjYyLDU3LjA1LDAuNDgsNTcsMC4zNSw1Ni45NEMwLjIxLDU2Ljg4LDAuMSw1Ni44MSwwLDU2LjcybDAuMTgtMC43NCAgICAgICBjMC4wOCwwLjA1LDAuMTgsMC4wOSwwLjMsMC4xM2MwLjEyLDAuMDUsMC4yNSwwLjA5LDAuMzgsMC4xMmMwLjEzLDAuMDQsMC4yNiwwLjA3LDAuMzksMC4wOWMwLjEzLDAuMDMsMC4yNiwwLjA0LDAuMzcsMC4wNCAgICAgICBjMC4zNSwwLDAuNjEtMC4wOCwwLjgtMC4yNWMwLjE4LTAuMTYsMC4yOC0wLjQsMC4yOC0wLjczYzAtMC4xOS0wLjA3LTAuMzYtMC4yLTAuNWMtMC4xMy0wLjEzLTAuMjktMC4yNi0wLjQ5LTAuMzcgICAgICAgYy0wLjItMC4xMS0wLjQxLTAuMjItMC42NC0wLjM0Yy0wLjIyLTAuMTEtMC40NC0wLjI0LTAuNjQtMC4zOWMtMC4yLTAuMTYtMC4zNi0wLjM0LTAuNDktMC41NGMtMC4xMy0wLjIxLTAuMi0wLjQ3LTAuMi0wLjc4ICAgICAgIGMwLTAuMjgsMC4wNS0wLjUzLDAuMTYtMC43NWMwLjEtMC4yMiwwLjI0LTAuNCwwLjQxLTAuNTVjMC4xNy0wLjE2LDAuMzgtMC4yNywwLjYxLTAuMzVjMC4yMy0wLjA4LDAuNDctMC4xMiwwLjczLTAuMTIgICAgICAgczAuNTIsMC4wMiwwLjc5LDAuMDdTMy4yMiw1MC44OSwzLjM5LDUxYy0wLjA0LDAuMDctMC4wOCwwLjE1LTAuMTIsMC4yNGMtMC4wNSwwLjA5LTAuMDksMC4xNy0wLjEzLDAuMjUgICAgICAgYy0wLjA0LDAuMDgtMC4wNywwLjE0LTAuMSwwLjJjLTAuMDMsMC4wNS0wLjA1LDAuMDgtMC4wNSwwLjA4Yy0wLjA0LTAuMDEtMC4wNy0wLjA0LTAuMTItMC4wN2MtMC4wNC0wLjAzLTAuMS0wLjA1LTAuMTgtMC4wOCAgICAgICBjLTAuMDgtMC4wMy0wLjE5LTAuMDUtMC4zMi0wLjA2Yy0wLjEzLTAuMDItMC4zLTAuMDEtMC41LDAuMDFjLTAuMTIsMC4wMS0wLjIyLDAuMDQtMC4zMywwLjA5Yy0wLjEsMC4wNi0wLjE5LDAuMTMtMC4yNywwLjIxICAgICAgIGMtMC4wOCwwLjA4LTAuMTQsMC4xNy0wLjE5LDAuMjdjLTAuMDQsMC4xLTAuMDcsMC4yLTAuMDcsMC4yOWMwLDAuMjMsMC4wNywwLjQxLDAuMiwwLjU1YzAuMTMsMC4xNSwwLjI5LDAuMjcsMC40OSwwLjM3ICAgICAgIGMwLjE5LDAuMTEsMC40LDAuMjEsMC42MywwLjMyYzAuMjMsMC4xLDAuNDQsMC4yMiwwLjY0LDAuMzZjMC4xOSwwLjE0LDAuMzUsMC4zMywwLjQ5LDAuNTRDMy41OSw1NC43OSwzLjY1LDU1LjA2LDMuNjUsNTUuNHoiLz4mI3hhOwkJCQk8L2c+JiN4YTsJCQkJPGcgaWQ9InNoYXBlNDAyNC0xNCIgdHJhbnNmb3JtPSJ0cmFuc2xhdGUoMTAuMTkxMiwtMC4wMDgxOTk1MykiPiYjeGE7CQkJCQk8dGl0bGUgaWQ9InRpdGxlMzg3NjIiPlNoZWV0LjQwMjQ8L3RpdGxlPiYjeGE7CQkJCQk8cGF0aCBpZD0icGF0aDM4NzY0IiBpbmtzY2FwZTpjb25uZWN0b3ItY3VydmF0dXJlPSIwIiBzdHlsZT0iZmlsbDojRkZGRkZGOyIgZD0iTTEuOTUsNTcuMThMMCw1MC43OWgxLjE3bDEuNDYsNS40OGwxLjU0LTUuNDggICAgICAgaDEuMTdsLTIuMDUsNi4zOUgxLjk1eiIvPiYjeGE7CQkJCTwvZz4mI3hhOwkJCTwvZz4mI3hhOwkJCTxnIGlkPSJzaGFwZTQwMjUtMTYiIHRyYW5zZm9ybT0idHJhbnNsYXRlKDMuMTIxNzMsLTEzLjg3NjEpIj4mI3hhOwkJCQk8dGl0bGUgaWQ9InRpdGxlMzg3NjgiPlNoZWV0LjQwMjU8L3RpdGxlPiYjeGE7CQkJCTxwYXRoIGlkPSJwYXRoMzg3NzAiIGlua3NjYXBlOmNvbm5lY3Rvci1jdXJ2YXR1cmU9IjAiIHN0eWxlPSJmaWxsOiNDOEJEQjg7IiBkPSJNNy40OSw0NS44M1Y0My4zSDB2Mi41M3YxLjI2djEuMjZ2MS4yNnYxLjI2ICAgICAgdjEuMjZ2MS4yNnYxLjI3djIuNTJoNi4yNGgxLjI1SDIwLjZ2LTIuNTJ2LTEuMjd2LTEuMjZ2LTEuMjZ2LTEuMjZ2LTEuMjZ2LTIuNTJINy40OXogTTEuMjUsNDQuNTZoNC45OXYxLjI3SDEuMjVWNDQuNTZ6ICAgICAgIE0xLjI1LDQ3LjA5aDQuOTl2MS4yNkgxLjI1VjQ3LjA5eiBNMS4yNSw0OS42MWg0Ljk5djEuMjZIMS4yNVY0OS42MXogTTEuMjUsNTIuMTNoNC45OXYxLjI2SDEuMjVWNTIuMTN6IE02LjI0LDU1LjkySDEuMjUgICAgICB2LTEuMjZoNC45OVY1NS45MnogTTE5LjM1LDU1LjkySDcuNDl2LTEuMjZoMTEuODZWNTUuOTJ6IE0xOS4zNSw1My4zOUg3LjQ5di0xLjI2aDExLjg2VjUzLjM5eiBNMTkuMzUsNTAuODdINy40OXYtMS4yNmgxMS44NiAgICAgIEwxOS4zNSw1MC44N3ogTTcuNDksNDguMzV2LTEuMjZoMTEuODZ2MS4yNkg3LjQ5eiIvPiYjeGE7CQkJPC9nPiYjeGE7CQk8L2c+JiN4YTsJPC9nPiYjeGE7PC9nPiYjeGE7PC9zdmc+;" vertex="1" parent="1">
          <mxGeometry x="1661.43" y="468" width="38.57" height="50" as="geometry" />
        </mxCell>
        <mxCell id="NkLvIqLFpbnPFktaiqOG-80" value="" style="whiteSpace=wrap;html=1;rounded=0;fontSize=14;opacity=80;dashed=1;strokeColor=#6c8ebf;fillColor=#dae8fc;" vertex="1" parent="1">
          <mxGeometry x="1523" y="420" width="90" height="90" as="geometry" />
        </mxCell>
        <mxCell id="NkLvIqLFpbnPFktaiqOG-81" value="Outbound" style="text;html=1;resizable=0;autosize=1;align=center;verticalAlign=middle;points=[];fillColor=none;strokeColor=none;rounded=0;fontFamily=Helvetica;fontSize=12;opacity=80;" vertex="1" parent="1">
          <mxGeometry x="1531" y="422.5" width="70" height="20" as="geometry" />
        </mxCell>
        <mxCell id="NkLvIqLFpbnPFktaiqOG-82" value="" style="shape=image;verticalLabelPosition=bottom;labelBackgroundColor=#ffffff;verticalAlign=top;aspect=fixed;imageAspect=0;image=data:image/svg+xml,PHN2ZyB4bWxuczpkYz0iaHR0cDovL3B1cmwub3JnL2RjL2VsZW1lbnRzLzEuMS8iIHhtbG5zOmNjPSJodHRwOi8vY3JlYXRpdmVjb21tb25zLm9yZy9ucyMiIHhtbG5zOnJkZj0iaHR0cDovL3d3dy53My5vcmcvMTk5OS8wMi8yMi1yZGYtc3ludGF4LW5zIyIgeG1sbnM6c3ZnPSJodHRwOi8vd3d3LnczLm9yZy8yMDAwL3N2ZyIgeG1sbnM9Imh0dHA6Ly93d3cudzMub3JnLzIwMDAvc3ZnIiB4bWxuczpzb2RpcG9kaT0iaHR0cDovL3NvZGlwb2RpLnNvdXJjZWZvcmdlLm5ldC9EVEQvc29kaXBvZGktMC5kdGQiIHhtbG5zOmlua3NjYXBlPSJodHRwOi8vd3d3Lmlua3NjYXBlLm9yZy9uYW1lc3BhY2VzL2lua3NjYXBlIiB2ZXJzaW9uPSIxLjEiIGlkPSJzdmc2MDYwNyIgaW5rc2NhcGU6dmVyc2lvbj0iMC45Mi4zICgyNDA1NTQ2LCAyMDE4LTAzLTExKSIgc29kaXBvZGk6ZG9jbmFtZT0iYXp1cmVfcG9ydGFsX2xvZ2ljX2FwcHMuc3ZnIiB4PSIwcHgiIHk9IjBweCIgdmlld0JveD0iMCAwIDgyLjQ5IDY0LjA1OTg2OCIgeG1sOnNwYWNlPSJwcmVzZXJ2ZSIgd2lkdGg9IjgyLjQ4OTk5OCIgaGVpZ2h0PSI2NC4wNTk4NjgiPjxtZXRhZGF0YSBpZD0ibWV0YWRhdGE5NTI0Ij48cmRmOlJERj48Y2M6V29yayByZGY6YWJvdXQ9IiI+PGRjOmZvcm1hdD5pbWFnZS9zdmcreG1sPC9kYzpmb3JtYXQ+PGRjOnR5cGUgcmRmOnJlc291cmNlPSJodHRwOi8vcHVybC5vcmcvZGMvZGNtaXR5cGUvU3RpbGxJbWFnZSIvPjxkYzp0aXRsZS8+PC9jYzpXb3JrPjwvcmRmOlJERj48L21ldGFkYXRhPjxkZWZzIGlkPSJkZWZzOTUyMiI+JiN4YTsJJiN4YTsmI3hhOwkmI3hhOyYjeGE7CSYjeGE7JiN4YTsJJiN4YTsmI3hhOwkmI3hhOyYjeGE7CSYjeGE7JiN4YTsJJiN4YTsmI3hhOwkmI3hhOyYjeGE7CQkmI3hhOwkmI3hhOwkJJiN4YTsJJiN4YTsJCSYjeGE7CSYjeGE7CQkmI3hhOwkmI3hhOwkJJiN4YTsJJiN4YTsJCSYjeGE7CSYjeGE7CQkmI3hhOwk8L2RlZnM+JiN4YTs8ZmlsdGVyIGlkPSJmaWx0ZXJfMiI+JiN4YTsJPGZlR2F1c3NpYW5CbHVyIGlkPSJmZUdhdXNzaWFuQmx1cjYwNTMyIiBzdGREZXZpYXRpb249IjIiLz4mI3hhOzwvZmlsdGVyPiYjeGE7PHNvZGlwb2RpOm5hbWVkdmlldyBib3JkZXJjb2xvcj0iIzY2NjY2NiIgYm9yZGVyb3BhY2l0eT0iMSIgZml0LW1hcmdpbi1ib3R0b209IjAiIGZpdC1tYXJnaW4tbGVmdD0iMCIgZml0LW1hcmdpbi1yaWdodD0iMCIgZml0LW1hcmdpbi10b3A9IjAiIGdyaWR0b2xlcmFuY2U9IjEwIiBndWlkZXRvbGVyYW5jZT0iMTAiIGlkPSJuYW1lZHZpZXc2MDYwOSIgaW5rc2NhcGU6Y3VycmVudC1sYXllcj0ic3ZnNjA2MDciIGlua3NjYXBlOmN4PSItMTcuNTIzODc3IiBpbmtzY2FwZTpjeT0iMjUuOTk4MTIzIiBpbmtzY2FwZTpwYWdlb3BhY2l0eT0iMCIgaW5rc2NhcGU6cGFnZXNoYWRvdz0iMiIgaW5rc2NhcGU6d2luZG93LWhlaWdodD0iMTAxNyIgaW5rc2NhcGU6d2luZG93LW1heGltaXplZD0iMSIgaW5rc2NhcGU6d2luZG93LXdpZHRoPSIxOTIwIiBpbmtzY2FwZTp3aW5kb3cteD0iLTgiIGlua3NjYXBlOndpbmRvdy15PSItOCIgaW5rc2NhcGU6em9vbT0iNS4xOTI4MDM5IiBvYmplY3R0b2xlcmFuY2U9IjEwIiBwYWdlY29sb3I9IiNmZmZmZmYiIHNob3dncmlkPSJmYWxzZSI+JiN4YTsJPC9zb2RpcG9kaTpuYW1lZHZpZXc+JiN4YTsmI3hhOzxwYXRoIGlkPSJwYXRoNjA1NDUiIGlua3NjYXBlOmNvbm5lY3Rvci1jdXJ2YXR1cmU9IjAiIHN0eWxlPSJmaWxsOiM1OWI0ZDkiIGQ9Im0gNDIuODksMjUuOTI2MyB2IC04LjI1IGggLTQuMTIgdiA4LjI1IGMgMCwxLjQ4IC0xLjMyLDIuOCAtMy40NywzLjQ2IGwgLTUuNjEsMS4xNiBjIC0zLjc5LDEuMTUgLTYuNDMsNC4xMiAtNi40Myw3LjQyIHYgOS40IGggNC4xMiB2IC05LjQgYyAwLC0xLjQ4IDEuMzIsLTIuOCAzLjQ3LC0zLjQ2IGwgNS42MSwtMS4zMiBjIDMuNDYsLTAuNjYgNi4xLC0zLjYzIDYuNDMsLTcuMjYgeiIvPiYjeGE7JiN4YTs8cGF0aCBpZD0icGF0aDYwNTUzIiBpbmtzY2FwZTpjb25uZWN0b3ItY3VydmF0dXJlPSIwIiBzdHlsZT0iZmlsbDojN2ZiYTAwIiBkPSJtIDMyLjM0LDUxLjY1NjMgdiAtNy41OCBjIDAsLTEuODIgLTEuNDksLTMuMyAtMy4zLC0zLjMgaCAtNy41OSBjIC0xLjgyLDAgLTMuMywxLjQ4IC0zLjMsMy4zIHYgNy41OCBjIDAsMS44MiAxLjQ4LDMuMyAzLjMsMy4zIGggNy41OSBjIDEuODEsMCAzLjMsLTEuNDggMy4zLC0zLjMgeiIvPiYjeGE7JiN4YTs8cGF0aCBpZD0icGF0aDYwNTYxIiBpbmtzY2FwZTpjb25uZWN0b3ItY3VydmF0dXJlPSIwIiBzdHlsZT0iZmlsbDojNTliNGQ5IiBkPSJtIDM4LjI4LDI1LjkyNjMgdiAtOC4yNSBoIDQuMTIgdiA4LjI1IGMgMCwxLjQ4IDEuMzIsMi44IDMuNDcsMy40NiBsIDYuOTMsMS40OSBjIDMuNzksMS4xNSA2LjQzLDQuMTIgNi40Myw3LjQyIHYgOS40IGggLTQuMTIgdiAtOS40IGMgMCwtMS40OCAtMS4zMiwtMi44IC0zLjQ3LC0zLjQ2IGwgLTYuOTMsLTEuNDkgYyAtMy43OSwtMS4xNSAtNi40MywtNC4xMiAtNi40MywtNy40MiB6Ii8+JiN4YTsmI3hhOzxwYXRoIGlkPSJwYXRoNjA1NjkiIGlua3NjYXBlOmNvbm5lY3Rvci1jdXJ2YXR1cmU9IjAiIHN0eWxlPSJmaWxsOiM3ZmJhMDAiIGQ9Im0gNTAuMTYsNTEuOTg2MyB2IC03LjU4IGMgMCwtMS44MiAxLjQ4LC0zLjMgMy4zLC0zLjMgaCA3LjU5IGMgMS44MSwwIDMuMywxLjQ4IDMuMywzLjMgdiA3LjU4IGMgMCwxLjgyIC0xLjQ5LDMuMyAtMy4zLDMuMyBoIC03LjU5IGMgLTEuODIsMCAtMy4zLC0xLjQ4IC0zLjMsLTMuMyB6Ii8+JiN4YTsmI3hhOyYjeGE7JiN4YTs8cGF0aCBpZD0icGF0aDYwNTg1IiBpbmtzY2FwZTpjb25uZWN0b3ItY3VydmF0dXJlPSIwIiBzdHlsZT0iZmlsbDojMDA3MmM2IiBkPSJtIDQzLjcyLDEwLjA4NjMgdiA2LjExIGggLTYuMSB2IC02LjExIHogbSAxLjMyLC00LjYyIEggMzYuMyBjIC0xLjgyLDAgLTMuMywxLjQ5IC0zLjMsMy4zIHYgOC43NCBjIDAsMS44MiAxLjQ4LDMuMyAzLjMsMy4zIGggOC43NCBjIDEuODIsMCAzLjMsLTEuNDggMy4zLC0zLjMgdiAtOC43NCBjIDAsLTEuODEgLTEuNDgsLTMuMyAtMy4zLC0zLjMgeiIvPiYjeGE7JiN4YTs8cGF0aCBpZD0icGF0aDYwNTkzIiBpbmtzY2FwZTpjb25uZWN0b3ItY3VydmF0dXJlPSIwIiBzdHlsZT0iZmlsbDojNTliNGQ5IiBkPSJtIDEzLjAzLDY0LjAzNjMgYyAtMi42NCwwLjE2IC01LjI4LC0wLjUgLTcuNDIsLTEuODIgLTEuNDksLTEuMzIgLTIuMTUsLTMuNDYgLTIuMTUsLTYuNTkgdiAtMTcuMTYgYyAwLC0yLjgxIC0xLjE1LC00LjI5IC0zLjQ2LC00LjI5IHYgLTQuMjkgYyAyLjMxLDAgMy40NiwtMS40OSAzLjQ2LC00LjQ2IHYgLTE2LjgzIGMgMCwtMy4xMyAwLjY2LC01LjQ0IDIuMTUsLTYuNzYgQyA3LjA5LDAuNTE2Mjk5OTggOS41NywwLjAxNjI5OTk4IDEzLjAzLDAuMDE2Mjk5OTggViA0LjMwNjMgYyAtMi40NywwIC0zLjc5LDEuMzIgLTMuNzksNC4xMyB2IDE2LjUgYyAwLDMuNzkgLTEuMTYsNi4xIC0zLjYzLDcuMDkgMi4zMSwwLjk5IDMuNjMsMy4zIDMuNjMsNy4xIHYgMTYuMzMgYyAwLDEuMTYgMC4xNiwyLjMxIDAuODIsMy4zIDAuODMsMC42NiAxLjgyLDEuMTYgMi44MSwwLjk5IDAsMCAwLjE2LDQuMjkgMC4xNiw0LjI5IHoiLz4mI3hhOyYjeGE7PHBhdGggaWQ9InBhdGg2MDYwMSIgaW5rc2NhcGU6Y29ubmVjdG9yLWN1cnZhdHVyZT0iMCIgc3R5bGU9ImZpbGw6IzU5YjRkOSIgZD0ibSA2OS40NiwwLjAyNjI5OTk4IGMgMi42NCwtMC4xNyA1LjI4LDAuNDkgNy40MiwxLjgxMDAwMDAyIDEuNDksMS4zMiAyLjE1LDMuNDcgMi4xNSw2LjYgdiAxNy4xNiBjIDAsMi44MSAxLjE1LDQuMjkgMy40Niw0LjI5IHYgNC4yOSBjIC0yLjMxLDAgLTMuNDYsMS40OSAtMy40Niw0LjQ2IHYgMTYuNjYgYyAwLDMuMTQgLTAuNjYsNS40NCAtMi4xNSw2Ljc2IC0xLjQ4LDEuMzIgLTMuOTYsMS45OCAtNy40MiwxLjk4IHYgLTQuMjggYyAyLjQ3LDAgMy43OSwtMS4zMiAzLjc5LC00LjEzIHYgLTE2LjUgYyAwLC0zLjc5IDEuMTYsLTYuMSAzLjYzLC03LjA5IC0yLjMxLC0wLjk5IC0zLjYzLC0zLjMgLTMuNjMsLTcuMSB2IC0xNi4zMyBjIDAsLTEuMTYgLTAuMTYsLTIuMzEgLTAuODIsLTMuMyAtMC44MywtMC42NiAtMS44MiwtMS4xNiAtMi44MSwtMC45OSB6Ii8+JiN4YTs8L3N2Zz4=;" vertex="1" parent="1">
          <mxGeometry x="1537.44" y="449" width="65.34" height="51" as="geometry" />
        </mxCell>
        <mxCell id="NkLvIqLFpbnPFktaiqOG-83" value="" style="whiteSpace=wrap;html=1;rounded=0;fontSize=14;opacity=80;dashed=1;strokeColor=#6c8ebf;fillColor=#dae8fc;" vertex="1" parent="1">
          <mxGeometry x="1523.83" y="510" width="90" height="90" as="geometry" />
        </mxCell>
        <mxCell id="NkLvIqLFpbnPFktaiqOG-84" value="Outbound" style="text;html=1;resizable=0;autosize=1;align=center;verticalAlign=middle;points=[];fillColor=none;strokeColor=none;rounded=0;fontFamily=Helvetica;fontSize=12;opacity=80;" vertex="1" parent="1">
          <mxGeometry x="1531.83" y="512.5" width="70" height="20" as="geometry" />
        </mxCell>
        <mxCell id="NkLvIqLFpbnPFktaiqOG-85" value="" style="shape=image;verticalLabelPosition=bottom;labelBackgroundColor=#ffffff;verticalAlign=top;aspect=fixed;imageAspect=0;image=data:image/svg+xml,PHN2ZyB4bWxuczpkYz0iaHR0cDovL3B1cmwub3JnL2RjL2VsZW1lbnRzLzEuMS8iIHhtbG5zOmNjPSJodHRwOi8vY3JlYXRpdmVjb21tb25zLm9yZy9ucyMiIHhtbG5zOnJkZj0iaHR0cDovL3d3dy53My5vcmcvMTk5OS8wMi8yMi1yZGYtc3ludGF4LW5zIyIgeG1sbnM6c3ZnPSJodHRwOi8vd3d3LnczLm9yZy8yMDAwL3N2ZyIgeG1sbnM9Imh0dHA6Ly93d3cudzMub3JnLzIwMDAvc3ZnIiB4bWxuczpzb2RpcG9kaT0iaHR0cDovL3NvZGlwb2RpLnNvdXJjZWZvcmdlLm5ldC9EVEQvc29kaXBvZGktMC5kdGQiIHhtbG5zOmlua3NjYXBlPSJodHRwOi8vd3d3Lmlua3NjYXBlLm9yZy9uYW1lc3BhY2VzL2lua3NjYXBlIiB2ZXJzaW9uPSIxLjEiIGlkPSJzdmc2MDYwNyIgaW5rc2NhcGU6dmVyc2lvbj0iMC45Mi4zICgyNDA1NTQ2LCAyMDE4LTAzLTExKSIgc29kaXBvZGk6ZG9jbmFtZT0iYXp1cmVfcG9ydGFsX2xvZ2ljX2FwcHMuc3ZnIiB4PSIwcHgiIHk9IjBweCIgdmlld0JveD0iMCAwIDgyLjQ5IDY0LjA1OTg2OCIgeG1sOnNwYWNlPSJwcmVzZXJ2ZSIgd2lkdGg9IjgyLjQ4OTk5OCIgaGVpZ2h0PSI2NC4wNTk4NjgiPjxtZXRhZGF0YSBpZD0ibWV0YWRhdGE5NTI0Ij48cmRmOlJERj48Y2M6V29yayByZGY6YWJvdXQ9IiI+PGRjOmZvcm1hdD5pbWFnZS9zdmcreG1sPC9kYzpmb3JtYXQ+PGRjOnR5cGUgcmRmOnJlc291cmNlPSJodHRwOi8vcHVybC5vcmcvZGMvZGNtaXR5cGUvU3RpbGxJbWFnZSIvPjxkYzp0aXRsZS8+PC9jYzpXb3JrPjwvcmRmOlJERj48L21ldGFkYXRhPjxkZWZzIGlkPSJkZWZzOTUyMiI+JiN4YTsJJiN4YTsmI3hhOwkmI3hhOyYjeGE7CSYjeGE7JiN4YTsJJiN4YTsmI3hhOwkmI3hhOyYjeGE7CSYjeGE7JiN4YTsJJiN4YTsmI3hhOwkmI3hhOyYjeGE7CQkmI3hhOwkmI3hhOwkJJiN4YTsJJiN4YTsJCSYjeGE7CSYjeGE7CQkmI3hhOwkmI3hhOwkJJiN4YTsJJiN4YTsJCSYjeGE7CSYjeGE7CQkmI3hhOwk8L2RlZnM+JiN4YTs8ZmlsdGVyIGlkPSJmaWx0ZXJfMiI+JiN4YTsJPGZlR2F1c3NpYW5CbHVyIGlkPSJmZUdhdXNzaWFuQmx1cjYwNTMyIiBzdGREZXZpYXRpb249IjIiLz4mI3hhOzwvZmlsdGVyPiYjeGE7PHNvZGlwb2RpOm5hbWVkdmlldyBib3JkZXJjb2xvcj0iIzY2NjY2NiIgYm9yZGVyb3BhY2l0eT0iMSIgZml0LW1hcmdpbi1ib3R0b209IjAiIGZpdC1tYXJnaW4tbGVmdD0iMCIgZml0LW1hcmdpbi1yaWdodD0iMCIgZml0LW1hcmdpbi10b3A9IjAiIGdyaWR0b2xlcmFuY2U9IjEwIiBndWlkZXRvbGVyYW5jZT0iMTAiIGlkPSJuYW1lZHZpZXc2MDYwOSIgaW5rc2NhcGU6Y3VycmVudC1sYXllcj0ic3ZnNjA2MDciIGlua3NjYXBlOmN4PSItMTcuNTIzODc3IiBpbmtzY2FwZTpjeT0iMjUuOTk4MTIzIiBpbmtzY2FwZTpwYWdlb3BhY2l0eT0iMCIgaW5rc2NhcGU6cGFnZXNoYWRvdz0iMiIgaW5rc2NhcGU6d2luZG93LWhlaWdodD0iMTAxNyIgaW5rc2NhcGU6d2luZG93LW1heGltaXplZD0iMSIgaW5rc2NhcGU6d2luZG93LXdpZHRoPSIxOTIwIiBpbmtzY2FwZTp3aW5kb3cteD0iLTgiIGlua3NjYXBlOndpbmRvdy15PSItOCIgaW5rc2NhcGU6em9vbT0iNS4xOTI4MDM5IiBvYmplY3R0b2xlcmFuY2U9IjEwIiBwYWdlY29sb3I9IiNmZmZmZmYiIHNob3dncmlkPSJmYWxzZSI+JiN4YTsJPC9zb2RpcG9kaTpuYW1lZHZpZXc+JiN4YTsmI3hhOzxwYXRoIGlkPSJwYXRoNjA1NDUiIGlua3NjYXBlOmNvbm5lY3Rvci1jdXJ2YXR1cmU9IjAiIHN0eWxlPSJmaWxsOiM1OWI0ZDkiIGQ9Im0gNDIuODksMjUuOTI2MyB2IC04LjI1IGggLTQuMTIgdiA4LjI1IGMgMCwxLjQ4IC0xLjMyLDIuOCAtMy40NywzLjQ2IGwgLTUuNjEsMS4xNiBjIC0zLjc5LDEuMTUgLTYuNDMsNC4xMiAtNi40Myw3LjQyIHYgOS40IGggNC4xMiB2IC05LjQgYyAwLC0xLjQ4IDEuMzIsLTIuOCAzLjQ3LC0zLjQ2IGwgNS42MSwtMS4zMiBjIDMuNDYsLTAuNjYgNi4xLC0zLjYzIDYuNDMsLTcuMjYgeiIvPiYjeGE7JiN4YTs8cGF0aCBpZD0icGF0aDYwNTUzIiBpbmtzY2FwZTpjb25uZWN0b3ItY3VydmF0dXJlPSIwIiBzdHlsZT0iZmlsbDojN2ZiYTAwIiBkPSJtIDMyLjM0LDUxLjY1NjMgdiAtNy41OCBjIDAsLTEuODIgLTEuNDksLTMuMyAtMy4zLC0zLjMgaCAtNy41OSBjIC0xLjgyLDAgLTMuMywxLjQ4IC0zLjMsMy4zIHYgNy41OCBjIDAsMS44MiAxLjQ4LDMuMyAzLjMsMy4zIGggNy41OSBjIDEuODEsMCAzLjMsLTEuNDggMy4zLC0zLjMgeiIvPiYjeGE7JiN4YTs8cGF0aCBpZD0icGF0aDYwNTYxIiBpbmtzY2FwZTpjb25uZWN0b3ItY3VydmF0dXJlPSIwIiBzdHlsZT0iZmlsbDojNTliNGQ5IiBkPSJtIDM4LjI4LDI1LjkyNjMgdiAtOC4yNSBoIDQuMTIgdiA4LjI1IGMgMCwxLjQ4IDEuMzIsMi44IDMuNDcsMy40NiBsIDYuOTMsMS40OSBjIDMuNzksMS4xNSA2LjQzLDQuMTIgNi40Myw3LjQyIHYgOS40IGggLTQuMTIgdiAtOS40IGMgMCwtMS40OCAtMS4zMiwtMi44IC0zLjQ3LC0zLjQ2IGwgLTYuOTMsLTEuNDkgYyAtMy43OSwtMS4xNSAtNi40MywtNC4xMiAtNi40MywtNy40MiB6Ii8+JiN4YTsmI3hhOzxwYXRoIGlkPSJwYXRoNjA1NjkiIGlua3NjYXBlOmNvbm5lY3Rvci1jdXJ2YXR1cmU9IjAiIHN0eWxlPSJmaWxsOiM3ZmJhMDAiIGQ9Im0gNTAuMTYsNTEuOTg2MyB2IC03LjU4IGMgMCwtMS44MiAxLjQ4LC0zLjMgMy4zLC0zLjMgaCA3LjU5IGMgMS44MSwwIDMuMywxLjQ4IDMuMywzLjMgdiA3LjU4IGMgMCwxLjgyIC0xLjQ5LDMuMyAtMy4zLDMuMyBoIC03LjU5IGMgLTEuODIsMCAtMy4zLC0xLjQ4IC0zLjMsLTMuMyB6Ii8+JiN4YTsmI3hhOyYjeGE7JiN4YTs8cGF0aCBpZD0icGF0aDYwNTg1IiBpbmtzY2FwZTpjb25uZWN0b3ItY3VydmF0dXJlPSIwIiBzdHlsZT0iZmlsbDojMDA3MmM2IiBkPSJtIDQzLjcyLDEwLjA4NjMgdiA2LjExIGggLTYuMSB2IC02LjExIHogbSAxLjMyLC00LjYyIEggMzYuMyBjIC0xLjgyLDAgLTMuMywxLjQ5IC0zLjMsMy4zIHYgOC43NCBjIDAsMS44MiAxLjQ4LDMuMyAzLjMsMy4zIGggOC43NCBjIDEuODIsMCAzLjMsLTEuNDggMy4zLC0zLjMgdiAtOC43NCBjIDAsLTEuODEgLTEuNDgsLTMuMyAtMy4zLC0zLjMgeiIvPiYjeGE7JiN4YTs8cGF0aCBpZD0icGF0aDYwNTkzIiBpbmtzY2FwZTpjb25uZWN0b3ItY3VydmF0dXJlPSIwIiBzdHlsZT0iZmlsbDojNTliNGQ5IiBkPSJtIDEzLjAzLDY0LjAzNjMgYyAtMi42NCwwLjE2IC01LjI4LC0wLjUgLTcuNDIsLTEuODIgLTEuNDksLTEuMzIgLTIuMTUsLTMuNDYgLTIuMTUsLTYuNTkgdiAtMTcuMTYgYyAwLC0yLjgxIC0xLjE1LC00LjI5IC0zLjQ2LC00LjI5IHYgLTQuMjkgYyAyLjMxLDAgMy40NiwtMS40OSAzLjQ2LC00LjQ2IHYgLTE2LjgzIGMgMCwtMy4xMyAwLjY2LC01LjQ0IDIuMTUsLTYuNzYgQyA3LjA5LDAuNTE2Mjk5OTggOS41NywwLjAxNjI5OTk4IDEzLjAzLDAuMDE2Mjk5OTggViA0LjMwNjMgYyAtMi40NywwIC0zLjc5LDEuMzIgLTMuNzksNC4xMyB2IDE2LjUgYyAwLDMuNzkgLTEuMTYsNi4xIC0zLjYzLDcuMDkgMi4zMSwwLjk5IDMuNjMsMy4zIDMuNjMsNy4xIHYgMTYuMzMgYyAwLDEuMTYgMC4xNiwyLjMxIDAuODIsMy4zIDAuODMsMC42NiAxLjgyLDEuMTYgMi44MSwwLjk5IDAsMCAwLjE2LDQuMjkgMC4xNiw0LjI5IHoiLz4mI3hhOyYjeGE7PHBhdGggaWQ9InBhdGg2MDYwMSIgaW5rc2NhcGU6Y29ubmVjdG9yLWN1cnZhdHVyZT0iMCIgc3R5bGU9ImZpbGw6IzU5YjRkOSIgZD0ibSA2OS40NiwwLjAyNjI5OTk4IGMgMi42NCwtMC4xNyA1LjI4LDAuNDkgNy40MiwxLjgxMDAwMDAyIDEuNDksMS4zMiAyLjE1LDMuNDcgMi4xNSw2LjYgdiAxNy4xNiBjIDAsMi44MSAxLjE1LDQuMjkgMy40Niw0LjI5IHYgNC4yOSBjIC0yLjMxLDAgLTMuNDYsMS40OSAtMy40Niw0LjQ2IHYgMTYuNjYgYyAwLDMuMTQgLTAuNjYsNS40NCAtMi4xNSw2Ljc2IC0xLjQ4LDEuMzIgLTMuOTYsMS45OCAtNy40MiwxLjk4IHYgLTQuMjggYyAyLjQ3LDAgMy43OSwtMS4zMiAzLjc5LC00LjEzIHYgLTE2LjUgYyAwLC0zLjc5IDEuMTYsLTYuMSAzLjYzLC03LjA5IC0yLjMxLC0wLjk5IC0zLjYzLC0zLjMgLTMuNjMsLTcuMSB2IC0xNi4zMyBjIDAsLTEuMTYgLTAuMTYsLTIuMzEgLTAuODIsLTMuMyAtMC44MywtMC42NiAtMS44MiwtMS4xNiAtMi44MSwtMC45OSB6Ii8+JiN4YTs8L3N2Zz4=;" vertex="1" parent="1">
          <mxGeometry x="1540.6799999999998" y="537.27" width="61.15" height="47.73" as="geometry" />
        </mxCell>
        <mxCell id="NkLvIqLFpbnPFktaiqOG-86" value="Publish" style="text;html=1;align=center;verticalAlign=middle;resizable=0;points=[];autosize=1;strokeColor=none;" vertex="1" parent="1">
          <mxGeometry x="1460" y="190" width="60" height="20" as="geometry" />
        </mxCell>
        <mxCell id="NkLvIqLFpbnPFktaiqOG-87" style="edgeStyle=orthogonalEdgeStyle;rounded=0;orthogonalLoop=1;jettySize=auto;html=1;endArrow=block;endFill=1;strokeColor=#009900;strokeWidth=3;entryX=0;entryY=0.5;entryDx=0;entryDy=0;" edge="1" parent="1" target="NkLvIqLFpbnPFktaiqOG-29">
          <mxGeometry relative="1" as="geometry">
            <mxPoint x="1529" y="555.0000000000005" as="sourcePoint" />
            <mxPoint x="1520" y="130" as="targetPoint" />
            <Array as="points">
              <mxPoint x="1380" y="555" />
              <mxPoint x="1380" y="125" />
            </Array>
          </mxGeometry>
        </mxCell>
        <mxCell id="NkLvIqLFpbnPFktaiqOG-88" value="updates" style="edgeLabel;html=1;align=center;verticalAlign=middle;resizable=0;points=[];" vertex="1" connectable="0" parent="NkLvIqLFpbnPFktaiqOG-87">
          <mxGeometry x="-0.8878" y="-4" relative="1" as="geometry">
            <mxPoint x="1" as="offset" />
          </mxGeometry>
        </mxCell>
        <mxCell id="NkLvIqLFpbnPFktaiqOG-89" style="edgeStyle=orthogonalEdgeStyle;rounded=0;orthogonalLoop=1;jettySize=auto;html=1;entryX=1.001;entryY=0.524;entryDx=0;entryDy=0;entryPerimeter=0;" edge="1" parent="1">
          <mxGeometry relative="1" as="geometry">
            <mxPoint x="1615.9999999999995" y="470.00000000000045" as="sourcePoint" />
            <mxPoint x="1629.9299999999998" y="470.00000000000045" as="targetPoint" />
          </mxGeometry>
        </mxCell>
        <mxCell id="NkLvIqLFpbnPFktaiqOG-90" style="edgeStyle=orthogonalEdgeStyle;rounded=0;orthogonalLoop=1;jettySize=auto;html=1;entryX=1.001;entryY=0.524;entryDx=0;entryDy=0;entryPerimeter=0;" edge="1" parent="1">
          <mxGeometry relative="1" as="geometry">
            <mxPoint x="1633" y="558" as="sourcePoint" />
            <mxPoint x="1613.0200000000004" y="558" as="targetPoint" />
          </mxGeometry>
        </mxCell>
        <mxCell id="NkLvIqLFpbnPFktaiqOG-91" value="" style="shape=image;verticalLabelPosition=bottom;labelBackgroundColor=#ffffff;verticalAlign=top;aspect=fixed;imageAspect=0;image=data:image/svg+xml,PHN2ZyB4bWxuczpjYz0iaHR0cDovL2NyZWF0aXZlY29tbW9ucy5vcmcvbnMjIiB4bWxuczpkYz0iaHR0cDovL3B1cmwub3JnL2RjL2VsZW1lbnRzLzEuMS8iIHhtbG5zOmlua3NjYXBlPSJodHRwOi8vd3d3Lmlua3NjYXBlLm9yZy9uYW1lc3BhY2VzL2lua3NjYXBlIiB4bWxuczpyZGY9Imh0dHA6Ly93d3cudzMub3JnLzE5OTkvMDIvMjItcmRmLXN5bnRheC1ucyMiIHhtbG5zOnNvZGlwb2RpPSJodHRwOi8vc29kaXBvZGkuc291cmNlZm9yZ2UubmV0L0RURC9zb2RpcG9kaS0wLmR0ZCIgeG1sbnM6c3ZnPSJodHRwOi8vd3d3LnczLm9yZy8yMDAwL3N2ZyIgeG1sbnM9Imh0dHA6Ly93d3cudzMub3JnLzIwMDAvc3ZnIiB4bWxuczp4bGluaz0iaHR0cDovL3d3dy53My5vcmcvMTk5OS94bGluayIgdmVyc2lvbj0iMS4xIiBpZD0ic3ZnMTM3NDYyIiBpbmtzY2FwZTp2ZXJzaW9uPSIwLjkyLjMgKDI0MDU1NDYsIDIwMTgtMDMtMTEpIiBzb2RpcG9kaTpkb2NuYW1lPSJhcHBsaWNhdGlvbl9zZXJ2ZXJfMi5zdmciIHg9IjBweCIgeT0iMHB4IiB2aWV3Qm94PSIwIDAgNjUuNjIgNzYuODciIHN0eWxlPSJlbmFibGUtYmFja2dyb3VuZDpuZXcgMCAwIDY1LjYyIDc2Ljg3OyIgeG1sOnNwYWNlPSJwcmVzZXJ2ZSI+JiN4YTs8c29kaXBvZGk6bmFtZWR2aWV3IGJvcmRlcmNvbG9yPSIjNjY2NjY2IiBib3JkZXJvcGFjaXR5PSIxIiBmaXQtbWFyZ2luLWJvdHRvbT0iMCIgZml0LW1hcmdpbi1sZWZ0PSIwIiBmaXQtbWFyZ2luLXJpZ2h0PSIwIiBmaXQtbWFyZ2luLXRvcD0iMCIgZ3JpZHRvbGVyYW5jZT0iMTAiIGd1aWRldG9sZXJhbmNlPSIxMCIgaWQ9Im5hbWVkdmlldzEzNzQ2NCIgaW5rc2NhcGU6Y3VycmVudC1sYXllcj0ic3ZnMTM3NDYyIiBpbmtzY2FwZTpjeD0iNDQuMjkzMDczIiBpbmtzY2FwZTpjeT0iNTAuNzA2MzU1IiBpbmtzY2FwZTpwYWdlb3BhY2l0eT0iMCIgaW5rc2NhcGU6cGFnZXNoYWRvdz0iMiIgaW5rc2NhcGU6d2luZG93LWhlaWdodD0iMTAxNyIgaW5rc2NhcGU6d2luZG93LW1heGltaXplZD0iMSIgaW5rc2NhcGU6d2luZG93LXdpZHRoPSIxOTIwIiBpbmtzY2FwZTp3aW5kb3cteD0iLTgiIGlua3NjYXBlOndpbmRvdy15PSItOCIgaW5rc2NhcGU6em9vbT0iOC4zODM3NzE1IiBvYmplY3R0b2xlcmFuY2U9IjEwIiBwYWdlY29sb3I9IiNmZmZmZmYiIHNob3dncmlkPSJmYWxzZSI+JiN4YTsJPC9zb2RpcG9kaTpuYW1lZHZpZXc+JiN4YTs8ZyBpZD0iZzEzNzQ2MCIgdHJhbnNmb3JtPSJ0cmFuc2xhdGUoMC4wNjQ2MzMsMC4wNjQ4ODYyNykiPiYjeGE7CTx0aXRsZSBpZD0idGl0bGUxMzczODkiPlBhZ2UtMTwvdGl0bGU+JiN4YTsJPGcgaWQ9Imdyb3VwODAxMy0xIiB0cmFuc2Zvcm09InRyYW5zbGF0ZSgwLjMxMDM2NywtMC43NSkiPiYjeGE7CQk8dGl0bGUgaWQ9InRpdGxlMTM3MzkxIj5BcHBsaWNhdGlvbiBTZXJ2ZXIgIzI8L3RpdGxlPiYjeGE7CQk8ZyBpZD0iZ3JvdXA4MDE0LTIiIHRyYW5zZm9ybT0idHJhbnNsYXRlKDAsLTQuNSkiPiYjeGE7CQkJPHRpdGxlIGlkPSJ0aXRsZTEzNzM5MyI+U2VydmVyICMyPC90aXRsZT4mI3hhOwkJCTxnIGlkPSJzaGFwZTgwMTUtMyI+JiN4YTsJCQkJPHRpdGxlIGlkPSJ0aXRsZTEzNzM5NSI+U2hlZXQuODAxNTwvdGl0bGU+JiN4YTsJCQkJJiN4YTsJCQkJCTxwYXRoIGlkPSJwYXRoMTM3Mzk3IiBpbmtzY2FwZTpjb25uZWN0b3ItY3VydmF0dXJlPSIwIiBzdHlsZT0iZmlsbDojM0Y1NzY1O3N0cm9rZTojM0Y1NzY1O3N0cm9rZS13aWR0aDowLjc1O3N0cm9rZS1saW5lY2FwOnJvdW5kO3N0cm9rZS1saW5lam9pbjpyb3VuZDtzdHJva2UtbWl0ZXJsaW1pdDozOyIgZD0iICAgICAgTTAsNS41NnY3Mmg0NXYtNzJMMCw1LjU2eiIvPiYjeGE7CQkJPC9nPiYjeGE7CQkJPGcgaWQ9InNoYXBlODAxNi01Ij4mI3hhOwkJCQk8dGl0bGUgaWQ9InRpdGxlMTM3NDAwIj5TaGVldC44MDE2PC90aXRsZT4mI3hhOwkJCQkmI3hhOwkJCQkJPHBhdGggaWQ9InBhdGgxMzc0MDIiIGlua3NjYXBlOmNvbm5lY3Rvci1jdXJ2YXR1cmU9IjAiIHN0eWxlPSJmaWxsOm5vbmU7c3Ryb2tlOiNGRkZGRkY7c3Ryb2tlLXdpZHRoOjAuNjIwNztzdHJva2UtbGluZWNhcDpyb3VuZDtzdHJva2UtbGluZWpvaW46cm91bmQ7c3Ryb2tlLW1pdGVybGltaXQ6MzsiIGQ9IiAgICAgIE0wLDc3LjU2aDQ1di03MkgwVjc3LjU2TDAsNzcuNTYiLz4mI3hhOwkJCTwvZz4mI3hhOwkJCTxnIGlkPSJzaGFwZTgwMTctOCIgdHJhbnNmb3JtPSJ0cmFuc2xhdGUoMzMuNjIzOSwtMzAuNDIxOSkiPiYjeGE7CQkJCTx0aXRsZSBpZD0idGl0bGUxMzc0MDUiPlNoZWV0LjgwMTc8L3RpdGxlPiYjeGE7CQkJCSYjeGE7CQkJCQk8cGF0aCBpZD0icGF0aDEzNzQwNyIgaW5rc2NhcGU6Y29ubmVjdG9yLWN1cnZhdHVyZT0iMCIgc3R5bGU9ImZpbGw6I0ZGRkZGRjtzdHJva2U6I0ZGRkZGRjtzdHJva2Utd2lkdGg6MC43NTtzdHJva2UtbGluZWNhcDpzcXVhcmU7c3Ryb2tlLW1pdGVybGltaXQ6MzsiIGQ9IiAgICAgIE01LjQ2LDc0Ljc5YzAtMS41NC0xLjI0LTIuODEtMi43MS0yLjgxQzEuMjQsNzEuOTgsMCw3My4yNSwwLDc0Ljc5YzAsMS41LDEuMjQsMi43NywyLjc1LDIuNzcgICAgICBDNC4yMiw3Ny41Niw1LjQ2LDc2LjI5LDUuNDYsNzQuNzl6Ii8+JiN4YTsJCQk8L2c+JiN4YTsJCQk8ZyBpZD0ic2hhcGU4MDE4LTEwIiB0cmFuc2Zvcm09InRyYW5zbGF0ZSgxNy4xNTYsLTExLjc2NTYpIj4mI3hhOwkJCQk8dGl0bGUgaWQ9InRpdGxlMTM3NDEwIj5TaGVldC44MDE4PC90aXRsZT4mI3hhOwkJCQk8cGF0aCBpZD0icGF0aDEzNzQxMiIgaW5rc2NhcGU6Y29ubmVjdG9yLWN1cnZhdHVyZT0iMCIgc3R5bGU9ImZpbGw6I0ZGRkZGRjsiIGQ9Ik0wLDc3LjU2aDIxLjkzdi0xLjgzSDBWNzcuNTZ6IE0wLDcyLjA4aDIxLjkzICAgICAgdi0xLjc5SDBWNzIuMDh6IE0wLDY2LjY0aDIxLjkzdi0xLjgzSDBWNjYuNjR6Ii8+JiN4YTsJCQk8L2c+JiN4YTsJCTwvZz4mI3hhOwkJPGcgaWQ9Imdyb3VwODAxOS0xMiIgdHJhbnNmb3JtPSJ0cmFuc2xhdGUoMjQuNzUpIj4mI3hhOwkJCTx0aXRsZSBpZD0idGl0bGUxMzc0MTYiPlNoZWV0LjgwMTk8L3RpdGxlPiYjeGE7CQkJPGcgaWQ9InNoYXBlODAyMC0xMyI+JiN4YTsJCQkJPHRpdGxlIGlkPSJ0aXRsZTEzNzQxOCI+Qml6VGFsayBBZG1pbmlzdHJhdG9yIENvbnNvbGUuMzI0MzwvdGl0bGU+JiN4YTsJCQkJPHBhdGggaWQ9InBhdGgxMzc0MjAiIGlua3NjYXBlOmNvbm5lY3Rvci1jdXJ2YXR1cmU9IjAiIHN0eWxlPSJmaWxsOiMzRjU3NjU7IiBkPSJNMzkuMDUsNTEuNjRIMS40NWMtMC44LDAtMS40NSwwLjY1LTEuNDUsMS40NCAgICAgIHYyMy4wNGMwLDAuNzksMC42NSwxLjQ0LDEuNDUsMS40NGgzNy42YzAuOCwwLDEuNDUtMC42NSwxLjQ1LTEuNDRWNTMuMDhDNDAuNSw1Mi4yOSwzOS44NSw1MS42NCwzOS4wNSw1MS42NHoiLz4mI3hhOwkJCTwvZz4mI3hhOwkJCTxnIGlkPSJzaGFwZTgwMjEtMTUiIHRyYW5zZm9ybT0idHJhbnNsYXRlKDIuNywtMi43KSI+JiN4YTsJCQkJPHRpdGxlIGlkPSJ0aXRsZTEzNzQyMyI+Qml6VGFsayBBZG1pbmlzdHJhdG9yIENvbnNvbGUuMzI0NDwvdGl0bGU+JiN4YTsJCQkJPHJlY3QgaWQ9InJlY3QxMzc0MjUiIHg9IjAiIHk9IjU3LjA0IiBzdHlsZT0iZmlsbDojRkZGRkZGOyIgd2lkdGg9IjM1LjEiIGhlaWdodD0iMjAuNTIiLz4mI3hhOwkJCTwvZz4mI3hhOwkJCTxnIGlkPSJzaGFwZTgwMjItMTciIHRyYW5zZm9ybT0idHJhbnNsYXRlKDcuMDIsLTE0LjU4KSI+JiN4YTsJCQkJPHRpdGxlIGlkPSJ0aXRsZTEzNzQyOCI+U2hlZXQuODAyMjwvdGl0bGU+JiN4YTsJCQkJPHJlY3QgaWQ9InJlY3QxMzc0MzAiIHg9IjAiIHk9IjcxLjYyIiBzdHlsZT0iZmlsbDojOTJDRERDOyIgd2lkdGg9IjYuNDgiIGhlaWdodD0iNS45NCIvPiYjeGE7CQkJPC9nPiYjeGE7CQkJPGcgaWQ9InNoYXBlODAyMy0xOSIgdHJhbnNmb3JtPSJ0cmFuc2xhdGUoMTYuNzQsLTE0LjU4KSI+JiN4YTsJCQkJPHRpdGxlIGlkPSJ0aXRsZTEzNzQzMyI+U2hlZXQuODAyMzwvdGl0bGU+JiN4YTsJCQkJPHJlY3QgaWQ9InJlY3QxMzc0MzUiIHg9IjAiIHk9IjcxLjYyIiBzdHlsZT0iZmlsbDojRjI1MDIyOyIgd2lkdGg9IjcuMDIiIGhlaWdodD0iNS45NCIvPiYjeGE7CQkJPC9nPiYjeGE7CQkJPGcgaWQ9InNoYXBlODAyNC0yMSIgdHJhbnNmb3JtPSJ0cmFuc2xhdGUoMjcsLTE0LjU4KSI+JiN4YTsJCQkJPHRpdGxlIGlkPSJ0aXRsZTEzNzQzOCI+U2hlZXQuODAyNDwvdGl0bGU+JiN4YTsJCQkJPHJlY3QgaWQ9InJlY3QxMzc0NDAiIHg9IjAiIHk9IjcxLjYyIiBzdHlsZT0iZmlsbDojN0ZCQTAwOyIgd2lkdGg9IjYuNDgiIGhlaWdodD0iNS45NCIvPiYjeGE7CQkJPC9nPiYjeGE7CQkJPGcgaWQ9InNoYXBlODAyNS0yMyIgdHJhbnNmb3JtPSJ0cmFuc2xhdGUoNy4wMiwtNS40KSI+JiN4YTsJCQkJPHRpdGxlIGlkPSJ0aXRsZTEzNzQ0MyI+U2hlZXQuODAyNTwvdGl0bGU+JiN4YTsJCQkJPHJlY3QgaWQ9InJlY3QxMzc0NDUiIHg9IjAiIHk9IjcxLjYyIiBzdHlsZT0iZmlsbDojMDBCMDUwOyIgd2lkdGg9IjYuNDgiIGhlaWdodD0iNS45NCIvPiYjeGE7CQkJPC9nPiYjeGE7CQkJPGcgaWQ9InNoYXBlODAyNi0yNSIgdHJhbnNmb3JtPSJ0cmFuc2xhdGUoMTYuNzQsLTUuNCkiPiYjeGE7CQkJCTx0aXRsZSBpZD0idGl0bGUxMzc0NDgiPlNoZWV0LjgwMjY8L3RpdGxlPiYjeGE7CQkJCTxyZWN0IGlkPSJyZWN0MTM3NDUwIiB4PSIwIiB5PSI3MS42MiIgc3R5bGU9ImZpbGw6IzAwQTRFRjsiIHdpZHRoPSI3LjAyIiBoZWlnaHQ9IjUuOTQiLz4mI3hhOwkJCTwvZz4mI3hhOwkJCTxnIGlkPSJzaGFwZTgwMjctMjciIHRyYW5zZm9ybT0idHJhbnNsYXRlKDI3LC01LjQpIj4mI3hhOwkJCQk8dGl0bGUgaWQ9InRpdGxlMTM3NDUzIj5TaGVldC44MDI3PC90aXRsZT4mI3hhOwkJCQk8cmVjdCBpZD0icmVjdDEzNzQ1NSIgeD0iMCIgeT0iNzEuNjIiIHN0eWxlPSJmaWxsOiNGRkI5MDA7IiB3aWR0aD0iNi40OCIgaGVpZ2h0PSI1Ljk0Ii8+JiN4YTsJCQk8L2c+JiN4YTsJCTwvZz4mI3hhOwk8L2c+JiN4YTs8L2c+JiN4YTs8L3N2Zz4=;" vertex="1" parent="1">
          <mxGeometry x="1759" y="480" width="66" height="77" as="geometry" />
        </mxCell>
        <mxCell id="NkLvIqLFpbnPFktaiqOG-92" value="A" style="ellipse;whiteSpace=wrap;html=1;aspect=fixed;fontSize=20;fillColor=#99FF33;" vertex="1" parent="1">
          <mxGeometry x="837" y="57" width="58" height="58" as="geometry" />
        </mxCell>
        <mxCell id="NkLvIqLFpbnPFktaiqOG-93" value="B" style="ellipse;whiteSpace=wrap;html=1;aspect=fixed;fontSize=20;fillColor=#99FF33;" vertex="1" parent="1">
          <mxGeometry x="842" y="302" width="58" height="58" as="geometry" />
        </mxCell>
        <mxCell id="NkLvIqLFpbnPFktaiqOG-94" value="C" style="ellipse;whiteSpace=wrap;html=1;aspect=fixed;fontSize=20;fillColor=#99FF33;" vertex="1" parent="1">
          <mxGeometry x="842" y="690" width="58" height="58" as="geometry" />
        </mxCell>
        <mxCell id="NkLvIqLFpbnPFktaiqOG-95" value="D" style="ellipse;whiteSpace=wrap;html=1;aspect=fixed;fontSize=20;fillColor=#99FF33;" vertex="1" parent="1">
          <mxGeometry x="1862.99" y="62" width="58" height="58" as="geometry" />
        </mxCell>
        <mxCell id="NkLvIqLFpbnPFktaiqOG-96" value="E" style="ellipse;whiteSpace=wrap;html=1;aspect=fixed;fontSize=20;fillColor=#99FF33;" vertex="1" parent="1">
          <mxGeometry x="1862.99" y="398" width="58" height="58" as="geometry" />
        </mxCell>
      </root>
    </mxGraphModel>
  </diagram>
</mxfile>
